<?xml version="1.0" encoding="UTF-8"?>
<svg version="1.1" xmlns="http://www.w3.org/2000/svg" width="512" height="512">
<path d="M0 0 C30.45411221 -0.62151249 53.4100331 12.43948595 74.93359375 32.9609375 C78.69337045 36.64551866 82.10694373 40.53067495 85.42578125 44.6171875 C87.89729878 46.97247029 91.07812885 46.11200876 94.35180664 46.07348633 C99.20754458 46.01970367 104.06324252 45.98490136 108.91918945 45.95629883 C111.01916984 45.94114886 113.11911829 45.92063152 115.21899414 45.89477539 C118.24242925 45.85851976 121.26545028 45.84140214 124.2890625 45.828125 C125.23177505 45.81264114 126.17448761 45.79715729 127.14576721 45.78120422 C128.01684616 45.78097763 128.88792511 45.78075104 129.78540039 45.78051758 C130.55356583 45.77385574 131.32173126 45.76719391 132.11317444 45.7603302 C132.73711594 45.87938217 133.36105743 45.99843414 134.00390625 46.12109375 C136.27345256 49.52541322 136.36940574 51.28633577 136.62890625 55.30859375 C136.70367187 56.39527344 136.7784375 57.48195312 136.85546875 58.6015625 C136.90445312 59.43300781 136.9534375 60.26445313 137.00390625 61.12109375 C137.66390625 61.12109375 138.32390625 61.12109375 139.00390625 61.12109375 C139.69580962 59.95703315 140.38235154 58.78978383 141.06640625 57.62109375 C143.74716467 54.53086387 146.21558369 53.43285469 150.28686523 52.91674805 C163.15089407 52.25170373 173.4543203 59.6709158 183.95703125 66.26831055 C186.00390625 68.12109375 186.00390625 68.12109375 186.91772461 70.55273438 C187.01794144 73.5393664 186.4564261 75.10026611 185.1328125 77.765625 C184.72353516 78.60673828 184.31425781 79.44785156 183.89257812 80.31445312 C183.23612305 81.61092773 183.23612305 81.61092773 182.56640625 82.93359375 C182.13263672 83.81724609 181.69886719 84.70089844 181.25195312 85.61132812 C180.18143814 87.7876498 179.09856766 89.95684436 178.00390625 92.12109375 C178.71933594 91.76015625 179.43476563 91.39921875 180.171875 91.02734375 C187.5478644 87.59221285 194.84819467 85.26005889 203.00390625 87.12109375 C208.06368702 91.02730815 211.07354264 96.64856734 214.31640625 102.05859375 C214.86619141 102.93966797 215.41597656 103.82074219 215.98242188 104.72851562 C218.11475558 108.26474605 219.81729373 111.3701578 220.81640625 115.390625 C219.52145795 119.74239836 216.36368218 121.43639842 212.69140625 123.87109375 C212.00111328 124.35191406 211.31082031 124.83273438 210.59960938 125.328125 C208.74724187 126.61314903 206.8813938 127.87317168 205.00390625 129.12109375 C201.77985647 130.79064194 201.77985647 130.79064194 201.31640625 133.74609375 C201.21328125 134.52984375 201.11015625 135.31359375 201.00390625 136.12109375 C201.67035156 136.10949219 202.33679688 136.09789062 203.0234375 136.0859375 C222.4415866 135.89582975 222.4415866 135.89582975 227.00390625 139.12109375 C227.69140625 141.14453125 227.69140625 141.14453125 228.00390625 143.49609375 C228.74250977 147.61776516 229.7461091 149.3723274 233.00390625 152.12109375 C235.2041879 155.51900889 235.23501285 158.31240194 235.19580078 162.30737305 C235.18984894 163.55934982 235.18389709 164.8113266 235.17776489 166.10124207 C235.17059574 166.76791586 235.16342659 167.43458965 235.15604019 168.12146568 C235.13648348 170.22056538 235.13438357 172.31898588 235.13790894 174.41816711 C235.14757234 180.38513226 235.14824129 186.35143705 235.08300781 192.31811523 C235.04431743 195.97373329 235.04501919 199.62759482 235.07058334 203.28330421 C235.07298217 204.66866948 235.06108932 206.05414275 235.0340004 207.43924522 C234.89838383 214.67186979 234.98387541 219.79411091 239.9284668 225.36108398 C241.27337934 226.62896816 242.6301521 227.88451802 244.00390625 229.12109375 C258.19203055 248.3671417 262.52639469 270.22492411 259.6875 293.7421875 C256.32616143 313.35543487 246.90965251 330.76247436 236.00390625 347.12109375 C235.6956797 349.72605384 235.6956797 349.72605384 235.73266602 352.69067383 C235.7224794 353.8322847 235.71229279 354.97389557 235.70179749 356.15010071 C235.69965744 357.38447372 235.6975174 358.61884674 235.6953125 359.890625 C235.67015051 362.49674701 235.64475252 365.10286675 235.61914062 367.70898438 C235.58837399 371.82361835 235.5661779 375.93827345 235.54760742 380.05297852 C235.52862684 384.01987103 235.4865087 387.98640089 235.4453125 391.953125 C235.44519669 393.18142532 235.44508087 394.40972565 235.44496155 395.67524719 C235.32062702 406.40467416 235.32062702 406.40467416 232.00390625 411.12109375 C227.17381338 415.47995805 224.67285013 416.24373403 218.22192383 416.21533203 C216.7744804 416.21254389 215.32703673 416.2098742 213.8795929 416.20730591 C213.10964808 416.20425571 212.33970325 416.20120552 211.54642677 416.1980629 C207.44952505 416.18669019 203.35273237 416.20725104 199.25585938 416.22265625 C194.05098362 416.24085373 188.84669412 416.2498961 183.6418457 416.22070312 C179.43099432 416.19793064 175.2214183 416.20990086 171.01065636 416.24370956 C169.41818277 416.2504064 167.82560334 416.24500167 166.23322487 416.22635269 C154.31180083 416.09591926 146.53756013 418.53536931 136.00390625 424.12109375 C124.52147986 429.12109375 124.52147986 429.12109375 120.00390625 429.12109375 C120.35453125 430.21421875 120.70515625 431.30734375 121.06640625 432.43359375 C123.03231993 440.51093474 121.78354242 447.84998141 117.97729492 455.15966797 C113.99887139 461.13001035 108.78037415 466.03957644 103.67602539 471.04589844 C101.69046659 472.99701711 99.73017575 474.97116836 97.77148438 476.94921875 C96.50012763 478.21367873 95.22738671 479.47674882 93.953125 480.73828125 C93.37576096 481.32060516 92.79839691 481.90292908 92.20353699 482.50289917 C84.59768562 489.89513546 76.89679591 492.52685474 66.3515625 492.38671875 C56.84645346 491.63252107 50.35210125 485.86416098 44.00390625 479.12109375 C42.02943108 476.32262837 40.21455299 473.49228255 38.42269516 470.57796669 C25.06953738 448.94382672 5.80198572 423.36560211 -19.96730423 416.60385704 C-60.05050311 407.66699202 -105.40308899 412.45632808 -146.03131104 415.14413452 C-147.48482938 415.23543769 -148.93836972 415.32639142 -150.39193344 415.4169693 C-153.07123966 415.58393974 -155.74283383 415.77978839 -158.41943741 415.99303436 C-168.09444582 416.61455834 -168.09444582 416.61455834 -171.7244873 414.27737427 C-175.28637447 410.89631858 -177.82999545 408.08390717 -178.11634827 402.97602844 C-178.11412766 402.14774033 -178.11190704 401.31945221 -178.10961914 400.46606445 C-178.10950584 399.05494133 -178.10950584 399.05494133 -178.10939026 397.61531067 C-178.10422897 396.6027269 -178.09906769 395.59014313 -178.09375 394.546875 C-178.09233505 393.50790573 -178.0909201 392.46893646 -178.08946228 391.39848328 C-178.08386031 388.07682427 -178.07130747 384.75523242 -178.05859375 381.43359375 C-178.053579 379.18294368 -178.04901605 376.93229256 -178.04492188 374.68164062 C-178.03389024 369.16143538 -178.01715018 363.64126936 -177.99609375 358.12109375 C-178.6066713 357.92496994 -179.21724884 357.72884613 -179.84632874 357.52677917 C-180.65122238 357.26423843 -181.45611603 357.00169769 -182.28540039 356.73120117 C-183.08160294 356.47320236 -183.87780548 356.21520355 -184.69813538 355.9493866 C-194.12166812 352.55269984 -202.4596706 345.5615338 -209.99609375 339.12109375 C-210.805625 338.45722656 -211.61515625 337.79335938 -212.44921875 337.109375 C-235.21560828 317.74362541 -247.36453371 289.30470364 -250.99609375 260.12109375 C-251.25676636 256.56123888 -251.40894453 253.00012022 -251.546875 249.43359375 C-251.60963371 247.81964722 -251.60963371 247.81964722 -251.67366028 246.1730957 C-252.16689738 232.06796105 -252.18330431 217.95880772 -252.18139648 203.84667969 C-252.18131506 200.69623089 -252.18830595 197.54592701 -252.2019043 194.39550781 C-252.40443273 146.61687856 -252.40443273 146.61687856 -247.68359375 124.80859375 C-247.46630615 123.77081787 -247.24901855 122.73304199 -247.02514648 121.66381836 C-243.05691944 103.5215133 -234.58017891 87.78888408 -218.99609375 77.12109375 C-199.17150275 64.76223894 -176.34570431 58.26680561 -154.4140625 50.71142578 C-153.29870117 50.32714417 -152.18333984 49.94286255 -151.03417969 49.54693604 C-148.75480088 48.76166721 -146.47534094 47.97663384 -144.19580078 47.1918335 C-118.73421948 38.41843733 -93.51182212 29.18425897 -68.68359375 18.74609375 C-46.7806807 9.54711116 -23.97076808 0.96883157 0 0 Z " fill="#4D34AA" transform="translate(251.99609375,8.87890625)"/>
<path d="M0 0 C0.65481824 -0.00297112 1.30963648 -0.00594224 1.98429769 -0.0090034 C4.17057008 -0.0176502 6.35678746 -0.01919519 8.54307556 -0.02069092 C10.11365881 -0.02532172 11.68424095 -0.03034674 13.25482178 -0.03573608 C17.51498857 -0.04883165 21.77513962 -0.05529879 26.03532338 -0.05974674 C28.69661053 -0.06268038 31.3578934 -0.06678561 34.01917839 -0.07125092 C42.34536693 -0.08491464 50.67154565 -0.09458837 58.99774462 -0.09845281 C68.61099245 -0.10293931 78.22409851 -0.12051928 87.83730322 -0.1494534 C95.26925514 -0.17104709 102.70116708 -0.18115575 110.13315004 -0.18249393 C114.57215005 -0.18354306 119.01101659 -0.18947465 123.4499836 -0.20731354 C127.62213707 -0.22375561 131.79405612 -0.22596868 135.96623039 -0.21717453 C137.49810284 -0.21640223 139.02998771 -0.22077215 140.56182861 -0.23063278 C142.65144503 -0.24329653 144.74022394 -0.23750699 146.82983398 -0.22705078 C147.99954774 -0.22851734 149.16926149 -0.2299839 150.37442112 -0.2314949 C155.19374315 0.37061486 155.19374315 0.37061486 157.35142517 3.14044189 C157.95166331 6.37550402 157.8858013 9.57632347 157.85263062 12.85809326 C157.86093221 14.37171928 157.86093221 14.37171928 157.86940151 15.9159236 C157.88306636 19.31327563 157.8680068 22.70990042 157.85313416 26.10723877 C157.8569152 28.5362835 157.86241346 30.96532608 157.86950684 33.3943634 C157.88205118 39.3166494 157.87586997 45.23874121 157.86083125 51.16100514 C157.84399178 58.05415804 157.8471788 64.94725761 157.85092533 71.84042472 C157.85680721 84.1375764 157.84261957 96.43462576 157.81797791 108.73175049 C157.79405614 120.67091711 157.78697321 132.60994702 157.79747009 144.5491333 C157.80887327 157.54245938 157.81081682 170.53572218 157.796372 183.52904749 C157.79484612 184.91392167 157.79332576 186.29879585 157.79181099 187.68367004 C157.79105318 188.36509818 157.79029536 189.04652632 157.78951458 189.74860379 C157.7847671 194.55626359 157.78662647 199.36389519 157.79087639 204.17155457 C157.7963107 210.63937749 157.78558536 217.10705265 157.76392174 223.57484245 C157.75834022 225.95371293 157.75790099 228.33260163 157.7628746 230.71147346 C157.76879593 233.94879264 157.75638269 237.18552442 157.73910522 240.42279053 C157.74812029 241.84820955 157.74812029 241.84820955 157.75731748 243.30242491 C157.74887754 244.16694666 157.7404376 245.03146842 157.73174191 245.92218781 C157.73071278 246.6697498 157.72968365 247.41731179 157.72862333 248.18752718 C157.24522362 250.69029233 156.30576007 251.55515722 154.35142517 253.14044189 C125.64387414 267.49421741 55.26357757 261.58040404 24.9294281 252.32928467 C1.55345052 244.22834524 -18.48582255 226.51691757 -29.60595894 204.4092741 C-48.69202913 162.22178305 -41.05227152 104.35004631 -38.58998108 59.39434814 C-38.5231909 58.14380241 -38.5231909 58.14380241 -38.45505142 56.86799312 C-38.19531814 52.07880056 -37.89961568 47.29410434 -37.55029285 42.51058269 C-37.44765973 41.07547433 -37.35260755 39.63979774 -37.26621544 38.2036202 C-36.50038412 25.8633269 -33.1525117 15.33745463 -23.86341858 6.76153564 C-16.77607314 1.57414877 -8.61130552 0.02189209 0 0 Z " fill="#A9CEE2" transform="translate(320.64857482910156,162.85955810546875)"/>
<path d="M0 0 C30.45411221 -0.62151249 53.4100331 12.43948595 74.93359375 32.9609375 C88.82256197 46.57212635 88.82256197 46.57212635 89.13916016 51.0222168 C89.08679199 51.71871338 89.03442383 52.41520996 88.98046875 53.1328125 C88.92890625 53.89013672 88.87734375 54.64746094 88.82421875 55.42773438 C88.75976562 56.21341797 88.6953125 56.99910156 88.62890625 57.80859375 C88.5721875 58.60587891 88.51546875 59.40316406 88.45703125 60.22460938 C88.31574597 62.19082956 88.16110719 64.15608199 88.00390625 66.12109375 C85.05264367 63.31981337 82.81779204 61.00001554 81.12890625 57.30859375 C79.2234316 54.61115621 78.14668495 54.15589606 74.87890625 53.359375 C63.77976779 52.65411724 56.84221116 56.89286297 48.00390625 63.12109375 C46.19323285 64.31137706 44.38105795 65.49938443 42.56640625 66.68359375 C41.37633186 67.49231833 40.18761659 68.30308254 39.00390625 69.12109375 C39.64850729 75.06063189 41.98582197 79.58200266 44.65234375 84.81835938 C47.10672791 89.81262878 47.10672791 89.81262878 46.00390625 93.12109375 C45.39546875 92.76015625 44.78703125 92.39921875 44.16015625 92.02734375 C37.30129516 88.39618199 28.90162714 84.80399153 21.06445312 86.92578125 C13.40019648 91.37177658 7.70514044 103.96565167 5.00390625 112.12109375 C5.13795277 115.21717235 5.42081771 116.55100704 7.64624023 118.72680664 C8.34048096 119.17789795 9.03472168 119.62898926 9.75 120.09375 C10.88211914 120.85461914 10.88211914 120.85461914 12.03710938 121.63085938 C12.83052734 122.14326172 13.62394531 122.65566406 14.44140625 123.18359375 C16.00799382 124.20795019 17.56943634 125.24022914 19.125 126.28125 C20.16805298 126.95619507 20.16805298 126.95619507 21.23217773 127.64477539 C23.2621383 129.33626934 24.14210216 130.62891495 25.00390625 133.12109375 C24.67390625 134.11109375 24.34390625 135.10109375 24.00390625 136.12109375 C15.42390625 137.11109375 6.84390625 138.10109375 -1.99609375 139.12109375 C-2.65609375 141.43109375 -3.31609375 143.74109375 -3.99609375 146.12109375 C-10.22153708 146.29519189 -16.44553898 146.42165686 -22.67285156 146.50561523 C-24.78736073 146.54064184 -26.90170252 146.58827976 -29.015625 146.64916992 C-50.0965063 147.24082673 -50.0965063 147.24082673 -57.09521484 140.94995117 C-58.0361499 140.04466675 -58.0361499 140.04466675 -58.99609375 139.12109375 C-77.17065321 127.13667689 -98.94881092 121.72524783 -120.52124023 121.86035156 C-122.5593832 121.87109791 -124.59664876 121.86038072 -126.63476562 121.84765625 C-134.02453479 121.86212472 -140.82968264 122.32100389 -147.99609375 124.12109375 C-149.18074219 124.36988281 -150.36539063 124.61867188 -151.5859375 124.875 C-171.03597199 129.57296632 -188.14448147 139.38508711 -202.734375 153.01171875 C-204.77191947 154.91201929 -206.86166395 156.70675141 -208.99609375 158.49609375 C-226.86569823 174.17244697 -239.58557955 195.3311725 -245.99609375 218.12109375 C-246.2178125 218.90355469 -246.43953125 219.68601563 -246.66796875 220.4921875 C-248.51032245 227.87555951 -249.12570616 235.57464816 -249.99609375 243.12109375 C-250.32609375 243.12109375 -250.65609375 243.12109375 -250.99609375 243.12109375 C-252.26846888 235.26663642 -252.16013137 227.40262116 -252.1640625 219.46875 C-252.16728641 217.92581656 -252.17065127 216.38288341 -252.17414856 214.83995056 C-252.18012255 211.60301001 -252.18199079 208.36609606 -252.18139648 205.12915039 C-252.18131598 201.86249157 -252.18813705 198.59597523 -252.2019043 195.3293457 C-252.40385849 146.61422582 -252.40385849 146.61422582 -247.68359375 124.80859375 C-247.46630615 123.77081787 -247.24901855 122.73304199 -247.02514648 121.66381836 C-243.05691944 103.5215133 -234.58017891 87.78888408 -218.99609375 77.12109375 C-199.17150275 64.76223894 -176.34570431 58.26680561 -154.4140625 50.71142578 C-153.29870117 50.32714417 -152.18333984 49.94286255 -151.03417969 49.54693604 C-148.75480088 48.76166721 -146.47534094 47.97663384 -144.19580078 47.1918335 C-118.73421948 38.41843733 -93.51182212 29.18425897 -68.68359375 18.74609375 C-46.7806807 9.54711116 -23.97076808 0.96883157 0 0 Z " fill="#78A0E7" transform="translate(251.99609375,8.87890625)"/>
<path d="M0 0 C12.88894259 11.77318338 22.24201074 25.73854679 27.6171875 42.390625 C27.92269531 43.29683594 28.22820312 44.20304687 28.54296875 45.13671875 C35.96993615 68.26239449 32.25125842 95.22581256 21.5390625 116.6796875 C17.21562308 124.89757391 12.24671457 131.82634918 5.6171875 138.390625 C4.7921875 139.256875 3.9671875 140.123125 3.1171875 141.015625 C2.2921875 141.799375 1.4671875 142.583125 0.6171875 143.390625 C0.02035156 143.98230469 -0.57648438 144.57398438 -1.19140625 145.18359375 C-13.3588275 156.72589978 -29.23075713 163.52765212 -45.3828125 167.390625 C-46.11113281 167.596875 -46.83945313 167.803125 -47.58984375 168.015625 C-70.85613936 173.88313212 -95.49454222 167.01863074 -115.7578125 155.453125 C-138.24288842 141.21634326 -153.88202074 119.43108419 -160.06640625 93.52734375 C-161.39865641 86.44344809 -161.58233012 79.3896525 -161.6328125 72.203125 C-161.6421582 71.28869629 -161.65150391 70.37426758 -161.66113281 69.43212891 C-161.54145156 43.8893888 -149.38663451 20.89067518 -132.1953125 2.703125 C-95.80427136 -32.41014081 -37.97186369 -32.35863167 0 0 Z " fill="#FCFCFD" transform="translate(194.3828125,175.609375)"/>
<path d="M0 0 C0.6576405 -0.00085442 1.315281 -0.00170885 1.99285001 -0.00258917 C4.18847324 -0.00423152 6.38401946 0.00125694 8.57963562 0.00672913 C10.15670775 0.00701129 11.73378 0.00685269 13.31085205 0.00628662 C17.58729061 0.0059998 21.8637011 0.011878 26.14013314 0.01886058 C30.61111067 0.0251132 35.08208884 0.02569943 39.55307007 0.02688599 C48.01732594 0.02999366 56.48156889 0.03819948 64.94581908 0.04823548 C74.58299295 0.05941408 84.22016744 0.06491147 93.85734618 0.06993091 C113.67974088 0.08038255 133.50212396 0.0979711 153.32450867 0.12025452 C153.32450867 11.42230202 141.78454037 22.64050783 134.65287781 30.58094788 C114.88566427 49.96117428 89.06801203 48.55139179 62.88221741 48.30717468 C43.00509792 48.01533465 23.16640014 47.34262183 3.32450867 46.12025452 C2.942321 47.77640109 2.61055765 49.44482476 2.32450867 51.12025452 C4.4938665 53.28961235 9.60143065 52.30693959 12.61772156 52.32557678 C13.59322464 52.33547638 14.56872772 52.34537598 15.5737915 52.35557556 C18.81489085 52.387294 22.05600488 52.4119887 25.29716492 52.43666077 C27.53776441 52.45722137 29.77835994 52.47821759 32.01895142 52.49963379 C37.9290599 52.55494676 43.83920391 52.60431521 49.74937439 52.65248108 C55.77510253 52.70262892 61.80077879 52.75834996 67.82646179 52.81361389 C79.65909981 52.92130823 91.49178279 53.02272799 103.32450867 53.12025452 C101.8839878 54.83798902 100.43203538 56.54273986 98.95834637 58.23220539 C97.60330009 59.79808549 96.29324193 61.40276529 94.99560547 63.01654053 C91.22164527 65.98885245 88.26816193 65.82926864 83.58695984 65.77967834 C82.71816193 65.79016205 81.84936401 65.80064575 80.95423889 65.81144714 C78.09162081 65.84017583 75.23021371 65.83390824 72.36747742 65.82728577 C70.37920619 65.84040213 68.3909483 65.85570616 66.40270996 65.87310791 C61.17645751 65.91297793 55.95055347 65.92314967 50.72416687 65.92713928 C45.38836586 65.9364669 40.05276988 65.97387815 34.71708679 66.00892639 C24.25290368 66.07352272 13.78887371 66.10674607 3.32450867 66.12025452 C2.942321 67.77640109 2.61055765 69.44482476 2.32450867 71.12025452 C4.28797586 73.08372171 8.09678099 72.30481898 10.78178406 72.32557678 C11.95243156 72.34042618 11.95243156 72.34042618 13.14672852 72.35557556 C15.73850929 72.38728227 18.33030844 72.41198402 20.92216492 72.43666077 C22.71436045 72.45722239 24.50655104 72.47821864 26.29873657 72.49963379 C31.02516187 72.55493628 35.75163152 72.60430935 40.47813416 72.65248108 C45.29740871 72.70263656 50.11661854 72.75835363 54.93583679 72.81361389 C64.39867218 72.92129541 73.86156366 73.02271803 83.32450867 73.12025452 C82.4314921 74.18512307 81.53491397 75.24700493 80.63700867 76.30775452 C80.13814148 76.8994342 79.63927429 77.49111389 79.12528992 78.10072327 C78.5310321 78.76716858 77.93677429 79.43361389 77.32450867 80.12025452 C76.57353409 81.01028671 75.82255951 81.90031891 75.04882812 82.81732178 C71.62148129 85.71454046 69.86662146 85.75530691 65.42289734 85.77967834 C64.74917084 85.79016205 64.07544434 85.80064575 63.38130188 85.81144714 C61.16788679 85.8401093 58.95604416 85.8339171 56.74247742 85.82728577 C55.20260669 85.84040637 53.66275316 85.85571172 52.1229248 85.87310791 C48.0803264 85.91292936 44.0381785 85.92314642 39.9954071 85.92713928 C35.86603657 85.93647624 31.73693013 85.97389321 27.60771179 86.00892639 C19.51330585 86.073473 11.41915992 86.10673692 3.32450867 86.12025452 C2.64492264 88.51744884 2.64492264 88.51744884 2.32450867 91.12025452 C4.96241601 93.75816185 6.19299949 93.39127388 9.8757782 93.43910217 C11.03683075 93.45897186 12.1978833 93.47884155 13.39411926 93.49931335 C14.65247589 93.51086456 15.91083252 93.52241577 17.20732117 93.53431702 C18.49186188 93.55368317 19.77640259 93.57304932 21.09986877 93.59300232 C24.51598402 93.64439393 27.93213874 93.68398166 31.34843445 93.72114563 C34.83404866 93.76114149 38.3194977 93.81225389 41.80497742 93.86244202 C48.64470057 93.95928427 55.48452962 94.04366232 62.32450867 94.12025452 C61.41003021 95.20543562 60.49280459 96.28830189 59.57450867 97.37025452 C59.06403992 97.97353577 58.55357117 98.57681702 58.02763367 99.19837952 C57.46560242 99.83259827 56.90357117 100.46681702 56.32450867 101.12025452 C55.70150879 101.84633911 55.07850891 102.57242371 54.43663025 103.32051086 C51.85940294 105.51657218 50.62740182 105.6323465 47.28056335 105.66615295 C45.77946014 105.6957309 45.77946014 105.6957309 44.24803162 105.72590637 C42.63846588 105.72774933 42.63846588 105.72774933 40.99638367 105.72962952 C39.34016998 105.7544339 39.34016998 105.7544339 37.65049744 105.77973938 C34.12511178 105.82831078 30.60015778 105.84961142 27.07450867 105.87025452 C24.68386184 105.89840642 22.29323521 105.92833274 19.90263367 105.96009827 C14.04333727 106.03407221 8.18416273 106.08566117 2.32450867 106.12025452 C2.15763419 108.53671233 2.15763419 108.53671233 2.32450867 111.12025452 C5.33935643 114.13510228 8.78349577 113.47734308 12.83232117 113.53431702 C13.67294098 113.55368317 14.51356079 113.57304932 15.37965393 113.59300232 C18.0695017 113.6528711 20.7593921 113.69921223 23.44950867 113.74525452 C25.27114211 113.78342762 27.09275737 113.82247895 28.91435242 113.86244202 C33.38425719 113.95857849 37.85424646 114.04258221 42.32450867 114.12025452 C40.86135127 115.85653463 39.38939868 117.58348828 37.90089417 119.29814148 C36.69742476 120.68920813 35.51903846 122.10201481 34.3523407 123.52406311 C31.50865788 125.76244479 29.46586942 125.63344793 25.87919617 125.65931702 C24.63782898 125.68252014 23.39646179 125.70572327 22.11747742 125.72962952 C20.17808289 125.73736389 20.17808289 125.73736389 18.19950867 125.74525452 C15.63430709 125.77067772 13.06916825 125.80411197 10.50419617 125.84681702 C9.36708191 125.85277893 8.22996765 125.85874084 7.05839539 125.86488342 C4.17874157 125.84050314 4.17874157 125.84050314 2.32450867 128.12025452 C2.32450867 129.77025452 2.32450867 131.42025452 2.32450867 133.12025452 C12.22450867 133.61525452 12.22450867 133.61525452 22.32450867 134.12025452 C18.66683622 138.38753904 15.18320461 142.38552338 11.23710632 146.32118225 C10.76805878 146.79037582 10.29901123 147.2595694 9.81575012 147.74298096 C8.29238654 149.26565783 6.76553189 150.78477946 5.23857117 152.30384827 C4.17075522 153.36979561 3.10316245 154.43596657 2.03578186 155.50234985 C-0.75341451 158.28775591 -3.54560234 161.07014381 -6.3384552 163.85188293 C-9.19612708 166.69926516 -12.05091636 169.54953437 -14.90596008 172.39955139 C-20.49300975 177.97592533 -26.08322767 183.54910946 -31.67549133 189.12025452 C-32.99549133 188.46025452 -34.31549133 187.80025452 -35.67549133 187.12025452 C-35.81590017 166.20542548 -35.9215791 145.2906746 -35.98636436 124.37546921 C-36.01725021 114.66328386 -36.05932946 104.95139204 -36.12812805 95.23939514 C-36.18809201 86.77047974 -36.22667876 78.301777 -36.2400223 69.83265519 C-36.24781745 65.35175373 -36.26602638 60.87146046 -36.30987167 56.3907547 C-36.35088215 52.16513894 -36.36310373 47.94037642 -36.35413742 43.71458054 C-36.35577547 42.17151868 -36.36754088 40.62842551 -36.39072418 39.08553696 C-36.56389668 26.9560516 -34.09537066 17.85767198 -25.92549133 8.62025452 C-18.69522551 1.94509548 -9.58555935 -0.00751809 0 0 Z " fill="#D6EBF8" transform="translate(320.6754913330078,162.87974548339844)"/>
<path d="M0 0 C13.19160255 10.27021601 22.38876931 24.48371728 25.96484375 40.8984375 C28.17172935 59.47963992 25.76668592 76.67878652 14.90234375 92.1484375 C13.60861815 93.74714784 12.2982419 95.33266291 10.96484375 96.8984375 C10.50851563 97.52492188 10.0521875 98.15140625 9.58203125 98.796875 C0.64600485 110.62239496 -15.08593414 117.70229706 -29.23828125 120.390625 C-48.84530403 123.01296344 -66.32619586 119.21935112 -82.22265625 107.0859375 C-95.40177428 96.05468206 -105.14713807 81.24350174 -107.03515625 63.8984375 C-107.73885656 51.83657432 -108.04892896 40.11973833 -103.03515625 28.8984375 C-102.56078125 27.8259375 -102.08640625 26.7534375 -101.59765625 25.6484375 C-93.27474169 8.68249627 -78.44640947 -4.04934154 -60.63671875 -10.29296875 C-39.35156762 -16.69636327 -18.20506113 -12.60530616 0 0 Z " fill="#F8CF15" transform="translate(170.03515625,194.1015625)"/>
<path d="M0 0 C6.27 0 12.54 0 19 0 C19.18175781 1.62550781 19.36351562 3.25101562 19.55078125 4.92578125 C19.80400879 7.05476834 20.05795226 9.18367036 20.3125 11.3125 C20.48942383 12.9202832 20.48942383 12.9202832 20.66992188 14.56054688 C20.85844727 16.10258789 20.85844727 16.10258789 21.05078125 17.67578125 C21.16075439 18.62364502 21.27072754 19.57150879 21.3840332 20.5480957 C22.07141751 23.28428301 22.79935172 24.28612311 25 26 C26.86096562 26.78133618 26.86096562 26.78133618 28.875 27.1875 C29.86113281 27.42533203 29.86113281 27.42533203 30.8671875 27.66796875 C33.3601237 28.05606321 35.4782984 28.23167322 38 28 C39.74911973 26.5921387 39.74911973 26.5921387 41.078125 24.5703125 C41.59890625 23.85746094 42.1196875 23.14460938 42.65625 22.41015625 C43.1821875 21.65605469 43.708125 20.90195313 44.25 20.125 C45.06210937 19.00544922 45.06210937 19.00544922 45.890625 17.86328125 C48.66179072 14.06477033 48.66179072 14.06477033 51 10 C55.42323682 10.58265272 58.5155864 12.26766211 62.3125 14.5625 C63.38113281 15.20316406 64.44976562 15.84382813 65.55078125 16.50390625 C66.35902344 16.99761719 67.16726563 17.49132812 68 18 C67.27535808 23.30723662 64.82472871 27.75811938 62.43945312 32.47265625 C59.9740651 37.52481231 59.9740651 37.52481231 60 43 C61.23258928 45.05714209 61.23258928 45.05714209 63.0625 46.75 C63.91521484 47.63945313 63.91521484 47.63945313 64.78515625 48.546875 C67.95798773 50.62852105 70.20537135 50.92127326 74 51 C76.88464027 50.12998996 79.50264853 48.85629116 82.1875 47.5 C89.3622185 43.93582774 89.3622185 43.93582774 92.09399414 44.21069336 C95.43228523 45.59313157 96.63576942 49.00442984 98.25 52.0625 C98.61351562 52.72572266 98.97703125 53.38894531 99.3515625 54.07226562 C100.24616748 55.70845105 101.12466067 57.35342724 102 59 C98.36364015 62.85550018 94.58308152 65.86741138 90.1875 68.8125 C89.59001953 69.21919922 88.99253906 69.62589844 88.37695312 70.04492188 C86.92125436 71.03479703 85.46108826 72.01809735 84 73 C84.08786703 74.73007151 84.19605674 76.45911665 84.3125 78.1875 C84.39951172 79.63189453 84.39951172 79.63189453 84.48828125 81.10546875 C85.1211801 84.68545382 85.4321545 86.3577242 88 89 C91.6977963 89.92532941 95.39010848 90.11414664 99.1875 90.3125 C100.74114258 90.42174805 100.74114258 90.42174805 102.32617188 90.53320312 C104.88348421 90.70997587 107.44021448 90.86467396 110 91 C110 91.33 110 91.66 110 92 C100.19486844 92.20873283 90.39026701 92.36854402 80.58336449 92.46630955 C76.02922353 92.51323909 71.47660466 92.57686073 66.92333984 92.67895508 C62.52710714 92.77690899 58.13233585 92.83058951 53.73509598 92.85389519 C52.05958671 92.87049726 50.3841556 92.90292123 48.70927048 92.95157051 C35.52782915 93.31913724 35.52782915 93.31913724 31.70928955 90.02218628 C30.11181641 87.59741211 30.11181641 87.59741211 29.00039673 85.17588806 C27.08005329 80.99909276 23.30242786 79.49841513 19.203125 77.9296875 C12.01005145 75.84194176 4.43988788 75.90985749 -2.4375 79 C-7.85266539 82.07800118 -11.24271625 86.4854325 -14 92 C-14.73001221 92.0093457 -15.46002441 92.01869141 -16.2121582 92.02832031 C-19.57957643 92.08262063 -22.945693 92.16614882 -26.3125 92.25 C-27.46041016 92.26417969 -28.60832031 92.27835937 -29.79101562 92.29296875 C-42.86416662 92.66331297 -52.74535941 96.42462793 -61.85546875 105.9375 C-63.84683148 108.20793732 -65.64656104 110.29312207 -67 113 C-67.99 113 -68.98 113 -70 113 C-70.95213874 111.60579684 -71.89634407 110.20542451 -72.796875 108.77734375 C-77.91613794 101.21479623 -84.81307199 97.67000221 -93 94 C-92.67 93.01 -92.34 92.02 -92 91 C-91.31897217 90.95512451 -90.63794434 90.91024902 -89.9362793 90.86401367 C-86.85218365 90.65275983 -83.77003438 90.4203863 -80.6875 90.1875 C-79.61564453 90.11724609 -78.54378906 90.04699219 -77.43945312 89.97460938 C-75.89741211 89.85375977 -75.89741211 89.85375977 -74.32421875 89.73046875 C-73.37635498 89.66239014 -72.42849121 89.59431152 -71.4519043 89.52416992 C-68.62284959 88.9193725 -67.69617378 88.31260035 -66 86 C-64.493816 81.16435663 -63.74531061 77.0937879 -64 72 C-64.51175781 71.77183594 -65.02351563 71.54367188 -65.55078125 71.30859375 C-68.95585432 69.48929633 -72.04179373 67.29379421 -75.1875 65.0625 C-75.82880859 64.61970703 -76.47011719 64.17691406 -77.13085938 63.72070312 C-81.88188364 60.35434908 -81.88188364 60.35434908 -83 57 C-81.81511013 54.51319409 -80.59340442 52.23006832 -79.1875 49.875 C-78.81818359 49.22917969 -78.44886719 48.58335938 -78.06835938 47.91796875 C-75.27817358 43.13908679 -75.27817358 43.13908679 -73 42 C-71.1081543 42.71264648 -71.1081543 42.71264648 -68.82421875 43.87109375 C-67.58188477 44.48500977 -67.58188477 44.48500977 -66.31445312 45.11132812 C-64.57406052 45.98993525 -62.83446548 46.87012414 -61.09570312 47.75195312 C-59.84756836 48.36780273 -59.84756836 48.36780273 -58.57421875 48.99609375 C-57.81713623 49.37950928 -57.06005371 49.7629248 -56.2800293 50.15795898 C-53.67022492 51.12178973 -51.76206049 51.25700242 -49 51 C-46.64217868 49.54349176 -46.64217868 49.54349176 -44.625 47.4375 C-43.91601562 46.77621094 -43.20703125 46.11492187 -42.4765625 45.43359375 C-40.70819667 43.00455126 -40.70819667 43.00455126 -41.046875 39.703125 C-42.29318512 34.86090372 -44.35485628 30.75825385 -46.6484375 26.34179688 C-47.89677879 23.83232392 -48.95843538 21.63020948 -49.14453125 18.80859375 C-47.22474265 15.77493463 -44.14522276 14.39982189 -41.0625 12.75 C-40.41603516 12.38648437 -39.76957031 12.02296875 -39.10351562 11.6484375 C-34.30944549 9 -34.30944549 9 -32 9 C-30.484375 11.125 -30.484375 11.125 -28.75 14 C-28.12222656 14.99515625 -27.49445313 15.9903125 -26.84765625 17.015625 C-25.71849661 18.83946848 -24.61513799 20.68002718 -23.55859375 22.546875 C-22.17621029 24.76814074 -21.07544862 26.40134363 -19 28 C-15.44388372 28.49326774 -12.4481813 27.89226728 -9 27 C-8.01 26.814375 -7.02 26.62875 -6 26.4375 C-2.83847638 24.1651549 -2.70830443 20.64575294 -2 17 C-1.54110769 14.00712513 -1.19357504 11.01068297 -0.875 8 C-0.58625 5.36 -0.2975 2.72 0 0 Z " fill="#FDFDFD" transform="translate(349,63)"/>
<path d="M0 0 C2.21948263 1.03047408 3.91273771 1.91596964 5.6875 3.625 C9.2317134 5.73237013 12.96860681 5.57167086 17 5 C17.99 4.34 18.98 3.68 20 3 C23.79344475 3.24473837 25.53580477 5.27178385 28 8 C26.99471631 10.01507538 25.98577992 12.02795722 24.96484375 14.03515625 C24.45630859 15.03869141 24.45630859 15.03869141 23.9375 16.0625 C23.42509766 17.06990234 23.42509766 17.06990234 22.90234375 18.09765625 C20.02490626 24.16394221 19.97673776 30.5011033 21.84765625 36.8984375 C25.5312665 45.30202541 31.57805485 51.07394874 38.1484375 57.26171875 C39.08945313 58.16535156 40.03046875 59.06898438 41 60 C41 60.33 41 60.66 41 61 C22.94577562 61.09340641 4.89161388 61.16396101 -13.16279984 61.20724869 C-21.54562707 61.2278814 -29.92830424 61.2560154 -38.31103516 61.30175781 C-45.61671286 61.34160405 -52.9222819 61.36742766 -60.22806525 61.37635398 C-64.09712915 61.38157254 -67.96588216 61.39385233 -71.8348465 61.42292023 C-75.47593643 61.45005465 -79.11658719 61.45844918 -82.75776863 61.45243073 C-84.73230207 61.45405722 -86.70678759 61.4755904 -88.68119812 61.49768066 C-90.44379723 61.48943268 -90.44379723 61.48943268 -92.24200439 61.48101807 C-93.26335102 61.48470524 -94.28469765 61.48839241 -95.33699417 61.49219131 C-98.7101974 60.86873743 -99.89239708 59.64954421 -102 57 C-102.48101807 54.92449951 -102.48101807 54.92449951 -102.45410156 52.69042969 C-102.45379944 51.84986023 -102.45349731 51.00929077 -102.45318604 50.14324951 C-102.43254089 49.24519592 -102.41189575 48.34714233 -102.390625 47.421875 C-102.38496521 46.4953009 -102.37930542 45.56872681 -102.37347412 44.61407471 C-102.35110921 41.65885438 -102.30091262 38.70485295 -102.25 35.75 C-102.22993515 33.7448092 -102.21168435 31.73959936 -102.1953125 29.734375 C-102.151244 24.82244806 -102.08221555 19.91143058 -102 15 C-95.80257856 15.92616473 -89.62626758 16.85842702 -83.484375 18.10546875 C-77.40342411 19.22720824 -71.42112591 19.34399931 -65.25 19.3125 C-63.53321045 19.30512817 -63.53321045 19.30512817 -61.78173828 19.29760742 C-53.14752769 19.17831657 -45.33880339 18.36075713 -37 16 C-35.08960938 15.48953125 -35.08960938 15.48953125 -33.140625 14.96875 C-21.90442523 11.81071143 -9.08582252 7.54029601 0 0 Z " fill="#D5EAF8" transform="translate(185,356)"/>
<path d="M0 0 C5.19193297 -0.14990034 10.38256856 -0.25793417 15.57617188 -0.32958984 C17.33746316 -0.3595022 19.0986089 -0.40024866 20.859375 -0.45263672 C34.67626135 -0.8530124 44.08596876 0.79234026 55 10 C56.73046875 12.1484375 56.73046875 12.1484375 58.1875 14.375 C58.67605469 15.10460937 59.16460937 15.83421875 59.66796875 16.5859375 C62.38088326 21.50259781 63.24973673 25.90927649 63.24050903 31.49203491 C63.24325836 32.77923431 63.24600769 34.06643372 63.24884033 35.39263916 C63.2417634 36.8065195 63.2344938 38.22039888 63.22705078 39.63427734 C63.22648625 41.13268018 63.22680405 42.63108357 63.22793579 44.12948608 C63.22850865 48.18690136 63.21676511 52.24419793 63.20278788 56.30158567 C63.19026945 60.54566563 63.18910914 64.78974843 63.18673706 69.03384399 C63.18052556 77.06601175 63.16411921 85.09812494 63.14403808 93.13026869 C63.12166881 102.27653811 63.11068306 111.42281017 63.10064721 120.56910014 C63.07975269 139.37943101 63.04458313 158.18971111 63 177 C62.31292969 176.65066406 61.62585938 176.30132812 60.91796875 175.94140625 C60.01691406 175.48636719 59.11585938 175.03132812 58.1875 174.5625 C56.84751953 173.88380859 56.84751953 173.88380859 55.48046875 173.19140625 C51.49450699 171.27688919 48.78431216 171.01204268 44.40014648 171.26855469 C35.3409807 171.71703843 35.3409807 171.71703843 31.35546875 169.5859375 C29.46038985 167.77191086 28.08421815 166.39208667 27 164 C27.31366761 161.67971908 27.95421685 160.0915663 29 158 C29.56840548 154.88668819 29.63998791 152.10567777 29 149 C27.3214317 146.69350762 25.53916689 144.84274874 23.43359375 142.921875 C22 141 22 141 22.109375 138.69140625 C23.1843546 135.44289333 24.46607155 132.33371129 25.8125 129.1875 C38.11780644 99.50367922 36.80745592 66.53307434 25 37 C19.34569992 24.13188466 11.25112516 13.14056309 1.6875 2.8984375 C0 1 0 1 0 0 Z " fill="#D6EAF8" transform="translate(213,163)"/>
<path d="M0 0 C1.45713074 -0.01143037 2.91422264 -0.03173764 4.37109375 -0.06152344 C29.40126032 -0.57141303 52.34548284 9.15281191 71.2722168 25.29516602 C72.2828418 26.05829102 73.2934668 26.82141602 74.3347168 27.60766602 C78.85061658 31.7392339 82.52985246 36.46482886 86.2722168 41.29516602 C86.89483398 42.09051758 87.51745117 42.88586914 88.15893555 43.70532227 C95.3983251 53.45002866 100.16216733 64.60490914 103.2722168 76.29516602 C103.6434668 77.34704102 104.0147168 78.39891602 104.3972168 79.48266602 C111.61971944 102.69785308 106.00794221 131.98685697 95.28149414 153.26000977 C91.33452886 160.44684817 86.45987875 166.96906454 81.2722168 173.29516602 C80.5297168 174.28516602 79.7872168 175.27516602 79.0222168 176.29516602 C75.08554031 180.95464212 70.07041864 184.57769891 65.2722168 188.29516602 C64.07918945 189.2290918 64.07918945 189.2290918 62.86206055 190.18188477 C44.60349502 203.74626149 22.43569124 209.3873366 0.0222168 209.54516602 C-1.50520142 209.55930542 -1.50520142 209.55930542 -3.06347656 209.57373047 C-9.23847108 209.54702942 -14.76717174 208.86744764 -20.7277832 207.29516602 C-21.91500977 207.03477539 -23.10223633 206.77438477 -24.32543945 206.50610352 C-34.24706711 204.11238501 -42.82614556 200.24916315 -51.7277832 195.29516602 C-52.70489258 194.76149414 -53.68200195 194.22782227 -54.6887207 193.67797852 C-78.81174262 179.45883656 -93.65163356 155.47739229 -100.6340332 128.97485352 C-107.14837616 102.09149399 -102.27494718 73.3672556 -88.0168457 49.84204102 C-72.28354718 24.9275438 -48.44458208 7.98017802 -19.7277832 1.29516602 C-13.17294701 0.02613011 -6.64989907 0.03612072 0 0 Z M-70.13012695 39.35375977 C-89.64797058 61.45441578 -96.01358455 86.53811675 -94.7277832 115.29516602 C-92.92679447 140.40550322 -79.46947376 161.51191668 -61.4777832 178.42016602 C-49.41978724 188.81861201 -34.97351336 195.20576744 -19.7277832 199.29516602 C-18.88086914 199.52333008 -18.03395508 199.75149414 -17.16137695 199.98657227 C3.30023705 204.5656189 25.67733661 200.5372642 44.2722168 191.29516602 C45.2003418 190.84399414 46.1284668 190.39282227 47.0847168 189.92797852 C53.82627316 186.46356761 59.49541136 182.17062592 65.2722168 177.29516602 C66.7881543 176.15047852 66.7881543 176.15047852 68.3347168 174.98266602 C84.89410054 159.83259153 96.72263133 136.81672232 98.2722168 114.29516602 C98.42148977 110.64786145 98.45718378 107.00774592 98.4597168 103.35766602 C98.47196289 102.43276367 98.48420898 101.50786133 98.49682617 100.55493164 C98.54820647 76.11503512 87.2275343 53.45858487 70.86206055 35.83422852 C50.03726421 15.41776152 25.37227802 7.86430559 -3.3293457 8.14282227 C-29.27059955 8.68607109 -52.31392925 20.92232646 -70.13012695 39.35375977 Z " fill="#5036A8" transform="translate(127.727783203125,143.704833984375)"/>
<path d="M0 0 C1.57007813 0.67869141 1.57007813 0.67869141 3.171875 1.37109375 C19.09655726 8.80682501 32.3517235 20.14952441 43 34 C43.6084375 34.78117187 44.216875 35.56234375 44.84375 36.3671875 C53.23048334 47.68927751 58.81252756 60.31080679 62 74 C62.29777344 75.15628906 62.59554687 76.31257813 62.90234375 77.50390625 C68.13795175 99.86984457 65.37495118 124.13334961 56 145 C55.72639648 145.61601074 55.45279297 146.23202148 55.17089844 146.86669922 C43.01579709 173.77141186 20.43825856 194.40298254 -7 205 C-7.74588379 205.29068359 -8.49176758 205.58136719 -9.26025391 205.88085938 C-34.77956946 215.35065249 -65.6739889 213.92670017 -90.32104492 202.77905273 C-99.96823052 198.21542849 -108.82947203 192.88120706 -117 186 C-118.18335937 185.03513672 -118.18335937 185.03513672 -119.390625 184.05078125 C-141.2823725 165.42902748 -153.73587929 138.46811112 -156.25537109 110.12744141 C-157.66951254 88.82270585 -153.39707347 67.70999553 -143 49 C-142.50628906 48.08476562 -142.01257813 47.16953125 -141.50390625 46.2265625 C-137.95696721 39.9785669 -133.61276922 34.49009984 -129 29 C-128.44570312 28.31035156 -127.89140625 27.62070313 -127.3203125 26.91015625 C-111.6125563 7.93308237 -85.98100915 -5.26886928 -61.6328125 -8.71875 C-39.9756375 -10.39543452 -19.96716185 -8.72335841 0 0 Z M-78 1 C-79.53914063 1.5259375 -79.53914063 1.5259375 -81.109375 2.0625 C-84.16893756 3.22804764 -87.06413329 4.55069524 -90 6 C-90.60134766 6.29471191 -91.20269531 6.58942383 -91.82226562 6.89306641 C-116.78523048 19.35573253 -135.82467674 40.75587533 -145.12109375 67.1875 C-148.72802993 78.39146295 -150.37256803 88.98275911 -150.3125 100.75 C-150.30758545 101.89380127 -150.3026709 103.03760254 -150.29760742 104.21606445 C-150.17837599 112.84169425 -149.39741925 120.6767017 -147 129 C-146.6596875 130.22332031 -146.319375 131.44664062 -145.96875 132.70703125 C-141.81010949 146.34905807 -135.45547172 158.28858327 -126 169 C-125.28972656 169.84175781 -124.57945313 170.68351563 -123.84765625 171.55078125 C-107.7232036 190.22567457 -83.66536036 203.37441405 -59 206 C-27.8427871 207.29980651 0.25129372 201.12342412 24 180 C24.8559375 179.32453125 25.711875 178.6490625 26.59375 177.953125 C44.38333913 163.51352343 54.23410041 139.6490956 58.65234375 117.76953125 C59.19458363 111.89018871 59.1844233 106.02610959 59.1875 100.125 C59.19974609 98.89652344 59.21199219 97.66804688 59.22460938 96.40234375 C59.2354905 89.63428483 58.84114417 83.51628271 57 77 C56.77699219 76.05511719 56.55398437 75.11023438 56.32421875 74.13671875 C52.16604926 58.14179684 44.62186421 44.58724033 34 32 C33.33291016 31.11441406 33.33291016 31.11441406 32.65234375 30.2109375 C21.02571614 15.20654345 1.76050946 5.48159009 -16 0 C-16.85601807 -0.26997803 -17.71203613 -0.53995605 -18.59399414 -0.81811523 C-27.13114863 -3.25080351 -35.39278864 -3.51407569 -44.1875 -3.4375 C-45.27942154 -3.43343643 -45.27942154 -3.43343643 -46.3934021 -3.42929077 C-57.38356864 -3.36721479 -67.55251667 -2.69306387 -78 1 Z " fill="#F0C81C" transform="translate(175,147)"/>
<path d="M0 0 C1.5994321 1.2505114 3.18377977 2.52063468 4.75 3.8125 C5.58144531 4.44671875 6.41289062 5.0809375 7.26953125 5.734375 C20.8424013 17.1056614 30.13495326 36.2744572 31.75 53.8125 C32.76280886 75.08148599 27.69795265 94.62215574 13.4375 110.9375 C0.20265293 125.03261213 -15.99697426 135.49036494 -35.7668457 137.00537109 C-58.63922369 137.69840982 -76.7411081 133.71999855 -94.62109375 118.3125 C-107.39430388 106.1656137 -117.40303685 89.93720865 -118.41113281 71.93505859 C-118.45701015 68.68576977 -118.48524592 65.43708506 -118.5 62.1875 C-118.520625 61.07503906 -118.54125 59.96257812 -118.5625 58.81640625 C-118.61286362 48.00081872 -116.58109331 38.29271271 -111.5625 28.6875 C-111.21292236 28.00864746 -110.86334473 27.32979492 -110.50317383 26.63037109 C-100.20090025 7.21747898 -83.0627076 -4.81210113 -62.52734375 -11.27734375 C-41.60800368 -17.08688634 -17.57031727 -12.68572165 0 0 Z M-89.25 12.8125 C-89.88679688 13.36679688 -90.52359375 13.92109375 -91.1796875 14.4921875 C-101.16486885 23.76731151 -109.42556637 38.64265078 -110.4387207 52.36938477 C-110.51777302 55.16582895 -110.52297662 57.95259676 -110.5 60.75 C-110.50773437 61.68779297 -110.51546875 62.62558594 -110.5234375 63.59179688 C-110.47352399 81.54818363 -103.03815634 97.40443708 -91.0625 110.5625 C-76.99057782 123.68538557 -59.72779849 129.63237594 -40.69140625 129.12109375 C-23.67698935 128.2263797 -7.32230793 120.79180094 4.75 108.8125 C16.45329269 95.30167848 23.55843062 80.02147367 23.3125 62 C23.30226807 60.86288574 23.29203613 59.72577148 23.28149414 58.55419922 C22.85127128 41.4549735 16.10815898 26.63947349 4.32421875 14.1953125 C-10.09538999 0.84787497 -28.5025637 -6.25026925 -48.1953125 -5.53515625 C-63.92927069 -4.48245257 -77.63553863 2.49303083 -89.25 12.8125 Z " fill="#5036A9" transform="translate(173.25,186.1875)"/>
<path d="M0 0 C3.27196452 1.43258772 5.43203956 3.18825316 7.94238281 5.71533203 C8.70286926 6.47596954 9.46335571 7.23660706 10.24688721 8.02029419 C11.05744568 8.84117523 11.86800415 9.66205627 12.703125 10.5078125 C13.95980988 11.76874222 13.95980988 11.76874222 15.24188232 13.05514526 C17.91598431 15.74044001 20.58304724 18.43260655 23.25 21.125 C25.06204062 22.94707155 26.87453518 24.76869177 28.6875 26.58984375 C33.13028036 31.05467252 37.56730165 35.52516283 42 40 C40.55419034 43.31613882 38.75170208 45.49185728 36.19287109 48.03417969 C35.41221283 48.81468689 34.63155457 49.59519409 33.82723999 50.39935303 C32.98448517 51.23178528 32.14173035 52.06421753 31.2734375 52.921875 C30.41062164 53.78186096 29.54780579 54.64184692 28.65884399 55.52789307 C25.90221971 58.2733231 23.13872201 61.0117169 20.375 63.75 C18.50475143 65.61021783 16.63495411 67.47088946 14.765625 69.33203125 C10.1823064 73.89329945 5.59332522 78.44881011 1 83 C-4.39190397 78.5021065 -9.39391684 73.73873458 -14.33984375 68.7578125 C-15.10680069 67.98944061 -15.87375763 67.22106873 -16.66395569 66.42941284 C-19.0908474 63.99696491 -21.51422127 61.56104678 -23.9375 59.125 C-25.59156486 57.46591448 -27.24585945 55.80705798 -28.90039062 54.1484375 C-32.93625433 50.10160291 -36.96924277 46.05192047 -41 42 C-36.5021065 36.60809603 -31.73873458 31.60608316 -26.7578125 26.66015625 C-25.98944061 25.89319931 -25.22106873 25.12624237 -24.42941284 24.33604431 C-21.99696491 21.9091526 -19.56104678 19.48577873 -17.125 17.0625 C-15.46591448 15.40843514 -13.80705798 13.75414055 -12.1484375 12.09960938 C-8.10160291 8.06374567 -4.05192047 4.03075723 0 0 Z " fill="#7592DC" transform="translate(293,371)"/>
<path d="M0 0 C0.96551788 0.02145081 1.93103577 0.04290161 2.92581177 0.06500244 C72.33842608 1.65863215 72.33842608 1.65863215 83.3125 7.625 C82.9825 8.615 82.6525 9.605 82.3125 10.625 C70.90168329 14.88984013 57.33774358 14.80600153 45.3125 15.625 C44.53825684 15.67897949 43.76401367 15.73295898 42.96630859 15.78857422 C-121.93698943 26.79200705 -121.93698943 26.79200705 -147.6875 9.625 C-147.3575 8.635 -147.0275 7.645 -146.6875 6.625 C-123.53426617 -2.15995381 -92.49672867 0.63333645 -68.03076172 0.12231445 C-65.18838007 0.06251851 -62.34615648 -0.00264119 -59.50390625 -0.06835938 C-39.66156158 -0.51072267 -19.84171044 -0.4412378 0 0 Z " fill="#473CBA" transform="translate(182.6875,485.375)"/>
<path d="M0 0 C13.77908817 11.48257348 21.86876065 28.44598608 25 46 C26.95643285 74.65836814 19.70890487 100.41333767 3 124 C2.01 124.99 1.02 125.98 0 127 C0 85.09 0 43.18 0 0 Z " fill="#79A1E8" transform="translate(487,229)"/>
<path d="M0 0 C0.81726563 0.46921875 1.63453125 0.9384375 2.4765625 1.421875 C14.80922064 9.09369579 21.14879223 19.19983884 25 33 C21.29302295 33.26260373 17.58843642 33.42156838 13.875 33.5625 C12.82828125 33.63791016 11.7815625 33.71332031 10.703125 33.79101562 C7.56808844 33.88030464 5.02629598 33.84054447 2 33 C-0.14332226 30.8760132 -1.42876487 28.86057271 -2.81201172 26.18701172 C-5.02709523 22.10918226 -8.6135766 20.53055868 -12.796875 18.9296875 C-19.98994855 16.84194176 -27.56011212 16.90985749 -34.4375 20 C-39.85266539 23.07800118 -43.24271625 27.4854325 -46 33 C-53.59 33 -61.18 33 -69 33 C-65.97721929 19.3974868 -59.51030375 9.3294475 -47.80078125 1.64453125 C-33.13771728 -6.96516182 -15.06099479 -8.80488926 0 0 Z " fill="#F8AF3E" transform="translate(381,122)"/>
<path d="M0 0 C3.10083438 1.88946808 4.44196871 5.06178603 6.08984375 8.18359375 C6.45335937 8.84681641 6.816875 9.51003906 7.19140625 10.19335938 C8.08601123 11.8295448 8.96450442 13.47452099 9.83984375 15.12109375 C6.2034839 18.97659393 2.42292527 21.98850513 -1.97265625 24.93359375 C-2.86887695 25.54364258 -2.86887695 25.54364258 -3.78320312 26.16601562 C-5.23890189 27.15589078 -6.69906799 28.1391911 -8.16015625 29.12109375 C-8.07228922 30.85116526 -7.96409951 32.5802104 -7.84765625 34.30859375 C-7.78964844 35.27152344 -7.73164063 36.23445313 -7.671875 37.2265625 C-7.03897615 40.80654757 -6.72800175 42.47881795 -4.16015625 45.12109375 C-0.46235995 46.04642316 3.22995223 46.23524039 7.02734375 46.43359375 C8.06310547 46.50642578 9.09886719 46.57925781 10.16601562 46.65429688 C12.72332796 46.83106962 15.28005823 46.98576771 17.83984375 47.12109375 C17.83984375 47.45109375 17.83984375 47.78109375 17.83984375 48.12109375 C0.34984375 48.12109375 -17.14015625 48.12109375 -35.16015625 48.12109375 C-36.81015625 44.16109375 -38.46015625 40.20109375 -40.16015625 36.12109375 C-42.11285954 33.01974147 -44.02382881 30.07185687 -46.16015625 27.12109375 C-46.82015625 26.13109375 -47.48015625 25.14109375 -48.16015625 24.12109375 C-41.56015625 17.52109375 -34.96015625 10.92109375 -28.16015625 4.12109375 C-26.51015625 5.11109375 -24.86015625 6.10109375 -23.16015625 7.12109375 C-16.54343995 6.89054614 -11.26129536 4.07222525 -5.3671875 1.30078125 C-2.16015625 0.12109375 -2.16015625 0.12109375 0 0 Z " fill="#CCD9F5" transform="translate(441.16015625,106.87890625)"/>
<path d="M0 0 C4.95886102 3.96708882 7.31277572 6.02784366 8.390625 12.2578125 C8.89664586 19.59511504 6.53485825 24.35907876 2 30 C-14.48168176 48.35764554 -14.48168176 48.35764554 -23.41796875 49.23828125 C-29.76381564 49.40833921 -34.80255673 48.89482591 -40 45 C-40.66 44.01 -41.32 43.02 -42 42 C-28.14 28.14 -14.28 14.28 0 0 Z " fill="#FCFBFD" transform="translate(357,434)"/>
<path d="M0 0 C3.08047562 1.59728365 4.60336024 3.46040659 6.625 6.25 C1.3399181 11.60452783 -3.9532061 16.95098991 -9.25677204 22.28720856 C-11.71906458 24.76517112 -14.17848339 27.24585258 -16.6315918 29.73291016 C-19.45055395 32.59063974 -22.28151205 35.4362102 -25.11328125 38.28125 C-25.99462234 39.17807495 -26.87596344 40.0748999 -27.78401184 40.99890137 C-28.60463608 41.8197522 -29.42526031 42.64060303 -30.27075195 43.48632812 C-30.99245071 44.21468872 -31.71414948 44.94304932 -32.4577179 45.69348145 C-34.375 47.25 -34.375 47.25 -37.375 47.25 C-42.49024428 40.47982375 -43.39844812 34.57334848 -42.375 26.25 C-38.31895678 15.53558494 -25.70494142 5.43289324 -16.375 -0.75 C-10.75099927 -2.62466691 -5.39976544 -2.54517595 0 0 Z " fill="#FBFBFD" transform="translate(265.375,342.75)"/>
<path d="M0 0 C1.42381989 -0.00639748 1.42381989 -0.00639748 2.87640381 -0.01292419 C3.92113358 -0.01247101 4.96586334 -0.01201782 6.04225159 -0.0115509 C7.13987823 -0.01490952 8.23750488 -0.01826813 9.36839294 -0.02172852 C13.01172504 -0.03125967 16.6550113 -0.03318268 20.2983551 -0.03425598 C22.82179789 -0.03746691 25.34524048 -0.04083086 27.86868286 -0.04434204 C33.16401171 -0.05033864 38.45932335 -0.05222409 43.75465393 -0.05158997 C49.87811411 -0.05098904 56.00148623 -0.06154315 62.12492412 -0.07733363 C68.01209857 -0.09197486 73.89924605 -0.09557832 79.7864399 -0.09498024 C82.29315107 -0.09616349 84.79986283 -0.10060441 87.30656242 -0.10831261 C90.80707561 -0.11806911 94.30736001 -0.11525165 97.80787659 -0.10920715 C99.37193489 -0.11763641 99.37193489 -0.11763641 100.96759033 -0.12623596 C101.91962341 -0.12204147 102.87165649 -0.11784698 103.85253906 -0.11352539 C104.6804769 -0.11407016 105.50841475 -0.11461493 106.36144161 -0.1151762 C108.48976135 0.13371277 108.48976135 0.13371277 111.48976135 2.13371277 C111.11476135 5.07121277 111.11476135 5.07121277 110.48976135 8.13371277 C107.65510717 9.55103986 105.27476122 9.26098691 102.10450745 9.2631073 C101.11674694 9.26569329 101.11674694 9.26569329 100.10903168 9.26833153 C97.91039591 9.27269012 95.7118357 9.26971973 93.51319885 9.26652527 C91.96413649 9.26762417 90.41507434 9.26905445 88.86601257 9.27079773 C84.72083566 9.27370658 80.57569823 9.26940216 76.43052673 9.26268768 C73.87499493 9.25872862 71.31946515 9.25620854 68.76393127 9.25401306 C49.17120733 9.23459267 29.57839144 9.19518683 9.98976135 8.75871277 C8.76395355 8.73578156 8.76395355 8.73578156 7.51338196 8.71238708 C5.2863127 8.66842312 3.06010385 8.61107486 0.83351135 8.54777527 C-0.36080505 8.51635437 -1.55512146 8.48493347 -2.78562927 8.45256042 C-5.51023865 8.13371277 -5.51023865 8.13371277 -7.51023865 6.13371277 C-7.26023865 3.57121277 -7.26023865 3.57121277 -6.51023865 1.13371277 C-4.12459325 -0.05910993 -2.66292421 0.00539253 0 0 Z " fill="#7DA5E7" transform="translate(329.51023864746094,267.8662872314453)"/>
<path d="M0 0 C1.44916809 -0.00639748 1.44916809 -0.00639748 2.9276123 -0.01292419 C3.99620987 -0.01247101 5.06480743 -0.01201782 6.16578674 -0.0115509 C7.2843808 -0.01490952 8.40297485 -0.01826813 9.5554657 -0.02172852 C13.27397251 -0.03127143 16.99243445 -0.03318328 20.71095276 -0.03425598 C23.2830609 -0.03746616 25.85516886 -0.04083005 28.42727661 -0.04434204 C33.82693482 -0.05034163 39.22657507 -0.05222375 44.62623596 -0.05158997 C50.87409459 -0.05098902 57.12186693 -0.06154252 63.36970371 -0.07733363 C69.37168215 -0.09196489 75.37361359 -0.09557859 81.37561226 -0.09498024 C83.93338944 -0.09616448 86.49116717 -0.10061086 89.04893303 -0.10831261 C92.61920812 -0.11805639 96.18925841 -0.11525673 99.75953674 -0.10920715 C101.35939674 -0.11763641 101.35939674 -0.11763641 102.99157715 -0.12623596 C103.96050903 -0.12204147 104.92944092 -0.11784698 105.92773438 -0.11352539 C107.19509509 -0.11434254 107.19509509 -0.11434254 108.48805904 -0.1151762 C110.52735901 0.13371277 110.52735901 0.13371277 112.52735901 2.13371277 C111.97180345 6.68926832 111.97180345 6.68926832 110.52735901 8.13371277 C109.03917162 8.23375786 107.5462615 8.26446579 106.05471802 8.26742554 C105.08860596 8.27169052 104.1224939 8.27595551 103.12710571 8.28034973 C102.05850815 8.27989655 100.98991058 8.27944336 99.88893127 8.27897644 C98.77033722 8.28233505 97.65174316 8.28569366 96.49925232 8.28915405 C92.78074551 8.29869696 89.06228357 8.30060882 85.34376526 8.30168152 C82.77165711 8.3048917 80.19954916 8.30825558 77.62744141 8.31176758 C72.22778319 8.31776717 66.82814294 8.31964928 61.42848206 8.3190155 C55.18062342 8.31841455 48.93285109 8.32896806 42.68501431 8.34475917 C36.68303587 8.35939043 30.68110443 8.36300413 24.67910576 8.36240578 C22.12132858 8.36359001 19.56355084 8.3680364 17.00578499 8.37573814 C13.43550989 8.38548193 9.86545961 8.38268227 6.29518127 8.37663269 C4.69532127 8.38506195 4.69532127 8.38506195 3.06314087 8.3936615 C2.09420898 8.38946701 1.1252771 8.38527252 0.12698364 8.38095093 C-1.14037707 8.38176808 -1.14037707 8.38176808 -2.43334103 8.38260174 C-4.47264099 8.13371277 -4.47264099 8.13371277 -6.47264099 6.13371277 C-5.82131541 0.79284297 -5.25569648 0.01042915 0 0 Z " fill="#79A1E8" transform="translate(328.47264099121094,227.8662872314453)"/>
<path d="M0 0 C1.44916809 -0.00639748 1.44916809 -0.00639748 2.9276123 -0.01292419 C3.99620987 -0.01247101 5.06480743 -0.01201782 6.16578674 -0.0115509 C7.2843808 -0.01490952 8.40297485 -0.01826813 9.5554657 -0.02172852 C13.27397251 -0.03127143 16.99243445 -0.03318328 20.71095276 -0.03425598 C23.2830609 -0.03746616 25.85516886 -0.04083005 28.42727661 -0.04434204 C33.82693482 -0.05034163 39.22657507 -0.05222375 44.62623596 -0.05158997 C50.87409459 -0.05098902 57.12186693 -0.06154252 63.36970371 -0.07733363 C69.37168215 -0.09196489 75.37361359 -0.09557859 81.37561226 -0.09498024 C83.93338944 -0.09616448 86.49116717 -0.10061086 89.04893303 -0.10831261 C92.61920812 -0.11805639 96.18925841 -0.11525673 99.75953674 -0.10920715 C101.35939674 -0.11763641 101.35939674 -0.11763641 102.99157715 -0.12623596 C103.96050903 -0.12204147 104.92944092 -0.11784698 105.92773438 -0.11352539 C107.19509509 -0.11434254 107.19509509 -0.11434254 108.48805904 -0.1151762 C110.52735901 0.13371277 110.52735901 0.13371277 112.52735901 2.13371277 C111.97180345 6.68926832 111.97180345 6.68926832 110.52735901 8.13371277 C109.03917162 8.23375786 107.5462615 8.26446579 106.05471802 8.26742554 C105.08860596 8.27169052 104.1224939 8.27595551 103.12710571 8.28034973 C102.05850815 8.27989655 100.98991058 8.27944336 99.88893127 8.27897644 C98.77033722 8.28233505 97.65174316 8.28569366 96.49925232 8.28915405 C92.78074551 8.29869696 89.06228357 8.30060882 85.34376526 8.30168152 C82.77165711 8.3048917 80.19954916 8.30825558 77.62744141 8.31176758 C72.22778319 8.31776717 66.82814294 8.31964928 61.42848206 8.3190155 C55.18062342 8.31841455 48.93285109 8.32896806 42.68501431 8.34475917 C36.68303587 8.35939043 30.68110443 8.36300413 24.67910576 8.36240578 C22.12132858 8.36359001 19.56355084 8.3680364 17.00578499 8.37573814 C13.43550989 8.38548193 9.86545961 8.38268227 6.29518127 8.37663269 C4.69532127 8.38506195 4.69532127 8.38506195 3.06314087 8.3936615 C2.09420898 8.38946701 1.1252771 8.38527252 0.12698364 8.38095093 C-1.14037707 8.38176808 -1.14037707 8.38176808 -2.43334103 8.38260174 C-4.47264099 8.13371277 -4.47264099 8.13371277 -6.47264099 6.13371277 C-5.82131541 0.79284297 -5.25569648 0.01042915 0 0 Z " fill="#79A1E8" transform="translate(328.47264099121094,207.8662872314453)"/>
<path d="M0 0 C0.95625275 -0.00426498 1.91250549 -0.00852997 2.8977356 -0.01292419 C4.48424927 -0.01224442 4.48424927 -0.01224442 6.10281372 -0.0115509 C7.76366501 -0.01658882 7.76366501 -0.01658882 9.45806885 -0.02172852 C13.13930363 -0.03127215 16.8204931 -0.03318338 20.5017395 -0.03425598 C23.04903177 -0.03746635 25.59632385 -0.04083025 28.14361572 -0.04434204 C33.49199933 -0.05034197 38.84036589 -0.05222374 44.18875122 -0.05158997 C50.37410626 -0.05098932 56.55937404 -0.06153658 62.74470699 -0.07733363 C68.6890105 -0.09197541 74.6332873 -0.09557828 80.57761002 -0.09498024 C83.10944093 -0.09616364 85.64127243 -0.1006054 88.17309189 -0.10831261 C91.70963603 -0.11806935 95.24595372 -0.11525141 98.78250122 -0.10920715 C99.83612854 -0.11482666 100.88975586 -0.12044617 101.97531128 -0.12623596 C103.41814987 -0.11994423 103.41814987 -0.11994423 104.89013672 -0.11352539 C105.72674772 -0.11407016 106.56335873 -0.11461493 107.42532158 -0.1151762 C109.572052 0.13371277 109.572052 0.13371277 112.572052 2.13371277 C111.697052 7.00871277 111.697052 7.00871277 110.572052 8.13371277 C109.08386461 8.23375786 107.5909545 8.26446579 106.09941101 8.26742554 C105.13329895 8.27169052 104.16718689 8.27595551 103.17179871 8.28034973 C102.10320114 8.27989655 101.03460358 8.27944336 99.93362427 8.27897644 C98.81503021 8.28233505 97.69643616 8.28569366 96.54394531 8.28915405 C92.82543851 8.29869696 89.10697656 8.30060882 85.38845825 8.30168152 C82.81635011 8.3048917 80.24424215 8.30825558 77.6721344 8.31176758 C72.27247619 8.31776717 66.87283594 8.31964928 61.47317505 8.3190155 C55.22531642 8.31841455 48.97754409 8.32896806 42.7297073 8.34475917 C36.72772886 8.35939043 30.72579742 8.36300413 24.72379875 8.36240578 C22.16602158 8.36359001 19.60824384 8.3680364 17.05047798 8.37573814 C13.48020289 8.38548193 9.9101526 8.38268227 6.33987427 8.37663269 C4.74001427 8.38506195 4.74001427 8.38506195 3.10783386 8.3936615 C2.13890198 8.38946701 1.16997009 8.38527252 0.17167664 8.38095093 C-1.09568408 8.38176808 -1.09568408 8.38176808 -2.38864803 8.38260174 C-4.427948 8.13371277 -4.427948 8.13371277 -6.427948 6.13371277 C-5.78028268 0.82285718 -5.23086821 0.01048758 0 0 Z " fill="#7AA2E8" transform="translate(328.4279479980469,247.8662872314453)"/>
<path d="M0 0 C1.44916809 -0.00639748 1.44916809 -0.00639748 2.9276123 -0.01292419 C3.99620987 -0.01247101 5.06480743 -0.01201782 6.16578674 -0.0115509 C7.2843808 -0.01490952 8.40297485 -0.01826813 9.5554657 -0.02172852 C13.27397251 -0.03127143 16.99243445 -0.03318328 20.71095276 -0.03425598 C23.2830609 -0.03746616 25.85516886 -0.04083005 28.42727661 -0.04434204 C33.82693482 -0.05034163 39.22657507 -0.05222375 44.62623596 -0.05158997 C50.87409459 -0.05098902 57.12186693 -0.06154252 63.36970371 -0.07733363 C69.37168215 -0.09196489 75.37361359 -0.09557859 81.37561226 -0.09498024 C83.93338944 -0.09616448 86.49116717 -0.10061086 89.04893303 -0.10831261 C92.61920812 -0.11805639 96.18925841 -0.11525673 99.75953674 -0.10920715 C101.35939674 -0.11763641 101.35939674 -0.11763641 102.99157715 -0.12623596 C103.96050903 -0.12204147 104.92944092 -0.11784698 105.92773438 -0.11352539 C107.19509509 -0.11434254 107.19509509 -0.11434254 108.48805904 -0.1151762 C110.52735901 0.13371277 110.52735901 0.13371277 112.52735901 2.13371277 C111.97180345 6.68926832 111.97180345 6.68926832 110.52735901 8.13371277 C109.0541728 8.23588303 107.57612654 8.2688993 106.09941101 8.27415466 C104.66503189 8.28271988 104.66503189 8.28271988 103.20167542 8.29145813 C102.14399963 8.29257599 101.08632385 8.29369385 99.99659729 8.29484558 C98.335746 8.30229294 98.335746 8.30229294 96.64134216 8.30989075 C92.96011241 8.32455611 89.27892574 8.33132152 85.59767151 8.33683777 C83.05037941 8.34258547 80.50308734 8.34834324 77.95579529 8.35411072 C73.29199776 8.36328623 68.62821327 8.36958157 63.96440899 8.37260747 C57.09442087 8.37708881 50.22463165 8.39463745 43.35470402 8.42360806 C37.41040358 8.44780756 31.46615284 8.45555075 25.52180099 8.45728302 C22.98996269 8.46031842 20.4581254 8.46837657 17.92631912 8.4814682 C14.3896945 8.49845045 10.85355821 8.49666747 7.31690979 8.49015808 C6.26328247 8.49937286 5.20965515 8.50858765 4.12409973 8.51808167 C3.16220734 8.51251251 2.20031494 8.50694336 1.20927429 8.50120544 C0.37266329 8.502672 -0.46394772 8.50413857 -1.32591057 8.50564957 C-3.9696537 8.04760167 -4.89079687 7.27049589 -6.47264099 5.13371277 C-5.9049944 0.30871673 -4.55257865 0.00903391 0 0 Z " fill="#7AA2E8" transform="translate(328.47264099121094,288.8662872314453)"/>
<path d="M0 0 C2.42474832 1.04549839 3.81671143 2.45790628 5.6257019 4.3712616 C6.23929565 5.01192566 6.8528894 5.65258972 7.4850769 6.31266785 C7.94398315 6.80637878 8.4028894 7.30008972 8.8757019 7.8087616 C7.42989225 11.12490041 5.62740399 13.30061888 3.068573 15.84294128 C2.28791473 16.62344849 1.50725647 17.40395569 0.70294189 18.20811462 C-0.13981293 19.04054688 -0.98256775 19.87297913 -1.8508606 20.7306366 C-2.71367645 21.59062256 -3.57649231 22.45060852 -4.4654541 23.33665466 C-7.22207839 26.08208469 -9.98557608 28.8204785 -12.7492981 31.5587616 C-14.61954667 33.41897942 -16.48934399 35.27965106 -18.3586731 37.14079285 C-22.94199169 41.70206104 -27.53097287 46.25757171 -32.1242981 50.8087616 C-33.22981699 49.87285656 -34.33365263 48.93496302 -35.4367981 47.9962616 C-36.05168091 47.47419128 -36.66656372 46.95212097 -37.30007935 46.41423035 C-38.97854489 44.9370369 -40.56311844 43.40837029 -42.1242981 41.8087616 C-40.69585605 38.56487246 -38.95240641 36.37054012 -36.47244263 33.85050964 C-35.35085251 32.70493843 -35.35085251 32.70493843 -34.206604 31.53622437 C-33.39827118 30.72252884 -32.58993835 29.90883331 -31.7571106 29.07048035 C-30.92597748 28.23031876 -30.09484436 27.39015717 -29.23852539 26.52453613 C-27.48102587 24.7525383 -25.7207087 22.98333127 -23.95779419 21.21672058 C-21.25434985 18.50133566 -18.57011335 15.76786497 -15.88601685 13.03337097 C-14.17753287 11.31542823 -12.46793483 9.59859255 -10.7571106 7.88298035 C-9.55068405 6.64725533 -9.55068405 6.64725533 -8.31988525 5.38656616 C-7.56585419 4.63861282 -6.81182312 3.89065948 -6.03494263 3.12004089 C-5.37479156 2.45481918 -4.7146405 1.78959747 -4.03448486 1.10421753 C-2.1242981 -0.1912384 -2.1242981 -0.1912384 0 0 Z " fill="#473BB9" transform="translate(342.1242980957031,419.1912384033203)"/>
<path d="M0 0 C2.82836101 1.36763139 5.03539332 2.69394993 7.3125 4.875 C7.84488281 5.36742187 8.37726563 5.85984375 8.92578125 6.3671875 C10 8 10 8 9.79798889 9.84991455 C8.78306884 12.58449501 7.37802456 13.98253517 5.30639648 16.03417969 C4.52566269 16.81468689 3.74492889 17.59519409 2.9405365 18.39935303 C2.09262039 19.23178528 1.24470428 20.06421753 0.37109375 20.921875 C-0.49313705 21.78186096 -1.35736786 22.64184692 -2.24778748 23.52789307 C-5.01240612 26.27570575 -7.78726862 29.01291036 -10.5625 31.75 C-12.43753251 33.60998825 -14.31189018 35.47065707 -16.18554688 37.33203125 C-20.78256017 41.89594973 -25.38802955 46.45119938 -30 51 C-33.18086518 49.49053489 -35.29869906 47.92058175 -37.75 45.375 C-38.36359375 44.74335938 -38.9771875 44.11171875 -39.609375 43.4609375 C-40.06828125 42.97882813 -40.5271875 42.49671875 -41 42 C-36.5021065 36.60809603 -31.73873458 31.60608316 -26.7578125 26.66015625 C-25.98944061 25.89319931 -25.22106873 25.12624237 -24.42941284 24.33604431 C-21.99696491 21.9091526 -19.56104678 19.48577873 -17.125 17.0625 C-15.46591448 15.40843514 -13.80705798 13.75414055 -12.1484375 12.09960938 C-8.10160291 8.06374567 -4.05192047 4.03075723 0 0 Z " fill="#473BB9" transform="translate(277,355)"/>
<path d="M0 0 C1.2878517 2.52864897 2.44650236 5.04345226 3.56524658 7.65789795 C6.34095433 13.17610107 10.60683097 17.16574068 14.95605469 21.47363281 C15.86062408 22.38521149 16.76519348 23.29679016 17.69717407 24.23599243 C20.1633388 26.72028834 22.64186262 29.19188921 25.12345791 31.66075993 C27.72823707 34.25535826 30.32318188 36.85976362 32.91973877 39.46258545 C37.28047319 43.83058153 41.64953759 48.19011192 46.0234375 52.54492188 C51.0683275 57.56804604 56.09864633 62.60541728 61.12163997 67.65042996 C65.44734195 71.99432824 69.78084581 76.3303275 74.1208756 80.65991092 C76.70740886 83.24023245 79.29122181 85.82312233 81.86800385 88.41318512 C84.74273037 91.30169262 87.63364208 94.17346284 90.52636719 97.04394531 C91.37029022 97.89596527 92.21421326 98.74798523 93.08370972 99.62582397 C97.79698825 104.27232783 101.93049232 107.35765657 108 110 C109.485 110.99 109.485 110.99 111 112 C109.62605116 112.08243693 108.25059402 112.1398309 106.875 112.1875 C106.10929687 112.22230469 105.34359375 112.25710938 104.5546875 112.29296875 C96.79032944 111.40256072 91.93001503 105.35522339 86.72167969 100.10986328 C85.80718048 99.20062103 84.89268127 98.29137878 83.95046997 97.35458374 C81.45199846 94.86974473 78.96305687 92.37556291 76.47616482 89.87914133 C73.86842995 87.26379106 71.25336047 84.655791 68.63946533 82.04660034 C64.25293105 77.66551717 59.87274492 73.27816178 55.49609375 68.88720703 C50.43930233 63.81408017 45.37178045 58.75186484 40.29856944 53.69516194 C35.93792613 49.34813971 31.58316524 44.99528952 27.23325276 40.63752925 C24.6374193 38.03702403 22.039614 35.43857572 19.43648529 32.84537125 C16.53592201 29.95509614 13.64779173 27.05269958 10.76074219 24.14892578 C9.89838959 23.29264587 9.03603699 22.43636597 8.14755249 21.55413818 C7.36254364 20.76066986 6.57753479 19.96720154 5.76873779 19.14968872 C5.08518597 18.46500582 4.40163414 17.78032291 3.69736862 17.07489204 C0.51410133 13.1836124 -0.25675727 9.62839746 -0.125 4.6875 C-0.10695312 3.80449219 -0.08890625 2.92148437 -0.0703125 2.01171875 C-0.04710937 1.34785156 -0.02390625 0.68398438 0 0 Z " fill="#473BB8" transform="translate(214,380)"/>
<path d="M0 0 C0.33 0 0.66 0 1 0 C1.08636719 1.29550781 1.17273438 2.59101563 1.26171875 3.92578125 C3.89826622 38.83274345 17.23692386 69.81652025 44 93 C48.73208186 96.76655613 53.76965793 99.97506331 59 103 C59.93900146 103.54479004 59.93900146 103.54479004 60.89697266 104.10058594 C75.33065083 112.28176797 90.96933793 117.22107357 107.52880859 118.41943359 C109.35775229 118.55511191 111.18055603 118.76963664 113 119 C113.33 119.66 113.66 120.32 114 121 C83.90738914 122.28763945 57.19787093 111.11630058 34.75 91.5 C17.61532504 75.62241443 7.691697 56.48248744 2 34 C1.75121094 33.01773438 1.50242187 32.03546875 1.24609375 31.0234375 C-0.84401306 20.87984219 -0.17878272 10.30338539 0 0 Z " fill="#473BB8" transform="translate(10,247)"/>
<path d="M0 0 C1.9375 0.625 1.9375 0.625 4 2 C5.09033203 4.56860352 5.09033203 4.56860352 5 8 C2.93958224 11.14364206 0.29732972 13.65863299 -2.3828125 16.27734375 C-3.53243973 17.43345909 -3.53243973 17.43345909 -4.70529175 18.6129303 C-6.32953491 20.23755489 -7.96254183 21.85345781 -9.60351562 23.46118164 C-12.11749186 25.93012635 -14.59495236 28.43185917 -17.0703125 30.93945312 C-18.6515773 32.51249875 -20.23484574 34.08353336 -21.8203125 35.65234375 C-22.5632254 36.40426498 -23.30613831 37.15618622 -24.07156372 37.93089294 C-24.77514008 38.61232864 -25.47871643 39.29376434 -26.20361328 39.99584961 C-26.81729767 40.60174423 -27.43098206 41.20763885 -28.06326294 41.83189392 C-30 43 -30 43 -32.73727417 42.6877594 C-33.48397369 42.4607988 -34.23067322 42.2338382 -35 42 C-35 38 -35 38 -32.69140625 35.51953125 C-31.65719166 34.60716716 -30.61357614 33.7053869 -29.5625 32.8125 C-28.44931922 31.82687629 -27.33734975 30.83988291 -26.2265625 29.8515625 C-25.67516602 29.3659082 -25.12376953 28.88025391 -24.55566406 28.37988281 C-15.0640379 19.96075678 -7.55440505 10.13090744 0 0 Z " fill="#F4F3FA" transform="translate(230,311)"/>
<path d="M0 0 C13.86 0 27.72 0 42 0 C37.43758692 3.42180981 32.90149514 5.40017069 27.6875 7.625 C26.76259766 8.03234375 25.83769531 8.4396875 24.88476562 8.859375 C14.97649844 13.11281734 14.97649844 13.11281734 10 13 C7.63671875 11.015625 7.63671875 11.015625 5.6875 8.25 C4.70330078 6.89648438 4.70330078 6.89648438 3.69921875 5.515625 C2.46009678 3.68115477 1.22796947 1.8419542 0 0 Z " fill="#78A0E7" transform="translate(361,425)"/>
<path d="M0 0 C3.465 2.475 3.465 2.475 7 5 C4.20739896 11.55072903 -2.00182874 16.45935594 -7.4375 20.875 C-10.15480372 22.92194725 -10.15480372 22.92194725 -12 26 C-15.78611227 25.45912682 -17.55400767 23.88277668 -20 21 C-20 20.34 -20 19.68 -20 19 C-18.671875 17.6953125 -18.671875 17.6953125 -16.75 16.125 C-10.82166218 11.10297282 -5.44825893 5.52998282 0 0 Z " fill="#F4CB19" transform="translate(233,332)"/>
<path d="M0 0 C3.86441482 2.1640723 7.09536028 4.64849263 10 8 C10 8.66 10 9.32 10 10 C1.42 10 -7.16 10 -16 10 C-11.74639564 3.61959346 -8.21042661 -1.36840443 0 0 Z " fill="#7598E3" transform="translate(367,145)"/>
<path d="M0 0 C0.66 0 1.32 0 2 0 C2.33559955 2.60389297 2.66856858 5.2080761 3 7.8125 C3.09539062 8.55048828 3.19078125 9.28847656 3.2890625 10.04882812 C3.66984677 13.05430395 4 15.96714441 4 19 C3.01 19 2.02 19 1 19 C0.15976812 14.64667264 -0.10770995 10.55557481 -0.0625 6.125 C-0.05347656 4.97257812 -0.04445313 3.82015625 -0.03515625 2.6328125 C-0.02355469 1.76398438 -0.01195312 0.89515625 0 0 Z " fill="#473BB8" transform="translate(377,63)"/>
<path d="M0 0 C0.66 0.66 1.32 1.32 2 2 C0.71554544 4.64956093 -0.57709679 7.29453793 -1.875 9.9375 C-2.23980469 10.69224609 -2.60460937 11.44699219 -2.98046875 12.22460938 C-3.33496094 12.94326172 -3.68945312 13.66191406 -4.0546875 14.40234375 C-4.37937012 15.06741943 -4.70405273 15.73249512 -5.03857422 16.41772461 C-6 18 -6 18 -8 19 C-7.38188466 14.44684052 -5.53234107 10.71540233 -3.4375 6.6875 C-2.9434668 5.71973633 -2.9434668 5.71973633 -2.43945312 4.73242188 C-1.63175745 3.15214772 -0.81662387 1.57567895 0 0 Z " fill="#4739B7" transform="translate(427,81)"/>
</svg>
