<?xml version="1.0" encoding="UTF-8"?>
<svg version="1.1" xmlns="http://www.w3.org/2000/svg" width="512" height="512">
<path d="M0 0 C11.93136838 8.37820284 18.39408579 18.56445154 22.30859375 32.62109375 C24.79587791 47.41886028 22.51742071 61.83223458 14.30859375 74.62109375 C10.89383844 78.88666351 7.16765306 82.76203444 3.30859375 86.62109375 C4.04009644 87.00479126 4.04009644 87.00479126 4.78637695 87.39624023 C14.7823148 92.6808669 23.94743228 97.92882519 32.30859375 105.62109375 C33.25025391 106.44287109 33.25025391 106.44287109 34.2109375 107.28125 C48.36569757 120.34471338 58.05131637 140.67766791 60.30859375 159.62109375 C60.30859375 163.58109375 60.30859375 167.54109375 60.30859375 171.62109375 C104.85859375 171.62109375 149.40859375 171.62109375 195.30859375 171.62109375 C195.30859375 162.05109375 195.30859375 152.48109375 195.30859375 142.62109375 C170.55859375 142.62109375 145.80859375 142.62109375 120.30859375 142.62109375 C120.30859375 102.69109375 120.30859375 62.76109375 120.30859375 21.62109375 C180.03859375 21.62109375 239.76859375 21.62109375 301.30859375 21.62109375 C301.30859375 61.55109375 301.30859375 101.48109375 301.30859375 142.62109375 C276.55859375 142.62109375 251.80859375 142.62109375 226.30859375 142.62109375 C226.30859375 152.19109375 226.30859375 161.76109375 226.30859375 171.62109375 C265.90859375 171.62109375 305.50859375 171.62109375 346.30859375 171.62109375 C346.30859375 191.75109375 346.30859375 211.88109375 346.30859375 232.62109375 C336.40859375 232.62109375 326.50859375 232.62109375 316.30859375 232.62109375 C316.30859375 322.05109375 316.30859375 411.48109375 316.30859375 503.62109375 C167.14859375 503.62109375 17.98859375 503.62109375 -135.69140625 503.62109375 C-135.69140625 414.19109375 -135.69140625 324.76109375 -135.69140625 232.62109375 C-145.59140625 232.62109375 -155.49140625 232.62109375 -165.69140625 232.62109375 C-165.69140625 212.49109375 -165.69140625 192.36109375 -165.69140625 171.62109375 C-150.84140625 171.62109375 -135.99140625 171.62109375 -120.69140625 171.62109375 C-120.69140625 167.66109375 -120.69140625 163.70109375 -120.69140625 159.62109375 C-120.230642 156.67632112 -119.7439413 153.97888497 -119.00390625 151.12109375 C-118.82239014 150.39752686 -118.64087402 149.67395996 -118.45385742 148.9284668 C-112.42572403 125.84237974 -97.24754708 105.59396132 -76.65185547 93.41503906 C-72.39522709 91.02160445 -68.06717539 88.78779548 -63.69140625 86.62109375 C-64.18769531 86.17121094 -64.68398437 85.72132812 -65.1953125 85.2578125 C-77.22981222 73.86271694 -83.08926279 60.82342634 -83.7109375 44.2734375 C-83.63713509 30.47238591 -78.37411295 16.31637895 -68.5859375 6.28515625 C-49.08444587 -10.84398897 -22.14883006 -14.21068937 0 0 Z " fill="#EAE3EF" transform="translate(165.69140625,8.37890625)"/>
<path d="M0 0 C11.93136838 8.37820284 18.39408579 18.56445154 22.30859375 32.62109375 C24.79587791 47.41886028 22.51742071 61.83223458 14.30859375 74.62109375 C10.89383844 78.88666351 7.16765306 82.76203444 3.30859375 86.62109375 C4.04009644 87.00479126 4.04009644 87.00479126 4.78637695 87.39624023 C14.7823148 92.6808669 23.94743228 97.92882519 32.30859375 105.62109375 C33.25025391 106.44287109 33.25025391 106.44287109 34.2109375 107.28125 C48.36569757 120.34471338 58.05131637 140.67766791 60.30859375 159.62109375 C60.30859375 163.58109375 60.30859375 167.54109375 60.30859375 171.62109375 C104.85859375 171.62109375 149.40859375 171.62109375 195.30859375 171.62109375 C195.30859375 162.05109375 195.30859375 152.48109375 195.30859375 142.62109375 C170.55859375 142.62109375 145.80859375 142.62109375 120.30859375 142.62109375 C120.30859375 102.69109375 120.30859375 62.76109375 120.30859375 21.62109375 C180.03859375 21.62109375 239.76859375 21.62109375 301.30859375 21.62109375 C301.30859375 61.55109375 301.30859375 101.48109375 301.30859375 142.62109375 C276.55859375 142.62109375 251.80859375 142.62109375 226.30859375 142.62109375 C226.30859375 152.19109375 226.30859375 161.76109375 226.30859375 171.62109375 C265.90859375 171.62109375 305.50859375 171.62109375 346.30859375 171.62109375 C346.30859375 191.75109375 346.30859375 211.88109375 346.30859375 232.62109375 C177.34859375 232.62109375 8.38859375 232.62109375 -165.69140625 232.62109375 C-165.69140625 212.49109375 -165.69140625 192.36109375 -165.69140625 171.62109375 C-150.84140625 171.62109375 -135.99140625 171.62109375 -120.69140625 171.62109375 C-120.69140625 167.66109375 -120.69140625 163.70109375 -120.69140625 159.62109375 C-120.230642 156.67632112 -119.7439413 153.97888497 -119.00390625 151.12109375 C-118.82239014 150.39752686 -118.64087402 149.67395996 -118.45385742 148.9284668 C-112.42572403 125.84237974 -97.24754708 105.59396132 -76.65185547 93.41503906 C-72.39522709 91.02160445 -68.06717539 88.78779548 -63.69140625 86.62109375 C-64.18769531 86.17121094 -64.68398437 85.72132812 -65.1953125 85.2578125 C-77.22981222 73.86271694 -83.08926279 60.82342634 -83.7109375 44.2734375 C-83.63713509 30.47238591 -78.37411295 16.31637895 -68.5859375 6.28515625 C-49.08444587 -10.84398897 -22.14883006 -14.21068937 0 0 Z " fill="#E6225C" transform="translate(165.69140625,8.37890625)"/>
<path d="M0 0 C18.34109783 17.33119724 31.02882293 42.45916854 31.8125 67.8125 C32.33211378 99.72895747 24.27999278 126.08004863 2.57421875 149.890625 C1.9915625 150.55578125 1.40890625 151.2209375 0.80859375 151.90625 C-12.55858124 166.35360074 -31.69881122 175.01648212 -50.42578125 179.890625 C-51.84310547 180.25994141 -51.84310547 180.25994141 -53.2890625 180.63671875 C-80.1039725 186.2635812 -108.45763709 179.54876215 -131.328125 165.05078125 C-155.00551236 148.43924263 -172.26049165 124.59240305 -177.80078125 95.890625 C-181.54251852 65.65127892 -176.17430585 36.40106993 -157.48828125 11.953125 C-142.65859918 -6.68737746 -123.35267453 -19.60309447 -100.42578125 -26.109375 C-99.71164063 -26.32207031 -98.9975 -26.53476562 -98.26171875 -26.75390625 C-63.02416355 -36.51091855 -26.57313353 -23.10707263 0 0 Z " fill="#EAE3EF" transform="translate(329.42578125,300.109375)"/>
<path d="M0 0 C69.96 0 139.92 0 212 0 C212 0.33 212 0.66 212 1 C211.01902344 1.17015625 210.03804687 1.3403125 209.02734375 1.515625 C171.56893122 8.16449322 139.01541707 24.94213776 116.49609375 56.47265625 C106.64745799 70.59292147 99.68921946 85.44131263 95 102 C94.65839844 103.17820312 94.31679687 104.35640625 93.96484375 105.5703125 C85.73363821 140.40936851 93.93374368 177.79707512 112 208 C118.13162927 217.57354756 125.77078709 226.17221211 134 234 C134.6703125 234.65355469 135.340625 235.30710937 136.03125 235.98046875 C157.44367093 256.17627486 186.06737679 267.1105396 215 270 C215 270.33 215 270.66 215 271 C144.05 271 73.1 271 0 271 C0 181.57 0 92.14 0 0 Z " fill="#FCF2F3" transform="translate(30,241)"/>
<path d="M0 0 C59.73 0 119.46 0 181 0 C181 39.93 181 79.86 181 121 C156.25 121 131.5 121 106 121 C106 130.9 106 140.8 106 151 C95.77 151 85.54 151 75 151 C75 141.1 75 131.2 75 121 C50.25 121 25.5 121 0 121 C0 81.07 0 41.14 0 0 Z " fill="#454572" transform="translate(286,30)"/>
<path d="M0 0 C1.71413086 -0.01836914 1.71413086 -0.01836914 3.46289062 -0.03710938 C15.05381419 -0.05676611 26.01099882 1.62793445 37.125 4.875 C38.02234863 5.13627686 38.91969727 5.39755371 39.84423828 5.66674805 C58.56530211 11.29505294 75.09271022 20.29611178 89.8125 33.1875 C90.98039062 34.15623047 90.98039062 34.15623047 92.171875 35.14453125 C98.17631505 40.22760033 103.02413174 45.96262126 107.8125 52.1875 C108.493125 53.0640625 109.17375 53.940625 109.875 54.84375 C132.52728956 84.92882208 139.62484765 121.15685614 135.09448242 158.20214844 C130.55519351 187.65766174 114.9195003 213.63594708 93.8125 234.1875 C93.38582031 234.67089844 92.95914063 235.15429688 92.51953125 235.65234375 C74.2928199 255.56584586 45.77086471 265.97453194 19.8125 270.1875 C18.91660156 270.37054688 18.02070313 270.55359375 17.09765625 270.7421875 C-16.90239595 275.35099363 -52.46998554 265.30104823 -79.84179688 244.95800781 C-83.0489668 242.47275444 -86.12560417 239.84800444 -89.1875 237.1875 C-89.84105469 236.65511719 -90.49460938 236.12273437 -91.16796875 235.57421875 C-108.23137917 221.59954929 -119.09947066 201.33766352 -127.1875 181.1875 C-127.79078125 179.69669922 -127.79078125 179.69669922 -128.40625 178.17578125 C-140.15940562 146.25527906 -136.12586751 108.56243351 -122.375 78.1328125 C-114.19502509 60.63722067 -101.57063117 43.04094012 -86.1875 31.1875 C-85.69507813 30.79530273 -85.20265625 30.40310547 -84.6953125 29.99902344 C-60.07940159 10.48253539 -31.39824545 0.01741445 0 0 Z M-21.1875 32.1875 C-22.363125 32.43242187 -23.53875 32.67734375 -24.75 32.9296875 C-51.19945425 39.15632985 -74.33905594 56.78960995 -88.84130859 79.56176758 C-103.23564606 102.91786037 -108.30608672 130.84437773 -103.0625 157.97265625 C-97.77223873 177.40964296 -89.13447494 194.58526595 -75.1875 209.1875 C-74.28515625 210.13238281 -73.3828125 211.07726562 -72.453125 212.05078125 C-56.65259561 227.48030374 -37.5108776 235.69836787 -16.1875 240.1875 C-14.9819043 240.45228149 -14.9819043 240.45228149 -13.75195312 240.72241211 C12.17140669 245.42385922 39.52883784 237.26910549 61.0234375 222.91796875 C84.35476225 206.56706322 99.95329033 181.64797417 105.08984375 153.7109375 C109.36121071 125.67457748 103.75597408 97.4132895 87.1015625 74.31640625 C69.53129846 50.9831698 44.41633328 34.65010572 15.19921875 30.46484375 C3.03991022 29.46909876 -9.2381367 29.58851348 -21.1875 32.1875 Z " fill="#7DE2F7" transform="translate(255.1875,240.8125)"/>
<path d="M0 0 C11.93136838 8.37820284 18.39408579 18.56445154 22.30859375 32.62109375 C24.79587791 47.41886028 22.51742071 61.83223458 14.30859375 74.62109375 C10.89383844 78.88666351 7.16765306 82.76203444 3.30859375 86.62109375 C4.04009644 87.00479126 4.04009644 87.00479126 4.78637695 87.39624023 C14.7823148 92.6808669 23.94743228 97.92882519 32.30859375 105.62109375 C33.25025391 106.44287109 33.25025391 106.44287109 34.2109375 107.28125 C48.78986346 120.73617713 57.11000384 140.42955429 60.30859375 159.62109375 C60.30859375 163.91109375 60.30859375 168.20109375 60.30859375 172.62109375 C0.57859375 172.62109375 -59.15140625 172.62109375 -120.69140625 172.62109375 C-120.69140625 157.49292919 -120.69140625 157.49292919 -119.00390625 151.05859375 C-118.82239014 150.33953857 -118.64087402 149.6204834 -118.45385742 148.87963867 C-112.39409379 125.8165128 -97.2375199 105.58803192 -76.65185547 93.41503906 C-72.39522709 91.02160445 -68.06717539 88.78779548 -63.69140625 86.62109375 C-64.18769531 86.17121094 -64.68398437 85.72132812 -65.1953125 85.2578125 C-77.22981222 73.86271694 -83.08926279 60.82342634 -83.7109375 44.2734375 C-83.63713509 30.47238591 -78.37411295 16.31637895 -68.5859375 6.28515625 C-49.08444587 -10.84398897 -22.14883006 -14.21068937 0 0 Z " fill="#FEDACB" transform="translate(165.69140625,8.37890625)"/>
<path d="M0 0 C0 14.85 0 29.7 0 45 C-4.95 45 -9.9 45 -15 45 C-15 54.9 -15 64.8 -15 75 C-10.05 75 -5.1 75 0 75 C0 84.9 0 94.8 0 105 C-4.95 105 -9.9 105 -15 105 C-15 125.13 -15 145.26 -15 166 C-10.05 166 -5.1 166 0 166 C0 180.85 0 195.7 0 211 C-29.54071127 211 -55.62760134 199.33861408 -76.51367188 178.54785156 C-97.93677774 156.23798113 -105.64228494 129.29721934 -105.18359375 98.9140625 C-104.48904416 71.34777766 -91.43996378 46.33307267 -71.7421875 27.40234375 C-58.71907689 15.99320839 -43.67150839 7.73110373 -27 3 C-26.28585938 2.78730469 -25.57171875 2.57460938 -24.8359375 2.35546875 C-16.58368447 0.07048235 -8.52902773 0 0 0 Z " fill="#FCF2F3" transform="translate(256,271)"/>
<path d="M0 0 C84.48 0 168.96 0 256 0 C256 20.13 256 40.26 256 61 C171.52 61 87.04 61 0 61 C0 40.87 0 20.74 0 0 Z " fill="#FB7267" transform="translate(0,180)"/>
<path d="M0 0 C32.96076007 0 64.14549146 11.23276532 89 33 C90.16789062 33.96873047 90.16789062 33.96873047 91.359375 34.95703125 C97.36381505 40.04010033 102.21163174 45.77512126 107 52 C107.680625 52.8765625 108.36125 53.753125 109.0625 54.65625 C131.71478956 84.74132208 138.81234765 120.96935614 134.28198242 158.01464844 C129.74269351 187.47016174 114.1070003 213.44844708 93 234 C92.57332031 234.48339844 92.14664063 234.96679688 91.70703125 235.46484375 C73.4803199 255.37834586 44.95836471 265.78703194 19 270 C17.02 270.33 15.04 270.66 13 271 C8.71 271 4.42 271 0 271 C0 261.1 0 251.2 0 241 C2.475 240.7525 4.95 240.505 7.5 240.25 C37.58925493 236.85179368 63.70697171 223.93735598 82.8125 200.1875 C91.50771978 188.91626491 97.18687309 176.69259209 101 163 C101.3196875 161.90171875 101.639375 160.8034375 101.96875 159.671875 C104.05735861 151.20140674 104.27661762 142.94412493 104.3125 134.25 C104.31805908 133.11336914 104.32361816 131.97673828 104.3293457 130.80566406 C104.11201792 105.29844062 93.46823429 83.00749796 77 64 C76.34515625 63.24332031 75.6903125 62.48664063 75.015625 61.70703125 C55.33748349 40.64132848 27.78328988 32.52575363 0 30 C0 20.1 0 10.2 0 0 Z " fill="#48C8E4" transform="translate(256,241)"/>
<path d="M0 0 C29.7 0 59.4 0 90 0 C90 39.6 90 79.2 90 120 C74.25 121.125 74.25 121.125 67.43408203 121.11352539 C66.67906843 121.11364593 65.92405483 121.11376646 65.14616203 121.11389065 C62.76667927 121.11316018 60.38728073 121.10562003 58.0078125 121.09765625 C56.51293983 121.09618101 55.01806665 121.0951639 53.52319336 121.09460449 C48.05712089 121.089419 42.59105957 121.07545818 37.125 121.0625 C24.87375 121.041875 12.6225 121.02125 0 121 C0 81.07 0 41.14 0 0 Z " fill="#565685" transform="translate(286,30)"/>
<path d="M0 0 C20.28870949 6.01814296 36.00228702 23.37225599 46.18359375 41.109375 C53.69832931 55.41627538 56.19921875 68.43386931 56.19921875 84.65234375 C-3.53078125 84.65234375 -63.26078125 84.65234375 -124.80078125 84.65234375 C-124.80078125 71.65234375 -124.80078125 71.65234375 -120.80078125 54.65234375 C-92.42078125 54.32234375 -64.04078125 53.99234375 -34.80078125 53.65234375 C-34.47078125 38.80234375 -34.14078125 23.95234375 -33.80078125 8.65234375 C-28.52078125 7.66234375 -23.24078125 6.67234375 -17.80078125 5.65234375 C-1.22651664 -0.22884692 -1.22651664 -0.22884692 0 0 Z " fill="#59C67F" transform="translate(169.80078125,96.34765625)"/>
<path d="M0 0 C15.11770926 0 26.98780673 4.73657417 38.125 15.04296875 C48.26615877 25.62780322 53.459984 39.71544059 53.2109375 54.359375 C51.98269698 69.73512665 46.2905977 82.46336542 35 93 C24.49653248 101.80124811 13.49827706 103.961671 0 105 C0 70.35 0 35.7 0 0 Z " fill="#FCBBA7" transform="translate(136,0)"/>
<path d="M0 0 C1.16208984 0.65162109 1.16208984 0.65162109 2.34765625 1.31640625 C8.43375311 4.501739 13.84963235 5.77609311 20.66015625 6.42578125 C21.99820313 6.55484863 21.99820313 6.55484863 23.36328125 6.68652344 C24.03875 6.75000977 24.71421875 6.81349609 25.41015625 6.87890625 C25.43542687 13.26927856 25.45298942 19.65963808 25.46508789 26.05004883 C25.47012933 28.22583498 25.47696232 30.40161772 25.4855957 32.57739258 C25.49766963 35.69743692 25.5033863 38.81743663 25.5078125 41.9375 C25.51297379 42.91665878 25.51813507 43.89581757 25.52345276 44.90464783 C25.52352829 45.80550613 25.52360382 46.70636444 25.52368164 47.63452148 C25.52590225 48.43172104 25.52812286 49.22892059 25.53041077 50.05027771 C25.41015625 51.87890625 25.41015625 51.87890625 24.41015625 52.87890625 C21.76277536 52.97401891 19.14156624 53.0044626 16.49389648 52.99243164 C15.66469696 52.99257767 14.83549744 52.99272369 13.98117065 52.99287415 C11.22700427 52.99217476 8.47290464 52.98438118 5.71875 52.9765625 C3.81445859 52.97469841 1.9101667 52.97327447 0.00587463 52.97227478 C-5.01652338 52.96844888 -10.03889267 52.95861798 -15.0612793 52.9475708 C-20.18212495 52.93735823 -25.30297523 52.93277749 -30.42382812 52.92773438 C-40.47917932 52.91699578 -50.53450915 52.89991849 -60.58984375 52.87890625 C-60.13226782 51.29023764 -59.66960221 49.70303448 -59.20483398 48.11645508 C-58.94774155 47.23242508 -58.69064911 46.34839508 -58.42576599 45.43757629 C-57.25627051 41.85787364 -55.62166349 38.76189784 -53.65234375 35.56640625 C-53.2646582 34.93323486 -52.87697266 34.30006348 -52.47753906 33.64770508 C-43.35148231 19.2865321 -18.91453101 -8.18773816 0 0 Z " fill="#BBE45E" transform="translate(110.58984375,98.12109375)"/>
<path d="M0 0 C28.71 0 57.42 0 87 0 C87 9.9 87 19.8 87 30 C56.97 30 26.94 30 -4 30 C-4 17 -4 17 0 0 Z " fill="#5BC67E" transform="translate(49,151)"/>
<path d="M0 0 C28.38 0 56.76 0 86 0 C90 17 90 17 90 30 C60.3 30 30.6 30 0 30 C0 20.1 0 10.2 0 0 Z " fill="#11A38B" transform="translate(136,151)"/>
<path d="M0 0 C9.9 0 19.8 0 30 0 C30 20.13 30 40.26 30 61 C20.1 61 10.2 61 0 61 C0 40.87 0 20.74 0 0 Z " fill="#7DE1F7" transform="translate(241,376)"/>
<path d="M0 0 C9.9 0 19.8 0 30 0 C30 9.9 30 19.8 30 30 C20.1 30 10.2 30 0 30 C0 20.1 0 10.2 0 0 Z " fill="#48C8E4" transform="translate(241,316)"/>
<path d="M0 0 C4.95 0 9.9 0 15 0 C15 19.47 15 38.94 15 59 C10.05 59 5.1 59 0 59 C0 39.53 0 20.06 0 0 Z " fill="#47C8E4" transform="translate(256,377)"/>
<path d="M0 0 C5.28 0 10.56 0 16 0 C16 9.9 16 19.8 16 30 C5.77 30 -4.46 30 -15 30 C-15 29.67 -15 29.34 -15 29 C-10.05 29 -5.1 29 0 29 C0 19.43 0 9.86 0 0 Z " fill="#38345B" transform="translate(376,151)"/>
<path d="M0 0 C4.95 0 9.9 0 15 0 C15 9.9 15 19.8 15 30 C10.05 30 5.1 30 0 30 C0 20.1 0 10.2 0 0 Z " fill="#7DE2F7" transform="translate(241,316)"/>
</svg>
