<?xml version="1.0" encoding="UTF-8"?>
<svg version="1.1" xmlns="http://www.w3.org/2000/svg" width="512" height="512">
<path d="M0 0 C66.99 0 133.98 0 203 0 C203 1.98 203 3.96 203 6 C207.95 6 212.9 6 218 6 C218 4.02 218 2.04 218 0 C273.44 0 328.88 0 386 0 C386 72.27 386 144.54 386 219 C417.68 219 449.36 219 482 219 C482.16043524 243.51539557 482.16043524 243.51539557 482.1953125 254.00976562 C482.21917266 261.155151 482.24732173 268.30033025 482.30175781 275.44555664 C482.34539509 281.20977721 482.36917497 286.97377657 482.37950897 292.73814964 C482.38686828 294.93126085 482.40123895 297.12436071 482.42292023 299.31737709 C482.631398 321.28930279 482.631398 321.28930279 478 330 C477.50757813 330.99515625 477.01515625 331.9903125 476.5078125 333.015625 C475.04715987 335.37577558 473.56060428 337.70452889 472 340 C471.58363281 340.61488281 471.16726563 341.22976563 470.73828125 341.86328125 C462.11471129 353.12830507 447.67668245 359.71036148 434 362 C431.87749264 362.0873747 429.75252391 362.12200869 427.6282196 362.12025452 C426.34239487 362.12162918 425.05657013 362.12300385 423.73178101 362.12442017 C422.31426978 362.12088147 420.8967588 362.11724667 419.47924805 362.11352539 C417.98099265 362.1132432 416.48273712 362.11340187 414.98448181 362.1139679 C410.92291182 362.11425464 406.86137139 362.10837772 402.79980826 362.10139394 C398.55304855 362.09514 394.30628815 362.09455498 390.05952454 362.09336853 C382.02025994 362.09026124 373.98100895 362.08205595 365.94175035 362.07201904 C356.78824331 362.06083923 347.63473563 362.05534274 338.48122346 362.05032361 C319.65414126 362.03987285 300.82707173 362.02228504 282 362 C281.70359619 362.92272705 281.40719238 363.8454541 281.10180664 364.79614258 C277.42148608 375.4978591 270.35072111 384.57758497 263 393 C262.46503906 393.65613281 261.93007813 394.31226563 261.37890625 394.98828125 C241.99033694 418.68542151 209.91792377 433.35596208 179.90625 436.72265625 C160.07666092 438.13055707 139.95850364 436.77402396 121.375 429.1875 C117.61569518 427.86478164 116.67589507 427.66303294 113 429 C110.41666137 431.02988703 108.1736972 433.36294822 105.88989258 435.71948242 C105.19321472 436.42200134 104.49653687 437.12452026 103.77874756 437.84832764 C102.26726774 439.37502547 100.76042679 440.90632668 99.25769997 442.44164085 C96.87382408 444.87661981 94.47763157 447.29884085 92.07780457 449.71809387 C86.11596475 455.73340316 80.1758329 461.77000458 74.23522949 467.80627441 C69.22050477 472.90018528 64.19750375 477.98565951 59.16336632 483.06038857 C56.81208872 485.4374447 54.47327603 487.82630352 52.13471985 490.21586609 C50.6761096 491.689023 49.21692546 493.16161197 47.75708008 494.63354492 C46.79888618 495.62273674 46.79888618 495.62273674 45.82133484 496.63191223 C36.20526384 506.2523514 25.63838256 511.23808136 12.125 511.4375 C-0.28285583 511.35625355 -9.24309646 507.57093372 -18.12890625 498.9296875 C-27.8297036 488.6750693 -29.5790734 478.47860087 -29.33984375 464.8515625 C-28.60403559 449.07901077 -16.63911892 438.32836306 -6.09765625 427.8671875 C-5.05028765 426.82101493 -4.00329277 425.77446809 -2.95664978 424.72756958 C-0.77537235 422.5478452 1.40918588 420.37148506 3.59643555 418.19775391 C6.37958027 415.43160751 9.15608768 412.65891495 11.93036556 409.88387871 C14.08782313 407.72669493 16.24789125 405.57214104 18.40881538 403.41843033 C19.43270574 402.39768893 20.45602075 401.37637004 21.47871208 400.35442734 C26.60779878 395.23320753 31.76364831 390.18714066 37.28051758 385.47993469 C40.31488879 382.86829344 43.19620627 380.10589377 46.0625 377.3125 C46.65482422 376.75755859 47.24714844 376.20261719 47.85742188 375.63085938 C49.74747697 373.83850597 49.74747697 373.83850597 52 371 C51.74726407 368.95996716 51.74726407 368.95996716 51 367 C50.65939189 365.33480481 50.32441604 363.66842534 50 362 C48.39125 362.0928125 48.39125 362.0928125 46.75 362.1875 C33.87904507 362.11939971 22.41555862 356.49878054 13 348 C10.5859375 345.125 10.5859375 345.125 8.375 342 C7.27285156 340.4840625 7.27285156 340.4840625 6.1484375 338.9375 C-1.81017185 325.37817568 -0.52005291 310.53368842 -0.390625 295.35546875 C-0.38315402 292.77330465 -0.37746514 290.19113484 -0.37347412 287.60896301 C-0.35983258 281.53894426 -0.32840218 275.46926365 -0.28807616 269.39937145 C-0.24312159 262.48025905 -0.22131236 255.56113146 -0.20129442 248.641909 C-0.15966106 234.42778272 -0.08945828 220.21390184 0 206 C2.31 206 4.62 206 7 206 C7 201.38 7 196.76 7 192 C4.69 192 2.38 192 0 192 C0 128.64 0 65.28 0 0 Z " fill="#F36161" transform="translate(30,0)"/>
<path d="M0 0 C55.44 0 110.88 0 168 0 C168 72.27 168 144.54 168 219 C199.68 219 231.36 219 264 219 C264.16043524 243.51539557 264.16043524 243.51539557 264.1953125 254.00976562 C264.21917266 261.155151 264.24732173 268.30033025 264.30175781 275.44555664 C264.34539509 281.20977721 264.36917497 286.97377657 264.37950897 292.73814964 C264.38686828 294.93126085 264.40123895 297.12436071 264.42292023 299.31737709 C264.631398 321.28930279 264.631398 321.28930279 260 330 C259.50757813 330.99515625 259.01515625 331.9903125 258.5078125 333.015625 C257.04715987 335.37577558 255.56060428 337.70452889 254 340 C253.58363281 340.61488281 253.16726563 341.22976563 252.73828125 341.86328125 C244.11471129 353.12830507 229.67668245 359.71036148 216 362 C213.87749264 362.0873747 211.75252391 362.12200869 209.6282196 362.12025452 C208.34239487 362.12162918 207.05657013 362.12300385 205.73178101 362.12442017 C204.31426978 362.12088147 202.8967588 362.11724667 201.47924805 362.11352539 C199.98099265 362.1132432 198.48273712 362.11340187 196.98448181 362.1139679 C192.92291182 362.11425464 188.86137139 362.10837772 184.79980826 362.10139394 C180.55304855 362.09514 176.30628815 362.09455498 172.05952454 362.09336853 C164.02025994 362.09026124 155.98100895 362.08205595 147.94175035 362.07201904 C138.78824331 362.06083923 129.63473563 362.05534274 120.48122346 362.05032361 C101.65414126 362.03987285 82.82707173 362.02228504 64 362 C63.70359619 362.92272705 63.40719238 363.8454541 63.10180664 364.79614258 C59.42148608 375.4978591 52.35072111 384.57758497 45 393 C44.46503906 393.65613281 43.93007813 394.31226563 43.37890625 394.98828125 C23.99033694 418.68542151 -8.08207623 433.35596208 -38.09375 436.72265625 C-57.92333908 438.13055707 -78.04149636 436.77402396 -96.625 429.1875 C-100.38430482 427.86478164 -101.32410493 427.66303294 -105 429 C-107.58333863 431.02988703 -109.8263028 433.36294822 -112.11010742 435.71948242 C-112.80678528 436.42200134 -113.50346313 437.12452026 -114.22125244 437.84832764 C-115.73273226 439.37502547 -117.23957321 440.90632668 -118.74230003 442.44164085 C-121.12617592 444.87661981 -123.52236843 447.29884085 -125.92219543 449.71809387 C-131.88403525 455.73340316 -137.8241671 461.77000458 -143.76477051 467.80627441 C-148.77949523 472.90018528 -153.80249625 477.98565951 -158.83663368 483.06038857 C-161.18791128 485.4374447 -163.52672397 487.82630352 -165.86528015 490.21586609 C-167.3238904 491.689023 -168.78307454 493.16161197 -170.24291992 494.63354492 C-171.20111382 495.62273674 -171.20111382 495.62273674 -172.17866516 496.63191223 C-181.79473616 506.2523514 -192.36161744 511.23808136 -205.875 511.4375 C-218.28285583 511.35625355 -227.24309646 507.57093372 -236.12890625 498.9296875 C-245.8297036 488.6750693 -247.5790734 478.47860087 -247.33984375 464.8515625 C-246.60403559 449.07901077 -234.63911892 438.32836306 -224.09765625 427.8671875 C-223.05028765 426.82101493 -222.00329277 425.77446809 -220.95664978 424.72756958 C-218.77537235 422.5478452 -216.59081412 420.37148506 -214.40356445 418.19775391 C-211.62041973 415.43160751 -208.84391232 412.65891495 -206.06963444 409.88387871 C-203.91217687 407.72669493 -201.75210875 405.57214104 -199.59118462 403.41843033 C-198.56729426 402.39768893 -197.54397925 401.37637004 -196.52128792 400.35442734 C-191.39220122 395.23320753 -186.23635169 390.18714066 -180.71948242 385.47993469 C-177.68511121 382.86829344 -174.80379373 380.10589377 -171.9375 377.3125 C-171.34517578 376.75755859 -170.75285156 376.20261719 -170.14257812 375.63085938 C-168.25252303 373.83850597 -168.25252303 373.83850597 -166 371 C-166.25273593 368.95996716 -166.25273593 368.95996716 -167 367 C-167.34060811 365.33480481 -167.67558396 363.66842534 -168 362 C-169.60875 362.0928125 -169.60875 362.0928125 -171.25 362.1875 C-184.12095493 362.11939971 -195.58444138 356.49878054 -205 348 C-207.4140625 345.125 -207.4140625 345.125 -209.625 342 C-210.72714844 340.4840625 -210.72714844 340.4840625 -211.8515625 338.9375 C-219.81017185 325.37817568 -218.52005291 310.53368842 -218.390625 295.35546875 C-218.38315402 292.77330465 -218.37746514 290.19113484 -218.37347412 287.60896301 C-218.35983258 281.53894426 -218.32840218 275.46926365 -218.28807616 269.39937145 C-218.24312159 262.48025905 -218.22131236 255.56113146 -218.20129442 248.641909 C-218.15966106 234.42778272 -218.08945828 220.21390184 -218 206 C-212.84828377 205.90961901 -208.08086796 206.15318867 -203 207 C-202.99853344 207.56100277 -202.99706688 208.12200554 -202.99555588 208.70000839 C-202.95838033 222.39884177 -202.8989755 236.09742682 -202.81609726 249.79606247 C-202.77667841 256.42085475 -202.7444623 263.0455152 -202.72900391 269.67041016 C-202.71380081 276.07020501 -202.67928962 282.46963733 -202.63169098 288.86927032 C-202.61691496 291.30431203 -202.60896117 293.7394055 -202.60811615 296.17449188 C-202.60573344 299.59946322 -202.57854738 303.02344321 -202.54589844 306.44824219 C-202.5509288 307.44303085 -202.55595917 308.43781952 -202.56114197 309.4627533 C-202.39914555 320.5296943 -199.33040887 329.8838753 -191.578125 337.8671875 C-186.43575161 342.12133276 -180.47245332 344.53653153 -174 346 C-174.3079248 345.4335376 -174.61584961 344.8670752 -174.93310547 344.28344727 C-185.21700199 322.27308475 -181.18910252 289.99228999 -173.4453125 267.84375 C-169.39964371 256.88274472 -164.81545497 246.55269652 -158 237 C-156.90751953 235.46279297 -156.90751953 235.46279297 -155.79296875 233.89453125 C-136.05926496 206.8714721 -107.49776529 188.52961538 -74.4921875 182.5078125 C-39.06534243 177.35625785 -4.90832791 185.45792934 24.42578125 205.921875 C27 208 27 208 30 212 C27.03 215.63 24.06 219.26 21 223 C19.700625 222.13375 18.40125 221.2675 17.0625 220.375 C16.23105469 219.82457031 15.39960938 219.27414063 14.54296875 218.70703125 C12.98895571 217.66386121 11.44649878 216.60285506 9.92578125 215.51171875 C-1.88422395 207.16598174 -15.10754155 202.53892099 -29 199 C-30.37671875 198.62875 -30.37671875 198.62875 -31.78125 198.25 C-58.13640199 192.24502866 -88.13106505 199.34990382 -110.91552734 213.16113281 C-133.05493207 227.43668656 -148.71869751 247.39998756 -158 272 C-158.25974609 272.6604834 -158.51949219 273.3209668 -158.78710938 274.00146484 C-163.07516673 285.34717957 -163.4956193 296.70194144 -163.5625 308.6875 C-163.57135223 309.42408844 -163.58020447 310.16067688 -163.58932495 310.91958618 C-163.8275645 340.18395505 -151.13672198 367.84858912 -130.8125 388.625 C-108.84763813 410.27310713 -81.08508394 420.29142246 -50.54125977 420.24438477 C-23.09225989 419.96352494 2.57328812 410.72448589 23 392 C23.91265625 391.16855469 24.8253125 390.33710938 25.765625 389.48046875 C40.67181551 375.2612954 50.50808019 357.82945784 56 338 C56.46986328 336.41445313 56.46986328 336.41445313 56.94921875 334.796875 C61.17666046 317.35029017 61.40079656 295.20481025 56 278 C55.80664062 277.37593262 55.61328125 276.75186523 55.4140625 276.10888672 C51.10163757 262.56268155 44.50919549 249.75577157 35.44140625 238.7734375 C33.71320688 236.64714342 32.31642465 234.40053907 31 232 C32.05248317 230.86562333 33.11752067 229.74288885 34.1875 228.625 C34.77917969 227.99851563 35.37085938 227.37203125 35.98046875 226.7265625 C38.20735197 224.82272811 40.24329717 223.94270667 43 223 C68.83161232 252.83790405 77.07277278 285.36396115 75 324 C74.25131773 331.65408148 72.43409272 338.69772184 70 346 C119.005 345.505 119.005 345.505 169 345 C166.69 342.36 164.38 339.72 162 337 C160.109375 334.19921875 160.109375 334.19921875 158.75 331.6875 C158.29109375 330.86636719 157.8321875 330.04523438 157.359375 329.19921875 C153.56372325 320.26634868 152.56528282 311.89050342 152.63923645 302.25007629 C152.63667318 301.01152836 152.6341099 299.77298043 152.63146895 298.49690074 C152.62740726 295.08968313 152.63668521 291.68299178 152.65180314 288.27583826 C152.66483356 284.5902446 152.66036912 280.90466541 152.65809631 277.21905518 C152.65652798 270.84366371 152.66589097 264.46836479 152.68280983 258.0929966 C152.70725522 248.87545133 152.71501075 239.65795053 152.7187738 230.44037636 C152.72532962 215.48325618 152.74526712 200.52618526 152.77368164 185.5690918 C152.80124476 171.04500571 152.82243288 156.5209331 152.83520508 141.99682617 C152.83600907 141.09150573 152.83681306 140.18618529 152.83764142 139.2534309 C152.84388017 132.17257889 152.84975078 125.09172658 152.85550511 118.01087415 C152.88377449 83.34053755 152.94413685 48.67032434 153 14 C102.51 14 52.02 14 0 14 C0 9.38 0 4.76 0 0 Z " fill="#020101" transform="translate(248,0)"/>
<path d="M0 0 C26.25576356 -1.01854255 49.03780219 6.81823146 68.75390625 24.46484375 C83.74955067 38.66795063 94.78417608 58.76717801 95.36328125 79.7265625 C95.36197469 82.0261036 95.34493951 84.32568735 95.3125 86.625 C95.31572266 87.77484375 95.31894531 88.9246875 95.32226562 90.109375 C95.26052095 99.96607071 93.80641073 108.75407785 90.25 117.9375 C89.98614502 118.62352295 89.72229004 119.3095459 89.45043945 120.01635742 C80.24781735 143.37433525 63.48009981 158.85166817 40.99414062 169.14257812 C21.60340234 177.48002583 -3.20042916 177.94180764 -22.8125 170.125 C-27.98986617 167.97538335 -33.04814932 165.6275126 -38 163 C-37.67 162.236875 -37.34 161.47375 -37 160.6875 C-35.82563314 158.00930865 -35.82563314 158.00930865 -36 155 C-37.76401402 153.3122919 -37.76401402 153.3122919 -40 151.8125 C-40.7425 151.28269531 -41.485 150.75289062 -42.25 150.20703125 C-43.11625 149.60955078 -43.11625 149.60955078 -44 149 C-44.5775 149.309375 -45.155 149.61875 -45.75 149.9375 C-49.65786055 151.78287859 -49.65786055 151.78287859 -52 152 C-59.64364759 147.13883654 -64.48181431 137.60546805 -69 130 C-69.49628906 129.18917969 -69.99257812 128.37835938 -70.50390625 127.54296875 C-80.49957085 109.65104246 -82.77128598 84.73613239 -77.60766602 65.09106445 C-76.60746074 61.95783805 -75.35497892 58.99538924 -74 56 C-73.70528809 55.32694824 -73.41057617 54.65389648 -73.10693359 53.96044922 C-69.14180652 45.00540663 -64.52024877 37.36618923 -58 30 C-56.82244141 28.52853516 -56.82244141 28.52853516 -55.62109375 27.02734375 C-49.09171422 19.19258325 -40.01144805 13.72168853 -31.125 8.9375 C-30.0736084 8.364552 -30.0736084 8.364552 -29.00097656 7.7800293 C-24.61403054 5.506841 -20.92760778 4.41813904 -16 4 C-15.01 6.97 -15.01 6.97 -14 10 C-13.32453125 9.855625 -12.6490625 9.71125 -11.953125 9.5625 C-10.61507812 9.2840625 -10.61507812 9.2840625 -9.25 9 C-8.36828125 8.814375 -7.4865625 8.62875 -6.578125 8.4375 C-4 8 -4 8 0 8 C0 5.36 0 2.72 0 0 Z " fill="#91D7FE" transform="translate(188,221)"/>
<path d="M0 0 C0.54785156 0.4846875 1.09570312 0.969375 1.66015625 1.46875 C3.64015625 -0.18125 5.62015625 -1.83125 7.66015625 -3.53125 C8.95870346 -2.45617371 10.24873986 -1.37081264 11.53515625 -0.28125 C12.25445312 0.32203125 12.97375 0.9253125 13.71484375 1.546875 C15.63067743 3.43962634 16.6246467 5.00532727 17.66015625 7.46875 C16.34015625 9.11875 15.02015625 10.76875 13.66015625 12.46875 C14.13324219 13.01660156 14.60632813 13.56445312 15.09375 14.12890625 C37.17564991 40.60135936 44.36238523 71.59246147 41.39208984 105.53173828 C37.79427367 133.9020709 20.73129051 160.37374486 -1.46875 177.9453125 C-27.94067215 196.84918819 -57.4038945 204.02613745 -89.85546875 200.00390625 C-118.41561498 194.86915656 -145.63599709 177.65028043 -162.46728516 154.00512695 C-180.15878062 127.78639992 -187.06729934 95.76631288 -181.46875 64.49609375 C-180.44425525 60.01542931 -179.01365508 55.7446344 -177.33984375 51.46875 C-177.0881543 50.78941406 -176.83646484 50.11007812 -176.57714844 49.41015625 C-165.33137269 19.47800345 -143.23461914 -2.60122594 -114.359375 -16.08520508 C-77.38411104 -32.32319408 -30.91508903 -26.13958747 0 0 Z M-78.33984375 0.46875 C-78.33984375 3.10875 -78.33984375 5.74875 -78.33984375 8.46875 C-79.0153125 8.52933594 -79.69078125 8.58992188 -80.38671875 8.65234375 C-81.27875 8.73613281 -82.17078125 8.81992188 -83.08984375 8.90625 C-83.9715625 8.98746094 -84.85328125 9.06867188 -85.76171875 9.15234375 C-88.03334827 9.43113465 -90.13836198 9.85665577 -92.33984375 10.46875 C-92.99984375 8.48875 -93.65984375 6.50875 -94.33984375 4.46875 C-100.23093677 4.95517052 -104.49283719 6.70997301 -109.65234375 9.53125 C-110.39709961 9.9324707 -111.14185547 10.33369141 -111.90917969 10.74707031 C-120.0033539 15.21803747 -127.04027295 20.68459683 -133.33984375 27.46875 C-133.99339844 28.11714844 -134.64695312 28.76554687 -135.3203125 29.43359375 C-146.03539885 40.51752989 -152.20409517 53.77207202 -156.33984375 68.46875 C-156.60595459 69.36726685 -156.60595459 69.36726685 -156.87744141 70.28393555 C-161.4319022 91.80340212 -156.64383812 115.85438802 -145.33984375 134.46875 C-141.07316219 140.93243997 -136.37349658 147.55763723 -130.33984375 152.46875 C-127.22736425 152.08206721 -125.22396155 150.9108089 -122.33984375 149.46875 C-119.69984375 151.44875 -117.05984375 153.42875 -114.33984375 155.46875 C-114.86252841 158.23151177 -115.44853962 160.7948376 -116.33984375 163.46875 C-93.52194404 174.61299104 -68.7847217 180.68621968 -43.70703125 172.24609375 C-31.28385202 167.66888377 -20.3300392 161.18397295 -10.33984375 152.46875 C-9.72625 151.93894531 -9.11265625 151.40914062 -8.48046875 150.86328125 C5.61350787 137.7713993 15.85621657 116.76285958 16.80053711 97.62353516 C17.64814765 69.76864308 11.88145471 47.65214546 -7.46533203 26.89404297 C-21.88063695 11.99056101 -42.44127184 1.50847995 -63.33984375 0.46875 C-68.34163846 0.3972228 -73.3380566 0.41013531 -78.33984375 0.46875 Z " fill="#E1EAF8" transform="translate(266.33984375,220.53125)"/>
<path d="M0 0 C0.65581055 0.20608887 1.31162109 0.41217773 1.98730469 0.62451172 C24.70068827 7.79687682 43.39325739 20.15690075 61 36 C61.67675781 36.60328125 62.35351562 37.2065625 63.05078125 37.828125 C89.7267476 63.03977816 104.99873736 101.47721062 106.203125 137.76171875 C106.35396499 147.4634729 105.86859732 156.93531511 104.625 166.5625 C104.49899414 167.54371826 104.37298828 168.52493652 104.24316406 169.53588867 C103.61981285 173.96191545 103.03634232 176.92731536 101 181 C93.41 181 85.82 181 78 181 C78.66 177.98875 79.32 174.9775 80 171.875 C86.37381474 139.13642609 81.92185638 104.34602869 63.73046875 76.0234375 C59.75720513 70.1397256 55.46469897 64.5194329 51 59 C49.88625 59.495 49.88625 59.495 48.75 60 C46 61 46 61 42 61 C39.4375 58.6875 39.4375 58.6875 37 56 C36.401875 55.401875 35.80375 54.80375 35.1875 54.1875 C34.795625 53.795625 34.40375 53.40375 34 53 C34.309375 52.401875 34.61875 51.80375 34.9375 51.1875 C36.10209704 48.91043228 36.10209704 48.91043228 37 46 C12.24370365 24.15970971 -21.51671111 15.42455757 -54 17 C-87.32196845 19.60141334 -119.00125044 35.79677126 -141 61 C-162.52971057 87.47979878 -173.8410014 120.80583482 -171 155 C-169.84663657 163.74158851 -168.18598919 172.45653699 -166 181 C-174.75529349 180.44115148 -181.55763006 176.22799778 -187.5 169.88671875 C-194.13599182 161.53988529 -195.3003268 152.33655032 -195.22705078 142.01586914 C-195.22734283 140.93220062 -195.22763489 139.8485321 -195.22793579 138.73202515 C-195.2265475 135.16631945 -195.21100968 131.60082525 -195.1953125 128.03515625 C-195.1915806 125.55651463 -195.18873446 123.07787153 -195.18673706 120.59922791 C-195.17911461 114.08743185 -195.15947795 107.57572554 -195.1373291 101.06396484 C-195.11575462 94.41440525 -195.10772896 87.76481946 -195.09765625 81.11523438 C-195.07623083 68.07678471 -195.04249807 55.03839714 -195 42 C-194.67 42 -194.34 42 -194 42 C-193.67 68.73 -193.34 95.46 -193 123 C-192.01 117.39 -191.02 111.78 -190 106 C-189.0233111 102.5358452 -188.05478089 99.28614755 -186.8125 95.9375 C-186.51206787 95.10661865 -186.21163574 94.2757373 -185.90209961 93.41967773 C-179.63331448 76.55830688 -170.72483238 60.6678046 -159 47 C-158.31292969 46.19046875 -157.62585938 45.3809375 -156.91796875 44.546875 C-133.05427831 17.20037568 -97.57149549 -2.96267815 -60.97045898 -5.83666992 C-40.10532675 -6.98393494 -19.96913633 -6.53417744 0 0 Z " fill="#EC4747" transform="translate(240,165)"/>
<path d="M0 0 C26.25576356 -1.01854255 49.03780219 6.81823146 68.75390625 24.46484375 C83.74955067 38.66795063 94.78417608 58.76717801 95.36328125 79.7265625 C95.36197469 82.0261036 95.34493951 84.32568735 95.3125 86.625 C95.31572266 87.77484375 95.31894531 88.9246875 95.32226562 90.109375 C95.26052095 99.96607071 93.80641073 108.75407785 90.25 117.9375 C89.98614502 118.62352295 89.72229004 119.3095459 89.45043945 120.01635742 C80.24781735 143.37433525 63.48009981 158.85166817 40.99414062 169.14257812 C21.60340234 177.48002583 -3.20042916 177.94180764 -22.8125 170.125 C-27.98986617 167.97538335 -33.04814932 165.6275126 -38 163 C-36.35821735 158.22390502 -33.73453298 154.20617096 -31 150 C-25.99795634 150.99794467 -21.50857997 153.41911006 -16.8984375 155.52734375 C-8.988238 158.75764367 -0.89507575 159.32457084 7.5625 159.25 C8.44357422 159.25773438 9.32464844 159.26546875 10.23242188 159.2734375 C29.05394644 159.2178758 46.12332846 151.10995182 59.71875 138.375 C72.51678922 125.05101396 79.79882507 106.57325971 79.67260742 88.13720703 C79.03489242 75.8042797 69.7910668 65.9778087 61 58 C41.96475667 42.07559788 20.17005277 37.45951951 -4 39 C-19.98814122 40.92851776 -33.78872059 48.85440109 -46 59 C-46.65484375 59.54011719 -47.3096875 60.08023438 -47.984375 60.63671875 C-54.23609912 66.32922901 -62.61501569 77.02270284 -63.2734375 85.53515625 C-63.93912233 106.29474718 -57.26804096 122.12927297 -44 138 C-42.99095305 139.32649992 -41.98772602 140.65754885 -41 142 C-41.48210937 142.47050781 -41.96421875 142.94101562 -42.4609375 143.42578125 C-43.09257812 144.04839844 -43.72421875 144.67101562 -44.375 145.3125 C-45.00148437 145.92738281 -45.62796875 146.54226563 -46.2734375 147.17578125 C-48.18086607 149.08812528 -48.18086607 149.08812528 -50 152 C-60.70293456 147.49223251 -67.88679374 133.75201877 -72.50390625 123.73828125 C-77.41516178 111.58475638 -79.56965283 99.7778783 -79.5 86.6875 C-79.49355469 85.41366455 -79.48710938 84.1398291 -79.48046875 82.82739258 C-79.28871012 72.93857688 -78.08389045 65.02806776 -74 56 C-73.70528809 55.32694824 -73.41057617 54.65389648 -73.10693359 53.96044922 C-69.14180652 45.00540663 -64.52024877 37.36618923 -58 30 C-56.82244141 28.52853516 -56.82244141 28.52853516 -55.62109375 27.02734375 C-49.09171422 19.19258325 -40.01144805 13.72168853 -31.125 8.9375 C-30.0736084 8.364552 -30.0736084 8.364552 -29.00097656 7.7800293 C-24.61403054 5.506841 -20.92760778 4.41813904 -16 4 C-15.01 6.97 -15.01 6.97 -14 10 C-13.32453125 9.855625 -12.6490625 9.71125 -11.953125 9.5625 C-10.61507812 9.2840625 -10.61507812 9.2840625 -9.25 9 C-8.36828125 8.814375 -7.4865625 8.62875 -6.578125 8.4375 C-4 8 -4 8 0 8 C0 5.36 0 2.72 0 0 Z " fill="#49BBED" transform="translate(188,221)"/>
<path d="M0 0 C27.06 0 54.12 0 82 0 C82.0825 12.271875 82.165 24.54375 82.25 37.1875 C82.28641602 41.03688232 82.32283203 44.88626465 82.36035156 48.85229492 C82.37841797 53.61779785 82.37841797 53.61779785 82.3817749 55.86128235 C82.38784593 57.40075836 82.40176292 58.94021752 82.42230225 60.47956848 C82.62579267 76.55930413 79.88715593 89.53843609 68.75 101.75 C59.55507976 110.49836782 47.99345599 112.51521971 35.75390625 112.30859375 C24.53644097 111.3864504 16.14275286 105.72600188 8.6875 97.5625 C2.38292758 89.75600728 -0.32775476 80.95788577 -0.22705078 70.95336914 C-0.22729185 70.16946273 -0.22753292 69.38555632 -0.2277813 68.57789516 C-0.22629947 66.06352966 -0.21111917 63.54946807 -0.1953125 61.03515625 C-0.19236855 59.47359357 -0.19033028 57.91202892 -0.18920898 56.35046387 C-0.17876243 50.58777897 -0.15083988 44.82513644 -0.125 39.0625 C-0.08375 26.171875 -0.0425 13.28125 0 0 Z " fill="#E3ECFA" transform="translate(416,234)"/>
<path d="M0 0 C13.550625 -0.12375 13.550625 -0.12375 27.375 -0.25 C31.62383057 -0.30462402 31.62383057 -0.30462402 35.95849609 -0.36035156 C38.23013554 -0.37204557 40.50178344 -0.3822357 42.7734375 -0.390625 C43.93141846 -0.41108887 45.08939941 -0.43155273 46.2824707 -0.45263672 C56.01071385 -0.45677728 64.21311756 1.5203881 71.46875 8.296875 C78.03445792 15.59955014 80.49767226 23.15023234 80.31640625 32.90234375 C79.51427252 40.75533196 75.7762 46.89707777 71 53 C71.48210937 53.65226562 71.96421875 54.30453125 72.4609375 54.9765625 C78.77244529 63.70962839 81.08378823 70.13468 80 81 C78.27083312 88.20658772 74.65618685 94.1975772 69 99 C63.04794124 102.63636417 57.54209638 105.12930808 50.51879883 105.11352539 C49.38220825 105.11340454 48.24561768 105.11328369 47.07458496 105.11315918 C45.88079224 105.10804321 44.68699951 105.10292725 43.45703125 105.09765625 C42.35919312 105.09664917 41.26135498 105.09564209 40.13024902 105.09460449 C36.02432208 105.08936752 31.91841 105.07540628 27.8125 105.0625 C14.0453125 105.0315625 14.0453125 105.0315625 0 105 C0 70.35 0 35.7 0 0 Z " fill="#FEFBFB" transform="translate(280,52)"/>
<path d="M0 0 C4.1191902 1.85053231 6.35991584 4.59175101 9.125 8.0625 C17.77395599 18.54944931 27.87662956 26.32263049 39 34 C37.73002927 36.77628868 36.42128644 38.83024351 34.26974487 40.99095154 C33.7148085 41.55297272 33.15987213 42.1149939 32.58811951 42.69404602 C31.98137894 43.29830917 31.37463837 43.90257233 30.74951172 44.52514648 C30.10858078 45.17118835 29.46764984 45.81723022 28.80729675 46.48284912 C26.68658114 48.61746546 24.55851488 50.74456917 22.4296875 52.87109375 C20.94933389 54.35533528 19.46920404 55.8398 17.98928833 57.32447815 C14.88395923 60.43727144 11.77477951 63.54615734 8.66308594 66.65258789 C4.68692125 70.62297135 0.72220644 74.6045706 -3.23942757 78.58944607 C-6.29520649 81.66000232 -9.35793319 84.72355503 -12.42266464 87.78517342 C-13.88654602 89.24956644 -15.34808077 90.71630935 -16.80716324 92.18548393 C-18.85535602 94.24609475 -20.91297342 96.29683297 -22.97314453 98.34545898 C-23.56773972 98.94769791 -24.1623349 99.54993683 -24.77494812 100.17042542 C-31.43463275 106.74842311 -39.05975351 112.21897972 -48.6875 112.4375 C-56.09138777 112.28287335 -61.52749461 110.07283967 -67.0703125 105.16796875 C-72.60296016 99.29965836 -75.05951665 93.65535032 -75.5 85.625 C-75.1054228 74.18226108 -67.51869187 66.13852897 -59.56462097 58.64833069 C-58.52251109 57.68976374 -57.47916293 56.73254191 -56.43482971 55.77639771 C-45.16086056 45.44273279 -34.43414264 34.54939206 -23.6461792 23.71484375 C-20.97239957 21.0306563 -18.2956267 18.34945705 -15.61914062 15.66796875 C-10.4099066 10.44815298 -5.20387599 5.22515806 0 0 Z " fill="#E2EBF9" transform="translate(91,384)"/>
<path d="M0 0 C66.99 0 133.98 0 203 0 C203 4.62 203 9.24 203 14 C140.96 14 78.92 14 15 14 C15 72.74 15 131.48 15 192 C10.05 192 5.1 192 0 192 C0 128.64 0 65.28 0 0 Z " fill="#000000" transform="translate(30,0)"/>
<path d="M0 0 C26.25576356 -1.01854255 49.03780219 6.81823146 68.75390625 24.46484375 C83.74955067 38.66795063 94.78417608 58.76717801 95.36328125 79.7265625 C95.36197469 82.0261036 95.34493951 84.32568735 95.3125 86.625 C95.31572266 87.77484375 95.31894531 88.9246875 95.32226562 90.109375 C95.26052095 99.96607071 93.80641073 108.75407785 90.25 117.9375 C89.98614502 118.62352295 89.72229004 119.3095459 89.45043945 120.01635742 C80.24781735 143.37433525 63.48009981 158.85166817 40.99414062 169.14257812 C21.60340234 177.48002583 -3.20042916 177.94180764 -22.8125 170.125 C-27.98986617 167.97538335 -33.04814932 165.6275126 -38 163 C-36.35821735 158.22390502 -33.73453298 154.20617096 -31 150 C-25.99795634 150.99794467 -21.50857997 153.41911006 -16.8984375 155.52734375 C-8.988238 158.75764367 -0.89507575 159.32457084 7.5625 159.25 C8.44357422 159.25773438 9.32464844 159.26546875 10.23242188 159.2734375 C29.05394644 159.2178758 46.12332846 151.10995182 59.71875 138.375 C74.38143371 123.10974025 79.67705218 103.84886281 79.54077148 83.20922852 C79.27769503 74.32181956 77.8011508 67.11492499 74 59 C73.50371094 57.88753906 73.00742187 56.77507812 72.49609375 55.62890625 C64.65998352 39.59792412 51.23437844 28.13658918 35 21 C34.33484375 20.70351562 33.6696875 20.40703125 32.984375 20.1015625 C23.14012012 16.05981558 12.50537015 15.58277966 2 15 C1.66048381 13.43883181 1.32867456 11.87598662 1 10.3125 C0.814375 9.44238281 0.62875 8.57226562 0.4375 7.67578125 C0.01027953 5.06287036 -0.07616201 2.64186962 0 0 Z " fill="#020304" transform="translate(188,221)"/>
<path d="M0 0 C9.33093454 5.88906698 16.43998559 13.70598676 19.30859375 24.45703125 C19.63764722 27.68994531 19.68967975 30.89643458 19.68359375 34.14453125 C19.68198242 35.03285645 19.68037109 35.92118164 19.67871094 36.83642578 C19.48928546 46.99668818 16.79855021 55.77949085 9.59375 63.23046875 C1.03530095 71.26354766 -8.23333632 74.03046628 -19.81640625 73.921875 C-28.47850676 72.88277222 -36.15114737 68.52638876 -42.25390625 62.33203125 C-50.81849322 51.35462516 -52.25764037 38.91597291 -50.69140625 25.45703125 C-48.59249138 15.98259988 -42.48571748 8.06893534 -34.69140625 2.45703125 C-24.27729401 -3.41454441 -11.15798666 -5.32497508 0 0 Z " fill="#F46363" transform="translate(231.69140625,68.54296875)"/>
<path d="M0 0 C8.71804049 6.90752192 15.66203466 18.64122287 17.79296875 29.55859375 C18.09622405 33.12497633 18.12685641 36.66824336 18.10546875 40.24609375 C18.0998291 41.22562012 18.09418945 42.20514648 18.08837891 43.21435547 C17.96863601 50.35743417 17.38502911 56.84100221 14.79296875 63.55859375 C14.22449219 65.04166016 14.22449219 65.04166016 13.64453125 66.5546875 C7.64140154 80.17450492 -2.73532281 88.18278656 -16.20703125 93.55859375 C-28.03543496 97.89893362 -41.83008447 96.47169561 -53.20703125 91.55859375 C-66.451026 84.68424694 -75.4098185 74.74362055 -80.58203125 60.74609375 C-84.84391776 45.69574976 -83.51736 28.18809267 -76.14453125 14.43359375 C-68.57855557 2.4096573 -57.94432119 -5.99257539 -44.22290039 -10.02441406 C-28.35541898 -13.3066786 -13.22804991 -8.63920428 0 0 Z M-49.20703125 8.55859375 C-50.75390625 9.42484375 -50.75390625 9.42484375 -52.33203125 10.30859375 C-59.68311565 16.06161632 -65.17765353 23.35391624 -67.20703125 32.55859375 C-68.51503273 46.06743431 -67.37807813 58.39984334 -58.76953125 69.43359375 C-51.76730641 76.54091765 -43.01249032 80.91701716 -33.01953125 81.24609375 C-22.21742577 80.65203857 -13.01118196 76.78611718 -5.58203125 68.87109375 C3.63389433 57.96286325 3.76425442 45.17944698 2.79296875 31.55859375 C1.14842376 22.49137273 -5.22132216 15.42229208 -12.359375 9.890625 C-18.58791624 5.81397901 -24.55856245 4.16584222 -32.01953125 4.18359375 C-33.07793213 4.18601074 -33.07793213 4.18601074 -34.15771484 4.18847656 C-40.01369392 4.32582075 -44.27293243 5.49604965 -49.20703125 8.55859375 Z " fill="#FEFCFC" transform="translate(248.20703125,61.44140625)"/>
<path d="M0 0 C4.95 0 9.9 0 15 0 C15.09090208 8.38082191 15.16405871 16.76125105 15.20724869 25.14243603 C15.2279931 29.03549418 15.25606489 32.92819331 15.30175781 36.82104492 C15.34569188 40.58825953 15.36923552 44.35513207 15.37950897 48.12258339 C15.38681618 49.54930305 15.40108138 50.97600713 15.42292023 52.40257835 C15.6442212 67.4784488 12.6423388 79.81863799 2.12109375 90.99609375 C-7.30945402 99.85509317 -18.25385987 103.46729049 -30.98828125 103.1796875 C-42.24184173 102.50826885 -51.4729911 98.45770554 -60 91 C-68.52218506 81.06538576 -72.33405382 71.98595044 -73 59 C-67.72 59 -62.44 59 -57 59 C-56.938125 60.299375 -56.87625 61.59875 -56.8125 62.9375 C-55.8347572 71.35401574 -51.54369144 77.34168643 -45.01953125 82.55859375 C-38.07271994 87.51676275 -31.29805096 87.88696507 -23 87 C-16.74307074 85.40576871 -11.44229728 82.752225 -7 78 C-3.24280968 71.62911207 -0.89536972 66.1294493 -0.79467773 58.69262695 C-0.77473251 57.39150467 -0.75478729 56.09038239 -0.73423767 54.74983215 C-0.71725454 53.3293164 -0.70037569 51.9087994 -0.68359375 50.48828125 C-0.66301863 49.03524694 -0.64202201 47.58221854 -0.62062073 46.12919617 C-0.56545766 42.3070047 -0.51602302 38.48475974 -0.46777344 34.66247559 C-0.41751628 30.76126348 -0.36185222 26.86012895 -0.30664062 22.95898438 C-0.19912956 15.30605348 -0.09816873 7.65305748 0 0 Z " fill="#FEFCFC" transform="translate(135,54)"/>
<path d="M0 0 C0.50512244 1.60256108 1.00391627 3.20711792 1.5 4.8125 C1.7784375 5.70582031 2.056875 6.59914062 2.34375 7.51953125 C3 10 3 10 3 13 C1.97261719 13.4125 0.94523437 13.825 -0.11328125 14.25 C-18.7026309 21.91251058 -34.66259263 33.93765425 -42.76171875 52.97265625 C-50.87168097 73.24157571 -50.53364531 91.9283745 -42.8125 112.25 C-38.72480571 121.43782061 -32.46749272 129.37109134 -26 137 C-26.48210937 137.47050781 -26.96421875 137.94101562 -27.4609375 138.42578125 C-28.09257812 139.04839844 -28.72421875 139.67101562 -29.375 140.3125 C-30.00148437 140.92738281 -30.62796875 141.54226563 -31.2734375 142.17578125 C-33.18086607 144.08812528 -33.18086607 144.08812528 -35 147 C-45.70293456 142.49223251 -52.88679374 128.75201877 -57.50390625 118.73828125 C-62.41516178 106.58475638 -64.56965283 94.7778783 -64.5 81.6875 C-64.49355469 80.41366455 -64.48710938 79.1398291 -64.48046875 77.82739258 C-64.28871012 67.93857688 -63.08389045 60.02806776 -59 51 C-58.70528809 50.32694824 -58.41057617 49.65389648 -58.10693359 48.96044922 C-54.14180652 40.00540663 -49.52024877 32.36618923 -43 25 C-41.82244141 23.52853516 -41.82244141 23.52853516 -40.62109375 22.02734375 C-32.84108581 12.69192395 -12.56954427 -3.05745671 0 0 Z " fill="#020304" transform="translate(173,226)"/>
<path d="M0 0 C27.06 0 54.12 0 82 0 C82 25.08 82 50.16 82 76 C81.67 76 81.34 76 81 76 C81 51.25 81 26.5 81 1 C61.53 1 42.06 1 22 1 C22.33 36.31 22.66 71.62 23 108 C14.56374225 104.6254969 8.24146089 98.59200109 4.03515625 90.53125 C3.69355469 89.6959375 3.35195313 88.860625 3 88 C2.48969238 86.83734619 1.97938477 85.67469238 1.45361328 84.47680664 C-1.03783615 76.89378828 -0.3678305 68.72859909 -0.29296875 60.83984375 C-0.28855025 59.2803174 -0.28549443 57.72078659 -0.28381348 56.16125488 C-0.26817339 50.4199348 -0.22628964 44.67871035 -0.1875 38.9375 C-0.125625 26.088125 -0.06375 13.23875 0 0 Z " fill="#BAC5D6" transform="translate(416,234)"/>
<path d="M0 0 C5.30241361 -0.06902853 10.6032561 -0.12871364 15.90576172 -0.16479492 C17.70789892 -0.1798424 19.50999973 -0.2002853 21.31201172 -0.22631836 C23.90862021 -0.26288021 26.50474275 -0.27976681 29.1015625 -0.29296875 C30.30191635 -0.31619453 30.30191635 -0.31619453 31.52651978 -0.33988953 C37.11184039 -0.34155405 41.40157985 0.5743964 45.64453125 4.53515625 C49.39931453 9.44525746 50.506092 11.72445924 50 18 C48.9073345 21.73733359 47.76278964 24.84150511 44.40795898 27.04627991 C39.09569955 29.91061328 34.88652532 30.54692522 28.90625 30.390625 C27.65805481 30.38213531 27.65805481 30.38213531 26.38464355 30.37347412 C23.7558159 30.35128184 21.12840783 30.30112133 18.5 30.25 C16.70574901 30.22991268 14.91147641 30.21166584 13.1171875 30.1953125 C8.74381965 30.1548932 4.37347753 30.0765784 0 30 C0 20.1 0 10.2 0 0 Z " fill="#F46464" transform="translate(295,112)"/>
<path d="M0 0 C5.16001225 -0.06903882 10.31840876 -0.12872035 15.47851562 -0.16479492 C17.23215173 -0.17983995 18.98575047 -0.20028104 20.73925781 -0.22631836 C23.26637009 -0.26289121 25.79298296 -0.2797692 28.3203125 -0.29296875 C29.48785568 -0.31619453 29.48785568 -0.31619453 30.6789856 -0.33988953 C36.20091238 -0.34157966 40.45483325 0.624108 44.64453125 4.53515625 C48.39931453 9.44525746 49.506092 11.72445924 49 18 C47.90661107 21.73980801 46.76296674 24.84695854 43.40026855 27.04627991 C38.15541383 29.86559052 34.02835705 30.54930907 28.125 30.390625 C27.31506592 30.38496521 26.50513184 30.37930542 25.6706543 30.37347412 C23.11313833 30.3512902 20.55708409 30.30113203 18 30.25 C16.25392665 30.22991157 14.50783108 30.21166493 12.76171875 30.1953125 C8.50681229 30.15490503 4.25501942 30.07659035 0 30 C0 20.1 0 10.2 0 0 Z " fill="#F46262" transform="translate(296,67)"/>
<path d="M0 0 C4.22666814 2.11333407 6.27026322 4.47921854 9.125 8.0625 C17.77395599 18.54944931 27.87662956 26.32263049 39 34 C37.67879172 36.93230193 36.25361803 38.98664899 33.9609375 41.234375 C33.38085938 41.80800781 32.80078125 42.38164062 32.203125 42.97265625 C31.59984375 43.55917969 30.9965625 44.14570313 30.375 44.75 C29.76398438 45.35199219 29.15296875 45.95398438 28.5234375 46.57421875 C27.02011376 48.05405305 25.51065144 49.52764676 24 51 C14.81102067 45.77020014 7.53228092 39.33255265 0 32 C-0.52223145 31.49823242 -1.04446289 30.99646484 -1.58251953 30.47949219 C-6.68361121 25.5732954 -11.03149343 20.95275986 -15 15 C-10.05 10.05 -5.1 5.1 0 0 Z " fill="#BAC6D7" transform="translate(91,384)"/>
<path d="M0 0 C4.95 0 9.9 0 15 0 C15 4.95 15 9.9 15 15 C10.05 15 5.1 15 0 15 C0 10.05 0 5.1 0 0 Z " fill="#FDFEFF" transform="translate(234,304)"/>
<path d="M0 0 C4.95 0 9.9 0 15 0 C15 4.95 15 9.9 15 15 C10.05 15 5.1 15 0 15 C0 10.05 0 5.1 0 0 Z " fill="#FEFBFB" transform="translate(361,300)"/>
<path d="M0 0 C4.95 0 9.9 0 15 0 C15 4.95 15 9.9 15 15 C10.05 15 5.1 15 0 15 C0 10.05 0 5.1 0 0 Z " fill="#FDFEFF" transform="translate(221,275)"/>
<path d="M0 0 C4.95 0 9.9 0 15 0 C15 4.95 15 9.9 15 15 C10.05 15 5.1 15 0 15 C0 10.05 0 5.1 0 0 Z " fill="#FEFBFB" transform="translate(361,270)"/>
<path d="M0 0 C4.95 0 9.9 0 15 0 C15 4.95 15 9.9 15 15 C10.05 15 5.1 15 0 15 C0 10.05 0 5.1 0 0 Z " fill="#FEFBFB" transform="translate(361,240)"/>
<path d="M0 0 C4.95 0 9.9 0 15 0 C15 4.95 15 9.9 15 15 C10.05 15 5.1 15 0 15 C0 10.05 0 5.1 0 0 Z " fill="#FEFAFA" transform="translate(361,210)"/>
<path d="M0 0 C4.95 0 9.9 0 15 0 C15 4.95 15 9.9 15 15 C10.05 15 5.1 15 0 15 C0 10.05 0 5.1 0 0 Z " fill="#FEFDFD" transform="translate(361,29)"/>
<path d="M0 0 C4.95 0 9.9 0 15 0 C15 4.95 15 9.9 15 15 C10.05 15 5.1 15 0 15 C0 10.05 0 5.1 0 0 Z " fill="#FEFDFD" transform="translate(68,29)"/>
</svg>
