<?xml version="1.0" encoding="UTF-8"?>
<!DOCTYPE svg PUBLIC "-//W3C//DTD SVG 1.1//EN" "http://www.w3.org/Graphics/SVG/1.1/DTD/svg11.dtd">
<svg xmlns="http://www.w3.org/2000/svg" version="1.1" width="512px" height="512px" style="shape-rendering:geometricPrecision; text-rendering:geometricPrecision; image-rendering:optimizeQuality; fill-rule:evenodd; clip-rule:evenodd" xmlns:xlink="http://www.w3.org/1999/xlink">
<g><path style="opacity:1" fill="#0182fc" d="M 53.5,-0.5 C 70.1667,-0.5 86.8333,-0.5 103.5,-0.5C 101.193,0.977392 99.3597,2.97739 98,5.5C 97.5007,10.4889 97.3341,15.4889 97.5,20.5C 86.1364,22.5639 82.6364,28.8972 87,39.5C 88.8567,42.1998 91.3567,43.8665 94.5,44.5C 95.209,45.404 96.209,45.7373 97.5,45.5C 97.5,52.1667 97.5,58.8333 97.5,65.5C 81.1667,65.5 64.8333,65.5 48.5,65.5C 48.3334,45.1639 48.5,24.8306 49,4.5C 50.025,2.31305 51.525,0.646381 53.5,-0.5 Z"/></g>
<g><path style="opacity:1" fill="#0b93fc" d="M 103.5,-0.5 C 221.5,-0.5 339.5,-0.5 457.5,-0.5C 459.475,0.646381 460.975,2.31305 462,4.5C 462.5,24.8306 462.667,45.1639 462.5,65.5C 340.833,65.5 219.167,65.5 97.5,65.5C 97.5,58.8333 97.5,52.1667 97.5,45.5C 96.209,45.7373 95.209,45.404 94.5,44.5C 103.028,44.9768 108.028,40.9768 109.5,32.5C 108.489,25.4895 104.489,21.4895 97.5,20.5C 97.3341,15.4889 97.5007,10.4889 98,5.5C 99.3597,2.97739 101.193,0.977392 103.5,-0.5 Z"/></g>
<g><path style="opacity:1" fill="#afd8fd" d="M 97.5,20.5 C 104.489,21.4895 108.489,25.4895 109.5,32.5C 108.028,40.9768 103.028,44.9768 94.5,44.5C 91.3567,43.8665 88.8567,42.1998 87,39.5C 82.6364,28.8972 86.1364,22.5639 97.5,20.5 Z"/></g>
<g><path style="opacity:1" fill="#b0d8fd" d="M 124.5,20.5 C 137.052,20.5347 141.885,26.5347 139,38.5C 135.268,44.0461 130.101,45.8794 123.5,44C 116.93,40.3449 114.763,34.8449 117,27.5C 118.742,24.2543 121.242,21.921 124.5,20.5 Z"/></g>
<g><path style="opacity:1" fill="#fefefe" d="M 174.5,20.5 C 255.501,20.3333 336.501,20.5 417.5,21C 426.079,24.9803 428.246,31.1469 424,39.5C 422.457,41.3783 420.624,42.8783 418.5,44C 336.833,44.6667 255.167,44.6667 173.5,44C 162.644,35.6505 162.977,27.8172 174.5,20.5 Z"/></g>
<g><path style="opacity:1" fill="#e5ecf2" d="M 48.5,65.5 C 64.8333,65.5 81.1667,65.5 97.5,65.5C 219.167,65.5 340.833,65.5 462.5,65.5C 462.5,65.8333 462.5,66.1667 462.5,66.5C 340.833,66.5 219.167,66.5 97.5,66.5C 97.5,74.5 97.5,82.5 97.5,90.5C 90.8396,99.5388 90.8396,108.539 97.5,117.5C 97.5,128.833 97.5,140.167 97.5,151.5C 96.5084,151.328 95.8417,151.662 95.5,152.5C 94.5416,152.953 93.7083,153.619 93,154.5C 92.3333,210.833 92.3333,267.167 93,323.5C 93.8159,324.823 94.9826,325.489 96.5,325.5C 96.5,326.167 96.8333,326.5 97.5,326.5C 97.5,335.833 97.5,345.167 97.5,354.5C 204.001,354.167 310.335,354.501 416.5,355.5C 318.833,355.5 221.167,355.5 123.5,355.5C 113.161,355.334 102.828,355.5 92.5,356C 92,356.5 91.5,357 91,357.5C 90.3333,374.167 90.3333,390.833 91,407.5C 91.5,408 92,408.5 92.5,409C 102.828,409.5 113.161,409.666 123.5,409.5C 221.167,409.5 318.833,409.5 416.5,409.5C 310.335,410.499 204.001,410.833 97.5,410.5C 97.5,425.167 97.5,439.833 97.5,454.5C 77.9406,437.947 61.274,418.947 47.5,397.5C 48.8333,310.167 48.8333,222.833 47.5,135.5C 48.4892,112.242 48.8226,88.9082 48.5,65.5 Z"/></g>
<g><path style="opacity:1" fill="#f4f7f8" d="M 462.5,66.5 C 462.178,89.575 462.511,112.575 463.5,135.5C 462.167,222.833 462.167,310.167 463.5,397.5C 449.358,419.645 432.025,438.978 411.5,455.5C 307.5,455.5 203.5,455.5 99.5,455.5C 98.8333,455.167 98.1667,454.833 97.5,454.5C 97.5,439.833 97.5,425.167 97.5,410.5C 204.001,410.833 310.335,410.499 416.5,409.5C 418.411,409.426 419.578,408.426 420,406.5C 420.667,390.167 420.667,373.833 420,357.5C 419.184,356.177 418.017,355.511 416.5,355.5C 310.335,354.501 204.001,354.167 97.5,354.5C 97.5,345.167 97.5,335.833 97.5,326.5C 148.163,325.831 198.83,325.331 249.5,325C 250.126,324.25 250.626,323.416 251,322.5C 251.667,266.5 251.667,210.5 251,154.5C 250.5,154 250,153.5 249.5,153C 198.83,152.669 148.163,152.169 97.5,151.5C 97.5,140.167 97.5,128.833 97.5,117.5C 99.4649,119.488 101.798,120.988 104.5,122C 111.492,122.5 118.492,122.666 125.5,122.5C 137.517,122.484 144.184,116.484 145.5,104.5C 144.159,93.1585 137.825,86.8252 126.5,85.5C 119.825,85.3337 113.158,85.5004 106.5,86C 103.194,86.9862 100.194,88.4862 97.5,90.5C 97.5,82.5 97.5,74.5 97.5,66.5C 219.167,66.5 340.833,66.5 462.5,66.5 Z"/></g>
<g><path style="opacity:1" fill="#fb8904" d="M 126.5,85.5 C 113.391,91.713 109.891,101.38 116,114.5C 118.747,117.754 121.914,120.42 125.5,122.5C 118.492,122.666 111.492,122.5 104.5,122C 101.798,120.988 99.4649,119.488 97.5,117.5C 90.8396,108.539 90.8396,99.5388 97.5,90.5C 100.194,88.4862 103.194,86.9862 106.5,86C 113.158,85.5004 119.825,85.3337 126.5,85.5 Z"/></g>
<g><path style="opacity:1" fill="#fd9907" d="M 126.5,85.5 C 137.825,86.8252 144.159,93.1585 145.5,104.5C 144.184,116.484 137.517,122.484 125.5,122.5C 121.914,120.42 118.747,117.754 116,114.5C 109.891,101.38 113.391,91.713 126.5,85.5 Z"/></g>
<g><path style="opacity:1" fill="#99d730" d="M 175.5,92.5 C 189.171,92.3334 202.837,92.5001 216.5,93C 221.224,95.4353 222.724,99.2686 221,104.5C 220.097,105.701 218.931,106.535 217.5,107C 202.833,107.667 188.167,107.667 173.5,107C 167.947,101.366 168.613,96.5329 175.5,92.5 Z"/></g>
<g><path style="opacity:1" fill="#2fa8fd" d="M 242.5,92.5 C 256.504,92.3334 270.504,92.5001 284.5,93C 290.729,97.1708 291.062,101.837 285.5,107C 270.833,107.667 256.167,107.667 241.5,107C 237.788,104.487 236.622,100.987 238,96.5C 239.397,94.9297 240.897,93.5964 242.5,92.5 Z"/></g>
<g><path style="opacity:1" fill="#fd9b0f" d="M 309.5,92.5 C 323.504,92.3334 337.504,92.5001 351.5,93C 356.143,95.0724 357.643,98.5724 356,103.5C 355.5,105.333 354.333,106.5 352.5,107C 337.833,107.667 323.167,107.667 308.5,107C 303.003,101.683 303.336,96.8495 309.5,92.5 Z"/></g>
<g><path style="opacity:1" fill="#febe89" d="M 392.5,92.5 C 399.841,92.3337 407.174,92.5003 414.5,93C 422.086,97.2388 422.42,101.905 415.5,107C 407.5,107.667 399.5,107.667 391.5,107C 385.99,101.73 386.323,96.8968 392.5,92.5 Z"/></g>
<g><path style="opacity:0.985" fill="#ffbc86" d="M 47.5,135.5 C 48.8333,222.833 48.8333,310.167 47.5,397.5C 11.0183,337.003 1.185,272.336 18,203.5C 24.6439,179.386 34.4772,156.719 47.5,135.5 Z"/></g>
<g><path style="opacity:0.986" fill="#ffbc86" d="M 463.5,135.5 C 499.982,195.997 509.815,260.664 493,329.5C 486.356,353.614 476.523,376.281 463.5,397.5C 462.167,310.167 462.167,222.833 463.5,135.5 Z"/></g>
<g><path style="opacity:1" fill="#b2d9fd" d="M 95.5,152.5 C 105.506,152.334 115.506,152.5 125.5,153C 125,153.5 124.5,154 124,154.5C 123.5,163.827 123.334,173.161 123.5,182.5C 113.495,188.697 111.328,197.03 117,207.5C 118.926,209.539 121.093,211.206 123.5,212.5C 123.17,230.674 123.503,248.674 124.5,266.5C 119.315,273.857 114.315,281.357 109.5,289C 109.645,289.772 109.978,290.439 110.5,291C 114.821,291.499 119.154,291.666 123.5,291.5C 123.333,302.172 123.5,312.839 124,323.5C 124.5,324 125,324.5 125.5,325C 115.839,325.5 106.172,325.666 96.5,325.5C 94.9826,325.489 93.8159,324.823 93,323.5C 92.3333,267.167 92.3333,210.833 93,154.5C 93.7083,153.619 94.5416,152.953 95.5,152.5 Z"/></g>
<g><path style="opacity:1" fill="#c3e1fe" d="M 95.5,152.5 C 95.8417,151.662 96.5084,151.328 97.5,151.5C 148.163,152.169 198.83,152.669 249.5,153C 250,153.5 250.5,154 251,154.5C 251.667,210.5 251.667,266.5 251,322.5C 250.626,323.416 250.126,324.25 249.5,325C 198.83,325.331 148.163,325.831 97.5,326.5C 96.8333,326.5 96.5,326.167 96.5,325.5C 106.172,325.666 115.839,325.5 125.5,325C 125,324.5 124.5,324 124,323.5C 123.5,312.839 123.333,302.172 123.5,291.5C 160.337,291.832 197.004,291.498 233.5,290.5C 234.621,288.911 234.454,287.244 233,285.5C 222.97,271.318 212.803,257.318 202.5,243.5C 199.757,239.021 196.757,234.688 193.5,230.5C 192.277,229.386 190.944,229.219 189.5,230C 181.455,240.599 173.788,251.433 166.5,262.5C 165.504,262.586 164.671,262.252 164,261.5C 159.333,254.833 154.667,248.167 150,241.5C 148.938,240.101 147.605,239.101 146,238.5C 138.599,247.627 131.432,256.96 124.5,266.5C 123.503,248.674 123.17,230.674 123.5,212.5C 127.064,213.423 130.731,213.756 134.5,213.5C 146.053,207.675 148.886,199.008 143,187.5C 140.687,184.928 137.854,183.261 134.5,182.5C 130.967,181.285 127.301,181.285 123.5,182.5C 123.334,173.161 123.5,163.827 124,154.5C 124.5,154 125,153.5 125.5,153C 115.506,152.5 105.506,152.334 95.5,152.5 Z"/></g>
<g><path style="opacity:1" fill="#8e9ddb" d="M 274.5,154.5 C 321.501,154.333 368.501,154.5 415.5,155C 422.406,160.146 422.073,164.813 414.5,169C 368.167,169.667 321.833,169.667 275.5,169C 269.292,164.58 268.958,159.747 274.5,154.5 Z"/></g>
<g><path style="opacity:1" fill="#f98a0d" d="M 134.5,182.5 C 125.257,188.512 123.091,196.512 128,206.5C 130.422,208.75 132.589,211.083 134.5,213.5C 130.731,213.756 127.064,213.423 123.5,212.5C 121.093,211.206 118.926,209.539 117,207.5C 111.328,197.03 113.495,188.697 123.5,182.5C 127.301,181.285 130.967,181.285 134.5,182.5 Z"/></g>
<g><path style="opacity:1" fill="#fd9a0a" d="M 134.5,182.5 C 137.854,183.261 140.687,184.928 143,187.5C 148.886,199.008 146.053,207.675 134.5,213.5C 132.589,211.083 130.422,208.75 128,206.5C 123.091,196.512 125.257,188.512 134.5,182.5 Z"/></g>
<g><path style="opacity:1" fill="#8e9cdb" d="M 275.5,185.5 C 289.504,185.333 303.504,185.5 317.5,186C 322.143,188.072 323.643,191.572 322,196.5C 321.5,198.333 320.333,199.5 318.5,200C 303.833,200.667 289.167,200.667 274.5,200C 269.003,194.683 269.336,189.85 275.5,185.5 Z"/></g>
<g><path style="opacity:1" fill="#8d9cdb" d="M 337.5,185.5 C 363.169,185.333 388.835,185.5 414.5,186C 420.258,188.11 421.758,191.943 419,197.5C 418.097,198.701 416.931,199.535 415.5,200C 389.5,200.667 363.5,200.667 337.5,200C 333.788,197.487 332.622,193.987 334,189.5C 335.376,188.295 336.542,186.962 337.5,185.5 Z"/></g>
<g><path style="opacity:1" fill="#8f9edb" d="M 275.5,216.5 C 321.835,216.333 368.168,216.5 414.5,217C 422.086,221.239 422.42,225.905 415.5,231C 368.5,231.667 321.5,231.667 274.5,231C 269.003,225.683 269.336,220.85 275.5,216.5 Z"/></g>
<g><path style="opacity:1" fill="#0282fc" d="M 202.5,243.5 C 201.872,246.09 200.705,248.423 199,250.5C 189.245,263.687 179.745,277.02 170.5,290.5C 162.493,290.666 154.493,290.5 146.5,290C 152.998,280.675 159.665,271.508 166.5,262.5C 173.788,251.433 181.455,240.599 189.5,230C 190.944,229.219 192.277,229.386 193.5,230.5C 196.757,234.688 199.757,239.021 202.5,243.5 Z"/></g>
<g><path style="opacity:1" fill="#0f94fc" d="M 166.5,262.5 C 159.665,271.508 152.998,280.675 146.5,290C 154.493,290.5 162.493,290.666 170.5,290.5C 191.5,290.5 212.5,290.5 233.5,290.5C 197.004,291.498 160.337,291.832 123.5,291.5C 119.154,291.666 114.821,291.499 110.5,291C 109.978,290.439 109.645,289.772 109.5,289C 114.315,281.357 119.315,273.857 124.5,266.5C 131.432,256.96 138.599,247.627 146,238.5C 147.605,239.101 148.938,240.101 150,241.5C 154.667,248.167 159.333,254.833 164,261.5C 164.671,262.252 165.504,262.586 166.5,262.5 Z"/></g>
<g><path style="opacity:1" fill="#0793fc" d="M 202.5,243.5 C 212.803,257.318 222.97,271.318 233,285.5C 234.454,287.244 234.621,288.911 233.5,290.5C 212.5,290.5 191.5,290.5 170.5,290.5C 179.745,277.02 189.245,263.687 199,250.5C 200.705,248.423 201.872,246.09 202.5,243.5 Z"/></g>
<g><path style="opacity:1" fill="#b7c5fe" d="M 274.5,248.5 C 302.169,248.333 329.835,248.5 357.5,249C 360.683,250.018 362.016,252.185 361.5,255.5C 361.664,259.177 359.997,261.677 356.5,263C 329.5,263.667 302.5,263.667 275.5,263C 269.281,258.533 268.948,253.699 274.5,248.5 Z"/></g>
<g><path style="opacity:1" fill="#b8c5fe" d="M 378.5,248.5 C 391.171,248.333 403.838,248.5 416.5,249C 422.133,254.487 421.466,259.154 414.5,263C 403.167,263.667 391.833,263.667 380.5,263C 375.776,260.565 374.276,256.731 376,251.5C 377.045,250.627 377.878,249.627 378.5,248.5 Z"/></g>
<g><path style="opacity:1" fill="#b6c4fe" d="M 274.5,279.5 C 321.501,279.333 368.501,279.5 415.5,280C 422.406,285.146 422.073,289.813 414.5,294C 368.167,294.667 321.833,294.667 275.5,294C 269.292,289.58 268.958,284.747 274.5,279.5 Z"/></g>
<g><path style="opacity:1" fill="#b6c4fe" d="M 275.5,310.5 C 321.835,310.333 368.168,310.5 414.5,311C 420.258,313.11 421.758,316.943 419,322.5C 418.097,323.701 416.931,324.535 415.5,325C 368.5,325.667 321.5,325.667 274.5,325C 269.003,319.683 269.336,314.85 275.5,310.5 Z"/></g>
<g><path style="opacity:1" fill="#b3dafd" d="M 123.5,355.5 C 123.217,356.289 122.717,356.956 122,357.5C 121.333,374.167 121.333,390.833 122,407.5C 122.717,408.044 123.217,408.711 123.5,409.5C 113.161,409.666 102.828,409.5 92.5,409C 92,408.5 91.5,408 91,407.5C 90.3333,390.833 90.3333,374.167 91,357.5C 91.5,357 92,356.5 92.5,356C 102.828,355.5 113.161,355.334 123.5,355.5 Z"/></g>
<g><path style="opacity:1" fill="#c4e2fe" d="M 123.5,355.5 C 221.167,355.5 318.833,355.5 416.5,355.5C 418.017,355.511 419.184,356.177 420,357.5C 420.667,373.833 420.667,390.167 420,406.5C 419.578,408.426 418.411,409.426 416.5,409.5C 318.833,409.5 221.167,409.5 123.5,409.5C 123.217,408.711 122.717,408.044 122,407.5C 121.333,390.833 121.333,374.167 122,357.5C 122.717,356.956 123.217,356.289 123.5,355.5 Z"/></g>
<g><path style="opacity:1" fill="#fdfeff" d="M 343.5,375.5 C 349.629,374.555 353.296,377.055 354.5,383C 352.127,390.875 347.627,392.375 341,387.5C 338.696,382.855 339.529,378.855 343.5,375.5 Z"/></g>
<g><path style="opacity:1" fill="#fdfeff" d="M 367.5,375.5 C 373.629,374.555 377.296,377.055 378.5,383C 376.127,390.875 371.627,392.375 365,387.5C 362.696,382.855 363.529,378.855 367.5,375.5 Z"/></g>
<g><path style="opacity:1" fill="#fdfeff" d="M 391.5,375.5 C 397.629,374.555 401.296,377.055 402.5,383C 400.127,390.875 395.627,392.375 389,387.5C 386.696,382.855 387.529,378.855 391.5,375.5 Z"/></g>
<g><path style="opacity:0.99" fill="#febd86" d="M 99.5,455.5 C 203.5,455.5 307.5,455.5 411.5,455.5C 372.704,487.889 328.037,506.556 277.5,511.5C 262.833,511.5 248.167,511.5 233.5,511.5C 194.093,507.308 157.426,494.808 123.5,474C 114.89,468.539 106.89,462.373 99.5,455.5 Z"/></g>
</svg>
