<?xml version="1.0" encoding="UTF-8"?>
<svg version="1.1" xmlns="http://www.w3.org/2000/svg" width="512" height="512">
<path d="M0 0 C1.41952217 -0.01058945 1.41952217 -0.01058945 2.86772156 -0.02139282 C42.38370862 -0.24928599 42.38370862 -0.24928599 58.8671875 3.203125 C59.84204102 3.40180176 60.81689453 3.60047852 61.82128906 3.80517578 C103.62442903 12.54964332 149.05412232 30.39005982 179.8671875 61.203125 C181.78234748 61.49154998 181.78234748 61.49154998 183.99047852 61.42675781 C185.26804771 61.42751312 185.26804771 61.42751312 186.57142639 61.42828369 C187.95726173 61.41737701 187.95726173 61.41737701 189.37109375 61.40625 C191.32878265 61.41680687 193.28646538 61.42856477 195.24414062 61.44140625 C198.32948348 61.45168339 201.41396516 61.45322754 204.49926758 61.43310547 C207.47811139 61.41824361 210.45488194 61.44091464 213.43359375 61.46875 C214.79817467 61.44569794 214.79817467 61.44569794 216.19032288 61.42218018 C223.14707759 61.5265754 227.70485949 63.51807609 232.8671875 68.203125 C237.87099937 74.27767187 237.35174811 80.20145978 237.1953125 87.828125 C237.19030412 90.33463346 237.1864346 92.8411444 237.18359375 95.34765625 C237.15669494 99.26656801 237.11747902 103.18449779 237.05615234 107.10302734 C236.84394738 122.78834554 237.00483399 134.10488817 245.8671875 147.203125 C247.7453077 151.10850113 249.34576423 155.10806181 250.9296875 159.140625 C251.34814941 160.19983154 251.76661133 161.25903809 252.19775391 162.3503418 C263.86524997 192.53345254 269.30257278 223.06619358 269.1796875 255.328125 C269.17695328 256.8184726 269.17695328 256.8184726 269.17416382 258.33892822 C269.12938728 272.832817 268.66828963 286.94448597 265.8671875 301.203125 C265.70621582 302.09870117 265.54524414 302.99427734 265.37939453 303.91699219 C258.9942246 339.21023693 244.42033729 382.14319615 219.24145508 408.93286133 C217.30856151 412.12596442 217.50168174 415.09748008 217.56640625 418.71484375 C217.55875873 420.21029085 217.5502679 421.70573384 217.54101562 423.20117188 C217.54321611 425.54028871 217.55454459 427.87857091 217.58227539 430.2175293 C217.73136834 446.38983009 217.73136834 446.38983009 212.58178711 452.54223633 C207.18037154 457.77444907 204.03836 458.40548385 196.5625 458.390625 C194.44352105 458.34911267 192.32495705 458.29744048 190.20623779 458.24438477 C175.85153284 457.97687875 166.43303007 459.65563607 155.63085938 469.65917969 C152.8217397 472.11832598 149.71521948 473.96408017 146.4921875 475.828125 C145.8842334 476.18455078 145.2762793 476.54097656 144.64990234 476.90820312 C142.73053199 478.02160845 140.80086888 479.11477915 138.8671875 480.203125 C138.16432617 480.60241211 137.46146484 481.00169922 136.73730469 481.41308594 C110.5294004 496.17015204 81.58747578 505.70707792 51.8671875 510.203125 C50.74256104 510.38045166 49.61793457 510.55777832 48.45922852 510.74047852 C36.90528306 512.39188208 25.46253203 512.55983397 13.8046875 512.515625 C12.80862488 512.51380219 11.81256226 512.51197937 10.78631592 512.51010132 C-3.72611537 512.46535755 -17.85590769 512.00781543 -32.1328125 509.203125 C-33.02838867 509.04215332 -33.92396484 508.88118164 -34.84667969 508.71533203 C-60.63029575 504.05062151 -84.7548248 494.89211885 -108.1328125 483.203125 C-110.11753848 483.11350045 -112.10529777 483.08842901 -114.09204102 483.09301758 C-115.34416885 483.09243851 -116.59629669 483.09185944 -117.8863678 483.09126282 C-118.55803545 483.09269098 -119.2297031 483.09411915 -119.92172432 483.09559059 C-123.48760609 483.09911495 -127.05333109 483.0732878 -130.61914062 483.05273438 C-135.15288375 483.02846529 -139.68617192 483.01262464 -144.2199707 483.02807617 C-147.8861311 483.03980283 -151.55116156 483.02216414 -155.21714592 482.98563194 C-156.60801708 482.97706673 -157.99899776 482.97901974 -159.38983345 482.992136 C-167.08976877 483.05926939 -173.20180819 482.87351317 -179.3846283 477.93365479 C-183.73542152 473.62679899 -185.31282836 470.24583939 -185.48828125 464.07250977 C-185.44867774 462.09612061 -185.39172607 460.12002679 -185.3203125 458.14453125 C-185.2958022 455.96161392 -185.27374711 453.77866789 -185.25390625 451.59570312 C-185.20263298 448.19140235 -185.13365183 444.79075934 -185.02001953 441.38793945 C-184.58054414 426.97461867 -185.20464643 417.37800132 -195.11669922 406.4387207 C-195.64253601 405.88262115 -196.1683728 405.32652161 -196.71014404 404.75357056 C-198.57206717 402.72441863 -200.06522011 400.54242342 -201.54296875 398.22265625 C-201.98922607 397.5255957 -202.4354834 396.82853516 -202.89526367 396.11035156 C-203.32427979 395.4190918 -203.7532959 394.72783203 -204.1953125 394.015625 C-204.68298096 393.2328418 -205.17064941 392.45005859 -205.6730957 391.64355469 C-221.98295776 365.06607836 -233.18983219 336.32622141 -239.4453125 305.765625 C-239.59266846 305.04673096 -239.74002441 304.32783691 -239.8918457 303.5871582 C-242.86570338 287.94086891 -243.50581612 272.46744454 -243.4453125 256.578125 C-243.44315735 255.56021881 -243.4410022 254.54231262 -243.43878174 253.49356079 C-243.38911104 238.88448977 -243.13821441 224.55236647 -240.1328125 210.203125 C-239.93413574 209.22827148 -239.73545898 208.25341797 -239.53076172 207.24902344 C-234.6641027 183.98384151 -227.92510032 159.1822006 -215.58889771 138.63108826 C-213.7541584 134.31168517 -213.73459182 130.85513495 -213.7956543 126.21948242 C-213.79482346 124.8938604 -213.79482346 124.8938604 -213.79397583 123.54145813 C-213.794235 121.62956303 -213.8010829 119.71765981 -213.81381798 117.80580711 C-213.83224152 114.77399181 -213.82951234 111.74286536 -213.820755 108.71101379 C-213.79897869 100.09361088 -213.8098241 91.47647324 -213.84790039 82.85913086 C-213.86974458 77.58056446 -213.86241426 72.302676 -213.8374424 67.02413368 C-213.83385953 65.01918696 -213.84145387 63.01418646 -213.86069298 61.00932884 C-214.03812353 42.152102 -214.03812353 42.152102 -209.10432434 35.83149719 C-203.11560931 30.88511197 -198.81977474 29.61956122 -191.22607422 29.81591797 C-189.92914642 29.82450584 -189.92914642 29.82450584 -188.60601807 29.83326721 C-186.7361125 29.84732377 -184.86625611 29.87008579 -182.9965477 29.90066147 C-180.01587305 29.94602208 -177.03645003 29.96092073 -174.05545044 29.96707153 C-165.58277149 29.98786946 -157.11104318 30.0453475 -148.63916016 30.16503906 C-143.44350454 30.23627424 -138.24951689 30.25703413 -133.05340958 30.24832535 C-131.09452714 30.25453891 -129.13559875 30.27886983 -127.17721176 30.32336044 C-112.48002121 30.64983999 -102.14777477 27.41600979 -89.28799438 20.34520531 C-84.66283365 17.89422656 -79.75586454 16.17354696 -74.8203125 14.453125 C-73.78890137 14.08880371 -72.75749023 13.72448242 -71.69482422 13.34912109 C-54.59245285 7.45954554 -37.06255848 3.50439472 -19.1328125 1.203125 C-18.13200401 1.07213158 -18.13200401 1.07213158 -17.11097717 0.93849182 C-11.39460774 0.24225009 -5.75538618 0.02856336 0 0 Z " fill="#54469D" transform="translate(243.1328125,-0.203125)"/>
<path d="M0 0 C1.23063736 -0.00935994 1.23063736 -0.00935994 2.48613608 -0.01890898 C5.22141098 -0.03479944 7.95578984 -0.02225034 10.69107056 -0.00964355 C12.65777606 -0.01506651 14.6244775 -0.02219015 16.59117126 -0.03088379 C21.92393713 -0.04910168 27.25639305 -0.04205521 32.58916426 -0.02936745 C38.17568252 -0.01922905 43.76217453 -0.02863573 49.34869385 -0.03491211 C58.73191075 -0.04218725 68.11500169 -0.0326055 77.49819946 -0.0135498 C88.33585163 0.00820593 99.17320262 0.00117637 110.01084745 -0.02085543 C119.3240295 -0.03902829 128.63712106 -0.04155812 137.95031512 -0.03110075 C143.50894327 -0.02487459 149.06743005 -0.02400585 154.62604904 -0.0372467 C159.85465468 -0.04883151 165.08287359 -0.04073123 170.31143761 -0.01766968 C172.22659985 -0.01239611 174.14179483 -0.01387311 176.05694389 -0.02272034 C196.69613349 -0.10924834 196.69613349 -0.10924834 203.74429321 6.54309082 C204.18773071 7.21211426 204.63116821 7.8811377 205.08804321 8.57043457 C205.55210571 9.24203613 206.01616821 9.9136377 206.49429321 10.60559082 C208.88702655 14.76723772 208.73634295 18.71355908 208.73521423 23.36294556 C208.73889092 24.17178566 208.74256761 24.98062576 208.74635571 25.81397617 C208.75739937 28.53374602 208.76123757 31.25347767 208.76504517 33.9732666 C208.77130937 35.91967389 208.77795614 37.86607997 208.78495789 39.81248474 C208.80600819 46.2135637 208.81636211 52.61464292 208.82632446 59.01574707 C208.83037185 61.21927783 208.83448876 63.42280846 208.83867455 65.62633896 C208.85772942 75.97989742 208.87195906 86.33344874 208.88028651 96.68702137 C208.89005634 108.63665206 208.91636806 120.58609739 208.95678741 132.53566277 C208.98695743 141.77230712 209.0017563 151.00889838 209.00506753 160.24559104 C209.00741727 165.76183471 209.0163679 171.27788041 209.0415287 176.7940712 C209.06482936 181.98646333 209.06903452 187.17852744 209.05876732 192.37095833 C209.05827231 194.27323435 209.06458233 196.17552661 209.07832336 198.07775307 C209.21599739 218.27206747 209.21599739 218.27206747 203.21146107 225.06534004 C197.67313159 230.16633253 191.58595657 230.80512342 184.36553955 230.77536011 C183.55343061 230.77989122 182.74132167 230.78442233 181.90460336 230.78909075 C179.19176585 230.80171976 176.47912947 230.80011536 173.76626587 230.79846191 C171.81779218 230.80444806 169.86932086 230.8112538 167.92085266 230.81881714 C162.63363664 230.83647453 157.34648538 230.84117238 152.05924273 230.84244871 C148.7548445 230.84387089 145.45046271 230.84814174 142.14606857 230.85344315 C130.61499741 230.8719418 119.08397247 230.88011387 107.55288696 230.87854004 C96.80898088 230.87733834 86.06527558 230.8984468 75.32142031 230.93002737 C66.09236635 230.95618738 56.86337799 230.96690746 47.63428724 230.96562922 C42.12427991 230.96511955 36.6144511 230.97080559 31.10448074 230.99198532 C25.92188553 231.01136323 20.73963922 231.01149509 15.55703163 230.99695206 C13.65756406 230.99486239 11.75807467 230.99957422 9.85864449 231.01167297 C7.26019281 231.02714924 4.6629407 231.0178021 2.06451416 231.00241089 C1.3176109 231.01269801 0.57070764 231.02298514 -0.19882905 231.033584 C-6.2147941 230.95514551 -11.40995342 229.20378443 -15.94476354 225.13144815 C-21.02312569 219.46162775 -21.70959666 213.54984573 -21.69284058 206.2162323 C-21.69878282 205.39666182 -21.70472507 204.57709134 -21.71084738 203.73268539 C-21.7281496 200.99455935 -21.73123167 198.25660892 -21.73422241 195.51843262 C-21.74348374 193.55187611 -21.75353374 191.58532319 -21.76431274 189.61877441 C-21.79051405 184.28192009 -21.80344109 178.94511603 -21.81233406 173.60820746 C-21.81820211 170.27230961 -21.8264129 166.93642541 -21.83534241 163.60053444 C-21.86267788 153.15835119 -21.88201915 142.71619925 -21.88974619 132.2739827 C-21.89870921 120.22861755 -21.93381899 108.18370613 -21.99174738 96.13847893 C-22.03499872 86.82108753 -22.05515562 77.50382372 -22.05782843 68.186333 C-22.05992294 62.62420907 -22.07170408 57.06251207 -22.10746765 51.500494 C-22.14046125 46.26771381 -22.14472553 41.0356808 -22.12718964 35.80283356 C-22.12565064 33.8860327 -22.1343117 31.9691914 -22.15410614 30.05249214 C-22.32323165 12.65104241 -22.32323165 12.65104241 -17.38298798 6.18606281 C-11.67694086 1.32795662 -7.31204435 -0.08635352 0 0 Z " fill="#FEF160" transform="translate(51.411956787109375,29.4920654296875)"/>
<path d="M0 0 C1.04893463 -0.00551503 1.04893463 -0.00551503 2.11905986 -0.01114148 C4.46803726 -0.02217606 6.81697041 -0.02602178 9.16596985 -0.02983093 C10.84799337 -0.0360958 12.53001551 -0.04274263 14.21203613 -0.04974365 C19.74134863 -0.07078529 25.27066141 -0.08114677 30.80000305 -0.09111023 C32.70390653 -0.09515788 34.60780985 -0.0992748 36.51171303 -0.10346031 C45.45727989 -0.12251294 54.4028385 -0.1367433 63.34842175 -0.14507228 C73.671431 -0.15484257 83.9942257 -0.18115636 94.31715935 -0.22157317 C102.29774777 -0.25174574 110.27827472 -0.26654228 118.25891906 -0.26985329 C123.02452315 -0.27220267 127.78989805 -0.28114834 132.5554409 -0.30631447 C137.0411571 -0.32961987 141.52649363 -0.33381853 146.01225471 -0.32355309 C147.6553308 -0.3230582 149.29842573 -0.32936477 150.9414444 -0.34310913 C166.37411288 -0.46494612 166.37411288 -0.46494612 173.1632843 4.14717102 C175.22187805 6.18232727 175.22187805 6.18232727 176.6007843 8.20967102 C177.07387024 8.88127258 177.54695618 9.55287415 178.03437805 10.24482727 C180.35329832 14.15248876 180.2951957 17.4880197 180.31045532 21.93919373 C180.31413201 22.63369436 180.3178087 23.328195 180.3215968 24.04374111 C180.33263105 26.37656504 180.33647707 28.70934443 180.34028625 31.04219055 C180.34655121 32.71273948 180.35319804 34.38328701 180.36019897 36.05383301 C180.3812417 41.5458733 180.39160301 47.03791388 180.40156555 52.52998352 C180.40561333 54.42148223 180.40973025 56.3129808 180.41391563 58.20447922 C180.43296944 67.09291698 180.44719888 75.98134643 180.4555276 84.86980069 C180.46529474 95.12375002 180.49159981 105.37748318 180.5320285 115.63135636 C180.56221485 123.56015616 180.57699896 131.4888941 180.58030862 139.41775024 C180.58265665 144.15152886 180.59158465 148.8850766 180.61676979 153.61879349 C180.64009897 158.07578632 180.64426433 162.53239706 180.63400841 166.9894352 C180.63351408 168.62080343 180.63980411 170.25219078 180.65356445 171.88350105 C180.79674162 189.87128318 180.79674162 189.87128318 174.78670216 196.71461678 C169.49899862 201.54934338 163.86615529 202.3952881 156.93457031 202.42805481 C155.87672379 202.43696818 155.87672379 202.43696818 154.79750663 202.44606161 C152.44632051 202.46333478 150.09533926 202.46644337 147.74409485 202.46943665 C146.0533963 202.47870006 144.36270191 202.48875033 142.67201233 202.49952698 C138.08720033 202.52570838 133.50244682 202.5386514 128.91757178 202.54754829 C126.05070004 202.55341959 123.18384411 202.56163097 120.31698036 202.57055664 C111.33991755 202.59788691 102.3628911 202.61723069 93.38578957 202.62496042 C83.03608728 202.63392212 72.68691322 202.66902757 62.33737153 202.72696161 C54.32782341 202.77023538 46.31842373 202.79037104 38.30875999 202.79304266 C33.52908573 202.7951356 28.7499087 202.80688237 23.97035789 202.84268188 C19.47295595 202.87571481 14.97642313 202.87992134 10.47894287 202.86240387 C8.83304829 202.86086694 7.18710628 202.86949871 5.54133034 202.88932037 C-9.3594072 203.05819032 -9.3594072 203.05819032 -16.06822491 198.11820221 C-20.75641704 192.89308429 -22.33633348 188.73677778 -22.34465027 181.75350952 C-22.35089023 181.04263496 -22.35713019 180.33176041 -22.36355925 179.59934419 C-22.37942036 177.23481467 -22.36691297 174.87132597 -22.35429382 172.50679016 C-22.35971809 170.8044678 -22.36684245 169.10215013 -22.37553406 167.39984131 C-22.39373562 162.78817793 -22.38671264 158.17687338 -22.37401772 153.56520391 C-22.36387197 148.73228205 -22.37328792 143.89939038 -22.37956238 139.06646729 C-22.38683489 130.9501648 -22.37726219 122.83400801 -22.35820007 114.71772766 C-22.33643943 105.34443955 -22.34347842 95.97149959 -22.3655057 86.59821993 C-22.38367973 78.54109 -22.386208 70.48406465 -22.37575102 62.42692083 C-22.36952616 57.61893762 -22.36865255 52.81111783 -22.38189697 48.00314522 C-22.39348376 43.48120841 -22.38537826 38.95971868 -22.36231995 34.43782997 C-22.35704761 32.78187043 -22.35852129 31.12587303 -22.36737061 29.46992874 C-22.45298433 11.81660205 -22.45298433 11.81660205 -15.80155945 5.08857727 C-15.13253601 4.63353821 -14.46351257 4.17849915 -13.7742157 3.70967102 C-13.10261414 3.23658508 -12.43101257 2.76349915 -11.73905945 2.27607727 C-7.81844916 -0.05052719 -4.46615028 0.01520517 0 0 Z " fill="#FE73C6" transform="translate(79.83671569824219,279.8528289794922)"/>
<path d="M0 0 C0.69041708 -0.00508782 1.38083417 -0.01017564 2.09217298 -0.01541764 C4.41116793 -0.03114328 6.73013172 -0.03966752 9.04916382 -0.04811096 C10.70986122 -0.05764946 12.37055664 -0.06754062 14.03125 -0.07775879 C19.49081055 -0.10914851 24.95038635 -0.12941311 30.41000366 -0.14796448 C31.33918972 -0.1512618 32.26837577 -0.15455912 33.22571898 -0.15795636 C41.99105487 -0.18874059 50.75639423 -0.21544515 59.52176857 -0.23237514 C70.7278314 -0.25427375 81.93341459 -0.29622674 93.13928568 -0.36581272 C101.02137219 -0.41309351 108.90332949 -0.43731426 116.78555334 -0.44457203 C121.49152045 -0.44952269 126.19694702 -0.46454724 130.90275955 -0.50431633 C135.33361595 -0.54126769 139.76362501 -0.54956478 144.19460678 -0.5363102 C145.81632126 -0.53636401 147.43807409 -0.54660414 149.05964661 -0.56806183 C157.01764083 -0.6676937 163.8197718 -0.6931425 170.46944237 4.18904018 C175.09857134 9.32652758 176.74543107 13.48083712 176.75387573 20.35774231 C176.76011569 21.04749354 176.76635566 21.73724477 176.77278471 22.44789755 C176.78863932 24.74100652 176.77614113 27.03304126 176.76351929 29.32615662 C176.7689439 30.97759619 176.77606846 32.62903093 176.78475952 34.28045654 C176.80295844 38.75376539 176.79593884 43.22670424 176.78324318 47.70001936 C176.7730943 52.38966821 176.78251441 57.07928602 176.78878784 61.76893616 C176.79606019 69.64565193 176.78648889 77.52221756 176.76742554 85.39891052 C176.74567269 94.49157206 176.75269825 103.58387459 176.77473116 112.67652738 C176.79291499 120.49503464 176.79542847 128.31343415 176.78497648 136.13195574 C176.77875598 140.79633184 176.77786575 145.46053951 176.79112244 150.12490463 C176.80272327 154.51306289 176.79457837 158.90076102 176.77154541 163.28886986 C176.76628018 164.89441987 176.76773445 166.50000895 176.77659607 168.10554314 C176.86569677 185.89639283 176.86569677 185.89639283 170.86954498 192.72904015 C165.65032506 197.49719645 160.08543827 198.40917553 153.23828125 198.42805481 C152.55684598 198.43258592 151.87541072 198.43711704 151.1733259 198.44178545 C148.90270183 198.45438916 146.63231887 198.45281174 144.36166382 198.45115662 C142.72845656 198.45714435 141.09525212 198.46395046 139.46205139 198.47151184 C135.03430961 198.48915309 130.60664516 198.4938664 126.17887163 198.49514341 C123.41050319 198.49656652 120.64215432 198.50083911 117.87379074 198.50613785 C108.2100678 198.5246312 98.54639997 198.53280924 88.88265991 198.53123474 C79.88374792 198.5300332 70.88507571 198.5511398 61.88622439 198.58272207 C54.15184836 198.6088964 46.41755059 198.61960157 38.68313062 198.61832392 C34.06737098 198.61781467 29.45182457 198.62347745 24.83610916 198.64468002 C20.4939668 198.66408222 16.15224066 198.66417346 11.81008339 198.64964676 C10.22022581 198.64756008 8.63034203 198.65225117 7.04052925 198.66436768 C-9.70667975 198.78369672 -9.70667975 198.78369672 -16.25691795 192.78410912 C-21.0703001 187.52753801 -22.00241648 182.06853373 -22.02148438 175.15296936 C-22.02601549 174.47153409 -22.0305466 173.79009883 -22.03521502 173.08801401 C-22.04781872 170.81738994 -22.0462413 168.54700698 -22.04458618 166.27635193 C-22.05057392 164.64314467 -22.05738003 163.00994023 -22.06494141 161.3767395 C-22.08258265 156.94899772 -22.08729597 152.52133327 -22.08857298 148.09355974 C-22.08999608 145.3251913 -22.09426867 142.55684243 -22.09956741 139.78847885 C-22.11806076 130.12475591 -22.12623881 120.46108808 -22.12466431 110.79734802 C-22.12346276 101.79843603 -22.14456936 92.79976382 -22.17615163 83.8009125 C-22.20232597 76.06653647 -22.21303113 68.3322387 -22.21175349 60.59781873 C-22.21124424 55.98205909 -22.21690701 51.36651268 -22.23810959 46.75079727 C-22.25751178 42.40865491 -22.25760303 38.06692877 -22.24307632 33.7247715 C-22.24098965 32.13491392 -22.24568073 30.54503014 -22.25779724 28.95521736 C-22.36421714 14.0197402 -22.36421714 14.0197402 -17.75405884 7.16062927 C-15.71890259 5.10203552 -15.71890259 5.10203552 -13.69155884 3.72312927 C-13.01995728 3.25004333 -12.34835571 2.7769574 -11.65640259 2.28953552 C-7.76337138 -0.02070271 -4.43468866 0.02458979 0 0 Z " fill="#01D1FB" transform="translate(303.7540588378906,61.83937072753906)"/>
<path d="M0 0 C1.2279982 -0.0071553 2.4559964 -0.01431061 3.72120667 -0.02168274 C5.0844724 -0.024523 6.44773841 -0.02723473 7.81100464 -0.02983093 C9.2451036 -0.03609676 10.67920094 -0.04274367 12.11329651 -0.04974365 C16.82616039 -0.07077756 21.53902457 -0.08114746 26.25192261 -0.09111023 C27.87596529 -0.09515845 29.5000078 -0.0992754 31.12405014 -0.10346031 C38.75667003 -0.12251288 46.38928027 -0.13674208 54.02191937 -0.14507228 C62.82243182 -0.15483631 71.62269218 -0.1811336 80.42311585 -0.22157317 C87.23090611 -0.25177854 94.03862431 -0.26654546 100.84648025 -0.26985329 C104.90957886 -0.27219934 108.97240821 -0.28110093 113.03543472 -0.30631447 C116.86209013 -0.32967694 120.68830056 -0.33379594 124.51500893 -0.32355309 C125.91417106 -0.32305954 127.3133557 -0.32932624 128.71245003 -0.34310913 C137.55859026 -0.42532921 145.55367501 -0.16187189 152.27536011 6.18232727 C152.71879761 6.85135071 153.16223511 7.52037415 153.61911011 8.20967102 C154.08317261 8.88127258 154.54723511 9.55287415 155.02536011 10.24482727 C157.14318257 13.92832563 157.25352707 16.97728888 157.27973938 21.14195251 C157.29480782 23.02181351 157.29480782 23.02181351 157.31018066 24.93965149 C157.31621073 26.33125245 157.32209573 27.72285405 157.32785034 29.11445618 C157.33738993 30.57811202 157.34728114 32.0417656 157.35749817 33.50541687 C157.38887706 38.31566189 157.40915213 43.12592415 157.42770386 47.93623352 C157.43100118 48.75520725 157.4342985 49.57418097 157.43769574 50.41797209 C157.46848092 58.14528883 157.49518245 65.87260952 157.51211452 73.59996986 C157.53400738 83.47480044 157.57594886 93.34908635 157.6455521 103.22369921 C157.69285733 110.17161045 157.7170569 117.1193751 157.72431141 124.0674423 C157.72925866 128.21452739 157.7442497 132.36099853 157.78405571 136.50790787 C157.82105068 140.41349997 157.82929047 144.31813078 157.81604958 148.22386551 C157.81610332 149.65207779 157.82631489 151.08033405 157.84780121 152.5083847 C157.95707143 160.18544589 157.79165714 166.24628681 152.83899117 172.39799309 C146.93027792 178.4073568 142.0177106 178.61589224 133.81784058 178.68928528 C132.43917613 178.68150967 131.06051399 178.67331709 129.68185425 178.66474915 C128.2159811 178.67017501 126.75011342 178.67730028 125.28425598 178.68598938 C121.31718082 178.70417229 117.35052335 178.69717583 113.38344121 178.68447304 C109.22317109 178.67431723 105.06293577 178.68374604 100.90266418 178.6900177 C93.91623543 178.69728743 86.92997602 178.68772504 79.943573 178.6686554 C71.87902336 178.64689639 63.81487842 178.65393353 55.75033861 178.67596102 C48.81421364 178.69414451 41.87821012 178.69665871 34.94206899 178.68620634 C30.80477263 178.67998647 26.66766614 178.67909389 22.53038216 178.69235229 C18.63877472 178.70395298 14.74768612 178.69580891 10.85613441 178.67277527 C9.43238433 178.66751019 8.00859018 178.6689641 6.58485794 178.67782593 C-8.94449247 178.76553449 -8.94449247 178.76553449 -15.38990688 172.73537445 C-19.77003153 167.84309457 -21.12821972 163.43486668 -21.14831543 156.9810791 C-21.1568454 155.74047226 -21.16537537 154.49986542 -21.17416382 153.22166443 C-21.17346486 151.85462939 -21.17254183 150.48759445 -21.17141724 149.12055969 C-21.17740447 147.67468927 -21.18421047 146.22882203 -21.19177246 144.78295898 C-21.20942095 140.86133824 -21.21412738 136.93980481 -21.21540403 133.01814818 C-21.21682697 130.56587491 -21.22109928 128.11362375 -21.22639847 125.66135597 C-21.24489569 117.09989135 -21.25306956 108.53848895 -21.25149536 99.977005 C-21.25029438 92.00681628 -21.27138879 84.03689854 -21.30298269 76.06677836 C-21.32916936 69.21564089 -21.33986164 62.36459178 -21.33858454 55.51340467 C-21.33807556 51.42523341 -21.34372292 47.33730299 -21.36494064 43.24918175 C-21.38436326 39.40196337 -21.38442042 35.55521454 -21.36990738 31.7079792 C-21.36782306 30.30034064 -21.37249771 28.89267237 -21.3846283 27.48508453 C-21.44808003 19.6088309 -21.2290482 13.84046427 -16.88088989 7.14717102 C-14.84573364 5.08857727 -14.84573364 5.08857727 -12.81838989 3.70967102 C-12.14678833 3.23658508 -11.47518677 2.76349915 -10.78323364 2.27607727 C-7.14912386 0.11949056 -4.13437363 0.01651889 0 0 Z " fill="#73D478" transform="translate(302.8808898925781,279.8528289794922)"/>
<path d="M0 0 C0.33 0 0.66 0 1 0 C1.00146656 0.55346068 1.00293312 1.10692137 1.00444412 1.67715359 C1.04157512 15.17465254 1.1009231 28.67189855 1.18390274 42.16919613 C1.22336651 48.6965477 1.25556065 55.22376458 1.27099609 61.7512207 C1.28616953 68.05374761 1.32062833 74.3559042 1.36830902 80.65826607 C1.38311554 83.05950255 1.39104059 85.46079191 1.39188385 87.8620739 C1.39425732 91.23258555 1.4213698 94.60207699 1.45410156 97.97241211 C1.4490712 98.95928513 1.44404083 99.94615814 1.43885803 100.9629364 C1.53347015 107.28397102 2.53644207 112.60765537 6 118 C11.30503312 123.06115459 16.29969264 124.14847374 23.38407898 124.15821838 C24.14209944 124.16315636 24.9001199 124.16809434 25.68111068 124.17318195 C28.22840423 124.18857522 30.77567254 124.19692252 33.32299805 124.20532227 C35.14607974 124.21489935 36.96915921 124.22490933 38.79223633 124.23532104 C43.74849795 124.26239453 48.70476911 124.28339087 53.66106391 124.30332303 C58.83809134 124.32516751 64.01508926 124.35256372 69.1920929 124.37937927 C78.9986582 124.42932698 88.80523987 124.4742581 98.61183721 124.51740164 C109.77495449 124.56675626 120.93804218 124.62168097 132.10113084 124.67708123 C155.06739295 124.79093317 178.03368345 124.89776522 201 125 C201.05425226 127.39614126 201.09379027 129.79103853 201.125 132.1875 C201.15013672 133.19780273 201.15013672 133.19780273 201.17578125 134.22851562 C201.21538674 138.28807807 200.80020002 141.34998815 199 145 C198.20854584 145.00146656 197.41709167 145.00293312 196.60165405 145.00444412 C177.32966997 145.04152145 158.05786702 145.10054848 138.786026 145.18390274 C129.46623451 145.22368514 120.14652736 145.25608169 110.82666016 145.27099609 C102.70194871 145.28401675 94.5774229 145.31099198 86.45281601 145.35461307 C82.15222544 145.3772186 77.85186375 145.39291123 73.5512085 145.39188385 C69.49962183 145.3911367 65.44854095 145.40910933 61.39708519 145.44116783 C59.91369116 145.44965576 58.43024032 145.45142427 56.94683266 145.44580269 C44.46359964 145.36800358 44.46359964 145.36800358 34.16015625 151.81640625 C33.79792969 152.39261719 33.43570313 152.96882812 33.0625 153.5625 C32.49208984 154.43068359 32.49208984 154.43068359 31.91015625 155.31640625 C30.11862166 158.63036079 29.86790237 161.3777935 29.84178162 165.06828308 C29.82709839 166.63950172 29.82709839 166.63950172 29.81211853 168.24246216 C29.80636307 169.39116791 29.8006076 170.53987366 29.79467773 171.72338867 C29.78477814 172.9332695 29.77487854 174.14315033 29.76467896 175.38969421 C29.73848548 178.70758731 29.7166258 182.02545627 29.69667697 185.34338927 C29.67481016 188.81076506 29.64742487 192.27809712 29.62062073 195.74543762 C29.57070324 202.31143412 29.52576091 208.87745491 29.48259836 215.44349891 C29.43321792 222.91866669 29.37830278 230.39379058 29.32291877 237.86891592 C29.20911322 253.24590339 29.10227108 268.62293122 29 284 C23.49155114 278.54363371 23.49155114 278.54363371 21.203125 275.3203125 C20.72407715 274.64693848 20.2450293 273.97356445 19.75146484 273.27978516 C19.25598145 272.56870605 18.76049805 271.85762695 18.25 271.125 C17.46230225 269.99843994 17.46230225 269.99843994 16.65869141 268.84912109 C11.75216508 261.75892917 7.22824645 254.51239269 3 247 C2.60071289 246.29713867 2.20142578 245.59427734 1.79003906 244.87011719 C-11.23957024 221.73010066 -19.99174579 196.55657463 -25.3125 170.5625 C-25.45985596 169.84360596 -25.60721191 169.12471191 -25.7590332 168.3840332 C-28.73289088 152.73774391 -29.37300362 137.26431954 -29.3125 121.375 C-29.31034485 120.35709381 -29.3081897 119.33918762 -29.30596924 118.29043579 C-29.25629854 103.68136477 -29.00540191 89.34924147 -26 75 C-25.80132324 74.02514648 -25.60264648 73.05029297 -25.39794922 72.04589844 C-20.11580876 46.79449738 -11.64434003 22.99481659 0 0 Z " fill="#54469D" transform="translate(29,135)"/>
<path d="M0 0 C0.70189453 0.00451172 1.40378906 0.00902344 2.12695312 0.01367188 C3.85550538 0.02543073 5.58401365 0.04336546 7.3125 0.0625 C7.31396656 0.74057205 7.31543312 1.4186441 7.31694412 2.11726379 C7.35403623 18.63535984 7.41308264 35.15321784 7.49640274 51.67114258 C7.53616975 59.659183 7.56857407 67.64712524 7.58349609 75.63525391 C7.5965248 82.59975162 7.62352034 89.56403309 7.66711307 96.528409 C7.68970076 100.21420363 7.70541232 103.89973183 7.70438385 107.58560181 C7.70349638 111.70581001 7.73379791 115.8252347 7.76660156 119.9453125 C7.7615712 121.16019852 7.75654083 122.37508453 7.75135803 123.62678528 C7.84484099 131.220017 8.5490476 137.25048693 14.12890625 142.90234375 C14.70511719 143.26457031 15.28132812 143.62679687 15.875 144 C16.45378906 144.38027344 17.03257812 144.76054687 17.62890625 145.15234375 C20.85166556 146.8945779 23.52665458 147.19379591 27.11503601 147.22071838 C28.10361603 147.2305072 29.09219604 147.24029602 30.11073303 147.25038147 C31.19398361 147.25613693 32.27723419 147.2618924 33.39331055 147.26782227 C34.53491638 147.27772186 35.67652222 147.28762146 36.85272217 147.29782104 C40.63486643 147.329467 44.41702327 147.35420581 48.19921875 147.37890625 C50.81810334 147.39947309 53.43698459 147.42046949 56.05586243 147.44187927 C62.24998987 147.49179127 68.44414302 147.53673563 74.63832074 147.57990164 C81.69028181 147.62928678 88.74219643 147.68420017 95.79411256 147.73958123 C110.30019772 147.85337834 124.80632911 147.96022233 139.3125 148.0625 C114.0897994 173.72011025 71.78296863 189.36082373 37.5 196.9375 C36.28799927 197.20578613 36.28799927 197.20578613 35.05151367 197.47949219 C32.14653499 198.07321046 29.23812215 198.57914174 26.3125 199.0625 C25.5615506 199.18671326 24.8106012 199.31092651 24.03689575 199.43890381 C9.92800611 201.7149318 -3.84579833 202.55773019 -18.125 202.4375 C-19.59661591 202.43101944 -19.59661591 202.43101944 -21.09796143 202.42440796 C-35.48935419 202.35023759 -49.53128729 201.84348053 -63.6875 199.0625 C-64.58307617 198.90152832 -65.47865234 198.74055664 -66.40136719 198.57470703 C-88.13600445 194.64252813 -123.60457615 188.14542385 -139.6875 172.0625 C-138.85730897 172.06030016 -138.85730897 172.06030016 -138.01034641 172.05805588 C-124.51284746 172.02092488 -111.01560145 171.9615769 -97.51830387 171.87859726 C-90.9909523 171.83913349 -84.46373542 171.80693935 -77.9362793 171.79150391 C-71.63375239 171.77633047 -65.3315958 171.74187167 -59.02923393 171.69419098 C-56.62799745 171.67938446 -54.22670809 171.67145941 -51.8254261 171.67061615 C-48.45491445 171.66824268 -45.08542301 171.6411302 -41.71508789 171.60839844 C-40.72821487 171.6134288 -39.74134186 171.61845917 -38.7245636 171.62364197 C-31.22400543 171.51137495 -24.7492578 170.04575119 -19.25 164.6875 C-16.31009287 159.74845603 -15.43766561 155.29572669 -15.4359436 149.59065247 C-15.43056076 148.30778854 -15.42517792 147.02492462 -15.41963196 145.70318604 C-15.42364548 144.29406694 -15.42781637 142.88494829 -15.43212891 141.47583008 C-15.42937703 139.98229278 -15.42569593 138.48875694 -15.42115784 136.995224 C-15.41306394 133.78680759 -15.41087274 130.57846079 -15.41310501 127.37003517 C-15.41594203 122.29852748 -15.40157342 117.22715862 -15.38412476 112.15568542 C-15.33712931 97.73735616 -15.31314387 83.31903725 -15.30664062 68.90063477 C-15.30289462 60.93159885 -15.28490711 52.96272086 -15.25154626 44.99375266 C-15.23129593 39.94996116 -15.22897883 34.90657589 -15.23982644 29.86276019 C-15.24242733 26.73010084 -15.22846125 23.59767988 -15.20974541 20.46508217 C-15.20440851 19.01020678 -15.20594573 17.55528789 -15.21478081 16.10042953 C-15.22585069 14.11810287 -15.21016871 12.13568004 -15.19302368 10.15339661 C-15.19193415 9.04305463 -15.19084461 7.93271265 -15.18972206 6.78872395 C-14.6875 4.0625 -14.6875 4.0625 -12.84340477 2.24431896 C-8.56337534 -0.10189781 -4.74492697 -0.05759482 0 0 Z " fill="#54469D" transform="translate(274.6875,309.9375)"/>
<path d="M0 0 C15.66558415 8.6112062 24.94138647 20.2185485 33 36 C33.92296875 35.6390625 34.8459375 35.278125 35.796875 34.90625 C52.43700885 28.82003438 68.26017025 29.76295829 85 35 C87.92365401 42.27432961 88.30215784 49.38776872 88.3125 57.125 C88.32023437 58.51936279 88.32023437 58.51936279 88.328125 59.94189453 C88.14202762 78.68123638 80.13621301 95.62387178 66.89404297 108.71313477 C52.19819894 122.45408755 33.63627128 126.5655021 14.06640625 126.27734375 C-1.52700328 125.69508937 -13.20397982 117.59541845 -24 107 C-24.639375 106.38511719 -25.27875 105.77023437 -25.9375 105.13671875 C-37.69679109 92.87870772 -42.57733153 75.74244588 -42.33666992 59.17358398 C-42.15482589 53.27857199 -41.75355173 47.66146702 -40 42 C-39.74347656 41.13761719 -39.48695313 40.27523437 -39.22265625 39.38671875 C-33.50792225 22.0463027 -22.28139908 8.97930856 -6.55859375 -0.0234375 C-3.66431361 -1.12812457 -2.80116427 -1.21071933 0 0 Z " fill="#00C43A" transform="translate(348,301)"/>
<path d="M0 0 C1.41952217 -0.01058945 1.41952217 -0.01058945 2.86772156 -0.02139282 C42.38370862 -0.24928599 42.38370862 -0.24928599 58.8671875 3.203125 C59.84204102 3.40180176 60.81689453 3.60047852 61.82128906 3.80517578 C102.31294852 12.27530511 139.07845357 28.84408202 171.7421875 54.203125 C172.33177246 54.66009766 172.92135742 55.11707031 173.52880859 55.58789062 C176.14917298 57.66549306 177.994781 59.39451525 179.8671875 62.203125 C179.22519157 62.20459156 178.58319565 62.20605812 177.9217453 62.20756912 C162.2798841 62.24466704 146.63828172 62.30372104 130.99660492 62.38702774 C123.43230344 62.42678872 115.86810556 62.45919607 108.30371094 62.47412109 C101.70837098 62.48715296 95.11325923 62.51415645 88.51804781 62.55773807 C85.02786942 62.58031878 81.53797215 62.59603775 78.04771423 62.59500885 C74.14550754 62.59412087 70.24387278 62.62443426 66.34179688 62.65722656 C64.6176506 62.64968102 64.6176506 62.64968102 62.8586731 62.64198303 C55.44686923 62.73824973 49.53816709 63.57890948 44.02734375 69.01953125 C43.66511719 69.59574219 43.30289063 70.17195313 42.9296875 70.765625 C42.35927734 71.63380859 42.35927734 71.63380859 41.77734375 72.51953125 C39.63218641 76.487612 39.55503772 80.49513172 39.3046875 84.890625 C39.23991211 85.9434668 39.23991211 85.9434668 39.17382812 87.01757812 C39.0680139 88.74587706 38.96712169 90.4744761 38.8671875 92.203125 C37.86558594 92.24050781 36.86398437 92.27789062 35.83203125 92.31640625 C34.48954936 92.38212215 33.14710304 92.44856748 31.8046875 92.515625 C30.49371094 92.57363281 29.18273437 92.63164063 27.83203125 92.69140625 C24.66410863 93.10027114 22.90403347 93.47813778 20.11938477 94.73510742 C19.04615967 95.21955322 17.97293457 95.70399902 16.8671875 96.203125 C16.86171906 95.27137451 16.86171906 95.27137451 16.85614014 94.32080078 C16.81419408 87.83116807 16.7447637 81.34223463 16.65966797 74.85302734 C16.63151519 72.43415332 16.61027248 70.01518827 16.59619141 67.59619141 C16.57468383 64.11053051 16.52799057 60.62595748 16.4765625 57.140625 C16.47533386 56.06635254 16.47410522 54.99208008 16.47283936 53.88525391 C16.32365456 46.16482633 15.05997619 40.39591369 9.4921875 34.828125 C3.22707394 30.94972137 -2.66715273 30.89976471 -9.81982422 30.88427734 C-10.88383957 30.87423172 -11.94785492 30.8641861 -13.04411316 30.85383606 C-16.55023677 30.82302143 -20.05628407 30.80597346 -23.5625 30.7890625 C-25.9977382 30.7703495 -28.43296992 30.75077599 -30.86819458 30.7303772 C-37.26977724 30.67906412 -43.67138092 30.63943381 -50.07305908 30.60223389 C-56.60865475 30.56218921 -63.14416304 30.51109894 -69.6796875 30.4609375 C-82.49733335 30.36418789 -95.31502933 30.27940467 -108.1328125 30.203125 C-84.52952821 11.92940782 -48.08838621 4.9195516 -19.1328125 1.203125 C-18.13200401 1.07213158 -18.13200401 1.07213158 -17.11097717 0.93849182 C-11.39460774 0.24225009 -5.75538618 0.02856336 0 0 Z " fill="#6354B1" transform="translate(243.1328125,-0.203125)"/>
<path d="M0 0 C20.70739788 20.02344004 27.47956781 64.56091044 31 92 C31.08732895 92.6697435 31.1746579 93.339487 31.26463318 94.02952576 C31.94980807 99.67100413 32.17425665 105.23417337 32.203125 110.9140625 C32.21013931 111.83825989 32.21715363 112.76245728 32.22438049 113.71466064 C32.24180898 116.68482375 32.24823376 119.65478762 32.25 122.625 C32.25067474 123.63854553 32.25134949 124.65209106 32.25204468 125.6963501 C32.23651835 140.34827036 31.8319623 154.58427133 29 169 C28.83902832 169.89557617 28.67805664 170.79115234 28.51220703 171.71386719 C22.01867016 207.60609691 6.90738374 252.79949011 -20 279 C-20.00146656 278.4095414 -20.00293312 277.81908279 -20.00444412 277.21073151 C-20.04155149 262.82066273 -20.1006181 248.43080677 -20.18390274 234.0409317 C-20.22365384 227.08197155 -20.25606616 220.12312383 -20.27099609 213.1640625 C-20.28542863 206.44657216 -20.32058453 199.72948059 -20.36830902 193.01213074 C-20.38313176 190.45097383 -20.39104152 187.88976717 -20.39188385 185.3285675 C-20.39425241 181.7375484 -20.42132596 178.14749333 -20.45410156 174.55664062 C-20.4490712 173.50071716 -20.44404083 172.4447937 -20.43885803 171.35687256 C-20.52734049 165.07951789 -21.34994577 160.21988786 -25 155 C-27.70880255 152.42333416 -29.46314783 151.17895072 -33 150 C-32.68289063 149.00871094 -32.36578125 148.01742187 -32.0390625 146.99609375 C-30.90616541 143.03095395 -30.593831 139.18381716 -30.375 135.0625 C-30.33632813 134.37865234 -30.29765625 133.69480469 -30.2578125 132.99023438 C-30.16477588 131.32720487 -30.08136213 129.66364153 -30 128 C-29.09378906 127.97421875 -28.18757813 127.9484375 -27.25390625 127.921875 C-18.50396978 127.51447055 -11.04620259 126.9424538 -4.5625 120.625 C-0.7527408 114.22460455 -0.69641697 108.28562782 -0.68115234 101.03759766 C-0.66608391 99.39768356 -0.66608391 99.39768356 -0.65071106 97.72463989 C-0.61988973 94.1211193 -0.60284657 90.51767298 -0.5859375 86.9140625 C-0.56722504 84.41156374 -0.54765157 81.90907127 -0.5272522 79.40658569 C-0.48117504 73.49943455 -0.4437638 67.59226903 -0.41057932 61.68503511 C-0.36853991 54.29646707 -0.31299474 46.9080108 -0.2578125 39.51953125 C-0.16105612 26.346415 -0.07627489 13.17324995 0 0 Z " fill="#6254B2" transform="translate(480,132)"/>
<path d="M0 0 C1.30388672 0.01804687 2.60777344 0.03609375 3.95117188 0.0546875 C7.15570909 0.10164043 10.3587189 0.16730536 13.5625 0.25 C10.5625 2.25 10.5625 2.25 7.6875 3.875 C3.46416263 7.0847364 0.28846709 11.01406286 -0.89826894 16.30383873 C-1.07698742 18.49266894 -1.10476271 20.63105546 -1.07241821 22.8269043 C-1.08021817 23.65297275 -1.08801812 24.47904119 -1.09605443 25.33014202 C-1.11588566 28.07863088 -1.10024528 30.82572137 -1.08447266 33.57421875 C-1.09125273 35.55254927 -1.10015805 37.53087348 -1.11102295 39.50918579 C-1.13377631 44.86874046 -1.12499616 50.22781276 -1.10912752 55.58737564 C-1.09644809 61.20238777 -1.10821432 66.81735925 -1.11605835 72.43237305 C-1.12514893 81.86091509 -1.11318242 91.28926116 -1.08935547 100.71777344 C-1.06214546 111.61062291 -1.07096003 122.50300442 -1.0984875 133.39584255 C-1.12119431 142.75660164 -1.12437091 152.11722004 -1.11129415 161.47799778 C-1.10350834 167.0651116 -1.10243426 172.65200562 -1.11897659 178.23910522 C-1.13344484 183.49242377 -1.1233562 188.74514034 -1.09450531 193.99839401 C-1.08790713 195.92364885 -1.08977041 197.84895455 -1.10081863 199.774189 C-1.1145361 202.40783636 -1.09728465 205.03956948 -1.07241821 207.6730957 C-1.08357182 208.43030757 -1.09472543 209.18751944 -1.10621703 209.96767712 C-1.00017122 215.77994627 0.96731104 219.71246238 4.5625 224.25 C6.67611026 226.1123382 6.67611026 226.1123382 8.875 227.1875 C10.1114894 227.86174099 11.34324525 228.54507107 12.5625 229.25 C12.5625 229.58 12.5625 229.91 12.5625 230.25 C8.56275019 230.36710979 4.56344719 230.43755489 0.5625 230.5 C-0.56285156 230.53351563 -1.68820313 230.56703125 -2.84765625 230.6015625 C-10.35640137 230.68938408 -16.24202601 230.06419018 -21.95263672 224.87255859 C-27.06892527 219.23821138 -27.73511098 213.27926674 -27.71838379 205.95829773 C-27.72432603 205.13872725 -27.73026828 204.31915677 -27.73639059 203.47475082 C-27.75369281 200.73662478 -27.75677488 197.99867435 -27.75976562 195.26049805 C-27.76902696 193.29394154 -27.77907695 191.32738862 -27.78985596 189.36083984 C-27.81605726 184.02398552 -27.8289843 178.68718146 -27.83787727 173.35027289 C-27.84374533 170.01437504 -27.85195611 166.67849084 -27.86088562 163.34259987 C-27.8882211 152.90041662 -27.90756236 142.45826468 -27.9152894 132.01604813 C-27.92425242 119.97068298 -27.9593622 107.92577156 -28.01729059 95.88054436 C-28.06054193 86.56315296 -28.08069883 77.24588915 -28.08337164 67.92839843 C-28.08546615 62.3662745 -28.0972473 56.8045775 -28.13301086 51.24255943 C-28.16600446 46.00977924 -28.17026875 40.77774623 -28.15273285 35.54489899 C-28.15119385 33.62809813 -28.15985491 31.71125683 -28.17964935 29.79455757 C-28.34959143 12.30909092 -28.34959143 12.30909092 -23.0152359 5.7862215 C-16.05700942 -0.98891567 -9.34125631 -0.24520208 0 0 Z " fill="#FEEE31" transform="translate(57.4375,29.75)"/>
<path d="M0 0 C1.02574883 0.00212242 1.02574883 0.00212242 2.07221985 0.00428772 C4.25261847 0.00987749 6.43291376 0.02242803 8.61328125 0.03515625 C10.09309747 0.04017258 11.57291531 0.04473525 13.05273438 0.04882812 C16.67711682 0.05984354 20.30143895 0.07710113 23.92578125 0.09765625 C21.42578125 1.34765625 18.92578125 2.59765625 16.42578125 3.84765625 C11.84937007 6.46976308 9.57972193 10.13583422 7.92578125 15.09765625 C7.82730313 17.31383852 7.79074979 19.53291916 7.78533936 21.75128174 C7.78236823 22.4308593 7.77939711 23.11043685 7.77633595 23.81060767 C7.76764905 26.09282638 7.76614071 28.37499263 7.76464844 30.65722656 C7.76002021 32.29161186 7.75499555 33.92599607 7.74960327 35.56037903 C7.73647665 40.00474411 7.73003366 44.44909409 7.72559261 48.89347553 C7.72266197 51.67035691 7.71855716 54.44723416 7.71408844 57.22411346 C7.70041208 65.91285758 7.69074642 74.60159225 7.68688655 83.29034638 C7.68240698 93.31901558 7.66486436 103.34754839 7.63588595 113.37617612 C7.61426365 121.12830168 7.60418195 128.88038889 7.60284543 136.63254428 C7.60179769 141.262257 7.59589652 145.89184156 7.57802582 150.52152252 C7.56153592 154.8783303 7.55939408 159.23491368 7.56816483 163.59174156 C7.56893474 165.18846678 7.56459847 166.78520411 7.55470657 168.38189888 C7.54196687 170.56689701 7.54787415 172.75110285 7.55828857 174.93609619 C7.55608873 176.76784582 7.55608873 176.76784582 7.55384445 178.63660049 C8.258208 185.19105147 10.81937508 189.8225255 15.92578125 194.09765625 C19.09223599 195.89086449 19.09223599 195.89086449 21.92578125 197.09765625 C21.92578125 197.42765625 21.92578125 197.75765625 21.92578125 198.09765625 C17.9423782 198.19739477 13.95947017 198.26952823 9.97509766 198.31738281 C7.96230498 198.3471167 5.94985991 198.39797354 3.9375 198.44921875 C-4.13991855 198.53039884 -10.35830011 198.40721455 -16.58154297 192.72021484 C-21.38770304 187.45763257 -22.32257219 182.0070851 -22.34164429 175.08999634 C-22.3461754 174.40856107 -22.35070651 173.7271258 -22.35537493 173.02504098 C-22.36797863 170.75441692 -22.36640121 168.48403396 -22.36474609 166.21337891 C-22.37073383 164.58017165 -22.37753994 162.94696721 -22.38510132 161.31376648 C-22.40274257 156.88602469 -22.40745588 152.45836025 -22.40873289 148.03058672 C-22.41015599 145.26221828 -22.41442859 142.4938694 -22.41972733 139.72550583 C-22.43822067 130.06178288 -22.44639872 120.39811506 -22.44482422 110.734375 C-22.44362268 101.735463 -22.46472928 92.7367908 -22.49631155 83.73793948 C-22.52248588 76.00356344 -22.53319104 68.26926568 -22.5319134 60.53484571 C-22.53140415 55.91908607 -22.53706693 51.30353965 -22.5582695 46.68782425 C-22.57767169 42.34568189 -22.57776294 38.00395575 -22.56323624 33.66179848 C-22.56114956 32.07194089 -22.56584064 30.48205712 -22.57795715 28.89224434 C-22.68437705 13.95676717 -22.68437705 13.95676717 -18.07421875 7.09765625 C-16.0390625 5.0390625 -16.0390625 5.0390625 -14.01171875 3.66015625 C-13.34011719 3.18707031 -12.66851562 2.71398437 -11.9765625 2.2265625 C-7.97922314 -0.14557523 -4.55201352 -0.01857965 0 0 Z " fill="#00C0FA" transform="translate(304.07421875,61.90234375)"/>
<path d="M0 0 C0.99245476 0.00212242 0.99245476 0.00212242 2.00495911 0.00428772 C4.11402953 0.00987629 6.22299302 0.0224266 8.33203125 0.03515625 C9.76367034 0.04017273 11.1953111 0.04473538 12.62695312 0.04882812 C16.13284713 0.05984195 19.63867875 0.0770987 23.14453125 0.09765625 C22.54640625 0.39027344 21.94828125 0.68289063 21.33203125 0.984375 C14.40568872 4.50938861 9.595999 8.60109881 7.14453125 16.09765625 C6.83940309 19.40638417 6.83940309 19.40638417 6.87710571 23.05426025 C6.8725746 23.74230263 6.86804349 24.43034502 6.86337507 25.13923717 C6.85074344 27.43827121 6.85235062 29.73706797 6.85400391 32.03613281 C6.84801779 33.68727421 6.84121205 35.33841281 6.83364868 36.98954773 C6.8159878 41.47113296 6.8112932 45.9526418 6.81001711 50.43425846 C6.80859476 53.23629868 6.80432351 56.03831952 6.79902267 58.84035492 C6.7805206 68.62193533 6.7723521 78.40346126 6.77392578 88.18505859 C6.77512654 97.29242387 6.7540376 106.3995519 6.72243845 115.50685716 C6.69625283 123.33379676 6.68555948 131.160659 6.6868366 138.98764205 C6.68734565 143.6587799 6.6816941 148.32970699 6.6604805 153.00080109 C6.64106009 157.39710278 6.6409995 161.79299355 6.65551376 166.18931007 C6.65759841 167.79809739 6.65292155 169.40691067 6.64079285 171.01565361 C6.44935058 184.2633877 6.44935058 184.2633877 12.52105141 195.66594315 C15.70958326 198.5794155 19.00823 200.01433926 23.14453125 201.09765625 C23.14453125 201.42765625 23.14453125 201.75765625 23.14453125 202.09765625 C18.75216975 202.24730428 14.36120359 202.35546951 9.96704102 202.42724609 C8.47621783 202.45720106 6.98556757 202.49798194 5.49536133 202.55029297 C-2.4979008 202.82361269 -9.35589958 203.04555526 -16.07836914 198.08056641 C-20.72149706 192.89970571 -22.35516148 188.62433919 -22.36340332 181.70399475 C-22.36964328 180.99312019 -22.37588325 180.28224563 -22.3823123 179.54982942 C-22.39817341 177.1852999 -22.38566602 174.8218112 -22.37304688 172.45727539 C-22.37847114 170.75495303 -22.3855955 169.05263536 -22.39428711 167.35032654 C-22.41248867 162.73866316 -22.40546569 158.12735861 -22.39277077 153.51568913 C-22.38262502 148.68276728 -22.39204097 143.84987561 -22.39831543 139.01695251 C-22.40558794 130.90065003 -22.39601525 122.78449324 -22.37695312 114.66821289 C-22.35519248 105.29492478 -22.36223147 95.92198482 -22.38425875 86.54870516 C-22.40243278 78.49157523 -22.40496106 70.43454988 -22.39450407 62.37740606 C-22.38827921 57.56942284 -22.38740561 52.76160306 -22.40065002 47.95363045 C-22.41223681 43.43169363 -22.40413131 38.91020391 -22.381073 34.3883152 C-22.37580067 32.73235566 -22.37727435 31.07635826 -22.38612366 29.42041397 C-22.47173738 11.76708728 -22.47173738 11.76708728 -15.8203125 5.0390625 C-15.15128906 4.58402344 -14.48226562 4.12898438 -13.79296875 3.66015625 C-13.12136719 3.18707031 -12.44976562 2.71398437 -11.7578125 2.2265625 C-7.82291055 -0.10852305 -4.4800175 -0.01890303 0 0 Z " fill="#FE4FB7" transform="translate(79.85546875,279.90234375)"/>
<path d="M0 0 C1.29873047 0.00322266 2.59746094 0.00644531 3.93554688 0.00976562 C5.30729233 0.01812094 6.67903712 0.02658588 8.05078125 0.03515625 C9.4342432 0.0401729 10.81770688 0.04473552 12.20117188 0.04882812 C15.5885852 0.06063096 18.97591158 0.07709606 22.36328125 0.09765625 C20.81948507 1.1268537 19.27166715 2.15249717 17.6796875 3.10546875 C17.10089844 3.47414063 16.52210938 3.8428125 15.92578125 4.22265625 C15.06146484 4.75246094 15.06146484 4.75246094 14.1796875 5.29296875 C10.32529942 9.12248981 8.14222887 13.97816784 7.97265625 19.41137695 C7.99994121 20.9492029 8.04765858 22.48677008 8.11328125 24.0234375 C8.12842773 24.85167526 8.14357422 25.67991302 8.15917969 26.5332489 C8.22384096 30.03809198 8.33621769 33.54098101 8.4453125 37.04467773 C8.9437545 54.5967224 8.9437545 54.5967224 5.3190918 62.84716797 C-0.07774763 75.55420904 2.59576397 93.69062334 7.36328125 106.09765625 C8.31862936 109.23898367 8.46486784 112.01233165 8.41333008 115.29003906 C8.40034378 116.32501526 8.38735748 117.35999146 8.37397766 118.42633057 C8.35626816 119.53989929 8.33855865 120.65346802 8.3203125 121.80078125 C8.29791894 124.16665824 8.27646412 126.53254426 8.25585938 128.8984375 C8.21881031 132.62248173 8.17580662 136.34606446 8.11645508 140.06982422 C8.061797 143.66771041 8.03282046 147.26508253 8.0078125 150.86328125 C7.9840303 151.96875305 7.96024811 153.07422485 7.93574524 154.2131958 C7.91287254 161.00139611 8.7483702 165.31025371 12.36328125 171.09765625 C14.05799178 172.9199 14.05799178 172.9199 15.92578125 173.97265625 C16.50457031 174.34132813 17.08335937 174.71 17.6796875 175.08984375 C18.23527344 175.42242187 18.79085937 175.755 19.36328125 176.09765625 C20.35328125 176.75765625 21.34328125 177.41765625 22.36328125 178.09765625 C18.3798782 178.19739477 14.39697017 178.26952823 10.41259766 178.31738281 C8.39980498 178.3471167 6.38735991 178.39797354 4.375 178.44921875 C-3.67079046 178.53008097 -9.99558251 178.44787579 -16.14404297 172.68481445 C-20.52838468 167.79723609 -21.88405498 163.38329746 -21.90414429 156.93156433 C-21.91267426 155.69095749 -21.92120422 154.45035065 -21.92999268 153.17214966 C-21.92929371 151.80511462 -21.92837068 150.43807968 -21.92724609 149.07104492 C-21.93323333 147.6251745 -21.94003932 146.17930726 -21.94760132 144.73344421 C-21.96524981 140.81182347 -21.96995624 136.89029003 -21.97123289 132.96863341 C-21.97265582 130.51636014 -21.97692814 128.06410898 -21.98222733 125.6118412 C-22.00072454 117.05037658 -22.00889842 108.48897418 -22.00732422 99.92749023 C-22.00612324 91.95730151 -22.02721765 83.98738377 -22.05881155 76.01726359 C-22.08499822 69.16612612 -22.0956905 62.31507701 -22.0944134 55.4638899 C-22.09390442 51.37571864 -22.09955177 47.28778822 -22.1207695 43.19966698 C-22.14019212 39.3524486 -22.14024928 35.50569977 -22.12573624 31.65846443 C-22.12365192 30.25082587 -22.12832656 28.8431576 -22.14045715 27.43556976 C-22.20390889 19.55931613 -21.98487706 13.7909495 -17.63671875 7.09765625 C-15.6015625 5.0390625 -15.6015625 5.0390625 -13.57421875 3.66015625 C-12.90261719 3.18707031 -12.23101562 2.71398437 -11.5390625 2.2265625 C-7.66751134 -0.07092885 -4.40684108 -0.01924385 0 0 Z " fill="#4ACC5C" transform="translate(303.63671875,279.90234375)"/>
<path d="M0 0 C2.92365401 7.27432961 3.30215784 14.38776872 3.3125 22.125 C3.32023437 23.51936279 3.32023437 23.51936279 3.328125 24.94189453 C3.14202762 43.68123638 -4.86378699 60.62387178 -18.10595703 73.71313477 C-33.60666357 88.20665254 -53.09902287 91.76257482 -73.61279297 91.15820312 C-78.29161808 90.84813167 -82.64029272 89.67988721 -87 88 C-87 87.34 -87 86.68 -87 86 C-85.18889095 84.84612429 -83.3232679 83.77733859 -81.4375 82.75 C-66.27276783 74.06668146 -55.83912613 59.99843463 -51.125 43.0625 C-49.91776421 37.14775897 -49.72451801 31.32792633 -49.6875 25.3125 C-49.67904053 24.01227905 -49.67904053 24.01227905 -49.67041016 22.68579102 C-49.73016843 17.34957957 -50.36828005 12.4151197 -51.57348633 7.21557617 C-52 5 -52 5 -52 1 C-34.35618064 -5.89981763 -17.98612265 -5.6269434 0 0 Z " fill="#00B327" transform="translate(433,336)"/>
<path d="M0 0 C0.67813248 -0.00191345 1.35626495 -0.0038269 2.0549469 -0.00579834 C3.48984142 -0.00715981 4.92474826 -0.00346599 6.35961914 0.00488281 C8.55448167 0.01556695 10.74852265 0.00499544 12.94335938 -0.0078125 C14.33724139 -0.00649057 15.73112289 -0.00392749 17.125 0 C18.39529053 0.00225586 19.66558105 0.00451172 20.97436523 0.00683594 C24.12890625 0.265625 24.12890625 0.265625 27.12890625 2.265625 C27.50642967 4.47392273 27.50642967 4.47392273 27.50985718 7.27612305 C27.52254639 8.86618668 27.52254639 8.86618668 27.53549194 10.4883728 C27.52941925 11.65623322 27.52334656 12.82409363 27.51708984 14.02734375 C27.5223468 15.25337311 27.52760376 16.47940247 27.53302002 17.74258423 C27.54398412 21.11045503 27.54138267 24.4777751 27.53188276 27.84561539 C27.52430203 31.36542772 27.53132734 34.88521607 27.53604126 38.4050293 C27.54150347 44.31661214 27.53429509 50.22808264 27.52001953 56.13964844 C27.50369203 62.98004629 27.50898021 69.82017593 27.52549875 76.66056728 C27.53910046 82.52728037 27.54103976 88.39391258 27.53318274 94.26063633 C27.52849893 97.76733867 27.52790062 101.27391483 27.53779221 104.78060913 C27.54804488 108.6884814 27.53384591 112.59605178 27.51708984 116.50390625 C27.52619888 118.25569687 27.52619888 118.25569687 27.53549194 120.0428772 C27.52703247 121.10291962 27.518573 122.16296204 27.50985718 123.25512695 C27.5087261 124.17985306 27.50759502 125.10457916 27.50642967 126.05732727 C27.31955558 127.15043465 27.31955558 127.15043465 27.12890625 128.265625 C23.43191481 130.73028596 21.53469694 130.52341899 17.125 130.53125 C16.1063662 130.53412018 16.1063662 130.53412018 15.06715393 130.53704834 C13.6340396 130.53840747 12.20091284 130.53472996 10.76782227 130.52636719 C8.5708464 130.51564667 6.37468511 130.52627953 4.17773438 130.5390625 C2.78515444 130.53774118 1.39257502 130.53517936 0 130.53125 C-1.2691626 130.52899414 -2.5383252 130.52673828 -3.84594727 130.52441406 C-6.87109375 130.265625 -6.87109375 130.265625 -8.87109375 128.265625 C-9.12277603 126.05732727 -9.12277603 126.05732727 -9.12506104 123.25512695 C-9.13070068 122.19508453 -9.13634033 121.13504211 -9.14215088 120.0428772 C-9.13810242 118.87501678 -9.13405396 117.70715637 -9.12988281 116.50390625 C-9.13338745 115.27787689 -9.13689209 114.05184753 -9.14050293 112.78866577 C-9.14781209 109.4209026 -9.14607786 106.05338422 -9.13974476 102.68563461 C-9.13469094 99.16582656 -9.13937448 95.64602916 -9.14251709 92.1262207 C-9.14615855 86.21466182 -9.14135295 80.30315287 -9.13183594 74.39160156 C-9.12095102 67.55125458 -9.12447647 60.71102681 -9.13548875 53.87068272 C-9.14455653 48.00398263 -9.14584941 42.1373185 -9.14061141 36.27061367 C-9.13748889 32.76393618 -9.13709004 29.25731478 -9.14368439 25.75064087 C-9.1505194 21.8428278 -9.14105338 17.93514891 -9.12988281 14.02734375 C-9.13393127 12.85948334 -9.13797974 11.69162292 -9.14215088 10.4883728 C-9.13651123 9.42833038 -9.13087158 8.36828796 -9.12506104 7.27612305 C-9.12430698 6.35139694 -9.12355293 5.42667084 -9.12277603 4.47392273 C-8.51327051 -0.87396929 -4.37619283 0.00777842 0 0 Z " fill="#FEF4F5" transform="translate(371.87109375,95.734375)"/>
<path d="M0 0 C1.28519531 -0.02384766 2.57039063 -0.04769531 3.89453125 -0.07226562 C16.39623802 -0.05322749 27.14221618 3.63318513 36.125 12.5625 C43.74381604 22.13614384 46.30808644 30.66066622 46.4375 42.6875 C46.48100586 44.04681641 46.48100586 44.04681641 46.52539062 45.43359375 C46.53376953 46.30371094 46.54214844 47.17382812 46.55078125 48.0703125 C46.56536377 48.86066895 46.57994629 49.65102539 46.5949707 50.46533203 C46.125 52.5625 46.125 52.5625 44.60197449 54.16931152 C41.13505684 56.1192992 37.89618814 55.98143428 34.0234375 55.95068359 C32.80324921 55.95856903 32.80324921 55.95856903 31.55841064 55.96661377 C28.87207789 55.97980719 26.18633869 55.97107813 23.5 55.9609375 C21.63199754 55.96295843 19.76399585 55.96587002 17.89599609 55.96963501 C13.9820199 55.97405747 10.06824918 55.96762981 6.15429688 55.95361328 C1.13703049 55.93652145 -3.87975445 55.94636305 -8.89700317 55.96433067 C-12.75402454 55.97517061 -16.61093174 55.9717212 -20.46795654 55.9639473 C-22.31793271 55.96194587 -24.16791923 55.96440254 -26.0178833 55.97138596 C-28.60334738 55.97900389 -31.18803152 55.96739172 -33.7734375 55.95068359 C-34.53823425 55.95675629 -35.30303101 55.96282898 -36.09100342 55.96908569 C-39.30084835 55.93065211 -41.52779712 55.75863845 -44.34999084 54.16435242 C-46.30776633 52.10792713 -46.37796358 51.05824387 -46.37109375 48.24609375 C-46.37431641 47.40425537 -46.37753906 46.56241699 -46.38085938 45.69506836 C-46.35830078 44.8056958 -46.33574219 43.91632324 -46.3125 43 C-46.29638672 42.09193604 -46.28027344 41.18387207 -46.26367188 40.24829102 C-45.91536168 28.43016872 -42.92425327 20.47270905 -34.875 11.5625 C-24.31350668 2.25873753 -13.82028457 -0.11712106 0 0 Z " fill="#FFC6E7" transform="translate(158.875,391.4375)"/>
<path d="M0 0 C0.70125 0.7425 1.4025 1.485 2.125 2.25 C8.86934487 8.70111248 13.96584776 10.14566828 23.0612793 10.20532227 C23.98830658 10.21522186 24.91533386 10.22512146 25.87045288 10.23532104 C28.93834875 10.26693936 32.00626011 10.29169486 35.07421875 10.31640625 C37.19985866 10.33697548 39.32549447 10.35797195 41.4511261 10.37937927 C47.04884529 10.43460306 52.64660141 10.48401103 58.24438477 10.53222656 C63.95527437 10.58243931 69.66611026 10.63812656 75.37695312 10.69335938 C86.58458955 10.80094473 97.79227258 10.90238891 109 11 C109 11.66 109 12.32 109 13 C75.51203571 28.04418466 40.6051381 35.4515513 3.9375 35.3125 C2.94143738 35.31067719 1.94537476 35.30885437 0.91912842 35.30697632 C-13.59330287 35.26223255 -27.72309519 34.80469043 -42 32 C-42.89557617 31.83902832 -43.79115234 31.67805664 -44.71386719 31.51220703 C-66.44850445 27.58002813 -101.91707615 21.08292385 -118 5 C-117.16980897 4.99780016 -117.16980897 4.99780016 -116.32284641 4.99555588 C-102.82534746 4.95842488 -89.32810145 4.8990769 -75.83080387 4.81609726 C-69.3034523 4.77663349 -62.77623542 4.74443935 -56.2487793 4.72900391 C-49.94625239 4.71383047 -43.6440958 4.67937167 -37.34173393 4.63169098 C-34.94049745 4.61688446 -32.53920809 4.60895941 -30.1379261 4.60811615 C-26.76741445 4.60574268 -23.39792301 4.5786302 -20.02758789 4.54589844 C-19.04071487 4.5509288 -18.05384186 4.55595917 -17.0370636 4.56114197 C-10.53748978 4.46385751 -5.71795722 3.09505698 0 0 Z " fill="#6354B1" transform="translate(253,477)"/>
<path d="M0 0 C1.31654572 -0.00860046 2.63309143 -0.01720093 3.98953247 -0.02606201 C5.45722922 -0.03049739 6.92492639 -0.03479573 8.3926239 -0.03897095 C9.93158657 -0.04687075 11.47054738 -0.05513962 13.00950623 -0.06375122 C18.07168302 -0.08998408 23.13386814 -0.10527947 28.1960907 -0.11953735 C29.93754265 -0.12489639 31.67899455 -0.1302739 33.4204464 -0.13566971 C40.66321883 -0.15729972 47.90598902 -0.17603728 55.14878559 -0.1872921 C65.53511875 -0.20353696 75.92107812 -0.23672614 86.30727035 -0.29369295 C93.60669156 -0.33236695 100.90601269 -0.35192173 108.20553368 -0.35721266 C112.56703548 -0.36086946 116.92813874 -0.37292514 121.2895298 -0.4053154 C125.39281498 -0.43535187 129.49545957 -0.44172401 133.59883118 -0.42993164 C135.10449802 -0.42971054 136.6101942 -0.43804633 138.1157589 -0.45558548 C140.17283454 -0.4782443 142.22758064 -0.470002 144.28466797 -0.45410156 C145.43523335 -0.45741171 146.58579874 -0.46072186 147.77122974 -0.46413231 C151.75522392 0.34010535 153.2387626 2.11259148 155.83280945 5.15390015 C156.16280945 5.48390015 156.49280945 5.81390015 156.83280945 6.15390015 C157.21668291 11.14425519 156.91994188 14.15206181 153.83280945 18.15390015 C150.28054479 20.52207659 148.76635712 20.41097128 144.55209351 20.42805481 C143.23561829 20.43802994 141.91914307 20.44800507 140.56277466 20.45828247 C139.10029614 20.4591783 137.63781747 20.45984185 136.17533875 20.46029663 C134.63784888 20.46791669 133.10036284 20.47634392 131.56288147 20.48551941 C127.38303017 20.50748812 123.20325204 20.51626662 119.02334952 20.52134585 C116.41196876 20.52498701 113.80060722 20.53122584 111.18923378 20.53834724 C102.07896201 20.56285119 92.96874725 20.57589542 83.85844421 20.57943726 C75.36675507 20.583072 66.87542749 20.61296037 58.38384885 20.65484184 C51.09372108 20.6895369 43.80371315 20.70498557 36.51350337 20.70568329 C32.15926909 20.70647646 27.80540288 20.71523289 23.45125389 20.74368095 C19.35449388 20.76984799 15.25840742 20.77207487 11.16160202 20.75602531 C9.65958882 20.75420963 8.15753703 20.76091251 6.65560722 20.77684402 C-6.10785286 20.90395514 -6.10785286 20.90395514 -10.04504395 17.74143982 C-12.3048708 14.98602621 -13.06638139 13.89316733 -13.54219055 10.40390015 C-13.02003065 5.87851434 -11.32489677 4.38678984 -8.16719055 1.15390015 C-5.38695431 -0.23621797 -3.11217908 0.01508742 0 0 Z " fill="#FFAA00" transform="translate(79.16719055175781,154.84609985351563)"/>
<path d="M0 0 C0.67671753 -0.00287018 1.35343506 -0.00574036 2.05065918 -0.00869751 C3.47958209 -0.01073647 4.90853302 -0.00521819 6.33740234 0.00732422 C8.52374725 0.02338239 10.70824379 0.00747216 12.89453125 -0.01171875 C14.28385824 -0.00973629 15.67318409 -0.00589254 17.0625 0 C18.32642578 0.00338379 19.59035156 0.00676758 20.89257812 0.01025391 C24.03125 0.3984375 24.03125 0.3984375 25.70315552 1.42245483 C27.78815334 4.52458319 27.44792275 7.79017376 27.41943359 11.40234375 C27.42469055 12.21726288 27.42994751 13.03218201 27.43536377 13.87179565 C27.44857901 16.56837064 27.43982043 19.2643564 27.4296875 21.9609375 C27.4317078 23.83276483 27.43461887 25.70459139 27.43838501 27.57641602 C27.44281042 31.50056447 27.43637032 35.42450815 27.42236328 39.34863281 C27.40527127 44.38284097 27.41511129 49.41656934 27.43308067 54.45075989 C27.44391264 58.31632106 27.44047487 62.18176818 27.4326973 66.04733276 C27.43069366 67.90371762 27.43316027 69.76011277 27.44013596 71.6164856 C27.44774082 74.20944719 27.43616014 76.80162793 27.41943359 79.39453125 C27.42854263 80.54947586 27.42854263 80.54947586 27.43783569 81.72775269 C27.3760862 86.88537885 27.3760862 86.88537885 25.70315552 89.37442017 C22.92731167 91.07458336 20.27243971 90.78828133 17.0625 90.796875 C16.38578247 90.79974518 15.70906494 90.80261536 15.01184082 90.80557251 C13.58291791 90.80761147 12.15396698 90.80209319 10.72509766 90.78955078 C8.53875275 90.77349261 6.35425621 90.78940284 4.16796875 90.80859375 C2.77864176 90.80661129 1.38931591 90.80276754 0 90.796875 C-1.26392578 90.79349121 -2.52785156 90.79010742 -3.83007812 90.78662109 C-6.96875 90.3984375 -6.96875 90.3984375 -8.64065552 89.37442017 C-10.72565334 86.27229181 -10.38542275 83.00670124 -10.35693359 79.39453125 C-10.36219055 78.57961212 -10.36744751 77.76469299 -10.37286377 76.92507935 C-10.38607901 74.22850436 -10.37732043 71.5325186 -10.3671875 68.8359375 C-10.3692078 66.96411017 -10.37211887 65.09228361 -10.37588501 63.22045898 C-10.38031042 59.29631053 -10.37387032 55.37236685 -10.35986328 51.44824219 C-10.34277127 46.41403403 -10.35261129 41.38030566 -10.37058067 36.34611511 C-10.38141264 32.48055394 -10.37797487 28.61510682 -10.3701973 24.74954224 C-10.36819366 22.89315738 -10.37066027 21.03676223 -10.37763596 19.1803894 C-10.38524082 16.58742781 -10.37366014 13.99524707 -10.35693359 11.40234375 C-10.36300629 10.63238068 -10.36907898 9.8624176 -10.37533569 9.06912231 C-10.3135862 3.91149615 -10.3135862 3.91149615 -8.64065552 1.42245483 C-5.86481167 -0.27770836 -3.20993971 0.00859367 0 0 Z " fill="#C7EFFE" transform="translate(423.96875,135.6015625)"/>
<path d="M0 0 C7.48261101 4.1906529 11.98858202 9.27687489 14.9296875 17.37109375 C17.25376442 27.62053412 16.81011204 39.15645626 11.625 48.4375 C7.66609499 54.39636998 2.5603339 59.31701923 -4.375 61.4375 C-12.35033779 62.43339684 -20.50279368 62.81347365 -27.4140625 58.11328125 C-34.57900806 51.99025009 -39.71989287 46.05242045 -40.54638672 36.4453125 C-41.11091338 27.28431045 -41.30198231 18.50969429 -36.375 10.4375 C-35.98570312 9.79683594 -35.59640625 9.15617187 -35.1953125 8.49609375 C-26.85445128 -2.92940549 -12.39389905 -5.67671179 0 0 Z " fill="#FFC5E7" transform="translate(171.375,317.5625)"/>
<path d="M0 0 C0.92108047 -0.00571014 1.84216095 -0.01142029 2.79115295 -0.01730347 C4.31145615 -0.01898026 4.31145615 -0.01898026 5.86247253 -0.02069092 C6.92762589 -0.02565582 7.99277924 -0.03062073 9.09020996 -0.03573608 C12.62652728 -0.05038389 16.16279974 -0.0571642 19.69914246 -0.06268311 C22.15053306 -0.06843256 24.60192364 -0.07419032 27.05331421 -0.07995605 C32.19901235 -0.09047361 37.34469484 -0.09631129 42.49040222 -0.09979248 C49.08816567 -0.10527767 55.68572279 -0.12930326 62.28342152 -0.15776443 C67.34914761 -0.17637669 72.41482388 -0.18159568 77.48058128 -0.18312836 C79.91307897 -0.18615878 82.3455757 -0.19420035 84.77803993 -0.20731354 C88.18004222 -0.22434354 91.58153882 -0.22250094 94.98356628 -0.21600342 C96.49476044 -0.22982559 96.49476044 -0.22982559 98.03648376 -0.243927 C104.22684718 -0.20683868 107.9130545 0.43638518 112.42961121 4.95294189 C114.08001988 7.99316839 114.16439148 9.71994021 113.61711121 13.14044189 C111.54276079 16.56590177 109.49934535 18.84636385 105.61711121 20.14044189 C104.12070231 20.2394759 102.6203431 20.28390453 101.12069702 20.29434204 C100.19968704 20.3029425 99.27867706 20.31154297 98.32975769 20.32040405 C97.32138855 20.324664 96.31301941 20.32892395 95.27409363 20.33331299 C94.21040054 20.34149048 93.14670746 20.34966797 92.05078125 20.35809326 C88.5247199 20.38294099 84.99869875 20.39946059 81.47257996 20.41387939 C80.26923822 20.41920307 79.06589649 20.42452675 77.82608986 20.43001175 C71.45850384 20.45673891 65.09093742 20.47611641 58.72331238 20.49053955 C52.14235202 20.50719841 45.56189135 20.55198858 38.98112011 20.602911 C33.92393407 20.63654076 28.86686735 20.64811227 23.80957985 20.65376663 C21.38346341 20.6604894 18.95735511 20.67573784 16.53134727 20.69965744 C13.13658565 20.73122246 9.7431818 20.73135822 6.34831238 20.72393799 C4.84486771 20.74854599 4.84486771 20.74854599 3.31105042 20.77365112 C-1.21332177 20.73315931 -4.38477841 20.63702248 -7.99108887 17.72897339 C-10.54592533 14.96399519 -11.25884841 14.05007134 -11.75788879 10.39044189 C-11.23572889 5.86505609 -9.54059501 4.37333159 -6.38288879 1.14044189 C-4.02952605 -0.03623948 -2.62398902 0.00972234 0 0 Z " fill="#FFAA00" transform="translate(77.38288879394531,194.85955810546875)"/>
<path d="M0 0 C0.92108047 -0.00571014 1.84216095 -0.01142029 2.79115295 -0.01730347 C4.31145615 -0.01898026 4.31145615 -0.01898026 5.86247253 -0.02069092 C6.92762589 -0.02565582 7.99277924 -0.03062073 9.09020996 -0.03573608 C12.62652728 -0.05038389 16.16279974 -0.0571642 19.69914246 -0.06268311 C22.15053306 -0.06843256 24.60192364 -0.07419032 27.05331421 -0.07995605 C32.19901235 -0.09047361 37.34469484 -0.09631129 42.49040222 -0.09979248 C49.08816567 -0.10527767 55.68572279 -0.12930326 62.28342152 -0.15776443 C67.34914761 -0.17637669 72.41482388 -0.18159568 77.48058128 -0.18312836 C79.91307897 -0.18615878 82.3455757 -0.19420035 84.77803993 -0.20731354 C88.18004222 -0.22434354 91.58153882 -0.22250094 94.98356628 -0.21600342 C96.49476044 -0.22982559 96.49476044 -0.22982559 98.03648376 -0.243927 C104.22684718 -0.20683868 107.9130545 0.43638518 112.42961121 4.95294189 C114.08001988 7.99316839 114.16439148 9.71994021 113.61711121 13.14044189 C111.54276079 16.56590177 109.49934535 18.84636385 105.61711121 20.14044189 C104.12070231 20.2394759 102.6203431 20.28390453 101.12069702 20.29434204 C100.19968704 20.3029425 99.27867706 20.31154297 98.32975769 20.32040405 C97.32138855 20.324664 96.31301941 20.32892395 95.27409363 20.33331299 C94.21040054 20.34149048 93.14670746 20.34966797 92.05078125 20.35809326 C88.5247199 20.38294099 84.99869875 20.39946059 81.47257996 20.41387939 C80.26923822 20.41920307 79.06589649 20.42452675 77.82608986 20.43001175 C71.45850384 20.45673891 65.09093742 20.47611641 58.72331238 20.49053955 C52.14235202 20.50719841 45.56189135 20.55198858 38.98112011 20.602911 C33.92393407 20.63654076 28.86686735 20.64811227 23.80957985 20.65376663 C21.38346341 20.6604894 18.95735511 20.67573784 16.53134727 20.69965744 C13.13658565 20.73122246 9.7431818 20.73135822 6.34831238 20.72393799 C4.84486771 20.74854599 4.84486771 20.74854599 3.31105042 20.77365112 C-1.21332177 20.73315931 -4.38477841 20.63702248 -7.99108887 17.72897339 C-10.54592533 14.96399519 -11.25884841 14.05007134 -11.75788879 10.39044189 C-11.23572889 5.86505609 -9.54059501 4.37333159 -6.38288879 1.14044189 C-4.02952605 -0.03623948 -2.62398902 0.00972234 0 0 Z " fill="#FFAA00" transform="translate(77.38288879394531,114.85955810546875)"/>
<path d="M0 0 C2 1 2 1 3.6875 4.3125 C5.99841604 8.55935325 8.69657588 9.92798098 13 12 C13.66 12.33 14.32 12.66 15 13 C16.4494793 13.11767472 17.90393996 13.17689268 19.35791016 13.20532227 C20.70908432 13.2352401 20.70908432 13.2352401 22.08755493 13.26576233 C23.54855118 13.29083107 23.54855118 13.29083107 25.0390625 13.31640625 C26.53305069 13.3475779 26.53305069 13.3475779 28.05722046 13.37937927 C31.24640854 13.44489042 34.43568058 13.50376704 37.625 13.5625 C39.78386293 13.60568373 41.9427173 13.64929797 44.1015625 13.69335938 C49.4009523 13.80057336 54.70042606 13.90233685 60 14 C59.84152588 14.74725342 59.68305176 15.49450684 59.51977539 16.2644043 C58.85470777 19.76467801 58.64471948 23.26259247 58.4375 26.8125 C58.37272461 27.85180664 58.37272461 27.85180664 58.30664062 28.91210938 C58.20138547 30.60788686 58.10027137 32.30392052 58 34 C57.01 34.02578125 56.02 34.0515625 55 34.078125 C44.31445919 34.30027403 44.31445919 34.30027403 35 39 C30.89914654 43.5346969 28.90805356 47.57594215 28.79467773 53.74682617 C28.77473251 54.70759567 28.75478729 55.66836517 28.73423767 56.6582489 C28.70916893 58.20993523 28.70916893 58.20993523 28.68359375 59.79296875 C28.66281265 60.85413406 28.64203156 61.91529938 28.62062073 63.00862122 C28.55518762 66.40151437 28.49626907 69.7944855 28.4375 73.1875 C28.39430886 75.48633622 28.35069438 77.78516453 28.30664062 80.08398438 C28.1995126 85.7225736 28.09773449 91.36124056 28 97 C8.57036238 71.64101338 2.30295057 31.0726465 0 0 Z " fill="#6253B1" transform="translate(0,276)"/>
<path d="M0 0 C-0.39832031 0.73863281 -0.79664063 1.47726562 -1.20703125 2.23828125 C-15.1581172 28.95240446 -15.27465396 69.24197126 -7 98 C-5.05669545 104.10624136 -2.35087494 109.55118598 1 115 C-3.98641644 113.69790906 -7.20994872 111.50554421 -10.875 108 C-11.39457275 107.51015625 -11.91414551 107.0203125 -12.44946289 106.515625 C-20.33445426 98.94173882 -26.0912958 91.26556477 -30 81 C-30.58974609 79.57300781 -30.58974609 79.57300781 -31.19140625 78.1171875 C-35.66316691 65.93280829 -35.85571479 50.4484506 -32 38 C-31.74347656 37.13761719 -31.48695313 36.27523437 -31.22265625 35.38671875 C-26.46515674 20.9508726 -17.67472024 8.90055694 -5.2890625 0.06640625 C-3 -1 -3 -1 0 0 Z " fill="#00B327" transform="translate(340,305)"/>
<path d="M0 0 C31.35 0 62.7 0 95 0 C95 17.81904762 95 17.81904762 91 23 C89.8553125 24.546875 89.8553125 24.546875 88.6875 26.125 C85.39390146 28.51225201 82.56547646 28.1145684 78.625 27.6875 C75.72742681 27.22030412 72.86690487 26.62708131 70 26 C69.1032959 25.80438477 68.2065918 25.60876953 67.28271484 25.40722656 C13.30237992 13.30237992 13.30237992 13.30237992 0 0 Z " fill="#54469D" transform="translate(135,482)"/>
<path d="M0 0 C1.26511414 -0.01606293 2.53022827 -0.03212585 3.8336792 -0.04867554 C5.22667776 -0.06016333 6.61968381 -0.07077181 8.01269531 -0.08056641 C8.71162148 -0.08589008 9.41054764 -0.09121376 10.13065338 -0.09669876 C13.8322083 -0.1234526 17.53372928 -0.14281756 21.23535156 -0.15722656 C25.05672679 -0.1738527 28.87723586 -0.21860509 32.69828415 -0.26959801 C35.63744068 -0.30328759 38.57639247 -0.31480591 41.51572418 -0.32045364 C42.92394862 -0.32716488 44.33215965 -0.34238404 45.74019623 -0.36634445 C47.71458088 -0.39801674 49.68942873 -0.39502954 51.6640625 -0.390625 C53.34831329 -0.40275528 53.34831329 -0.40275528 55.06658936 -0.41513062 C59.02730399 0.38114497 60.50876952 2.17442506 63.09082031 5.19287109 C63.58582031 5.68787109 63.58582031 5.68787109 64.09082031 6.19287109 C64.47469378 11.18322613 64.17795274 14.19103276 61.09082031 18.19287109 C57.57728428 20.53522845 56.11430622 20.45496255 51.95458984 20.48339844 C50.68962677 20.49615814 49.4246637 20.50891785 48.12136841 20.52206421 C46.73879143 20.52512185 45.3562124 20.52734962 43.97363281 20.52880859 C42.55500147 20.53523627 41.13637147 20.54196461 39.71774292 20.54898071 C36.74360075 20.56095627 33.76957474 20.56466131 30.79541016 20.56347656 C26.98987598 20.56327345 23.18508925 20.59056527 19.37973213 20.62502098 C16.4491333 20.64729313 13.51871419 20.65131401 10.5880394 20.65025711 C9.18543804 20.652613 7.78283172 20.66143603 6.38031387 20.67692184 C4.41558747 20.69658243 2.4506416 20.68822108 0.48583984 20.67871094 C-0.63096161 20.68156097 -1.74776306 20.68441101 -2.89840698 20.68734741 C-6.58986617 20.08107808 -8.24848961 18.76969073 -10.90917969 16.19287109 C-12.51647962 12.97827124 -12.52848824 9.66899006 -11.90917969 6.19287109 C-9.47167969 3.25537109 -9.47167969 3.25537109 -6.90917969 1.19287109 C-5.11530811 -0.60100048 -2.42331357 0.02783439 0 0 Z " fill="#FFAA00" transform="translate(171.9091796875,74.80712890625)"/>
<path d="M0 0 C0.67671753 -0.00287018 1.35343506 -0.00574036 2.05065918 -0.00869751 C3.47958209 -0.01073647 4.90853302 -0.00521819 6.33740234 0.00732422 C8.52374725 0.02338239 10.70824379 0.00747216 12.89453125 -0.01171875 C14.28385824 -0.00973629 15.67318409 -0.00589254 17.0625 0 C18.32642578 0.00338379 19.59035156 0.00676758 20.89257812 0.01025391 C24.03125 0.3984375 24.03125 0.3984375 25.94189453 1.50146484 C27.59617713 4.38218555 27.42054568 6.84693547 27.4296875 10.1484375 C27.43255768 10.80295898 27.43542786 11.45748047 27.43838501 12.13183594 C27.44042368 13.51368069 27.43490746 14.89555443 27.42236328 16.27734375 C27.40630436 18.391282 27.42221601 20.50330863 27.44140625 22.6171875 C27.43942378 23.96094172 27.43558002 25.30469474 27.4296875 26.6484375 C27.42630371 27.87046875 27.42291992 29.0925 27.41943359 30.3515625 C27.03125 33.3984375 27.03125 33.3984375 25.94189453 35.29541016 C23.00028632 36.99361945 20.4351954 36.7878456 17.0625 36.796875 C16.38578247 36.79974518 15.70906494 36.80261536 15.01184082 36.80557251 C13.58291791 36.80761147 12.15396698 36.80209319 10.72509766 36.78955078 C8.53875275 36.77349261 6.35425621 36.78940284 4.16796875 36.80859375 C2.77864176 36.80661129 1.38931591 36.80276754 0 36.796875 C-1.26392578 36.79349121 -2.52785156 36.79010742 -3.83007812 36.78662109 C-6.96875 36.3984375 -6.96875 36.3984375 -8.87939453 35.29541016 C-10.53367713 32.41468945 -10.35804568 29.94993953 -10.3671875 26.6484375 C-10.37005768 25.99391602 -10.37292786 25.33939453 -10.37588501 24.66503906 C-10.37792368 23.28319431 -10.37240746 21.90132057 -10.35986328 20.51953125 C-10.34380436 18.405593 -10.35971601 16.29356637 -10.37890625 14.1796875 C-10.37692378 12.83593328 -10.37308002 11.49218026 -10.3671875 10.1484375 C-10.36380371 8.92640625 -10.36041992 7.704375 -10.35693359 6.4453125 C-9.96875 3.3984375 -9.96875 3.3984375 -8.87939453 1.50146484 C-5.93778632 -0.19674445 -3.3726954 0.0090294 0 0 Z " fill="#C7EFFE" transform="translate(320.96875,189.6015625)"/>
<path d="M0 0 C0.03738281 1.21816406 0.07476562 2.43632812 0.11328125 3.69140625 C0.17898117 5.3151329 0.24542709 6.93882949 0.3125 8.5625 C0.33505859 9.36236328 0.35761719 10.16222656 0.38085938 10.98632812 C0.68013907 17.65210317 1.91415587 22.51953671 6.3125 27.75 C11.94486096 32.46546499 16.77175732 33.4768106 23.875 33.6875 C25.050625 33.73874023 25.050625 33.73874023 26.25 33.79101562 C28.16618748 33.87280412 30.08306715 33.9380946 32 34 C31.76990234 34.99580078 31.76990234 34.99580078 31.53515625 36.01171875 C30.89226979 39.60155922 30.64966009 43.17795419 30.4375 46.8125 C30.37272461 47.85180664 30.37272461 47.85180664 30.30664062 48.91210938 C30.20138547 50.60788686 30.10027137 52.30392052 30 54 C28.49759766 54.05607422 28.49759766 54.05607422 26.96484375 54.11328125 C25.62236186 54.17899715 24.27991554 54.24544248 22.9375 54.3125 C21.62652344 54.37050781 20.31554687 54.42851562 18.96484375 54.48828125 C14.67947541 55.0413682 11.85225265 56.13148213 8 58 C7.97421875 56.72125 7.9484375 55.4425 7.921875 54.125 C7.86555525 52.41663435 7.80820882 50.70830233 7.75 49 C7.73582031 48.16082031 7.72164063 47.32164062 7.70703125 46.45703125 C7.43015355 39.31358654 5.76753256 33.69657018 0.5625 28.625 C-4.86071827 25.18588598 -9.53441125 24.62759703 -15.8125 24.375 C-16.60076172 24.33632813 -17.38902344 24.29765625 -18.20117188 24.2578125 C-20.1337538 24.16411156 -22.06684376 24.08099221 -24 24 C-23.84660156 23.33613281 -23.69320312 22.67226563 -23.53515625 21.98828125 C-22.89226979 18.39844078 -22.64966009 14.82204581 -22.4375 11.1875 C-22.39431641 10.49462891 -22.35113281 9.80175781 -22.30664062 9.08789062 C-22.20138547 7.39211314 -22.10027137 5.69607948 -22 4 C-21.07058594 3.96261719 -20.14117187 3.92523438 -19.18359375 3.88671875 C-12.88985657 3.55201531 -5.60399368 0 0 0 Z " fill="#6354B1" transform="translate(252,256)"/>
<path d="M0 0 C-2.77466438 1.84977625 -4.87457185 2.71424765 -8 3.75 C-19.50928875 7.88851065 -28.5457664 14.46514442 -38 22 C-39.32886874 23.00592527 -40.66010914 24.00880363 -42 25 C-42.67189656 22.08444885 -43.33769308 19.16773049 -44 16.25 C-44.19078125 15.425 -44.3815625 14.6 -44.578125 13.75 C-44.75859375 12.95078125 -44.9390625 12.1515625 -45.125 11.328125 C-45.29257812 10.5949707 -45.46015625 9.86181641 -45.6328125 9.10644531 C-46 7 -46 7 -46 3 C-30.98118912 -2.873278 -15.72899275 -4.19439807 0 0 Z " fill="#01A42C" transform="translate(427,334)"/>
<path d="M0 0 C2.875 2.4375 2.875 2.4375 5 5 C5.33 5.33 5.66 5.66 6 6 C6.38387346 10.99035504 6.08713243 13.99816167 3 18 C-0.76875875 20.51250583 -2.53150134 20.53016086 -7 20 C-9.97361628 18.21847933 -12.42653612 16.14692775 -14 13 C-14.40417552 10.03604618 -14.56382171 7.91095074 -12.953125 5.30859375 C-8.87177923 0.32695111 -6.42112446 -0.65299571 0 0 Z " fill="#FFAC02" transform="translate(140,75)"/>
<path d="M0 0 C2.875 2.4375 2.875 2.4375 5 5 C5.33 5.33 5.66 5.66 6 6 C6.38387346 10.99035504 6.08713243 13.99816167 3 18 C-0.76875875 20.51250583 -2.53150134 20.53016086 -7 20 C-9.97361628 18.21847933 -12.42653612 16.14692775 -14 13 C-14.40417552 10.03604618 -14.56382171 7.91095074 -12.953125 5.30859375 C-8.87177923 0.32695111 -6.42112446 -0.65299571 0 0 Z " fill="#FFAC02" transform="translate(110,75)"/>
<path d="M0 0 C2.875 2.4375 2.875 2.4375 5 5 C5.33 5.33 5.66 5.66 6 6 C6.38387346 10.99035504 6.08713243 13.99816167 3 18 C-0.76875875 20.51250583 -2.53150134 20.53016086 -7 20 C-9.97361628 18.21847933 -12.42653612 16.14692775 -14 13 C-14.40417552 10.03604618 -14.56382171 7.91095074 -12.953125 5.30859375 C-8.87177923 0.32695111 -6.42112446 -0.65299571 0 0 Z " fill="#FFAC02" transform="translate(80,75)"/>
</svg>
