<?xml version="1.0" encoding="UTF-8"?>
<svg version="1.1" xmlns="http://www.w3.org/2000/svg" width="512" height="512">
<path d="M0 0 C1.51427582 0.00081573 1.51427582 0.00081573 3.05914307 0.00164795 C19.57458953 0.04242844 35.47683935 0.97005679 51.6875 4.375 C52.70279785 4.58398926 53.7180957 4.79297852 54.76416016 5.00830078 C96.07262063 13.78544462 134.71319427 32.78632472 166.6875 60.375 C167.44417969 61.02082031 168.20085937 61.66664062 168.98046875 62.33203125 C181.60862986 73.39489266 193.53088708 85.27215035 203.50830078 98.79443359 C204.62173959 100.28685654 205.77655209 101.74815263 206.93359375 103.20703125 C231.2274101 134.16973836 246.42005903 172.97015703 253.6875 211.375 C253.9352417 212.65793945 253.9352417 212.65793945 254.18798828 213.96679688 C259.29536387 241.87514499 259.44051485 274.56617708 253.6875 302.375 C253.48882324 303.35275391 253.29014648 304.33050781 253.08544922 305.33789062 C244.91540884 344.3827278 229.29622242 380.84100881 204.6875 412.375 C204.00300781 413.27089844 203.31851562 414.16679687 202.61328125 415.08984375 C197.34533437 421.85375932 191.59780885 428.17242313 185.6875 434.375 C184.82995117 435.27557129 184.82995117 435.27557129 183.95507812 436.19433594 C175.9468274 444.54308817 167.72261118 452.18836051 158.42480469 459.07763672 C156.70374144 460.36287142 155.011112 461.6792016 153.3203125 463.00390625 C122.91153445 486.49008153 86.05781351 502.01897268 48.35839844 508.88720703 C46.65813768 509.19772997 44.96040219 509.522678 43.26660156 509.86669922 C15.72026123 515.40684114 -16.80549775 514.76691502 -44.3125 509.375 C-45.85115723 509.07698486 -45.85115723 509.07698486 -47.42089844 508.77294922 C-91.05041588 500.04573828 -131.52996425 481.51648451 -165.3125 452.375 C-166.05757813 451.74078125 -166.80265625 451.1065625 -167.5703125 450.453125 C-181.07529833 438.64198485 -193.74668743 425.89139772 -204.3125 411.375 C-205.16899066 410.22505169 -206.02576433 409.07531411 -206.8828125 407.92578125 C-212.92398664 399.73410544 -218.29545056 391.226615 -223.3125 382.375 C-223.70937012 381.68374023 -224.10624023 380.99248047 -224.51513672 380.28027344 C-246.07925079 342.38696708 -255.79407885 299.579394 -255.625 256.25 C-255.62284485 255.25577026 -255.6206897 254.26154053 -255.61846924 253.23718262 C-255.56813314 238.76890045 -255.27101704 224.58810929 -252.3125 210.375 C-252.11382324 209.39869629 -251.91514648 208.42239258 -251.71044922 207.41650391 C-241.58865459 159.03660016 -219.67208987 115.0494481 -185.3125 79.375 C-184.68037598 78.71564453 -184.04825195 78.05628906 -183.39697266 77.37695312 C-174.25252521 67.88869695 -164.95515991 59.1487956 -154.3125 51.375 C-153.16144983 50.51693848 -152.01040823 49.65886549 -150.859375 48.80078125 C-142.66974019 42.76322604 -134.16711724 37.38042698 -125.3125 32.375 C-124.60528809 31.9728125 -123.89807617 31.570625 -123.16943359 31.15625 C-100.03404164 18.1308259 -74.86287591 9.38198539 -48.875 4.0625 C-48.15610596 3.91514404 -47.43721191 3.76778809 -46.6965332 3.6159668 C-31.16987908 0.66484793 -15.76936592 -0.03207988 0 0 Z " fill="#647888" transform="translate(255.3125,-0.375)"/>
<path d="M0 0 C1.01584671 0.48608734 1.01584671 0.48608734 2.05221558 0.98199463 C3.52030881 1.68564639 4.98636359 2.39356383 6.45056152 3.10528564 C9.62813124 4.64951963 12.81570243 6.1725699 16.00292969 7.69674683 C17.69350935 8.50526261 19.38360547 9.31479015 21.07324219 10.12527466 C29.69312606 14.2553985 38.36325905 18.27443629 47.04141235 22.28033447 C51.33487299 24.2622584 55.62647016 26.24820694 59.91796875 28.234375 C61.16899635 28.81328995 61.16899635 28.81328995 62.44529724 29.40390015 C70.9976113 33.36374 79.53641282 37.35221754 88.0703125 41.3515625 C88.74066528 41.66538879 89.41101807 41.97921509 90.10168457 42.30255127 C91.98097897 43.1825606 93.8597373 44.06370252 95.73828125 44.9453125 C97.31065552 45.68297852 97.31065552 45.68297852 98.91479492 46.43554688 C99.89424072 46.90283203 100.87368652 47.37011719 101.8828125 47.8515625 C102.95829346 48.34462891 104.03377441 48.83769531 105.1418457 49.34570312 C107.8828125 50.8515625 107.8828125 50.8515625 109.8828125 53.8515625 C110.21875 57.06640625 110.21875 57.06640625 110.2578125 60.7890625 C110.28617188 62.01496094 110.31453125 63.24085938 110.34375 64.50390625 C109.8828125 67.8515625 109.8828125 67.8515625 108.1875 70.24609375 C105.50646463 72.11373025 103.87195679 72.43108122 100.6328125 72.6015625 C99.74078125 72.65828125 98.84875 72.715 97.9296875 72.7734375 C97.25421875 72.79921875 96.57875 72.825 95.8828125 72.8515625 C96.36878906 73.27566406 96.85476563 73.69976562 97.35546875 74.13671875 C98.8828125 75.8515625 98.8828125 75.8515625 99.3203125 79.2890625 C98.8828125 82.8515625 98.8828125 82.8515625 97.3203125 85.2890625 C94.01081615 87.41053452 91.73788012 87.27990335 87.8828125 86.8515625 C87.2228125 86.1915625 86.5628125 85.5315625 85.8828125 84.8515625 C85.5528125 119.5015625 85.2228125 154.1515625 84.8828125 189.8515625 C86.5328125 190.1815625 88.1828125 190.5115625 89.8828125 190.8515625 C89.8828125 192.8315625 89.8828125 194.8115625 89.8828125 196.8515625 C90.70265625 196.80515625 91.5225 196.75875 92.3671875 196.7109375 C93.44484375 196.67484375 94.5225 196.63875 95.6328125 196.6015625 C96.70015625 196.55515625 97.7675 196.50875 98.8671875 196.4609375 C101.8828125 196.8515625 101.8828125 196.8515625 104.2421875 198.48828125 C106.31650001 201.47627903 106.41864476 203.29948376 106.3828125 206.9140625 C106.39828125 208.47833984 106.39828125 208.47833984 106.4140625 210.07421875 C105.8828125 212.8515625 105.8828125 212.8515625 104.42176914 214.50133705 C100.58667427 216.54085305 97.00948729 216.26517015 92.72825623 216.23251343 C91.79182173 216.2371934 90.85538724 216.24187337 89.89057595 216.24669516 C86.74518559 216.25868423 83.60022777 216.24917257 80.45483398 216.23974609 C78.20297999 216.24381002 75.95112799 216.24915089 73.69927979 216.25567627 C67.57756008 216.26937609 61.45599171 216.26404037 55.33426929 216.25453901 C48.93614457 216.24695718 42.53803304 216.25398383 36.13990784 216.25869751 C24.70671513 216.26450904 13.27360645 216.25517219 1.84042794 216.2399195 C-8.53016229 216.22651287 -18.90065181 216.22884681 -29.27124023 216.24267578 C-41.31053287 216.25872238 -53.3497494 216.26471088 -65.38905662 216.25583899 C-71.76352638 216.25115416 -78.13792671 216.25055994 -84.51239204 216.26044846 C-90.5033677 216.26909257 -96.49415247 216.26314299 -102.48510742 216.24576569 C-104.6882133 216.24178734 -106.89133514 216.24295777 -109.09443474 216.24955368 C-112.09304753 216.25770593 -115.09104189 216.24752425 -118.08961487 216.23251343 C-119.4089551 216.24255168 -119.4089551 216.24255168 -120.75494868 216.25279272 C-126.67417177 216.1949953 -126.67417177 216.1949953 -128.83818191 214.51742041 C-130.83688315 211.91418529 -130.51395286 209.57283582 -130.4921875 206.3515625 C-130.50378906 204.63453125 -130.50378906 204.63453125 -130.515625 202.8828125 C-130.1171875 199.8515625 -130.1171875 199.8515625 -129.04296875 197.95703125 C-126.03709187 196.23154817 -123.35074607 196.56990492 -119.9296875 196.6640625 C-118.02123047 196.70466797 -118.02123047 196.70466797 -116.07421875 196.74609375 C-115.09839844 196.78089844 -114.12257812 196.81570313 -113.1171875 196.8515625 C-113.1171875 194.5415625 -113.1171875 192.2315625 -113.1171875 189.8515625 C-111.7971875 189.8515625 -110.4771875 189.8515625 -109.1171875 189.8515625 C-109.4471875 155.2015625 -109.7771875 120.5515625 -110.1171875 84.8515625 C-111.1071875 85.8415625 -111.1071875 85.8415625 -112.1171875 86.8515625 C-115.97225512 87.27990335 -118.24519115 87.41053452 -121.5546875 85.2890625 C-123.69735598 81.94649967 -123.61292087 79.74661041 -123.1171875 75.8515625 C-121.58984375 74.13671875 -121.58984375 74.13671875 -120.1171875 72.8515625 C-120.80425781 72.81417969 -121.49132812 72.77679688 -122.19921875 72.73828125 C-123.10027344 72.67253906 -124.00132812 72.60679687 -124.9296875 72.5390625 C-125.82300781 72.48105469 -126.71632812 72.42304688 -127.63671875 72.36328125 C-130.1171875 71.8515625 -130.1171875 71.8515625 -131.91796875 70.80859375 C-133.83488713 67.68033281 -133.54911191 64.4061757 -133.4921875 60.8515625 C-133.50378906 60.12710938 -133.51539063 59.40265625 -133.52734375 58.65625 C-133.49819806 53.39059588 -133.49819806 53.39059588 -132.05761719 51.35253906 C-129.17549359 49.12313596 -125.95816874 47.67670423 -122.671875 46.1484375 C-121.92299011 45.79421219 -121.17410522 45.43998688 -120.40252686 45.07502747 C-117.93546971 43.91058699 -115.4639834 42.75590568 -112.9921875 41.6015625 C-111.25944898 40.7867041 -109.5268662 39.97151445 -107.79443359 39.15600586 C-96.49893725 33.85002228 -85.15485945 28.65553908 -73.77716064 23.52859497 C-59.79069289 17.2233546 -45.93928986 10.64106962 -32.10009766 4.01977539 C-31.27214691 3.62418427 -30.44419617 3.22859314 -29.59115601 2.8210144 C-28.03999618 2.07954709 -26.48951483 1.33665802 -24.93984985 0.59207153 C-23.58423192 -0.05609673 -22.22546409 -0.6977389 -20.86291504 -1.33120728 C-19.41220233 -2.01033174 -17.97851302 -2.72567919 -16.54980469 -3.44995117 C-10.61463521 -5.15413823 -5.27545176 -2.60201215 0 0 Z " fill="#D3D5DA" transform="translate(268.1171875,110.1484375)"/>
<path d="M0 0 C0.86821767 14.53460697 -3.59921157 28.150152 -13.25195312 39.109375 C-15.43739912 41.50282302 -17.61440232 43.80150802 -20 46 C-20.66 46 -21.32 46 -22 46 C-22.33692785 47.60341555 -22.66941093 49.20776555 -23 50.8125 C-23.2784375 52.15248047 -23.2784375 52.15248047 -23.5625 53.51953125 C-24.08684843 56.07260693 -24.08684843 56.07260693 -24 59 C-23.443125 58.32453125 -22.88625 57.6490625 -22.3125 56.953125 C-12.51630157 45.50216332 -12.51630157 45.50216332 -4.125 44.73828125 C3.22764484 44.61382242 3.22764484 44.61382242 6 46 C3.15899172 55.75699814 -3.2822587 63.81170862 -12 69 C-18.11122089 72.33339321 -20.34309095 72 -28 72 C-28 81.57 -28 91.14 -28 101 C-26.68 97.7 -25.36 94.4 -24 91 C-20.2995048 85.74140156 -16.15793934 82.05264645 -10 80 C-7.66700175 79.96045766 -5.33291811 79.95598268 -3 80 C-3.70120645 91.04400159 -7.64151425 100.14263484 -15.875 107.75 C-19.07338123 110.46323351 -21.84481884 112.06508424 -26 113 C-26.21221057 118.8888434 -25.55320433 123.83290313 -24 129.5 C-23.80921875 130.22703125 -23.6184375 130.9540625 -23.421875 131.703125 C-22.95662755 133.47106531 -22.47956407 135.23588933 -22 137 C-21.79246094 136.154375 -21.58492187 135.30875 -21.37109375 134.4375 C-18.91183097 125.38247386 -15.84690499 119.69287999 -8.375 114 C-5.72079725 112.88244095 -3.84845741 112.92429349 -1 113 C-0.64002292 124.81924737 -1.34627843 136.78702166 -9.8125 145.96484375 C-14.36985294 150 -14.36985294 150 -17 150 C-13.73146514 159.20310968 -9.81497033 167.52176694 -5 176 C-5.15726563 175.11828125 -5.31453125 174.2365625 -5.4765625 173.328125 C-6.93496436 164.05530126 -6.45242247 156.89465337 -1 149 C0.92191198 146.8666777 2.55842274 145.592333 5 144 C5.99 144 6.98 144 8 144 C11.8402115 153.71482076 12.99775312 164.7001202 9.25 174.625 C7.93978738 177.46144596 6.67095025 179.40908888 4.6875 181.875 C2.77592047 183.78598855 2.77592047 183.78598855 3.14453125 185.80859375 C6.50488134 194.41661383 15.44185518 201.72092517 22 208 C21.4946875 207.10539063 20.989375 206.21078125 20.46875 205.2890625 C13.14711609 191.87475663 13.14711609 191.87475663 15 184 C18.24050633 175.03797468 18.24050633 175.03797468 22.171875 172.71875 C22.77515625 172.4815625 23.3784375 172.244375 24 172 C32.06271202 182.07839002 34.22814962 192.16795396 33 205 C32.25498459 208.22272382 31.28862567 210.93951402 30 214 C37.0382041 219.5507486 43.75081657 224.36816924 52 228 C51.51789063 227.41992188 51.03578125 226.83984375 50.5390625 226.2421875 C49.90742188 225.46101562 49.27578125 224.67984375 48.625 223.875 C47.99851562 223.10929688 47.37203125 222.34359375 46.7265625 221.5546875 C43.45762702 216.71784631 42.70792295 212.20357981 42.6875 206.4375 C42.67074219 205.34308594 42.65398437 204.24867188 42.63671875 203.12109375 C43.03626398 199.68844176 44.02519408 197.79807593 46 195 C54.2198321 198.42958981 59.53039838 207.0952715 63.125 214.87109375 C64.73292776 218.78323941 65.13532702 221.78657565 65.125 226 C65.12886719 227.5778125 65.12886719 227.5778125 65.1328125 229.1875 C65 232 65 232 64 235 C64.6290625 235.18175781 65.258125 235.36351562 65.90625 235.55078125 C71.37061108 237.15552584 76.69219738 238.93585454 82 241 C81.67 242.32 81.34 243.64 81 245 C74.04223041 243.63125844 67.61396893 241.5466871 61 239 C60.62488281 240.15242188 60.62488281 240.15242188 60.2421875 241.328125 C58.86171235 244.2974489 57.9087908 245.13224987 55.125 246.75 C54.44695312 247.15734375 53.76890625 247.5646875 53.0703125 247.984375 C45.70162244 251.59920409 35.27067338 251.18894025 27.4921875 249.0234375 C24.55553367 247.82375185 21.78417557 246.51785273 19 245 C18.31679687 244.63132812 17.63359375 244.26265625 16.9296875 243.8828125 C15.25 242.875 15.25 242.875 13 241 C13 240.01 13 239.02 13 238 C14.43570266 237.18432826 15.87363434 236.37257907 17.3125 235.5625 C18.11300781 235.11003906 18.91351563 234.65757812 19.73828125 234.19140625 C28.79004918 229.4232038 41.54630724 231.64627974 50.9375 234.34375 C51.618125 234.5603125 52.29875 234.776875 53 235 C51.97261719 234.443125 50.94523437 233.88625 49.88671875 233.3125 C41.47568761 228.69924465 33.58800646 223.89999655 26 218 C25.54109375 218.34933594 25.0821875 218.69867188 24.609375 219.05859375 C23.99578125 219.51363281 23.3821875 219.96867188 22.75 220.4375 C22.14671875 220.88996094 21.5434375 221.34242188 20.921875 221.80859375 C15.63503701 225.08600348 8.98482997 224.51784685 3 224 C-6.74650237 221.65178608 -14.27350242 215.16046517 -21 208 C-20 205 -20 205 -18.37109375 203.83984375 C-9.2920995 200.62405501 0.59897788 202.97099052 9.09765625 206.61328125 C12.08381623 208.04004678 15.04785056 209.5041858 18 211 C17.50371094 210.5875 17.00742188 210.175 16.49609375 209.75 C11.51238505 205.51337477 7.18069826 201.02292631 3 196 C2.48953125 195.39285156 1.9790625 194.78570312 1.453125 194.16015625 C0.29587819 192.7786116 -0.85311753 191.39016057 -2 190 C-2.68835938 190.15597656 -3.37671875 190.31195313 -4.0859375 190.47265625 C-13.25858793 192.13258629 -21.43188826 191.98986634 -29.4609375 186.96875 C-36.38978484 181.59622837 -41.78672884 175.17923567 -45 167 C-44.505 166.01 -44.505 166.01 -44 165 C-31.36644469 164.13534602 -22.6838377 168.12212603 -13.125 176.25 C-12.08046798 177.16340029 -11.03775917 178.07891198 -10 179 C-10.53109375 178.02160156 -11.0621875 177.04320312 -11.609375 176.03515625 C-22 156.79334904 -22 156.79334904 -22 153 C-22.66 153.33 -23.32 153.66 -24 154 C-31.39893637 155.01478468 -36.61219066 153.95698393 -42.78515625 149.75390625 C-50.5214514 143.62763373 -56.62427368 134.16773125 -57.875 124.25 C-57.936875 122.64125 -57.936875 122.64125 -58 121 C-48.1384137 121.45655492 -41.79131096 124.47801288 -34.96484375 131.62890625 C-31.51689395 135.78975223 -28.73537884 140.34985598 -26 145 C-26.33773437 143.93523437 -26.67546875 142.87046875 -27.0234375 141.7734375 C-29.88837379 132.52580416 -31.9748716 123.65456749 -33 114 C-34.7015625 114.185625 -34.7015625 114.185625 -36.4375 114.375 C-42.10674679 114.33486374 -45.94354324 111.80902039 -50 108 C-52.34394213 104.82143455 -54.22658511 101.52357187 -56 98 C-56.54333984 97.04480469 -56.54333984 97.04480469 -57.09765625 96.0703125 C-59.25385356 91.12319314 -59.11260565 85.93619864 -59.0625 80.625 C-59.05347656 79.37976563 -59.04445312 78.13453125 -59.03515625 76.8515625 C-59.02355469 75.91054687 -59.01195312 74.96953125 -59 74 C-51.40356666 75.16969302 -46.70247789 79.68278228 -42.25 85.75 C-38.9458452 90.46563841 -37.03197917 95.65007794 -35 101 C-34.97494385 100.33468262 -34.9498877 99.66936523 -34.92407227 98.98388672 C-34.80748864 95.94742513 -34.68504649 92.91122654 -34.5625 89.875 C-34.52318359 88.82828125 -34.48386719 87.7815625 -34.44335938 86.703125 C-34.23868904 81.72806158 -34.00723793 76.89229851 -33 72 C-33.680625 71.95875 -34.36125 71.9175 -35.0625 71.875 C-39.94046037 70.42199053 -43.44548952 67.32696785 -46.265625 63.10546875 C-51.8015787 52.63260111 -52.46198461 42.10691788 -49 30.8125 C-48.34866179 28.86979332 -47.68739926 26.93024168 -47 25 C-39.55296602 29.11480182 -35.89750676 34.9570223 -33.54296875 43.01953125 C-33.36378906 43.67308594 -33.18460938 44.32664063 -33 45 C-32.67 45.99 -32.34 46.98 -32 48 C-31.77548542 50.22574335 -31.59217122 52.45581519 -31.4375 54.6875 C-31.35371094 55.86699219 -31.26992187 57.04648438 -31.18359375 58.26171875 C-31.12300781 59.16535156 -31.06242187 60.06898438 -31 61 C-28.82931233 53.57056303 -27.82047128 47.06413226 -28.0625 39.375 C-28.32844185 28.39696932 -25.05267428 19.51614312 -18 11 C-7.26970228 0 -7.26970228 0 0 0 Z " fill="#F7D162" transform="translate(110,156)"/>
<path d="M0 0 C10.48300082 2.54795159 17.36554547 8.9380583 23 18 C26.74310803 25.24703983 28.09964188 30.7788331 27.875 38.9375 C27.74736619 46.72232261 28.80777503 53.49684904 31 61 C31.10957031 59.94941406 31.21914063 58.89882812 31.33203125 57.81640625 C33.84372675 35.04840194 33.84372675 35.04840194 43.25 27.125 C44.1575 26.42375 45.065 25.7225 46 25 C50.45764581 29.45764581 51.19579082 37.27855746 51.4375 43.375 C51.14840418 52.14842956 48.84697129 61.29516642 42.5859375 67.69921875 C39.72215083 70.04808811 36.774526 72 33 72 C33.23009766 73.11761719 33.23009766 73.11761719 33.46484375 74.2578125 C34.20772267 79.45254245 34.36567249 84.63487087 34.5625 89.875 C34.60568359 90.94492188 34.64886719 92.01484375 34.69335938 93.1171875 C34.79892817 95.74467754 34.90103791 98.37225422 35 101 C35.27972656 100.23816406 35.55945313 99.47632813 35.84765625 98.69140625 C40.03725455 87.90083312 45.31612937 79.27981979 56 74 C56.99 74 57.98 74 59 74 C59.6529207 87.43928439 57.98332177 98.33091908 49 109 C44.01194502 113.360019 39.50628659 114.12276012 33 114 C32.82984375 115.14855469 32.6596875 116.29710937 32.484375 117.48046875 C31.02314655 126.96872579 29.16370797 135.91036188 26 145 C26.4125 144.29875 26.825 143.5975 27.25 142.875 C33.29305589 132.94712246 39.68548224 124.90598425 51 121 C53.51026773 120.65545345 55.46179809 120.72410849 58 121 C56.08293951 132.4841052 52.24349496 142.55931429 42.73828125 149.8515625 C36.63036918 153.88690216 31.15333538 154.68002457 24 154 C23.34 153.67 22.68 153.34 22 153 C21.5359375 154.7325 21.5359375 154.7325 21.0625 156.5 C18.54791384 164.17934892 14.06190256 171.05985201 10 178 C10.54011719 177.58878906 11.08023438 177.17757812 11.63671875 176.75390625 C21.55794418 169.3908811 30.16360003 163.40425009 43 165 C43.66 165.66 44.32 166.32 45 167 C39.88708306 177.39790321 33.64735261 185.10797312 23 190 C22.154375 190.433125 21.30875 190.86625 20.4375 191.3125 C14.80865322 192.90012345 10.32719653 192.21966522 5 190 C2.00907169 190.23200073 1.00343885 190.99667803 -1.18359375 193.109375 C-1.92738281 193.98078125 -2.67117188 194.8521875 -3.4375 195.75 C-4.22640625 196.6575 -5.0153125 197.565 -5.828125 198.5 C-6.54484375 199.325 -7.2615625 200.15 -8 201 C-9.64740076 202.6857124 -11.31066078 204.3563186 -13 206 C-14.0496064 207.04544195 -15.09772126 208.09238299 -16.14453125 209.140625 C-16.68053955 209.67719727 -17.21654785 210.21376953 -17.76879883 210.76660156 C-18.17509521 211.17362305 -18.5813916 211.58064453 -19 212 C-17.89140625 211.43410156 -16.7828125 210.86820313 -15.640625 210.28515625 C-14.17719097 209.54405825 -12.71364333 208.80318456 -11.25 208.0625 C-10.52039063 207.68931641 -9.79078125 207.31613281 -9.0390625 206.93164062 C-8.33007812 206.57392578 -7.62109375 206.21621094 -6.890625 205.84765625 C-5.91657715 205.3527771 -5.91657715 205.3527771 -4.92285156 204.84790039 C-0.50317461 202.89900018 3.62892663 202.80718819 8.4375 202.75 C10.38462891 202.71132813 10.38462891 202.71132813 12.37109375 202.671875 C16.13478984 203.01218767 17.98760535 203.79439312 21 206 C17.35066874 214.53411322 8.27049169 219.67180559 0 223 C-5.93042341 224.85473402 -13.15291972 225.07896068 -18.9375 222.6875 C-21.50595222 221.27223041 -23.68862679 219.78220353 -26 218 C-26.77601563 218.556875 -27.55203125 219.11375 -28.3515625 219.6875 C-39.28299737 227.44988139 -50.47182439 234.10111432 -62.8125 239.375 C-63.97676514 239.87592163 -63.97676514 239.87592163 -65.16455078 240.38696289 C-70.35493172 242.53552633 -75.48172083 243.96035981 -81 245 C-81.33 243.68 -81.66 242.36 -82 241 C-78.66666667 239.66666667 -75.33333333 238.33333333 -72 237 C-71.12730469 236.62617188 -70.25460937 236.25234375 -69.35546875 235.8671875 C-67 235 -67 235 -64 235 C-64.33 234.01 -64.66 233.02 -65 232 C-66.1160396 219.81504311 -62.31782332 211.53220012 -55 202 C-52.80492286 199.5116349 -50.592982 197.07839537 -48 195 C-47.34 195 -46.68 195 -46 195 C-41.79739742 200.54866844 -42.28872713 206.33774409 -43 213 C-44.77346799 219.43597255 -48.31854684 224.31854684 -53 229 C-44.84453099 224.53363362 -37.12959751 220.0356381 -30 214 C-30.2165625 213.44054687 -30.433125 212.88109375 -30.65625 212.3046875 C-34.25000969 201.95599061 -34.42632674 191.60711246 -30.22265625 181.421875 C-28.47252727 177.95516585 -26.42490215 175.03112768 -24 172 C-19.2807274 173.84535659 -18.03627671 176.85564465 -15.9921875 181.29296875 C-13.09666213 189.19296514 -15.4721116 195.05317203 -18.80859375 202.49609375 C-19.52594512 204.00370761 -20.25334177 205.50668355 -21 207 C-11.0702185 197.77459814 -11.0702185 197.77459814 -3 187 C-3.21558387 183.85008006 -4.66302499 181.79850417 -6.4375 179.25 C-11.78640966 170.82469432 -12.45924061 160.60453987 -10.32421875 150.94140625 C-9.62120491 148.59247375 -8.86922125 146.29205365 -8 144 C-3.73877116 144.88163355 -0.88672887 146.77365597 2 150 C7.14441601 157.85864777 6.84715291 166.09425019 5 175 C6.6326083 171.96235911 8.25469108 168.91921677 9.875 165.875 C10.33519531 165.0190625 10.79539062 164.163125 11.26953125 163.28125 C13.57975593 158.92865278 15.64116434 154.76373422 17 150 C16.29875 149.814375 15.5975 149.62875 14.875 149.4375 C7.94914874 145.97457437 4.43238589 139.09339759 2 132 C0.58660175 125.75749108 0.90586406 119.36986519 1 113 C6.99326154 113.12485962 9.80084357 115.03596259 14.203125 119.015625 C17.88413143 123.08073645 19.46247566 127.0040612 20.6875 132.3125 C20.93886719 133.38113281 21.19023437 134.44976562 21.44921875 135.55078125 C21.63097656 136.35902344 21.81273437 137.16726563 22 138 C24.23691302 129.72342182 25.8356269 121.49307438 27 113 C26.05125 112.855625 25.1025 112.71125 24.125 112.5625 C17.45485274 110.62381899 12.03944867 105.12083076 8.3203125 99.4296875 C5.14835639 93.29223396 2.57476349 87.01640234 3 80 C10.45431298 80.23664486 15.48329021 81.8352004 21 87 C24.33287765 91.4368497 26.65229701 95.60918805 28 101 C28 91.43 28 81.86 28 72 C24.7 72 21.4 72 18 72 C8.05582199 68.66159738 1.26054732 60.7028052 -4 52 C-5.4375 48.375 -5.4375 48.375 -6 46 C-1.56185325 43.78092663 4.58288493 44.30581124 9.2578125 45.6484375 C15.51267499 48.51831558 20.21926724 53.32890086 24 59 C23.77226744 56.87249844 23.51709182 54.74791944 23.25 52.625 C23.11078125 51.44164062 22.9715625 50.25828125 22.828125 49.0390625 C22.34930398 45.93690745 22.34930398 45.93690745 20.19140625 44.8515625 C19.46824219 44.57054687 18.74507813 44.28953125 18 44 C8.34434732 35.36167117 1.08561163 23.06991256 0 10 C-0.12429397 6.65787323 -0.12798045 3.34171165 0 0 Z " fill="#F7D163" transform="translate(402,156)"/>
<path d="M0 0 C11.88 0 23.76 0 36 0 C35.67 0.66 35.34 1.32 35 2 C34.34 2 33.68 2 33 2 C32.91868537 3.43655854 32.86066441 4.8744483 32.8125 6.3125 C32.77769531 7.11300781 32.74289062 7.91351563 32.70703125 8.73828125 C32.82035801 11.06153837 32.82035801 11.06153837 34.32421875 12.77734375 C36.8613471 14.62844206 38.94553661 14.25453862 42 14 C42.99 13.67 43.98 13.34 45 13 C45 47.32 45 81.64 45 117 C44.01 117.495 44.01 117.495 43 118 C42.67 120.31 42.34 122.62 42 125 C26.82 125 11.64 125 -4 125 C-4.495 122.03 -4.495 122.03 -5 119 C-6.32 118.67 -7.64 118.34 -9 118 C-9 83.02 -9 48.04 -9 12 C-7.02 12.99 -7.02 12.99 -5 14 C-1.89489054 14.3168479 0.12948906 14.49328953 2.875 12.9375 C4.66830867 9.84902396 4.42841969 7.48856031 4 4 C2.68 2.68 1.36 1.36 0 0 Z " fill="#607383" transform="translate(279,182)"/>
<path d="M0 0 C11.55 0 23.1 0 35 0 C34.01 1.32 33.02 2.64 32 4 C31.49429998 8.6683392 31.49429998 8.6683392 33.125 12.9375 C35.87051094 14.49328953 37.89489054 14.3168479 41 14 C42.32 13.34 43.64 12.68 45 12 C45 46.98 45 81.96 45 118 C43.68 118 42.36 118 41 118 C41 120.31 41 122.62 41 125 C25.82 125 10.64 125 -5 125 C-5 122.69 -5 120.38 -5 118 C-6.32 118 -7.64 118 -9 118 C-9 83.02 -9 48.04 -9 12 C-7.515 12.99 -7.515 12.99 -6 14 C-2.40013378 14.45955739 -0.64337361 14.41241898 2.4375 12.4375 C4.32894058 9.98253455 4.32894058 9.98253455 3.9375 6.4375 C3.23385716 2.73771822 3.23385716 2.73771822 0 0 Z " fill="#5C6E7D" transform="translate(197,182)"/>
<path d="M0 0 C2.55060099 1.05709452 5.00033793 2.15232432 7.4765625 3.359375 C8.19093475 3.6999292 8.90530701 4.0404834 9.6413269 4.39135742 C11.9724786 5.50422905 14.29860642 6.62722088 16.625 7.75 C18.25282428 8.52857089 19.88108447 9.30623101 21.50976562 10.08300781 C23.98085369 11.26157755 26.45172552 12.44056858 28.92132568 13.62225342 C36.08989825 17.05163711 43.28731338 20.41442505 50.5 23.75 C51.60996338 24.26401367 52.71992676 24.77802734 53.86352539 25.30761719 C56.09358522 26.34019971 58.32380927 27.37242762 60.55419922 28.40429688 C64.22643483 30.10485887 67.89671692 31.80957773 71.56640625 33.515625 C72.83333303 34.10449284 74.10026011 34.69336004 75.3671875 35.28222656 C77.74623286 36.38804784 80.12511478 37.49421839 82.50390625 38.60058594 C89.32077826 41.76759106 96.15157539 44.90180115 103 48 C103 48.33 103 48.66 103 49 C32.38 49 -38.24 49 -111 49 C-107.50868516 46.38151387 -104.66682032 44.81155202 -100.7265625 43.05859375 C-100.10342667 42.77902328 -99.48029083 42.49945282 -98.83827209 42.21141052 C-97.48259864 41.60325436 -96.1260192 40.99711467 -94.76864624 40.39276123 C-91.04700683 38.73430762 -87.33370631 37.05745161 -83.62109375 35.37890625 C-82.83928238 35.02550171 -82.05747101 34.67209717 -81.25196838 34.3079834 C-72.3469349 30.26977469 -63.51589069 26.07748307 -54.6875 21.875 C-51.50930239 20.36288609 -48.33094898 18.85110062 -45.15234375 17.33984375 C-44.38265259 16.97386078 -43.61296143 16.60787781 -42.81994629 16.23080444 C-31.98098088 11.08328614 -21.08953604 6.04840073 -10.19433594 1.02124023 C-6.0740513 -0.89633327 -4.57946806 -1.05839569 0 0 Z " fill="#EAEFF2" transform="translate(260,120)"/>
<path d="M0 0 C0.89551008 0.00377932 1.79102016 0.00755865 2.71366692 0.0114525 C4.13518971 0.00571418 4.13518971 0.00571418 5.58543015 -0.00014007 C8.78073766 -0.01051023 11.97586683 -0.00647034 15.17118645 -0.0025093 C17.45392334 -0.00685352 19.73665877 -0.01203569 22.01939201 -0.01799697 C28.23410204 -0.03142858 34.44875141 -0.03196108 40.66347313 -0.02943367 C45.84281407 -0.02836689 51.02214258 -0.03323972 56.20148087 -0.03803909 C69.113861 -0.04978439 82.02620227 -0.04890094 94.93858409 -0.04248228 C106.16303037 -0.03731121 117.38738991 -0.04857192 128.61181903 -0.0675805 C140.12672967 -0.08693212 151.64158896 -0.09492782 163.15651703 -0.09145725 C169.62544721 -0.08963906 176.09429794 -0.09233374 182.56321526 -0.10617179 C188.64361441 -0.11869122 194.72383917 -0.11686211 200.80423546 -0.1037609 C203.04162719 -0.10138277 205.27903098 -0.10417362 207.51640892 -0.11238402 C210.55925586 -0.12274898 213.60150639 -0.11483395 216.64433098 -0.10207289 C217.53984106 -0.10944718 218.43535114 -0.11682146 219.35799789 -0.12441921 C221.81525993 -0.1025812 221.81525993 -0.1025812 225.67899895 0.27214891 C227.96648377 3.70337614 228.00435276 5.22101995 228.05399895 9.27214891 C228.08235832 10.32402391 228.1107177 11.37589891 228.13993645 12.45964891 C227.67899895 15.27214891 227.67899895 15.27214891 226.22235012 16.92412072 C222.38380909 18.95862604 218.80676898 18.68576491 214.52444267 18.65309983 C213.11979093 18.66011979 213.11979093 18.66011979 211.68676239 18.66728157 C208.54137203 18.67927064 205.39641421 18.66975898 202.25102043 18.6603325 C199.99916644 18.66439643 197.74731444 18.6697373 195.49546623 18.67626268 C189.37374653 18.68996249 183.25217815 18.68462678 177.13045573 18.67512542 C170.73233102 18.66754359 164.33421949 18.67457023 157.93609428 18.67928392 C146.50290158 18.68509544 135.06979289 18.6757586 123.63661439 18.66050591 C113.26602415 18.64709927 102.89553464 18.64943322 92.52494621 18.66326219 C80.48565358 18.67930879 68.44643705 18.68529728 56.40712982 18.6764254 C50.03266007 18.67174056 43.65825974 18.67114635 37.2837944 18.68103486 C31.29281875 18.68967898 25.30203398 18.68372939 19.31107903 18.66635209 C17.10797315 18.66237375 14.9048513 18.66354418 12.70175171 18.67014009 C9.70313892 18.67829234 6.70514456 18.66811066 3.70657158 18.65309983 C2.38723134 18.66313808 2.38723134 18.66313808 1.04123777 18.67337912 C-4.87667134 18.61559454 -4.87667134 18.61559454 -7.04419273 16.94020408 C-9.04901161 14.32105723 -8.68046161 11.94270277 -8.63350105 8.70964891 C-8.62963387 7.55335984 -8.62576668 6.39707078 -8.6217823 5.20574266 C-8.03921617 -0.47616861 -4.99545094 0.03592868 0 0 Z " fill="#EAEFF2" transform="translate(146.32100105285645,307.7278510928154)"/>
<path d="M0 0 C12.21 0 24.42 0 37 0 C35.68 1.65 34.36 3.3 33 5 C32.42124562 7.38480838 32.42124562 7.38480838 32.51898193 9.89118958 C32.51348328 10.8488623 32.50798462 11.80653503 32.50231934 12.79322815 C32.52389099 14.35121376 32.52389099 14.35121376 32.54589844 15.94067383 C32.54531433 17.04355743 32.54473022 18.14644104 32.54412842 19.28274536 C32.54691288 22.92449525 32.57802364 26.56542451 32.609375 30.20703125 C32.61683606 32.73336846 32.62252963 35.25971145 32.62652588 37.78605652 C32.64023269 43.75364468 32.67175082 49.72088113 32.71192384 55.68832844 C32.75667618 62.4839204 32.77863722 69.27952659 32.79870558 76.07522929 C32.84048492 90.05034543 32.91382311 104.02509073 33 118 C23.76 118 14.52 118 5 118 C5.01571045 112.88890747 5.01571045 112.88890747 5.03173828 107.67456055 C5.06483138 96.4348286 5.08705276 85.1950929 5.10362434 73.95532513 C5.11394167 67.13856716 5.12801068 60.32185532 5.15087891 53.50512695 C5.1729245 46.93048516 5.18455858 40.3558788 5.18975449 33.7811985 C5.19345881 31.26890113 5.20069211 28.75660648 5.21146011 26.24432945 C5.22591164 22.73403559 5.22798059 19.22394172 5.22705078 15.71362305 C5.23424133 14.66777542 5.24143188 13.6219278 5.24884033 12.54438782 C5.246091 11.58946442 5.24334167 10.63454102 5.24050903 9.65068054 C5.24235262 8.82014506 5.24419621 7.98960958 5.24609566 7.13390636 C5.12974111 4.70091253 5.12974111 4.70091253 3 2 C2.01 1.34 1.02 0.68 0 0 Z " fill="#EAEFF2" transform="translate(237,182)"/>
<path d="M0 0 C12.21 0 24.42 0 37 0 C36.01 1.65 35.02 3.3 34 5 C33.55067862 7.39136452 33.55067862 7.39136452 33.60127258 9.89118958 C33.58873444 10.8488623 33.57619629 11.80653503 33.5632782 12.79322815 C33.56471329 13.83188522 33.56614838 14.8705423 33.56762695 15.94067383 C33.5574353 17.04355743 33.54724365 18.14644104 33.53674316 19.28274536 C33.50657507 22.92422541 33.4973411 26.56544256 33.48828125 30.20703125 C33.47143745 32.73338193 33.45328762 35.25972421 33.43388367 37.78605652 C33.39120286 43.75347363 33.36168444 49.72081517 33.33856028 55.68832844 C33.31149102 62.48404279 33.26758066 69.27961589 33.22227156 76.07522929 C33.12947199 90.05009244 33.05999294 104.02495948 33 118 C24.09 118 15.18 118 6 118 C5.98018066 114.59260498 5.96036133 111.18520996 5.93994141 107.67456055 C5.87312808 96.43474852 5.7955878 85.19502777 5.71247292 73.95532513 C5.66232835 67.13861528 5.61588571 60.32191757 5.578125 53.50512695 C5.54169485 46.93040579 5.49499201 40.35581003 5.44193649 33.7811985 C5.42335916 31.26893216 5.40826365 28.75663766 5.39665604 26.24432945 C5.3798508 22.73395633 5.35082938 19.22388602 5.31884766 15.71362305 C5.31668747 14.66777542 5.31452728 13.6219278 5.31230164 12.54438782 C5.30113815 11.58946442 5.28997467 10.63454102 5.2784729 9.65068054 C5.27294214 8.82014506 5.26741138 7.98960958 5.26171303 7.13390636 C5.12560552 4.70168078 5.12560552 4.70168078 3 2 C2.01 1.34 1.02 0.68 0 0 Z " fill="#EAEFF2" transform="translate(154,182)"/>
<path d="M0 0 C12.21 0 24.42 0 37 0 C35.68 1.65 34.36 3.3 33 5 C32.40666104 7.38373247 32.40666104 7.38373247 32.48101807 9.89118958 C32.46014885 11.32769867 32.46014885 11.32769867 32.43885803 12.79322815 C32.44640358 14.35121376 32.44640358 14.35121376 32.45410156 15.94067383 C32.44376389 17.04355743 32.43342621 18.14644104 32.42277527 19.28274536 C32.39330246 22.92432224 32.39184709 26.56534437 32.390625 30.20703125 C32.37564647 32.73338382 32.35892002 35.25972659 32.34051514 37.78605652 C32.30126068 43.7535119 32.27962211 49.72077919 32.26654124 55.68832844 C32.25066023 62.48405981 32.21224009 69.27960565 32.17194796 76.07522929 C32.08959287 90.05011962 32.03844861 104.02492345 32 118 C23.09 118 14.18 118 5 118 C4.67 79.72 4.34 41.44 4 2 C2.68 1.34 1.36 0.68 0 0 Z " fill="#EAEFF2" transform="translate(320,182)"/>
<path d="M0 0 C0.99 0.66 1.98 1.32 3 2 C2.8203125 3.8046875 2.8203125 3.8046875 2 6 C-0.2578125 7.6328125 -0.2578125 7.6328125 -3.125 9.125 C-4.05570312 9.62257813 -4.98640625 10.12015625 -5.9453125 10.6328125 C-15.01007396 14.6899308 -26.0336775 15.83585422 -35.7421875 13.27734375 C-39.78537721 11.39306477 -42.74030401 8.83165841 -45 5 C-44.67 4.01 -44.34 3.02 -44 2 C-41.38140685 0.97623364 -38.88101638 0.13851646 -36.1875 -0.625 C-35.46240234 -0.8415625 -34.73730469 -1.058125 -33.99023438 -1.28125 C-22.30054075 -4.74644738 -11.15640384 -6.00560835 0 0 Z " fill="#F9D262" transform="translate(386,392)"/>
<path d="M0 0 C0.33 0 0.66 0 1 0 C1 35.31 1 70.62 1 107 C2.32 107 3.64 107 5 107 C5.495 110.96 5.495 110.96 6 115 C-11.16 115 -28.32 115 -46 115 C-46 114.67 -46 114.34 -46 114 C-41.38 114 -36.76 114 -32 114 C-32 111.69 -32 109.38 -32 107 C-30.68 107 -29.36 107 -28 107 C-28 75.65 -28 44.3 -28 12 C-27.67 12 -27.34 12 -27 12 C-27 43.35 -27 74.7 -27 107 C-18.09 107 -9.18 107 0 107 C0 71.69 0 36.38 0 0 Z " fill="#CBD0D5" transform="translate(187,193)"/>
<path d="M0 0 C3.41065844 1.21176681 5.45893465 4.02077266 7.79980469 6.66577148 C8.30640625 7.2168457 8.81300781 7.76791992 9.33496094 8.33569336 C13.04980469 12.45606587 13.04980469 12.45606587 13.04980469 14.72827148 C13.60667969 14.93452148 14.16355469 15.14077148 14.73730469 15.35327148 C17.97481771 17.27827923 19.7321161 19.76678051 22.04980469 22.72827148 C19.5243728 21.75764286 17.08943157 20.74867344 14.68261719 19.50952148 C9.12752117 16.67140389 4.53705134 15.4283373 -1.70019531 14.91577148 C-7.02316319 14.37426916 -9.75504146 13.79586914 -13.26269531 9.66577148 C-14.16425975 8.35720158 -15.06139711 7.0455457 -15.95019531 5.72827148 C-16.61019531 5.39827148 -17.27019531 5.06827148 -17.95019531 4.72827148 C-17.95019531 4.06827148 -17.95019531 3.40827148 -17.95019531 2.72827148 C-18.61019531 2.72827148 -19.27019531 2.72827148 -19.95019531 2.72827148 C-19.95019531 2.06827148 -19.95019531 1.40827148 -19.95019531 0.72827148 C-18.81839844 0.73987305 -17.68660156 0.75147461 -16.52050781 0.76342773 C-15.03873862 0.77280602 -13.55696766 0.78190618 -12.07519531 0.79077148 C-11.32882813 0.79915039 -10.58246094 0.8075293 -9.81347656 0.81616211 C-6.44381325 0.83134077 -3.08090963 -0.42927546 0 0 Z " fill="#63727C" transform="translate(106.9501953125,345.271728515625)"/>
<path d="M0 0 C0.48210937 0.42152344 0.96421875 0.84304687 1.4609375 1.27734375 C2.09257813 1.82519531 2.72421875 2.37304688 3.375 2.9375 C4.00148438 3.48277344 4.62796875 4.02804688 5.2734375 4.58984375 C6.95632334 6.06958624 6.95632334 6.06958624 9 7 C8.42029353 15.49569832 6.76198299 23.68875949 5 32 C4.67 32 4.34 32 4 32 C3.96261719 30.74445313 3.92523438 29.48890625 3.88671875 28.1953125 C3.53138352 16.29500761 3.53138352 16.29500761 0.62109375 4.8125 C0 3 0 3 0 0 Z " fill="#5B6970" transform="translate(74,191)"/>
<path d="M0 0 C4.22797927 2.64248705 4.22797927 2.64248705 6 5 C6.52794715 8.39024887 6.35684652 11.59674153 6 15 C4.19969878 12.29954818 3.06622934 9.93322119 1.875 6.9375 C1.52179688 6.05964844 1.16859375 5.18179688 0.8046875 4.27734375 C0 2 0 2 0 0 Z " fill="#596974" transform="translate(70,245)"/>
<path d="M0 0 C0.66 0.33 1.32 0.66 2 1 C2 1.99 2 2.98 2 4 C-0.10063576 4.69821417 -2.20565737 5.38324472 -4.3125 6.0625 C-5.48425781 6.44535156 -6.65601563 6.82820313 -7.86328125 7.22265625 C-11 8 -11 8 -14 7 C-11.71296692 5.80274117 -9.42115138 4.61702982 -7.125 3.4375 C-6.14853516 2.92413086 -6.14853516 2.92413086 -5.15234375 2.40039062 C-3.46470143 1.53917109 -1.73420407 0.76313297 0 0 Z " fill="#92957E" transform="translate(356,386)"/>
<path d="M0 0 C0.66 0.33 1.32 0.66 2 1 C1.21753906 1.77085937 0.43507813 2.54171875 -0.37109375 3.3359375 C-1.39336057 4.34882573 -2.41548881 5.36185384 -3.4375 6.375 C-4.2119043 7.13683594 -4.2119043 7.13683594 -5.00195312 7.9140625 C-7.857133 10.68568936 -7.857133 10.68568936 -10 14 C-10.66 13.67 -11.32 13.34 -12 13 C-8.43679155 7.90789714 -4.95258714 3.77339973 0 0 Z " fill="#DFC36A" transform="translate(416,331)"/>
<path d="M0 0 C1.17755859 0.39638672 1.17755859 0.39638672 2.37890625 0.80078125 C4.4375 1.6875 4.4375 1.6875 6.4375 3.6875 C4.85282272 3.40322583 3.2697943 3.10975182 1.6875 2.8125 C0.36492187 2.56886719 0.36492187 2.56886719 -0.984375 2.3203125 C-3.43197744 1.71953736 -5.36849857 0.90752883 -7.5625 -0.3125 C-4.14059319 -1.4531356 -3.30079769 -1.14739425 0 0 Z " fill="#8A8E7A" transform="translate(161.5625,389.3125)"/>
<path d="M0 0 C0.66 0.33 1.32 0.66 2 1 C-0.475 5.455 -0.475 5.455 -3 10 C-4.26339822 6.20980534 -3.49719015 4.62477616 -2 1 C-1.34 0.67 -0.68 0.34 0 0 Z " fill="#878E82" transform="translate(431,293)"/>
<path d="M0 0 C0.66 0.33 1.32 0.66 2 1 C0.68 3.64 -0.64 6.28 -2 9 C-2.33 9 -2.66 9 -3 9 C-2.4140625 2.84765625 -2.4140625 2.84765625 -2 1 C-1.34 0.67 -0.68 0.34 0 0 Z " fill="#777C6E" transform="translate(87,211)"/>
</svg>
