<?xml version="1.0" encoding="UTF-8"?>
<svg version="1.1" xmlns="http://www.w3.org/2000/svg" width="512" height="512">
<path d="M0 0 C0.97051306 -0.00453111 1.94102612 -0.00906223 2.94094867 -0.01373065 C6.1958441 -0.02639978 9.45057274 -0.02475264 12.70549011 -0.02310181 C15.03804744 -0.02908549 17.37060279 -0.03589066 19.70315552 -0.04345703 C26.04204797 -0.06114069 32.38088645 -0.06581342 38.71980119 -0.0670886 C44.01056766 -0.06898698 49.30132153 -0.07634383 54.59208316 -0.08343279 C66.36144436 -0.09907673 78.13078217 -0.10476991 89.90015284 -0.10342209 C90.60612898 -0.10334218 91.31210513 -0.10326227 92.03947449 -0.10317993 C92.74631481 -0.10309817 93.45315514 -0.10301641 94.18141486 -0.10293217 C105.63443388 -0.10211942 117.08732134 -0.12125475 128.54030231 -0.14945666 C140.30619773 -0.17819998 152.07202901 -0.19199615 163.83796042 -0.19026911 C170.44120559 -0.18975905 177.04430188 -0.19546683 183.64751625 -0.21662521 C189.85851182 -0.2359831 196.06921613 -0.23614854 202.28022194 -0.22159195 C204.55863876 -0.21949972 206.8370737 -0.22422929 209.11545944 -0.23631287 C212.22843851 -0.25175222 215.34041168 -0.24246511 218.45336914 -0.22705078 C219.80236769 -0.24248147 219.80236769 -0.24248147 221.17861873 -0.25822389 C227.98500139 -0.18386489 233.24114409 1.52673224 238.44059753 6.01351929 C238.88661316 6.57168335 239.33262878 7.12984741 239.79216003 7.70492554 C240.4843866 8.53830444 240.4843866 8.53830444 241.19059753 9.38851929 C244.56145189 14.55215286 244.68906649 19.09212257 244.61247253 25.06820679 C244.60822769 26.32276924 244.60822769 26.32276924 244.60389709 27.60267639 C244.59274324 30.2619078 244.56764766 32.92079671 244.54216003 35.57992554 C244.53212403 37.38786337 244.52299926 39.1958065 244.51481628 41.00375366 C244.49281962 45.42510866 244.45832297 49.84620912 244.41716003 54.26742554 C249.36716003 54.26742554 254.31716003 54.26742554 259.41716003 54.26742554 C259.74716003 52.61742554 260.07716003 50.96742554 260.41716003 49.26742554 C262.5029378 47.1366111 263.82723831 46.36278749 266.77377319 45.88647461 C267.64375443 45.88408783 268.51373566 45.88170105 269.41007996 45.87924194 C270.40178696 45.86978546 271.39349396 45.86032898 272.41525269 45.85058594 C273.4819368 45.85665863 274.54862091 45.86273132 275.64762878 45.86898804 C276.75262222 45.86611786 277.85761566 45.86324768 278.99609375 45.86029053 C281.33542899 45.85824907 283.67478127 45.86378458 286.01408386 45.87631226 C289.57396784 45.8922878 293.13270321 45.87650504 296.69255066 45.85726929 C298.96924585 45.8592532 301.24594034 45.86309992 303.52262878 45.86898804 C305.10747322 45.859879 305.10747322 45.859879 306.72433472 45.85058594 C314.2723433 45.92143446 321.1135319 46.63953952 327.16716003 51.45492554 C327.90966003 52.38305054 328.65216003 53.31117554 329.41716003 54.26742554 C329.84331932 54.77351475 330.26947862 55.27960396 330.70855182 55.80102921 C335.44959412 62.20407963 335.11515389 68.51069297 335.04534912 76.23519897 C335.05039885 77.6553423 335.05763097 79.07547925 335.06684726 80.49560165 C335.08573632 84.38443896 335.07355514 88.27264545 335.05612433 92.1614666 C335.04273529 96.36059732 335.05819291 100.55963667 335.06994629 104.75875854 C335.08831581 112.97943948 335.07981519 121.19988257 335.06185807 129.42055607 C335.04782676 136.10223633 335.04394041 142.78385207 335.04730034 149.46554565 C335.04777778 150.41687622 335.04825522 151.36820678 335.04874713 152.34836555 C335.04977347 154.28103544 335.05082883 156.21370532 335.0519129 158.14637518 C335.06047857 175.23234577 335.04380928 192.31820162 335.01408386 209.40414429 C334.9852468 225.97971415 334.9781631 242.55511871 334.99357605 259.13070679 C335.01034078 277.18474456 335.01436963 295.23870386 334.99686569 313.29274368 C334.99502132 315.21826425 334.99318659 317.14378483 334.99136162 319.06930542 C334.99044953 320.01667375 334.98953744 320.96404209 334.98859771 321.94011855 C334.98299401 328.61299574 334.98629795 335.2858346 334.99290657 341.95870972 C335.00064169 350.09184772 334.99388073 358.22482304 334.96873153 366.35792828 C334.95624062 370.50680207 334.95008495 374.65542267 334.96127319 378.80430603 C334.97132658 382.60412911 334.96283301 386.40344763 334.93969201 390.2032094 C334.93210401 392.22497352 334.94407502 394.24678202 334.95679575 396.26852036 C334.88302622 404.34335269 334.10055065 409.99897735 328.67106628 416.29086304 C328.11290222 416.73687866 327.55473816 417.18289429 326.97966003 417.64242554 C326.4240741 418.10390991 325.86848816 418.56539429 325.29606628 419.04086304 C320.36030088 422.26296353 315.82311916 422.54092805 310.05387878 422.46273804 C309.2618959 422.45990814 308.46991302 422.45707825 307.65393066 422.4541626 C305.13735005 422.44301416 302.62113214 422.41791976 300.10466003 422.39242554 C298.39307665 422.38238882 296.68148766 422.37326418 294.96989441 422.36508179 C290.78551097 422.34309235 286.60139689 422.30859962 282.41716003 422.26742554 C282.41716003 427.21742554 282.41716003 432.16742554 282.41716003 437.26742554 C284.06716003 437.59742554 285.71716003 437.92742554 287.41716003 438.26742554 C291.09083325 441.94109875 289.78677184 447.92990068 289.79216003 452.89242554 C289.81665222 454.05644897 289.84114441 455.22047241 289.86637878 456.41976929 C289.89370444 464.46261955 288.98800713 470.12939691 283.67106628 476.29086304 C283.11290222 476.73687866 282.55473816 477.18289429 281.97966003 477.64242554 C281.4240741 478.10390991 280.86848816 478.56539429 280.29606628 479.04086304 C275.25325909 482.33284112 270.56863342 482.5464823 264.67961121 482.49447632 C263.81081329 482.49476837 262.94201538 482.49506042 262.04689026 482.49536133 C259.18453369 482.49397161 256.3224397 482.47842723 253.46012878 482.46273804 C251.47187441 482.45900664 249.4836182 482.45616026 247.49536133 482.4541626 C242.26912841 482.44653617 237.04300713 482.42689613 231.81681824 482.40475464 C226.48114024 482.38427491 221.14544416 482.37515633 215.80973816 482.36508179 C205.34549648 482.34364935 194.88133755 482.3095253 184.41716003 482.26742554 C184.43528748 483.22584351 184.45341492 484.18426147 184.47209167 485.17172241 C184.4861908 486.43049194 184.50028992 487.68926147 184.51481628 488.98617554 C184.53294373 490.23334351 184.55107117 491.48051147 184.56974792 492.76547241 C184.32344725 498.4181715 182.60968556 501.95020661 178.76872253 506.00961304 C172.14219686 512.05740284 166.4164928 512.56126116 157.69540405 512.53485107 C156.60238442 512.53938219 155.50936479 512.5439133 154.38322335 512.54858172 C150.71374739 512.56126113 147.04441918 512.55960304 143.37492371 512.55795288 C140.74680388 512.56393591 138.11868581 512.57074093 135.49057007 512.57830811 C129.0883511 512.5949146 122.68616897 512.6004175 116.28393026 512.60153286 C111.07911624 512.60248353 105.87431435 512.60659475 100.66950417 512.61293411 C85.90910644 512.63054578 71.14873778 512.63977313 56.38832947 512.63827316 C55.59274346 512.63819325 54.79715745 512.63811334 53.97746277 512.63803101 C53.180904 512.63794924 52.38434523 512.63786748 51.56364832 512.63778324 C38.65566723 512.63697043 25.74780285 512.65610721 12.83985551 512.68430774 C-0.41765522 512.71304314 -13.67510904 512.72684767 -26.9326517 512.72512019 C-34.37425744 512.7244565 -41.81574083 512.72993946 -49.2573185 512.75147629 C-55.5935663 512.76969678 -61.92963631 512.77402842 -68.26589898 512.76045744 C-71.49736849 512.75393192 -74.72842653 512.75597314 -77.95987701 512.77116394 C-81.46693392 512.78658239 -84.97309565 512.77732947 -88.48013306 512.76190186 C-89.49619387 512.77218898 -90.51225468 512.78247611 -91.55910522 512.79307497 C-98.72535042 512.72342941 -104.15515064 511.28485089 -109.60627747 506.48617554 C-110.05229309 505.91898804 -110.49830872 505.35180054 -110.95783997 504.76742554 C-111.41932434 504.20023804 -111.88080872 503.63305054 -112.35627747 503.04867554 C-115.25873707 498.83363866 -115.83475966 495.87890663 -115.8456955 490.71239281 C-115.84980076 490.05230766 -115.85390603 489.39222251 -115.8581357 488.71213478 C-115.86948392 486.49061211 -115.86656032 484.26933712 -115.86372375 482.04779053 C-115.86889059 480.44279018 -115.87491679 478.83779241 -115.88173056 477.23279822 C-115.89788291 472.81451501 -115.90145038 468.39629676 -115.90292549 463.97798753 C-115.90662452 459.21570479 -115.92171824 454.45345585 -115.93519592 449.69119263 C-115.96237327 439.27373961 -115.97441391 428.85630198 -115.98321724 418.43881941 C-115.98874078 411.93464932 -115.9972153 405.43048519 -116.00622559 398.92631912 C-116.03061327 380.92020478 -116.05121082 362.91409521 -116.05797577 344.90796471 C-116.0584149 343.75525242 -116.05885403 342.60254014 -116.05930647 341.41489718 C-116.05974303 340.25941446 -116.06017958 339.10393174 -116.06062937 337.91343439 C-116.0615163 335.57195878 -116.06240943 333.23048317 -116.06330872 330.88900757 C-116.06375158 329.72755292 -116.06419443 328.56609827 -116.06465071 327.36944802 C-116.07254567 308.55232786 -116.10744954 289.73536265 -116.15402776 270.91830234 C-116.20145673 251.60168926 -116.22637959 232.28515392 -116.22871161 212.96848166 C-116.23054513 202.12186029 -116.24204987 191.27544075 -116.27835083 180.42887497 C-116.30915569 171.19189843 -116.31939235 161.95518608 -116.30287462 152.71816795 C-116.29506209 148.00593212 -116.29691678 143.29422828 -116.32498932 138.58205795 C-116.35047273 134.26496351 -116.34806986 129.94880058 -116.3238079 125.63170739 C-116.31989457 124.07310401 -116.32604859 122.51443459 -116.34349662 120.95592396 C-116.44004906 111.74567779 -115.72613631 104.56738311 -109.58283997 97.26742554 C-102.3336168 91.0978739 -94.44144943 90.95131193 -85.35627747 90.93148804 C-84.29043427 90.92483124 -83.22459106 90.91817444 -82.12644958 90.91131592 C-79.88243834 90.90122655 -77.63839731 90.89649774 -75.3943634 90.89682007 C-71.96189866 90.89243073 -68.53070396 90.85602625 -65.09846497 90.81820679 C-62.91357351 90.81234112 -60.72867598 90.80837005 -58.54377747 90.80648804 C-57.51972809 90.792117 -56.49567871 90.77774597 -55.44059753 90.76293945 C-51.01210386 90.79138244 -48.33286109 90.8251535 -44.46028137 93.10873413 C-42.58283997 95.26742554 -42.58283997 95.26742554 -41.58283997 98.26742554 C-36.30283997 98.59742554 -31.02283997 98.92742554 -25.58283997 99.26742554 C-25.60902405 96.76471069 -25.63520813 94.26199585 -25.66218567 91.68344116 C-25.74518129 83.39747005 -25.8003221 75.11148018 -25.84190083 66.82520294 C-25.86795049 61.80311524 -25.90326378 56.78145485 -25.96003723 51.75961304 C-26.01452238 46.90961022 -26.04429532 42.0600174 -26.05722618 37.20973206 C-26.06643649 35.36299692 -26.0844223 33.51628323 -26.11149025 31.66972351 C-26.14800095 29.07485162 -26.15277628 26.48165521 -26.15046692 23.88656616 C-26.1684433 23.12986633 -26.18641968 22.3731665 -26.2049408 21.59353638 C-26.14270623 15.0943329 -23.59491671 10.38952829 -19.10458851 5.73517609 C-13.0286101 0.37389391 -7.74070512 -0.02646125 0 0 Z " fill="#E0E8EF" transform="translate(146.5828399658203,-0.267425537109375)"/>
<path d="M0 0 C5.61 0 11.22 0 17 0 C17.00546844 3.69086037 17.00546844 3.69086037 17.01104736 7.45628357 C17.04727684 30.63149124 17.10547502 53.80656938 17.18390274 76.98167324 C17.22369623 88.89655722 17.2560872 100.81137512 17.27099609 112.72631836 C17.28401094 123.11251413 17.31097153 133.49856453 17.35461307 143.88467842 C17.37723143 149.38304076 17.39291044 154.88122377 17.39188385 160.37963676 C17.39113748 165.55810589 17.40907967 170.73617853 17.44116783 175.91454506 C17.44966541 177.81195136 17.45141773 179.70940213 17.44580269 181.60681915 C17.02035058 196.31824781 17.02035058 196.31824781 23.74982071 208.8527441 C29.14479815 213.91870797 33.96891222 215.24722584 41.35884094 215.2784729 C42.45555761 215.2871615 42.45555761 215.2871615 43.57443017 215.29602563 C46.018822 215.3130003 48.46302474 215.31589993 50.9074707 215.31884766 C52.66188519 215.32814759 54.41629525 215.33831635 56.17070007 215.34928894 C60.93057338 215.37659569 65.69041709 215.39174038 70.45034814 215.40471697 C75.42585157 215.42034452 80.40129451 215.44713595 85.37675476 215.4727478 C94.79721281 215.51954221 104.21768222 215.55628314 113.63819712 215.58942068 C124.36366029 215.62763736 135.08906273 215.67704872 145.8144747 215.72740483 C167.87627162 215.83073455 189.93810699 215.9199916 212 216 C212.11675508 238.99151818 212.20494988 261.98298754 212.25906086 284.97474194 C212.28485235 295.65001009 212.32002103 306.32509414 212.37719727 317.00024414 C212.42700319 326.30373882 212.45928414 335.60710017 212.47044247 344.91072446 C212.47696598 349.83787462 212.49231776 354.76464335 212.52865028 359.69167137 C212.56256531 364.32839182 212.57306206 368.9645734 212.56553841 373.6014061 C212.56691497 375.30380875 212.5768744 377.00622924 212.59602737 378.7085247 C212.62089676 381.03272044 212.61492956 383.35488036 212.60127258 385.67912292 C212.60588155 386.97977283 212.61049051 388.28042273 212.61523914 389.62048626 C212 393 212 393 210.11480999 395.91787243 C205.61599012 398.92515599 201.86564246 398.6944523 196.56176758 398.63491821 C194.96806571 398.64661814 194.96806571 398.64661814 193.34216785 398.65855443 C189.77593804 398.67852518 186.21076931 398.66268893 182.64453125 398.64697266 C180.0903562 398.65374646 177.53618603 398.66264825 174.98202515 398.67352295 C168.76116503 398.69397895 162.54069894 398.69095269 156.31983352 398.67645974 C151.26419204 398.66516896 146.20863509 398.66363588 141.15298462 398.66907883 C140.43351176 398.66984499 139.7140389 398.67061116 138.97276384 398.67140054 C137.51118014 398.67299916 136.04959646 398.67462023 134.58801281 398.6762635 C120.88186941 398.69052213 107.17589321 398.67412655 93.46977723 398.64726166 C81.7086089 398.62492272 69.94768731 398.62880282 58.18652344 398.65185547 C44.52952734 398.67861153 30.87267779 398.68914883 17.21565914 398.67379415 C15.75944458 398.6722014 14.30322999 398.67062955 12.84701538 398.66907883 C12.13052521 398.66830745 11.41403504 398.66753607 10.67583305 398.66674132 C5.62610756 398.66242372 0.57647501 398.66971213 -4.47323608 398.68147659 C-11.26952844 398.69696203 -18.06528238 398.68594139 -24.86155319 398.65700531 C-27.35891316 398.65038218 -29.85631227 398.65231293 -32.35365677 398.66331863 C-35.75689459 398.67693615 -39.15862633 398.65990188 -42.56176758 398.63491821 C-43.55543933 398.64607182 -44.54911108 398.65722543 -45.5728941 398.66871703 C-46.48544869 398.65567829 -47.39800329 398.64263955 -48.33821106 398.6292057 C-49.51602504 398.62798806 -49.51602504 398.62798806 -50.71763325 398.62674582 C-54.25099396 397.65647272 -55.76905327 395.84881068 -58 393 C-58.62559515 389.94062704 -58.62559515 389.94062704 -58.62641239 386.4457159 C-58.63338 385.79787469 -58.64034761 385.15003349 -58.64752635 384.48256072 C-58.66479384 382.30824214 -58.64639574 380.13570022 -58.62818909 377.96141052 C-58.63323347 376.38838884 -58.64046146 374.8153729 -58.64968723 373.24237019 C-58.66865197 368.91719717 -58.65635223 364.59258798 -58.6389643 360.26742899 C-58.62561585 355.6041078 -58.64101825 350.94087048 -58.65278625 346.27755737 C-58.67118566 337.14139881 -58.66263538 328.00545381 -58.64469803 318.86930185 C-58.63068525 311.44619362 -58.62677638 304.02314346 -58.6301403 296.60002327 C-58.63061775 295.54444298 -58.63109519 294.48886269 -58.6315871 293.40129511 C-58.6326134 291.25706869 -58.63366876 289.11284229 -58.63475286 286.9686159 C-58.64332447 267.99962366 -58.62662949 249.03073469 -58.59692383 230.06176758 C-58.56808124 211.64375471 -58.56100423 193.22589059 -58.57641602 174.80786133 C-58.59316573 154.76340401 -58.59722526 134.71901736 -58.57970566 114.67455822 C-58.57786122 112.53842581 -58.57602649 110.40229339 -58.57420158 108.26616096 C-58.57328949 107.21507274 -58.5723774 106.16398452 -58.57143768 105.08104513 C-58.56582494 97.6639315 -58.56914628 90.24685229 -58.57574654 82.82974052 C-58.5834669 73.79501797 -58.5767739 64.76044201 -58.5515715 55.72574907 C-58.53904673 51.11361365 -58.53296586 46.50170682 -58.54411316 41.88956261 C-58.55411683 37.67103448 -58.5457793 33.45296327 -58.52253198 29.234491 C-58.51735107 27.70497742 -58.5189732 26.17542327 -58.52792663 24.64592712 C-58.53905638 22.57287935 -58.52576328 20.50139427 -58.50615788 18.42844296 C-58.50496639 17.27528463 -58.50377491 16.12212631 -58.50254732 14.9340238 C-57.89114246 11.36445667 -56.83407897 10.18486707 -54 8 C-51.68566895 7.50793457 -51.68566895 7.50793457 -49.11132812 7.51757812 C-47.65962219 7.50736633 -47.65962219 7.50736633 -46.17858887 7.49694824 C-45.13996704 7.50826782 -44.10134521 7.5195874 -43.03125 7.53125 C-41.42256042 7.52067566 -41.42256042 7.52067566 -39.78137207 7.5098877 C-35.19315329 7.48034443 -30.6053565 7.49705569 -26.01708984 7.50927734 C-22.66738304 7.51165269 -19.31837076 7.49076794 -15.96875 7.46875 C-14.93012817 7.48006958 -13.89150635 7.49138916 -12.82141113 7.50305176 C-7.24327361 7.55641574 -7.24327361 7.55641574 -2.37695312 5.15820312 C-0.85144793 2.96046177 -0.85144793 2.96046177 0 0 Z " fill="#FEEFAE" transform="translate(104,99)"/>
<path d="M0 0 C0.97051306 -0.00453111 1.94102612 -0.00906223 2.94094867 -0.01373065 C6.1958441 -0.02639978 9.45057274 -0.02475264 12.70549011 -0.02310181 C15.03804744 -0.02908549 17.37060279 -0.03589066 19.70315552 -0.04345703 C26.04204797 -0.06114069 32.38088645 -0.06581342 38.71980119 -0.0670886 C44.01056766 -0.06898698 49.30132153 -0.07634383 54.59208316 -0.08343279 C66.36144436 -0.09907673 78.13078217 -0.10476991 89.90015284 -0.10342209 C90.60612898 -0.10334218 91.31210513 -0.10326227 92.03947449 -0.10317993 C92.74631481 -0.10309817 93.45315514 -0.10301641 94.18141486 -0.10293217 C105.63443388 -0.10211942 117.08732134 -0.12125475 128.54030231 -0.14945666 C140.30619773 -0.17819998 152.07202901 -0.19199615 163.83796042 -0.19026911 C170.44120559 -0.18975905 177.04430188 -0.19546683 183.64751625 -0.21662521 C189.85851182 -0.2359831 196.06921613 -0.23614854 202.28022194 -0.22159195 C204.55863876 -0.21949972 206.8370737 -0.22422929 209.11545944 -0.23631287 C212.22843851 -0.25175222 215.34041168 -0.24246511 218.45336914 -0.22705078 C219.80236769 -0.24248147 219.80236769 -0.24248147 221.17861873 -0.25822389 C227.98500139 -0.18386489 233.24114409 1.52673224 238.44059753 6.01351929 C238.88661316 6.57168335 239.33262878 7.12984741 239.79216003 7.70492554 C240.4843866 8.53830444 240.4843866 8.53830444 241.19059753 9.38851929 C244.36500532 14.25122676 244.71858054 18.77978372 244.72355652 24.46664429 C244.73188004 25.27864288 244.74020355 26.09064148 244.7487793 26.92724609 C244.77281518 29.6031884 244.78164209 32.27888685 244.78825378 34.95492554 C244.79722268 36.8191027 244.80634457 38.68327913 244.81561279 40.54745483 C244.83208625 44.45119983 244.83980032 48.35485921 244.84269714 52.25863647 C244.84808934 57.25913819 244.88581077 62.25883533 244.93144131 67.2591095 C244.96118552 71.10758405 244.96842007 74.95586384 244.96942329 78.80444336 C244.9736283 80.64804787 244.98607387 82.49165283 245.00694084 84.33514404 C245.03381055 86.91343504 245.02904468 89.48984708 245.01652527 92.06820679 C245.0387767 93.20765244 245.0387767 93.20765244 245.06147766 94.37011719 C245.00697698 98.31344814 244.53617901 100.1124754 242.10626221 103.27597046 C239.41716003 105.26742554 239.41716003 105.26742554 235.79216003 105.32992554 C231.98886962 104.13259337 231.27457683 103.68888616 229.41716003 100.26742554 C229.13413439 97.60988592 229.02008751 95.18810425 229.04826355 92.53305054 C229.04261383 91.37138367 229.04261383 91.37138367 229.03684998 90.18624878 C229.03042329 88.50787567 229.03074213 86.82946615 229.03703499 85.15109253 C229.04614443 82.49463566 229.03592394 79.83888471 229.02041626 77.1824646 C228.98030786 69.63136894 228.97911666 62.08032873 228.98136902 54.52914429 C228.98142008 49.90784783 228.96227416 45.28693291 228.93203545 40.66574097 C228.9211957 38.04867081 228.93334818 35.43232418 228.94586182 32.8152771 C228.93695874 31.21077759 228.92688482 29.60628401 228.91545105 28.00180054 C228.9300663 26.91070984 228.9300663 26.91070984 228.94497681 25.7975769 C228.90126339 22.72651379 228.68014336 20.66288991 226.96289062 18.08055019 C223.15425143 15.36795458 219.75729771 15.71662085 215.18667603 15.76622009 C214.24207443 15.7606857 213.29747283 15.7551513 212.32424694 15.74944919 C209.15109494 15.73580862 205.97872484 15.75083062 202.80558777 15.76571655 C200.53402878 15.76193465 198.26247209 15.75643568 195.99092102 15.74934387 C189.81543592 15.73535609 183.64022839 15.74658216 177.46475863 15.76305509 C171.01058136 15.77687994 164.55642061 15.7704485 158.10223389 15.766922 C147.26355354 15.76421804 136.42500086 15.7776248 125.58634949 15.8008728 C114.43005773 15.82479948 103.2739123 15.83187504 92.11759949 15.82138062 C78.67838948 15.80876141 65.23929425 15.81125502 51.80008125 15.82703972 C46.66415387 15.83280877 41.52827546 15.83270964 36.39234734 15.82797432 C30.34883185 15.82321396 24.30551977 15.83326722 18.262043 15.85492897 C16.03959019 15.8605096 13.81711787 15.86095052 11.59466362 15.8559761 C8.56976757 15.85005301 5.5454997 15.86247118 2.5206604 15.87974548 C1.18964732 15.87073042 1.18964732 15.87073042 -0.16825491 15.86153322 C-4.48529054 15.78564152 -4.48529054 15.78564152 -8.3069191 17.49942255 C-9.95568975 19.78407162 -9.95969902 21.12996559 -9.9631567 23.93579006 C-9.97581661 25.38317536 -9.97581661 25.38317536 -9.98873228 26.85980076 C-9.98272223 27.92223548 -9.97671219 28.98467021 -9.97052002 30.07929993 C-9.97590556 31.20610139 -9.9812911 32.33290285 -9.98683983 33.49384981 C-10.00120756 37.28949683 -9.99399385 41.08479941 -9.9868927 44.88046265 C-9.99094629 47.59360159 -9.99945283 50.30672265 -10.00769043 53.01985168 C-10.02491049 59.63625724 -10.02571181 66.25256796 -10.02047753 72.86899012 C-10.01644049 78.24551558 -10.01787382 83.62201295 -10.02322578 88.99853706 C-10.02397421 89.7629754 -10.02472263 90.52741375 -10.02549373 91.31501688 C-10.02702516 92.86784136 -10.02856351 94.42066584 -10.0301087 95.97349031 C-10.04384538 110.5446319 -10.0383879 125.11571984 -10.02692349 139.68686021 C-10.01699018 153.02446467 -10.02993134 166.36193043 -10.05385768 179.69951349 C-10.07822602 193.38635244 -10.08786212 207.07312672 -10.08120495 220.75998694 C-10.07770764 228.44740778 -10.07997841 236.13472191 -10.09745598 243.82212639 C-10.11214973 250.36642009 -10.11285068 256.91053197 -10.09538507 263.454822 C-10.08684888 266.79519188 -10.08694039 270.13496852 -10.10003662 273.47536469 C-10.11314189 277.0934099 -10.10179104 280.71056161 -10.08404541 284.3285675 C-10.09365042 285.38877151 -10.10325542 286.44897551 -10.11315149 287.54130691 C-10.0689381 292.96083445 -10.0689381 292.96083445 -8.12562656 297.91935825 C-4.25246813 299.97272686 -0.72050872 299.81917165 3.60295105 299.77536011 C5.01266977 299.78472005 5.01266977 299.78472005 6.45086765 299.79426908 C9.60785386 299.81025555 12.76407401 299.79757251 15.92106628 299.78500366 C18.18115185 299.79042225 20.44123389 299.79754343 22.7013092 299.8062439 C28.8458608 299.82451129 34.99014437 299.81739548 41.13470078 299.80472755 C47.55771876 299.79461764 53.98071343 299.80398764 60.4037323 299.81027222 C71.88258838 299.81802125 83.3612957 299.80557162 94.84012663 299.78523487 C105.24965404 299.76736359 115.65900303 299.77046763 126.06852722 299.78890991 C138.15435703 299.81031201 150.24005204 299.81828621 162.32590771 299.80646086 C168.7244616 299.80021687 175.12289255 299.79941524 181.5214386 299.81260681 C187.53627412 299.82414056 193.55077189 299.81618458 199.56557083 299.79302979 C201.77631697 299.78772949 203.98709141 299.7892789 206.19782639 299.79808044 C209.20939424 299.80896712 212.2198712 299.7953552 215.23136902 299.77536011 C216.11190728 299.78428299 216.99244555 299.79320588 217.89966679 299.80239916 C221.59874603 299.75456714 223.78345071 299.66549391 226.96051788 297.6697998 C228.9363713 294.4111138 228.9138102 292.12806988 228.90922546 288.32150269 C228.91390445 287.6226198 228.91858344 286.92373691 228.92340422 286.20367575 C228.93433702 283.86192028 228.91684606 281.52123955 228.89958191 279.17953491 C228.90176771 277.50072411 228.90576434 275.82191482 228.91143799 274.14311218 C228.92000604 270.52805884 228.916215 266.91330229 228.90301514 263.29826355 C228.88270129 257.58390559 228.89264552 251.86984771 228.90727234 246.15548706 C228.93404474 234.02610649 228.927293 221.89682298 228.91716003 209.76742554 C228.90622127 196.67346812 228.90093842 183.57966455 228.93445444 170.48573351 C228.94784949 164.80326569 228.94183791 159.12124585 228.92108917 153.43880463 C228.91211894 149.90625015 228.91956289 146.37386935 228.93150139 142.84132957 C228.93363654 141.20141707 228.92888562 139.5614792 228.91679573 137.92160988 C228.90123439 135.68505317 228.91012114 133.44987848 228.9250946 131.21334839 C228.9235865 129.96121803 228.9220784 128.70908768 228.9205246 127.41901398 C229.50798232 123.69107829 230.4404495 122.51314557 233.41716003 120.26742554 C235.8006897 119.75276184 235.8006897 119.75276184 238.47355652 119.73397827 C239.47817429 119.71814194 240.48279205 119.7023056 241.51785278 119.68598938 C242.59708511 119.69094925 243.67631744 119.69590912 244.78825378 119.70101929 C245.90273392 119.69482071 247.01721405 119.68862213 248.16546631 119.68223572 C250.52157213 119.67513414 252.87772809 119.67831736 255.23381042 119.69100952 C258.83818524 119.70486222 262.43995817 119.67082126 266.04411316 119.63265991 C268.33382734 119.63170861 270.62354476 119.63356815 272.91325378 119.63851929 C273.99046188 119.62526108 275.06766998 119.61200287 276.17752075 119.5983429 C283.61562233 119.6908467 283.61562233 119.6908467 287.63224792 122.58016968 C289.41716003 125.26742554 289.41716003 125.26742554 289.47966003 128.89242554 C288.27153408 132.73000209 287.91031214 133.44424527 284.41716003 135.26742554 C281.36635659 135.67551812 278.34962498 135.61609246 275.27653503 135.56039429 C274.39435303 135.55614944 273.51217102 135.5519046 272.60325623 135.54753113 C269.7909112 135.53076392 266.97928777 135.49311552 264.16716003 135.45492554 C262.25831623 135.43987616 260.34946117 135.42618819 258.44059753 135.41390991 C253.765618 135.38342092 249.09219489 135.32469684 244.41716003 135.26742554 C244.41716003 145.16742554 244.41716003 155.06742554 244.41716003 165.26742554 C247.24665222 165.20941772 250.07614441 165.15140991 252.99137878 165.09164429 C255.73833922 165.05262662 258.48526853 165.02228041 261.23234558 164.99276733 C263.1384111 164.96765555 265.04438063 164.93355909 266.95011902 164.89022827 C269.69328001 164.82942809 272.43516589 164.80118309 275.17887878 164.77914429 C276.02802353 164.75333786 276.87716827 164.72753143 277.75204468 164.70094299 C282.11592096 164.69888411 283.88957849 164.87193844 287.49064636 167.57138062 C289.41716003 170.26742554 289.41716003 170.26742554 289.47966003 173.89242554 C288.27153408 177.73000209 287.91031214 178.44424527 284.41716003 180.26742554 C281.36635659 180.67551812 278.34962498 180.61609246 275.27653503 180.56039429 C274.39435303 180.55614944 273.51217102 180.5519046 272.60325623 180.54753113 C269.7909112 180.53076392 266.97928777 180.49311552 264.16716003 180.45492554 C262.25831623 180.43987616 260.34946117 180.42618819 258.44059753 180.41390991 C253.765618 180.38342092 249.09219489 180.32469684 244.41716003 180.26742554 C244.41716003 190.16742554 244.41716003 200.06742554 244.41716003 210.26742554 C247.24665222 210.20941772 250.07614441 210.15140991 252.99137878 210.09164429 C255.73833922 210.05262662 258.48526853 210.02228041 261.23234558 209.99276733 C263.1384111 209.96765555 265.04438063 209.93355909 266.95011902 209.89022827 C269.69328001 209.82942809 272.43516589 209.80118309 275.17887878 209.77914429 C276.02802353 209.75333786 276.87716827 209.72753143 277.75204468 209.70094299 C282.11592096 209.69888411 283.88957849 209.87193844 287.49064636 212.57138062 C289.41716003 215.26742554 289.41716003 215.26742554 289.47966003 218.89242554 C288.27153408 222.73000209 287.91031214 223.44424527 284.41716003 225.26742554 C281.36635659 225.67551812 278.34962498 225.61609246 275.27653503 225.56039429 C274.39435303 225.55614944 273.51217102 225.5519046 272.60325623 225.54753113 C269.7909112 225.53076392 266.97928777 225.49311552 264.16716003 225.45492554 C262.25831623 225.43987616 260.34946117 225.42618819 258.44059753 225.41390991 C253.765618 225.38342092 249.09219489 225.32469684 244.41716003 225.26742554 C244.41716003 235.16742554 244.41716003 245.06742554 244.41716003 255.26742554 C247.24665222 255.20941772 250.07614441 255.15140991 252.99137878 255.09164429 C255.73833922 255.05262662 258.48526853 255.02228041 261.23234558 254.99276733 C263.1384111 254.96765555 265.04438063 254.93355909 266.95011902 254.89022827 C269.69328001 254.82942809 272.43516589 254.80118309 275.17887878 254.77914429 C276.02802353 254.75333786 276.87716827 254.72753143 277.75204468 254.70094299 C282.11592096 254.69888411 283.88957849 254.87193844 287.49064636 257.57138062 C289.41716003 260.26742554 289.41716003 260.26742554 289.47966003 263.89242554 C288.27153408 267.73000209 287.91031214 268.44424527 284.41716003 270.26742554 C281.36635659 270.67551812 278.34962498 270.61609246 275.27653503 270.56039429 C274.39435303 270.55614944 273.51217102 270.5519046 272.60325623 270.54753113 C269.7909112 270.53076392 266.97928777 270.49311552 264.16716003 270.45492554 C262.25831623 270.43987616 260.34946117 270.42618819 258.44059753 270.41390991 C253.76584114 270.38086681 249.09162285 270.32909808 244.41716003 270.26742554 C244.42501526 271.4707251 244.42501526 271.4707251 244.43302917 272.69833374 C244.45378901 276.32552307 244.46681705 279.95269991 244.47966003 283.57992554 C244.48803894 284.84256226 244.49641785 286.10519897 244.50505066 287.40609741 C244.50988464 289.21884155 244.50988464 289.21884155 244.51481628 291.06820679 C244.52267151 292.74136963 244.52267151 292.74136963 244.53068542 294.44833374 C244.41716003 297.26742554 244.41716003 297.26742554 243.41716003 300.26742554 C245.24090149 300.22814941 245.24090149 300.22814941 247.10148621 300.18807983 C251.62066684 300.09744794 256.13976747 300.04012906 260.65959167 299.99276733 C262.61415626 299.96765273 264.5686272 299.93355422 266.52287292 299.89022827 C269.33552671 299.82944119 272.14693706 299.80118571 274.96012878 299.77914429 C275.83114731 299.75333786 276.70216583 299.72753143 277.59957886 299.70094299 C282.01563733 299.69891033 283.85917038 299.85099625 287.50431824 302.57138062 C289.41716003 305.26742554 289.41716003 305.26742554 289.47966003 308.89242554 C288.41716003 312.26742554 288.41716003 312.26742554 286.9528656 313.95707703 C282.99735199 316.00112403 279.17101788 315.65940257 274.78337097 315.60800171 C273.31945923 315.60865883 273.31945923 315.60865883 271.82597351 315.60932922 C268.60095701 315.60723962 265.3764607 315.58390005 262.15153503 315.56039429 C259.91523014 315.55479895 257.67892158 315.55052856 255.44261169 315.54753113 C249.55707138 315.53607748 243.67175321 315.50660558 237.78630066 315.47341919 C231.78047185 315.44272966 225.77460715 315.42902817 219.76872253 315.41390991 C207.98475507 315.38173653 196.20101078 315.32896413 184.41716003 315.26742554 C184.41716003 325.16742554 184.41716003 335.06742554 184.41716003 345.26742554 C188.92182922 345.22814941 188.92182922 345.22814941 193.51750183 345.18807983 C203.43599211 345.10525834 213.35449761 345.05001273 223.273242 345.00836468 C229.28746508 344.98226303 235.3013341 344.94685361 241.31535339 344.89022827 C247.11846207 344.83593026 252.92123005 344.80600928 258.72457314 344.79303932 C260.93940915 344.78379559 263.15422637 344.76574475 265.36891747 344.73877525 C268.4696378 344.70251534 271.56894759 344.69747905 274.66984558 344.69979858 C275.58694305 344.6818222 276.50404053 344.66384583 277.44892883 344.64532471 C281.91660213 344.68152436 283.83623772 344.83548679 287.52246094 347.57633972 C289.41716003 350.26742554 289.41716003 350.26742554 289.47966003 353.89242554 C288.41716003 357.26742554 288.41716003 357.26742554 286.9528656 358.95707703 C282.99735199 361.00112403 279.17101788 360.65940257 274.78337097 360.60800171 C273.31945923 360.60865883 273.31945923 360.60865883 271.82597351 360.60932922 C268.60095701 360.60723962 265.3764607 360.58390005 262.15153503 360.56039429 C259.91523014 360.55479895 257.67892158 360.55052856 255.44261169 360.54753113 C249.55707138 360.53607748 243.67175321 360.50660558 237.78630066 360.47341919 C230.72450857 360.43733374 223.6626422 360.42355965 216.6007843 360.40605927 C205.87275505 360.3769688 195.14521321 360.31948475 184.41716003 360.26742554 C184.41716003 375.77742554 184.41716003 391.28742554 184.41716003 407.26742554 C201.29814442 407.22715005 218.17879967 407.17042503 235.05959702 407.0835228 C242.89753821 407.04370291 250.73537858 407.01132548 258.57341003 406.99642944 C265.40456277 406.98342812 272.23549393 406.95650267 279.06652188 406.91281247 C282.68400335 406.89016306 286.30121117 406.87451691 289.91876984 406.87554169 C293.95598263 406.87642457 297.99238591 406.84622301 302.02946472 406.81332397 C303.23067963 406.81835434 304.43189453 406.8233847 305.66950989 406.8285675 C307.31851791 406.80769829 307.31851791 406.80769829 309.00083923 406.78640747 C309.95581676 406.7827203 310.9107943 406.77903313 311.89471054 406.77523422 C315.24102283 406.10156902 316.29047862 404.90809786 318.41716003 402.26742554 C319.01276403 399.56376869 319.01276403 399.56376869 318.91773129 396.53617764 C318.92754558 395.35964262 318.93735987 394.18310761 318.94747156 392.97092003 C318.93786655 391.67725912 318.92826155 390.38359822 318.91836548 389.05073547 C318.92225727 387.6634826 318.92789674 386.27623372 318.93513638 384.88899428 C318.94992661 381.07275333 318.93968896 377.25692351 318.92539966 373.44069564 C318.91431398 369.32681147 318.92622443 365.2129861 318.9352417 361.09910583 C318.94919225 353.03866789 318.94160481 344.97838634 318.92656612 336.91795581 C318.9097285 327.53726646 318.91291339 318.15661631 318.9166602 308.77591652 C318.92254202 292.0425044 318.90835415 275.30916746 318.88371277 258.57577515 C318.85978721 242.32672304 318.85270959 226.07777139 318.86320496 209.82870483 C318.8746055 192.14648174 318.87655523 174.46430514 318.86210686 156.78208262 C318.86058097 154.89787424 318.85906061 153.01366586 318.85754585 151.12945747 C318.85678804 150.20231851 318.85603022 149.27517955 318.85524945 148.31994547 C318.85050023 141.77601822 318.85236254 135.23211168 318.85661125 128.68818474 C318.86152988 120.71769319 318.85558948 112.74729675 318.83571696 104.77682703 C318.82582241 100.7076214 318.82076303 96.63856083 318.82860947 92.56934738 C318.83563845 88.84803881 318.82892755 85.12702365 318.81100584 81.40575392 C318.80501095 79.41390347 318.81381466 77.42202569 318.82305235 75.43018764 C318.81461241 74.25626038 318.80617247 73.08233312 318.79747677 71.8728323 C318.79644764 70.8554515 318.79541851 69.83807071 318.79435819 68.78986019 C318.61711125 66.22874291 318.61711125 66.22874291 317.03484493 64.43990523 C314.78809425 62.81148579 313.23351535 62.90198552 310.47428894 62.91439819 C309.46959564 62.91074249 308.46490234 62.90708679 307.42976379 62.90332031 C306.34537018 62.91261566 305.26097656 62.92191101 304.14372253 62.93148804 C301.85205304 62.91897542 299.56038635 62.9059383 297.26872253 62.89242554 C293.65208517 62.88849334 290.03572421 62.89245156 286.41911316 62.90707397 C282.93106145 62.91563711 279.44417201 62.89397042 275.95622253 62.86898804 C274.3357048 62.88900375 274.3357048 62.88900375 272.68244934 62.90942383 C265.19830227 62.83569243 265.19830227 62.83569243 261.23503113 59.95248413 C258.83452918 56.40685958 258.65436851 54.46277891 259.41716003 50.26742554 C261.60136847 47.66239294 263.39008398 46.42598734 266.77958679 45.90270996 C269.77567045 45.75313236 272.74559479 45.7395864 275.74528503 45.77133179 C277.40065277 45.76914894 277.40065277 45.76914894 279.08946228 45.766922 C281.42284281 45.76858037 283.75623435 45.7801346 286.08952332 45.8008728 C289.64062147 45.82971003 293.19021498 45.82150235 296.74137878 45.80844116 C299.01352139 45.81468265 301.28565931 45.82307679 303.55778503 45.83383179 C305.13792389 45.82942833 305.13792389 45.82942833 306.74998474 45.82493591 C314.28010718 45.92004602 321.12849378 46.65144102 327.16716003 51.45492554 C327.90966003 52.38305054 328.65216003 53.31117554 329.41716003 54.26742554 C329.84331932 54.77351475 330.26947862 55.27960396 330.70855182 55.80102921 C335.44959412 62.20407963 335.11515389 68.51069297 335.04534912 76.23519897 C335.05039885 77.6553423 335.05763097 79.07547925 335.06684726 80.49560165 C335.08573632 84.38443896 335.07355514 88.27264545 335.05612433 92.1614666 C335.04273529 96.36059732 335.05819291 100.55963667 335.06994629 104.75875854 C335.08831581 112.97943948 335.07981519 121.19988257 335.06185807 129.42055607 C335.04782676 136.10223633 335.04394041 142.78385207 335.04730034 149.46554565 C335.04777778 150.41687622 335.04825522 151.36820678 335.04874713 152.34836555 C335.04977347 154.28103544 335.05082883 156.21370532 335.0519129 158.14637518 C335.06047857 175.23234577 335.04380928 192.31820162 335.01408386 209.40414429 C334.9852468 225.97971415 334.9781631 242.55511871 334.99357605 259.13070679 C335.01034078 277.18474456 335.01436963 295.23870386 334.99686569 313.29274368 C334.99502132 315.21826425 334.99318659 317.14378483 334.99136162 319.06930542 C334.99044953 320.01667375 334.98953744 320.96404209 334.98859771 321.94011855 C334.98299401 328.61299574 334.98629795 335.2858346 334.99290657 341.95870972 C335.00064169 350.09184772 334.99388073 358.22482304 334.96873153 366.35792828 C334.95624062 370.50680207 334.95008495 374.65542267 334.96127319 378.80430603 C334.97132658 382.60412911 334.96283301 386.40344763 334.93969201 390.2032094 C334.93210401 392.22497352 334.94407502 394.24678202 334.95679575 396.26852036 C334.88302622 404.34335269 334.10055065 409.99897735 328.67106628 416.29086304 C328.11290222 416.73687866 327.55473816 417.18289429 326.97966003 417.64242554 C326.4240741 418.10390991 325.86848816 418.56539429 325.29606628 419.04086304 C320.36030088 422.26296353 315.82311916 422.54092805 310.05387878 422.46273804 C309.2618959 422.45990814 308.46991302 422.45707825 307.65393066 422.4541626 C305.13735005 422.44301416 302.62113214 422.41791976 300.10466003 422.39242554 C298.39307665 422.38238882 296.68148766 422.37326418 294.96989441 422.36508179 C290.78551097 422.34309235 286.60139689 422.30859962 282.41716003 422.26742554 C282.41716003 427.21742554 282.41716003 432.16742554 282.41716003 437.26742554 C284.06716003 437.59742554 285.71716003 437.92742554 287.41716003 438.26742554 C291.09083325 441.94109875 289.78677184 447.92990068 289.79216003 452.89242554 C289.81665222 454.05644897 289.84114441 455.22047241 289.86637878 456.41976929 C289.89370444 464.46261955 288.98800713 470.12939691 283.67106628 476.29086304 C283.11290222 476.73687866 282.55473816 477.18289429 281.97966003 477.64242554 C281.4240741 478.10390991 280.86848816 478.56539429 280.29606628 479.04086304 C275.25325909 482.33284112 270.56863342 482.5464823 264.67961121 482.49447632 C263.81081329 482.49476837 262.94201538 482.49506042 262.04689026 482.49536133 C259.18453369 482.49397161 256.3224397 482.47842723 253.46012878 482.46273804 C251.47187441 482.45900664 249.4836182 482.45616026 247.49536133 482.4541626 C242.26912841 482.44653617 237.04300713 482.42689613 231.81681824 482.40475464 C226.48114024 482.38427491 221.14544416 482.37515633 215.80973816 482.36508179 C205.34549648 482.34364935 194.88133755 482.3095253 184.41716003 482.26742554 C184.43528748 483.22584351 184.45341492 484.18426147 184.47209167 485.17172241 C184.4861908 486.43049194 184.50028992 487.68926147 184.51481628 488.98617554 C184.53294373 490.23334351 184.55107117 491.48051147 184.56974792 492.76547241 C184.32344725 498.4181715 182.60968556 501.95020661 178.76872253 506.00961304 C172.14219686 512.05740284 166.4164928 512.56126116 157.69540405 512.53485107 C156.60238442 512.53938219 155.50936479 512.5439133 154.38322335 512.54858172 C150.71374739 512.56126113 147.04441918 512.55960304 143.37492371 512.55795288 C140.74680388 512.56393591 138.11868581 512.57074093 135.49057007 512.57830811 C129.0883511 512.5949146 122.68616897 512.6004175 116.28393026 512.60153286 C111.07911624 512.60248353 105.87431435 512.60659475 100.66950417 512.61293411 C85.90910644 512.63054578 71.14873778 512.63977313 56.38832947 512.63827316 C55.59274346 512.63819325 54.79715745 512.63811334 53.97746277 512.63803101 C53.180904 512.63794924 52.38434523 512.63786748 51.56364832 512.63778324 C38.65566723 512.63697043 25.74780285 512.65610721 12.83985551 512.68430774 C-0.41765522 512.71304314 -13.67510904 512.72684767 -26.9326517 512.72512019 C-34.37425744 512.7244565 -41.81574083 512.72993946 -49.2573185 512.75147629 C-55.5935663 512.76969678 -61.92963631 512.77402842 -68.26589898 512.76045744 C-71.49736849 512.75393192 -74.72842653 512.75597314 -77.95987701 512.77116394 C-81.46693392 512.78658239 -84.97309565 512.77732947 -88.48013306 512.76190186 C-89.49619387 512.77218898 -90.51225468 512.78247611 -91.55910522 512.79307497 C-98.72535042 512.72342941 -104.15515064 511.28485089 -109.60627747 506.48617554 C-110.05229309 505.91898804 -110.49830872 505.35180054 -110.95783997 504.76742554 C-111.41932434 504.20023804 -111.88080872 503.63305054 -112.35627747 503.04867554 C-115.25873707 498.83363866 -115.83475966 495.87890663 -115.8456955 490.71239281 C-115.84980076 490.05230766 -115.85390603 489.39222251 -115.8581357 488.71213478 C-115.86948392 486.49061211 -115.86656032 484.26933712 -115.86372375 482.04779053 C-115.86889059 480.44279018 -115.87491679 478.83779241 -115.88173056 477.23279822 C-115.89788291 472.81451501 -115.90145038 468.39629676 -115.90292549 463.97798753 C-115.90662452 459.21570479 -115.92171824 454.45345585 -115.93519592 449.69119263 C-115.96237327 439.27373961 -115.97441391 428.85630198 -115.98321724 418.43881941 C-115.98874078 411.93464932 -115.9972153 405.43048519 -116.00622559 398.92631912 C-116.03061327 380.92020478 -116.05121082 362.91409521 -116.05797577 344.90796471 C-116.0584149 343.75525242 -116.05885403 342.60254014 -116.05930647 341.41489718 C-116.05974303 340.25941446 -116.06017958 339.10393174 -116.06062937 337.91343439 C-116.0615163 335.57195878 -116.06240943 333.23048317 -116.06330872 330.88900757 C-116.06375158 329.72755292 -116.06419443 328.56609827 -116.06465071 327.36944802 C-116.07254567 308.55232786 -116.10744954 289.73536265 -116.15402776 270.91830234 C-116.20145673 251.60168926 -116.22637959 232.28515392 -116.22871161 212.96848166 C-116.23054513 202.12186029 -116.24204987 191.27544075 -116.27835083 180.42887497 C-116.30915569 171.19189843 -116.31939235 161.95518608 -116.30287462 152.71816795 C-116.29506209 148.00593212 -116.29691678 143.29422828 -116.32498932 138.58205795 C-116.35047273 134.26496351 -116.34806986 129.94880058 -116.3238079 125.63170739 C-116.31989457 124.07310401 -116.32604859 122.51443459 -116.34349662 120.95592396 C-116.44004906 111.74567779 -115.72613631 104.56738311 -109.58283997 97.26742554 C-102.3336168 91.0978739 -94.44144943 90.95131193 -85.35627747 90.93148804 C-84.29043427 90.92483124 -83.22459106 90.91817444 -82.12644958 90.91131592 C-79.88243834 90.90122655 -77.63839731 90.89649774 -75.3943634 90.89682007 C-71.96189866 90.89243073 -68.53070396 90.85602625 -65.09846497 90.81820679 C-62.91357351 90.81234112 -60.72867598 90.80837005 -58.54377747 90.80648804 C-57.51972809 90.792117 -56.49567871 90.77774597 -55.44059753 90.76293945 C-48.33232353 90.80859392 -48.33232353 90.80859392 -44.46028137 93.17904663 C-41.58283997 96.37977924 -41.58283997 96.37977924 -41.58283997 99.26742554 C-43.14258392 103.16678543 -44.05012269 104.91228069 -47.58283997 107.26742554 C-49.78364563 107.52571106 -49.78364563 107.52571106 -52.37385559 107.53866577 C-53.34496277 107.54885239 -54.31606995 107.559039 -55.31660461 107.5695343 C-56.88698486 107.57274437 -56.88698486 107.57274437 -58.48908997 107.57601929 C-60.6987281 107.60117204 -62.90836346 107.62657017 -65.11799622 107.65219116 C-68.60740993 107.68098658 -72.09677547 107.70500031 -75.58625793 107.72372437 C-78.94995316 107.74531389 -82.31308734 107.78474188 -85.67658997 107.82601929 C-87.24697021 107.82619301 -87.24697021 107.82619301 -88.84907532 107.82637024 C-89.8201825 107.83970901 -90.79128967 107.85304779 -91.79182434 107.86679077 C-92.64659363 107.87186142 -93.50136292 107.87693207 -94.3820343 107.88215637 C-97.18701872 108.37319201 -97.89157846 108.9857034 -99.58283997 111.26742554 C-100.0371356 114.18339771 -100.0371356 114.18339771 -99.9631567 117.57561398 C-99.97014658 118.54391426 -99.97014658 118.54391426 -99.97727767 119.53177616 C-99.98929454 121.70988949 -99.97980708 123.88738668 -99.97052002 126.06550598 C-99.97469003 127.6367972 -99.98016571 129.20808541 -99.98683983 130.77936798 C-100.00135693 135.10892665 -99.99703029 139.43829599 -99.98967302 143.7678653 C-99.98495906 148.43257276 -99.99743543 153.09723821 -100.00769043 157.76193237 C-100.02491868 166.90499485 -100.02571012 176.04798872 -100.02047753 185.19106322 C-100.01644207 192.61993184 -100.01787193 200.04878013 -100.02322578 207.47764778 C-100.02397421 208.53349905 -100.02472263 209.58935032 -100.02549373 210.67719709 C-100.02702515 212.82190657 -100.0285635 214.96661604 -100.0301087 217.11132551 C-100.0438483 237.24065001 -100.0383858 257.36993568 -100.02692349 277.4992593 C-100.01698951 295.92923859 -100.02993204 314.35911752 -100.05385768 332.78908133 C-100.07821899 351.69657357 -100.08786387 370.60401901 -100.08120495 389.51152664 C-100.07770612 400.13323228 -100.07998841 410.75486068 -100.09745598 421.37655449 C-100.1121409 430.41863111 -100.11286216 439.46057614 -100.09538507 448.50265007 C-100.08684199 453.11883133 -100.0848057 457.73477713 -100.10003662 462.35094643 C-100.11379585 466.5732393 -100.10923467 470.79509308 -100.08979739 475.01735998 C-100.08600993 476.5482856 -100.08903761 478.07924567 -100.09940904 479.61014085 C-100.11247139 481.68509516 -100.10109514 483.75850953 -100.08341122 485.83339596 C-100.08330388 486.98763843 -100.08319654 488.14188089 -100.08308595 489.3311004 C-99.46657765 492.94985771 -98.53573866 494.13151966 -95.58283997 496.26742554 C-93.40623539 496.85832008 -93.40623539 496.85832008 -91.04130554 496.7707901 C-90.13012529 496.78122109 -89.21894505 496.79165208 -88.28015327 496.80239916 C-87.28288656 496.79347627 -86.28561985 496.78455338 -85.25813293 496.77536011 C-84.19581388 496.78160007 -83.13349483 496.78784003 -82.0389843 496.79426908 C-78.46744181 496.81026636 -74.89657543 496.797568 -71.32502747 496.78500366 C-68.76937968 496.79042176 -66.21373503 496.79754265 -63.65809631 496.8062439 C-57.43012877 496.82261798 -51.20241298 496.82018265 -44.97444201 496.80859333 C-39.913533 496.79956509 -34.85267805 496.79833236 -29.79176331 496.8026886 C-29.07186623 496.80330153 -28.35196916 496.80391446 -27.61025703 496.80454597 C-26.14786607 496.80582485 -24.68547513 496.8071217 -23.22308421 496.80843633 C-9.5055535 496.81984648 4.21187033 496.80672165 17.92938352 496.78523487 C29.70335734 496.76736346 41.47717343 496.77046745 53.25114441 496.78890991 C66.91909572 496.81030899 80.58695333 496.8187478 94.25491905 496.80646086 C95.71197381 496.80518664 97.16902859 496.80392916 98.62608337 496.8026886 C99.70147218 496.80176295 99.70147218 496.80176295 100.79858601 496.80081859 C105.85426716 496.79736279 110.90988895 496.80319897 115.96556091 496.81260681 C122.76833589 496.82498731 129.57076638 496.81619131 136.37352753 496.79302979 C138.87453464 496.78772753 141.37556677 496.7892822 143.87656403 496.79808044 C147.28220313 496.80895916 150.686876 496.79536415 154.092453 496.77536011 C155.08971972 496.78428299 156.08698643 496.79320588 157.11447334 496.80239916 C162.3366319 496.75269037 162.3366319 496.75269037 167.03001785 494.68571854 C168.94096927 491.35423566 168.92526904 488.90494744 168.93614197 485.06680298 C168.94364322 484.34059651 168.95114447 483.61439004 168.95887303 482.86617732 C168.97917657 480.43225397 168.97104277 477.99925984 168.96305847 475.5652771 C168.97179208 473.82085751 168.98227712 472.07644594 168.99438477 470.33204651 C169.02229153 465.59476764 169.02564842 460.85774957 169.02466488 456.12040043 C169.02778997 451.17022393 169.05339973 446.22016559 169.0766449 441.27005005 C169.11723944 431.8955783 169.13755373 422.52117617 169.15061879 413.14663005 C169.16647714 402.47436824 169.20488784 391.80222511 169.24521208 381.13003206 C169.3276583 359.17586901 169.3817209 337.22171148 169.41716003 315.26742554 C168.50717003 315.27111271 167.59718002 315.27479988 166.65961456 315.27859879 C144.50868037 315.36696955 122.35777661 315.43314481 100.20670319 315.47467422 C89.49456447 315.4952918 78.78254349 315.52339712 68.07048035 315.56918335 C58.73289743 315.60907563 49.39539978 315.6348642 40.05773401 315.64377952 C35.1143402 315.64899019 30.17119032 315.66122056 25.22787476 315.69034576 C20.5723187 315.71755257 15.91710643 315.72585987 11.26147842 315.71985626 C9.55550898 315.72095414 7.84952771 315.72887666 6.14362717 315.74424744 C-11.20831417 315.8928885 -11.20831417 315.8928885 -18.82502747 309.33773804 C-19.63326965 308.37480835 -19.63326965 308.37480835 -20.45783997 307.39242554 C-21.01213684 306.75562866 -21.56643372 306.11883179 -22.13752747 305.46273804 C-26.17821603 299.32525973 -25.87291029 292.97375945 -25.85699463 285.8939209 C-25.86223131 284.74287711 -25.86746799 283.59183332 -25.87286335 282.40590942 C-25.88525469 279.21962748 -25.88870731 276.03348248 -25.88826644 272.84718108 C-25.88991768 269.40740817 -25.90298972 265.96767517 -25.91445923 262.52792358 C-25.93728261 255.01145307 -25.94522663 247.49501084 -25.95028567 239.97851038 C-25.9535451 235.2837841 -25.96006898 230.58906599 -25.96728706 225.89434433 C-25.98684775 212.89104286 -26.00325566 199.88774897 -26.0061636 186.88443184 C-26.00644495 185.63696711 -26.00644495 185.63696711 -26.00673199 184.36430108 C-26.00709824 182.67844002 -26.00746193 180.99257895 -26.0078231 179.30671789 C-26.00809732 178.05146007 -26.00809732 178.05146007 -26.00837708 176.77084351 C-26.00855762 175.93298163 -26.00873817 175.09511976 -26.00892419 174.23186813 C-26.01246689 160.65141088 -26.03949755 147.07111208 -26.07687496 133.4907098 C-26.1149595 119.54159965 -26.13432107 105.59256814 -26.13462311 91.64340484 C-26.13520757 83.81389883 -26.14369225 75.98458197 -26.17262077 68.15512466 C-26.19713641 61.4895001 -26.20441629 54.82413372 -26.18937325 48.15847625 C-26.1822055 44.75885716 -26.18305494 41.35974789 -26.20578384 37.960186 C-26.22616799 34.27131021 -26.21573523 30.58375585 -26.1975708 26.89489746 C-26.21077077 25.82504549 -26.22397074 24.75519352 -26.2375707 23.6529218 C-26.15276512 16.11464779 -24.38925258 11.18310837 -19.10477251 5.74692738 C-13.05216237 0.36017642 -7.73196657 -0.02643138 0 0 Z " fill="#000000" transform="translate(146.5828399658203,-0.267425537109375)"/>
<path d="M0 0 C13.74163947 10.52510613 22.32931389 24.97987358 25.1953125 42.03515625 C25.45703487 45.41127065 25.47648441 48.76725499 25.4609375 52.15234375 C25.46285095 53.09014679 25.4647644 54.02794983 25.46673584 54.99417114 C25.46808856 56.96568065 25.46445639 58.93719934 25.45605469 60.90869141 C25.44536651 63.8950646 25.45596889 66.88083302 25.46875 69.8671875 C25.48518969 90.9817016 21.99287582 109.95338625 7.1953125 126.03515625 C4.30677863 128.53670951 1.31726665 130.83350604 -1.8046875 133.03515625 C-0.79652311 138.24979965 0.4993035 142.08281939 4.9453125 145.22265625 C11.90811888 149.31246 19.61959924 151.95361203 27.16113281 154.76904297 C43.93309084 161.06167985 55.86281808 168.43909919 63.96875 184.9453125 C66.69199262 191.80545554 67.51849979 198.08342829 67.56640625 205.390625 C67.57543472 206.25528885 67.5844632 207.1199527 67.59376526 208.01081848 C67.60818074 209.82512999 67.61713264 211.63949245 67.62084961 213.45385742 C67.63282684 216.22597592 67.68216187 218.99592272 67.73242188 221.76757812 C67.74187894 223.53774964 67.7491174 225.3079347 67.75390625 227.078125 C67.77343857 227.90217331 67.79297089 228.72622162 67.81309509 229.57524109 C67.80701736 230.34987198 67.80093964 231.12450287 67.79467773 231.92260742 C67.79974838 232.59797043 67.80481903 233.27333344 67.81004333 233.96916199 C66.80224019 237.35619807 64.91130858 238.83194727 62.1953125 241.03515625 C59.27842867 241.5278931 56.94646896 241.71279181 54.03491211 241.67007446 C53.21745734 241.67787442 52.40000257 241.68567437 51.55777645 241.69371068 C48.82061027 241.71364294 46.08483256 241.69786181 43.34765625 241.68212891 C41.38460478 241.68890449 39.42155967 241.69780729 37.45852661 241.7086792 C32.12792014 241.73148603 26.79779716 241.72263034 21.46718216 241.70678377 C15.89078714 241.69413204 10.31443374 241.70586287 4.73803711 241.7137146 C-4.62686604 241.72281326 -13.99157208 241.71081748 -23.35644531 241.68701172 C-34.18624066 241.65980014 -45.01556537 241.66861414 -55.84534931 241.69614375 C-65.1406091 241.71882755 -74.43572714 241.72203843 -83.73100567 241.7089504 C-89.28397525 241.70115193 -94.83672356 241.70012531 -100.38967896 241.71663284 C-105.61011937 241.73106763 -110.82995254 241.72107369 -116.0503273 241.69216156 C-117.96716427 241.68554549 -119.88405227 241.68745729 -121.80086899 241.69847488 C-124.41603347 241.71212156 -127.02924726 241.69502653 -129.64428711 241.67007446 C-130.78460939 241.68680488 -130.78460939 241.68680488 -131.94796848 241.70387328 C-135.93644857 241.62995575 -137.63688836 241.17143179 -140.77545071 238.62249565 C-142.77459397 236.07352642 -143.4312063 235.14951614 -143.43579102 232.00195312 C-143.45459068 230.86421448 -143.45459068 230.86421448 -143.47377014 229.70349121 C-143.46051193 228.89512817 -143.44725372 228.08676514 -143.43359375 227.25390625 C-143.43600571 226.40397095 -143.43841766 225.55403564 -143.44090271 224.67834473 C-143.4399249 222.87959126 -143.42654693 221.08080745 -143.40161133 219.28222656 C-143.36763896 216.57118364 -143.38087014 213.86346774 -143.40039062 211.15234375 C-143.38805038 195.26002268 -140.65405697 182.23752849 -129.9140625 169.85546875 C-120.90920127 161.02245602 -108.60149257 156.56100014 -96.9296875 152.41015625 C-84.09353954 148.24819465 -84.09353954 148.24819465 -75.1796875 138.78515625 C-73.68993595 135.38788687 -73.68993595 135.38788687 -73.8046875 133.03515625 C-75.09674581 131.982368 -76.44103467 130.99339878 -77.8046875 130.03515625 C-91.21719375 119.82312245 -98.33611725 104.46615807 -100.8046875 88.03515625 C-101.38248191 81.31304183 -101.34132884 74.57553034 -101.27124023 67.83398438 C-101.24209543 64.77549483 -101.25071597 61.71872771 -101.26367188 58.66015625 C-101.24363949 38.42251162 -97.22015948 21.10947065 -82.8046875 6.03515625 C-77.40425851 0.7806848 -71.40796965 -2.93078119 -64.7421875 -6.33984375 C-64.09378906 -6.67387207 -63.44539063 -7.00790039 -62.77734375 -7.35205078 C-42.50229693 -17.2402074 -17.88096556 -12.52663743 0 0 Z " fill="#020202" transform="translate(293.8046875,43.96484375)"/>
<path d="M0 0 C1.41702513 0.14230808 2.8336096 0.28900746 4.25 0.4375 C5.43335938 0.55931641 5.43335938 0.55931641 6.640625 0.68359375 C9 1 9 1 10.78515625 1.5234375 C14.22757062 2.26413336 17.68236841 2.19054662 21.1875 2.1875 C21.94836914 2.18814453 22.70923828 2.18878906 23.49316406 2.18945312 C28.93826599 2.13823797 33.72629588 1.4063211 39 0 C40.66623146 -0.03808529 42.33396714 -0.04595953 44 0 C44.35191406 0.72445312 44.70382812 1.44890625 45.06640625 2.1953125 C52.69813338 17.13994787 65.50840735 22.14492019 80.6875 27.5625 C102.45989344 35.35915203 102.45989344 35.35915203 108.2109375 46.3046875 C114.34816346 59.58024721 112 67.50889665 112 85 C52.6 85 -6.8 85 -68 85 C-68 49.61704312 -68 49.61704312 -59 39 C-50.98888745 31.94788772 -41.31331956 28.77997128 -31.44970703 25.27050781 C-16.85192266 20.0352957 -6.96875919 14.2924089 0 0 Z " fill="#80A8C7" transform="translate(234,185)"/>
<path d="M0 0 C4.29844138 2.73152186 7.95890767 5.7844906 11.37890625 9.57421875 C11.85972656 10.06277344 12.34054687 10.55132812 12.8359375 11.0546875 C21.90289825 20.71846086 24.66600789 33.20288307 24.75 46.078125 C24.75902847 46.95967758 24.76805695 47.84123016 24.77735901 48.74949646 C24.79177701 50.60583144 24.80072703 52.46221626 24.80444336 54.31860352 C24.81627539 57.10589206 24.86548959 59.89091549 24.91601562 62.67773438 C25.04973518 77.49399329 23.27035795 91.78512644 13.37890625 103.57421875 C12.85167969 104.24582031 12.32445312 104.91742188 11.78125 105.609375 C7.62509546 110.3501315 2.87039552 113.19275442 -2.68359375 116.01171875 C-3.35632324 116.35404541 -4.02905273 116.69637207 -4.72216797 117.04907227 C-14.70329894 121.84191909 -27.95541418 122.5413116 -38.43359375 118.94921875 C-52.46340912 112.99591431 -62.27450852 104.35341433 -68.62109375 90.37109375 C-71.46014823 83.21886036 -71.79673345 76.36491174 -71.859375 68.78515625 C-71.86744675 67.84548004 -71.87551849 66.90580383 -71.88383484 65.93765259 C-71.8976261 63.9524314 -71.90837028 61.967187 -71.91625977 59.98193359 C-71.92775477 57.97079417 -71.94816703 55.95968467 -71.9777832 53.94873047 C-72.23629692 36.36690947 -70.28198858 20.9798721 -57.62109375 7.57421875 C-41.39063575 -6.53262792 -19.31908338 -10.50889036 0 0 Z " fill="#80A8C6" transform="translate(279.62109375,52.42578125)"/>
<path d="M0 0 C0.00021737 0.78524211 0.00043474 1.57048422 0.00065869 2.37952155 C0.01416673 48.89188632 0.0536095 95.40416686 0.12685562 141.9164779 C0.13562265 147.49794787 0.14417241 153.07941816 0.15258789 158.66088867 C0.15426695 159.77208581 0.15594602 160.88328296 0.15767596 162.02815274 C0.18436512 180.03405579 0.19344241 198.039927 0.19604143 216.0458478 C0.199098 234.51370922 0.22101042 252.98147842 0.26052457 271.4492982 C0.284321 282.85022686 0.29330871 294.25097157 0.28351311 305.65192167 C0.27820827 313.46390369 0.29117471 321.27572047 0.3186629 329.08765545 C0.3339916 333.59866296 0.34111696 338.1093008 0.32659721 342.62031937 C0.313489 346.74790727 0.32325348 350.87477726 0.35143773 355.00228391 C0.3575706 356.49764203 0.35521099 357.99306337 0.34362926 359.48838922 C0.32914113 361.51725857 0.34826361 363.54628535 0.36914349 365.57509899 C0.37028265 366.70324809 0.37142181 367.83139719 0.37259549 368.99373263 C1.2111575 373.01178091 2.7943502 374.50779132 6 377 C8.25565499 377.73166409 8.25565499 377.73166409 10.62890339 377.63085651 C11.53409129 377.64429515 12.4392792 377.65773379 13.37189704 377.67157966 C14.35730655 377.6609064 15.34271605 377.65023314 16.35798645 377.63923645 C17.93860407 377.65176996 17.93860407 377.65176996 19.55115336 377.66455668 C23.08757829 377.68653099 26.62296923 377.67286512 30.15942383 377.65942383 C32.69215689 377.6678742 35.22488344 377.67851698 37.75759888 377.69119263 C43.21316128 377.71355522 48.66840445 377.7206419 54.12400246 377.71384621 C62.01177559 377.70404729 69.89929818 377.72177888 77.78703078 377.74621352 C90.58450717 377.78511067 103.38191192 377.8017665 116.17944336 377.80444336 C128.61047032 377.80709117 141.04141357 377.82020884 153.47241211 377.84741211 C154.62192848 377.84992218 154.62192848 377.84992218 155.7946674 377.85248295 C159.63922094 377.86094247 163.48377398 377.86960788 167.32832682 377.87837565 C199.21887636 377.95083795 231.10936916 377.98683766 263 378 C263.40570035 382.13814355 263.41772779 384.34483 261.15238953 387.89781761 C256.62674218 390.91576196 252.89374063 390.6947677 247.56176758 390.63491821 C245.96806571 390.64661814 245.96806571 390.64661814 244.34216785 390.65855443 C240.77593804 390.67852518 237.21076931 390.66268893 233.64453125 390.64697266 C231.0903562 390.65374646 228.53618603 390.66264825 225.98202515 390.67352295 C219.76116503 390.69397895 213.54069894 390.69095269 207.31983352 390.67645974 C202.26419204 390.66516896 197.20863509 390.66363588 192.15298462 390.66907883 C191.43351176 390.66984499 190.7140389 390.67061116 189.97276384 390.67140054 C188.51118014 390.67299916 187.04959646 390.67462023 185.58801281 390.6762635 C171.88186941 390.69052213 158.17589321 390.67412655 144.46977723 390.64726166 C132.7086089 390.62492272 120.94768731 390.62880282 109.18652344 390.65185547 C95.52952734 390.67861153 81.87267779 390.68914883 68.21565914 390.67379415 C66.75944458 390.6722014 65.30322999 390.67062955 63.84701538 390.66907883 C63.13052521 390.66830745 62.41403504 390.66753607 61.67583305 390.66674132 C56.62610756 390.66242372 51.57647501 390.66971213 46.52676392 390.68147659 C39.73047156 390.69696203 32.93471762 390.68594139 26.13844681 390.65700531 C23.64108684 390.65038218 21.14368773 390.65231293 18.64634323 390.66331863 C15.24310541 390.67693615 11.84137367 390.65990188 8.43823242 390.63491821 C7.44456067 390.64607182 6.45088892 390.65722543 5.4271059 390.66871703 C4.51455131 390.65567829 3.60199671 390.64263955 2.66178894 390.6292057 C1.48397496 390.62798806 1.48397496 390.62798806 0.28236675 390.62674582 C-3.25099396 389.65647272 -4.76905327 387.84881068 -7 385 C-7.62559515 381.94062704 -7.62559515 381.94062704 -7.62641239 378.4457159 C-7.63338 377.79787469 -7.64034761 377.15003349 -7.64752635 376.48256072 C-7.66479384 374.30824214 -7.64639574 372.13570022 -7.62818909 369.96141052 C-7.63323347 368.38838884 -7.64046146 366.8153729 -7.64968723 365.24237019 C-7.66865197 360.91719717 -7.65635223 356.59258798 -7.6389643 352.26742899 C-7.62561585 347.6041078 -7.64101825 342.94087048 -7.65278625 338.27755737 C-7.67118566 329.14139881 -7.66263538 320.00545381 -7.64469803 310.86930185 C-7.63068525 303.44619362 -7.62677638 296.02314346 -7.6301403 288.60002327 C-7.63061775 287.54444298 -7.63109519 286.48886269 -7.6315871 285.40129511 C-7.6326134 283.25706869 -7.63366876 281.11284229 -7.63475286 278.9686159 C-7.64332447 259.99962366 -7.62662949 241.03073469 -7.59692383 222.06176758 C-7.56808124 203.64375471 -7.56100423 185.22589059 -7.57641602 166.80786133 C-7.59316573 146.76340401 -7.59722526 126.71901736 -7.57970566 106.67455822 C-7.57786122 104.53842581 -7.57602649 102.40229339 -7.57420158 100.26616096 C-7.57328949 99.21507274 -7.5723774 98.16398452 -7.57143768 97.08104513 C-7.56582494 89.6639315 -7.56914628 82.24685229 -7.57574654 74.82974052 C-7.5834669 65.79501797 -7.5767739 56.76044201 -7.5515715 47.72574907 C-7.53904673 43.11361365 -7.53296586 38.50170682 -7.54411316 33.88956261 C-7.55411683 29.67103448 -7.5457793 25.45296327 -7.52253198 21.234491 C-7.51735107 19.70497742 -7.5189732 18.17542327 -7.52792663 16.64592712 C-7.53905638 14.57287935 -7.52576328 12.50139427 -7.50615788 10.42844296 C-7.50496639 9.27528463 -7.50377491 8.12212631 -7.50254732 6.9340238 C-6.71285928 2.32358533 -4.75455515 0 0 0 Z " fill="#FECF63" transform="translate(53,107)"/>
<path d="M0 0 C4.29 0 8.58 0 13 0 C13.00146656 1.01214286 13.00293312 2.02428572 13.00444412 3.06709957 C13.04105427 27.70537361 13.10052383 52.34351188 13.18390274 76.98167324 C13.22369623 88.89655722 13.2560872 100.81137512 13.27099609 112.72631836 C13.28401094 123.11251413 13.31097153 133.49856453 13.35461307 143.88467842 C13.37723143 149.38304076 13.39291044 154.88122377 13.39188385 160.37963676 C13.39113748 165.55810589 13.40907967 170.73617853 13.44116783 175.91454506 C13.44966541 177.81195136 13.45141773 179.70940213 13.44580269 181.60681915 C13.02035058 196.31824781 13.02035058 196.31824781 19.74982071 208.8527441 C25.14479815 213.91870797 29.96891222 215.24722584 37.35884094 215.2784729 C38.45555761 215.2871615 38.45555761 215.2871615 39.57443017 215.29602563 C42.018822 215.3130003 44.46302474 215.31589993 46.9074707 215.31884766 C48.66188519 215.32814759 50.41629525 215.33831635 52.17070007 215.34928894 C56.93057338 215.37659569 61.69041709 215.39174038 66.45034814 215.40471697 C71.42585157 215.42034452 76.40129451 215.44713595 81.37675476 215.4727478 C90.79721281 215.51954221 100.21768222 215.55628314 109.63819712 215.58942068 C120.36366029 215.62763736 131.08906273 215.67704872 141.8144747 215.72740483 C163.87627162 215.83073455 185.93810699 215.9199916 208 216 C208 220.29 208 224.58 208 229 C182.71336031 229.09346017 157.42674652 229.16398754 132.13996887 229.20724869 C120.39875513 229.2278699 108.65764874 229.25598221 96.91650391 229.30175781 C86.68237994 229.34163891 76.44833373 229.36743602 66.21413422 229.37635398 C60.79567337 229.38156653 55.37743494 229.39380901 49.95904541 229.42292023 C44.85699522 229.45010926 39.75525868 229.45843786 34.65314293 229.45243073 C32.78269432 229.45352939 30.91223501 229.46146241 29.04184914 229.4768219 C26.48251409 229.49680464 23.92435403 229.4919094 21.36499023 229.48101807 C20.62955805 229.49266943 19.89412586 229.5043208 19.13640785 229.51632524 C13.7949276 229.45513254 9.38370629 228.13671785 5 225 C3.24355895 222.73418879 2.21937023 220.63383969 1 218 C0.67 217.34 0.34 216.68 0 216 C-0.09592925 213.17824423 -0.13010321 210.3812513 -0.12025452 207.55929565 C-0.12110894 206.67553949 -0.12196337 205.79178334 -0.12284368 204.88124669 C-0.12449855 201.90241896 -0.11897698 198.92364681 -0.11352539 195.94482422 C-0.11324349 193.81647747 -0.1134013 191.68813063 -0.1139679 189.55978394 C-0.11425578 183.76669023 -0.10836057 177.97361708 -0.10139394 172.18052816 C-0.09515883 166.1320007 -0.09455648 160.08347281 -0.09336853 154.03494263 C-0.09025568 142.57439765 -0.08204291 131.11386217 -0.07201904 119.65332139 C-0.06085647 106.60878443 -0.05534709 93.56424703 -0.05032361 80.51970649 C-0.03986026 53.67979905 -0.02226171 26.83990006 0 0 Z " fill="#FED166" transform="translate(108,99)"/>
<path d="M0 0 C32.34 0 64.68 0 98 0 C98 4.95 98 9.9 98 15 C96.02 15.99 94.04 16.98 92 18 C90.82613106 20.34773788 90.87526298 21.77963392 90.859375 24.39453125 C90.83037109 25.70454102 90.83037109 25.70454102 90.80078125 27.04101562 C90.76714579 28.8767355 90.74871477 30.712802 90.74609375 32.54882812 C90.70935547 33.86463867 90.70935547 33.86463867 90.671875 35.20703125 C90.6625293 36.0060083 90.65318359 36.80498535 90.64355469 37.62817383 C89.662651 41.24330257 87.90583419 42.67445862 85 45 C82.01199498 45.469308 79.60728464 45.63653116 76.62963867 45.56762695 C75.79985504 45.56835709 74.97007141 45.56908722 74.11514282 45.56983948 C71.38207827 45.56636581 68.65073422 45.5275166 65.91796875 45.48828125 C64.01940339 45.4789523 62.12082597 45.47183658 60.22224426 45.46684265 C55.23245843 45.44777927 50.24340378 45.39868403 45.25390625 45.34332275 C39.26347208 45.2831084 33.27279302 45.2602109 27.28214264 45.23105621 C18.18758703 45.18261873 9.09463478 45.08679927 0 45 C0 30.15 0 15.3 0 0 Z " fill="#A2ABB8" transform="translate(331,422)"/>
<path d="M0 0 C22.11 0 44.22 0 67 0 C67 23.93580797 67 23.93580797 62.18511963 28.85371399 C59.32722473 30.35292937 57.26123225 30.36089012 54.03808594 30.34057617 C52.83714294 30.34034958 51.63619995 30.34012299 50.39886475 30.33988953 C49.10708313 30.32440567 47.81530151 30.30892181 46.484375 30.29296875 C45.14488195 30.28737052 43.80538274 30.28310149 42.46588135 30.28010559 C38.94762079 30.26867454 35.42973429 30.23922294 31.91162109 30.20599365 C28.31873729 30.1752549 24.725791 30.16142759 21.1328125 30.14648438 C14.08821177 30.1159442 7.04463698 30.05722178 0 30 C0 20.1 0 10.2 0 0 Z " fill="#C8D2DC" transform="translate(331,315)"/>
<path d="M0 0 C18.81 0 37.62 0 57 0 C57 5.61 57 11.22 57 17 C52 22 52 22 49.42460632 22.60127258 C48.51193497 22.59016953 47.59926361 22.57906647 46.65893555 22.56762695 C45.6182341 22.5672493 44.57753265 22.56687164 43.5052948 22.56648254 C42.3936647 22.54067612 41.28203461 22.51486969 40.13671875 22.48828125 C38.41603935 22.47766914 38.41603935 22.47766914 36.66059875 22.46684265 C33.00223162 22.43888813 29.34540337 22.37614286 25.6875 22.3125 C23.20510025 22.28741872 20.72267648 22.26460526 18.24023438 22.24414062 C12.15956468 22.18905716 6.08004311 22.10277287 0 22 C0 14.74 0 7.48 0 0 Z " fill="#C7D1DB" transform="translate(364,445)"/>
<path d="M0 0 C2.31 0 4.62 0 7 0 C7 21.78 7 43.56 7 66 C2.38 66 -2.24 66 -7 66 C-7.13501894 63.56065775 -7.23403897 61.12875896 -7.3125 58.6875 C-7.35439453 57.99720703 -7.39628906 57.30691406 -7.43945312 56.59570312 C-7.48828125 54.57421875 -7.48828125 54.57421875 -7 51 C-4.54296875 49.14453125 -4.54296875 49.14453125 -2 48 C-0.82440785 45.6488157 -0.84483537 44.17282086 -0.79467773 41.55029297 C-0.77473251 40.62948944 -0.75478729 39.70868591 -0.73423767 38.75997925 C-0.70916893 37.26617233 -0.70916893 37.26617233 -0.68359375 35.7421875 C-0.66281265 34.72399933 -0.64203156 33.70581116 -0.62062073 32.6567688 C-0.55510534 29.39624945 -0.49623098 26.13564794 -0.4375 22.875 C-0.39431668 20.66796017 -0.35070245 18.46092872 -0.30664062 16.25390625 C-0.19942195 10.83602499 -0.09765926 5.41806154 0 0 Z " fill="#C7D1DB" transform="translate(391,54)"/>
<path d="M0 0 C1.4025 0.144375 2.805 0.28875 4.25 0.4375 C5.43335938 0.55931641 5.43335938 0.55931641 6.640625 0.68359375 C9 1 9 1 10.78515625 1.5234375 C14.22757062 2.26413336 17.68236841 2.19054662 21.1875 2.1875 C21.94836914 2.18814453 22.70923828 2.18878906 23.49316406 2.18945312 C28.93826599 2.13823797 33.72629588 1.4063211 39 0 C42.0625 -0.125 42.0625 -0.125 44 0 C45.32 2.97 46.64 5.94 48 9 C46.44148245 9.82011312 44.87798284 10.63076213 43.3125 11.4375 C42.00732422 12.11619141 42.00732422 12.11619141 40.67578125 12.80859375 C29.41719289 17.82154185 12.23022893 16.26332765 1 12 C-0.216875 11.608125 -1.43375 11.21625 -2.6875 10.8125 C-3.450625 10.544375 -4.21375 10.27625 -5 10 C-3.35 6.7 -1.7 3.4 0 0 Z " fill="#487EA9" transform="translate(234,185)"/>
<path d="M0 0 C3.96 0 7.92 0 12 0 C12 15.51 12 31.02 12 47 C8.04 47 4.08 47 0 47 C0 31.49 0 15.98 0 0 Z " fill="#C8D2DC" transform="translate(331,360)"/>
<path d="M0 0 C2.31 0 4.62 0 7 0 C7 9.9 7 19.8 7 30 C4.36 30 1.72 30 -1 30 C-0.67 20.1 -0.34 10.2 0 0 Z " fill="#C7D1DB" transform="translate(391,270)"/>
<path d="M0 0 C2.31 0 4.62 0 7 0 C7 9.9 7 19.8 7 30 C4.69 30 2.38 30 0 30 C0 20.1 0 10.2 0 0 Z " fill="#C8D2DC" transform="translate(391,225)"/>
<path d="M0 0 C2.31 0 4.62 0 7 0 C7 9.9 7 19.8 7 30 C4.69 30 2.38 30 0 30 C0 20.1 0 10.2 0 0 Z " fill="#C8D2DC" transform="translate(391,180)"/>
<path d="M0 0 C2.31 0 4.62 0 7 0 C7 9.9 7 19.8 7 30 C4.69 30 2.38 30 0 30 C0 20.1 0 10.2 0 0 Z " fill="#C8D2DC" transform="translate(391,135)"/>
</svg>
